<?xml version="1.0" encoding="UTF-8" standalone="no"?>
<!-- Generator: Adobe Illustrator 19.0.1, SVG Export Plug-In . SVG Version: 6.00 Build 0)  -->

<svg
   xmlns:dc="http://purl.org/dc/elements/1.1/"
   xmlns:cc="http://creativecommons.org/ns#"
   xmlns:rdf="http://www.w3.org/1999/02/22-rdf-syntax-ns#"
   xmlns:svg="http://www.w3.org/2000/svg"
   xmlns="http://www.w3.org/2000/svg"
   xmlns:sodipodi="http://sodipodi.sourceforge.net/DTD/sodipodi-0.dtd"
   xmlns:inkscape="http://www.inkscape.org/namespaces/inkscape"
   version="1.1"
   id="Layer_1"
   x="0px"
   y="0px"
   viewBox="0 0 1177.9501 506.42035"
   xml:space="preserve"
   inkscape:version="0.91 r13725"
   sodipodi:docname="Vector Smart Object31.svg"
   width="1177.9501"
   height="506.42035"><metadata
     id="metadata101"><rdf:RDF><cc:Work
         rdf:about=""><dc:format>image/svg+xml</dc:format><dc:type
           rdf:resource="http://purl.org/dc/dcmitype/StillImage" /><dc:title></dc:title></cc:Work></rdf:RDF></metadata><defs
     id="defs99" /><sodipodi:namedview
     pagecolor="#ffffff"
     bordercolor="#666666"
     borderopacity="1"
     objecttolerance="10"
     gridtolerance="10"
     guidetolerance="10"
     inkscape:pageopacity="0"
     inkscape:pageshadow="2"
     inkscape:window-width="1366"
     inkscape:window-height="705"
     id="namedview97"
     showgrid="false"
     fit-margin-top="0"
     fit-margin-left="0"
     fit-margin-right="0"
     fit-margin-bottom="0"
     inkscape:zoom="0.236"
     inkscape:cx="641.75005"
     inkscape:cy="143.07035"
     inkscape:window-x="-8"
     inkscape:window-y="-8"
     inkscape:window-maximized="1"
     inkscape:current-layer="Layer_1" /><style
     type="text/css"
     id="style3">
	.st0{fill:#A780BA;}
	.st1{fill:#F1594D;}
	.st2{fill:none;stroke:#383C3D;stroke-width:11.3386;stroke-miterlimit:10;}
	.st3{fill:#73CFF3;}
	.st4{fill:none;stroke:#FFFFFF;stroke-width:11.3386;stroke-linecap:round;stroke-miterlimit:10;}
	.st5{fill:#FFFFFF;stroke:#383C3D;stroke-width:11.3386;stroke-miterlimit:10;}
	.st6{fill:none;stroke:#383C3D;stroke-width:11.339;stroke-linecap:round;stroke-miterlimit:10;}
	.st7{fill:#383C3D;}
	.st8{fill:none;stroke:#383C3D;stroke-width:8;stroke-linecap:round;stroke-miterlimit:10;}
	.st9{fill:#1362AC;}
	.st10{fill:none;stroke:#1362AC;stroke-width:11.3386;stroke-linecap:round;stroke-miterlimit:10;}
	.st11{fill:#73CFF3;stroke:#383C3D;stroke-width:7;stroke-linecap:round;stroke-linejoin:round;stroke-miterlimit:10;}
	.st12{fill:none;stroke:#1362AC;stroke-width:11.3386;stroke-linecap:round;stroke-linejoin:round;stroke-miterlimit:10;}
</style><path
     class="st0"
     d="m 964.15005,305.25 0,6.3 c 0,6.4 -4.6,11.8 -10.9,12.9 l -16.2,2.7 -0.6,0 0,36.1 c 0,7.2 -5.8,13.1 -13.1,13.1 l -19.5,0 c -7.2,0 -13.1,-5.8 -13.1,-13.1 l 0,-23 c 0,-7.2 -5.8,-13.1 -13.1,-13.1 l -75.2,0 c -9.7,0 -17,-3.8 -21.8,-11.3 -4.8,-7.5 -5.4,-15.8 -1.8,-24.9 l 54.5,-129.7 c 2,-4.8 6.8,-8 12,-8 l 18.4,0 c 9.3,0 15.6,9.4 12.1,18 l -45.6,110.3 c -1.5,3.7 -1.6,6.4 -0.3,8.1 1.3,1.7 3.6,2.6 6.8,2.6 l 41,0 c 7.2,0 13.1,-5.8 13.1,-13.1 l 0,-45.6 c 0,-1 0.1,-1.9 0.3,-2.9 l 5.4,-24 c 1.4,-5.9 6.6,-10.2 12.7,-10.2 l 14,0 c 7.2,0 13.1,5.8 13.1,13.1 l 0,69.6 c 0,7.2 5.8,13.1 13.1,13.1 l 1.7,0 c 7.2,0 13,5.8 13,13 z"
     id="path5"
     inkscape:connector-curvature="0"
     style="fill:#a780ba" /><path
     class="st0"
     d="m 555.35005,305.25 0,6.4 c 0,6.4 -4.6,11.8 -10.9,12.8 l -16.3,2.7 -0.6,0 0,36.1 c 0,7.2 -5.8,13 -13,13 l -19.6,0 c -7.2,0 -13,-5.8 -13,-13 l 0,-23.1 c 0,-7.2 -5.8,-13 -13,-13 l -75.2,0 c -9.7,0 -17,-3.8 -21.8,-11.3 -4.8,-7.5 -5.4,-15.8 -1.8,-24.9 l 54.5,-129.7 c 2,-4.8 6.8,-8 12,-8 l 18.5,0 c 9.3,0 15.6,9.4 12,18 l -45.6,110.4 c -1.5,3.7 -1.6,6.4 -0.3,8.1 1.3,1.7 3.6,2.6 6.8,2.6 l 41,0 c 7.2,0 13,-5.8 13,-13 l 0,-45.7 c 0,-1 0.1,-1.9 0.3,-2.9 l 5.5,-24 c 1.3,-5.9 6.6,-10.1 12.7,-10.1 l 14.1,0 c 7.2,0 13,5.8 13,13 l 0,69.7 c 0,7.2 5.8,13 13,13 l 1.8,0 c 7,-0.1 12.9,5.7 12.9,12.9 z"
     id="path7"
     inkscape:connector-curvature="0"
     style="fill:#a780ba" /><path
     class="st1"
     d="m 481.15005,494.75 -23.7,-18.7 c -3.7,-2.9 -4.4,-8.4 -1.4,-12.1 l 79.7,-101.3 c 2.9,-3.7 8.4,-4.4 12.1,-1.4 l 23.7,18.7 c 3.7,2.9 4.4,8.4 1.4,12.1 l -79.7,101.3 c -2.9,3.7 -8.4,4.3 -12.1,1.4 z"
     id="path9"
     inkscape:connector-curvature="0"
     style="fill:#f1594d" /><path
     class="st2"
     d="m 481.75005,498.95 -28.6,-22.5 c -3.7,-2.9 -4.4,-8.4 -1.4,-12.1 l 82.9,-105.4 c 2.9,-3.7 8.4,-4.4 12.1,-1.4 l 28.6,22.5 c 3.7,2.9 4.4,8.4 1.4,12.1 l -82.9,105.4 c -2.9,3.7 -8.3,4.3 -12.1,1.4 z"
     id="path11"
     inkscape:connector-curvature="0"
     style="fill:none;stroke:#383c3d;stroke-width:11.33860016;stroke-miterlimit:10" /><path
     class="st3"
     d="m 763.05005,243.95 c -1.8,53.4 -22.3,106.3 -83.1,113.6 -25.9,3.1 -48,7.2 -68.5,-5.5 -27.7,-17.1 -47.6,-46.3 -51.8,-81.1 -7.3,-60.8 36.1,-115.9 96.9,-123.2 32.5,-3.9 63.3,6.7 86.1,26.7 19.8,17.3 21.3,41 20.4,69.5 z"
     id="path13"
     inkscape:connector-curvature="0"
     style="fill:#73cff3" /><path
     class="st4"
     d="m 596.95005,254.55 c -3.9,-32.9 19.5,-62.7 52.4,-66.7"
     id="path15"
     inkscape:connector-curvature="0"
     style="fill:none;stroke:#ffffff;stroke-width:11.33860016;stroke-linecap:round;stroke-miterlimit:10" /><polyline
     class="st5"
     points="455.7,480 429.5,513.4 409.1,497.4 435.4,464 "
     id="polyline17"
     style="fill:#ffffff;stroke:#383c3d;stroke-width:11.33860016;stroke-miterlimit:10"
     transform="translate(141.75005,-136.65)" /><path
     class="st6"
     d="m 724.65005,337.05 c -39.9,30.3 -96.6,31.2 -137.8,-1.2 -48.9,-38.5 -57.4,-109.3 -18.9,-158.2 38.5,-48.9 109.3,-57.4 158.2,-18.9 41.2,32.4 53.7,87.8 33.6,133.7"
     id="path19"
     inkscape:connector-curvature="0"
     style="fill:none;stroke:#383c3d;stroke-width:11.33899975;stroke-linecap:round;stroke-miterlimit:10" /><circle
     class="st7"
     cx="746.05005"
     cy="317.64999"
     r="6.6999998"
     id="circle21"
     style="fill:#383c3d" /><circle
     class="st7"
     cx="390.45004"
     cy="207.05002"
     r="5.6999998"
     id="circle23"
     style="fill:#383c3d" /><path
     class="st8"
     d="m 396.65005,191.85 17.9,-42.7 c 2,-4.8 6.8,-8 12,-8 l 18.5,0 c 9.3,0 15.6,9.4 12,18 l -45.6,110.4 c -1.5,3.7 -1.6,6.4 -0.3,8.1 1.3,1.7 3.6,2.6 6.8,2.6 l 41,0 c 7.2,0 13,-5.8 13,-13 l 0,-45.7 c 0,-1 0.1,-1.9 0.3,-2.9 l 5.5,-24 c 1.3,-5.9 6.6,-10.1 12.7,-10.1 l 14.1,0 c 7.2,0 13,5.8 13,13 l 0,69.7 c 0,7.2 5.8,13 13,13 l 1.8,0 c 7.2,0 13,5.8 13,13 l 0,6.4 c 0,6.4 -4.6,11.8 -10.9,12.8 l -16.3,2.7 -0.6,0 0,36.1 c 0,7.2 -5.8,13 -13,13 l -19.6,0 c -7.2,0 -13,-5.8 -13,-13 l 0,-23.1 c 0,-7.2 -5.8,-13 -13,-13 l -75.2,0 c -9.7,0 -17,-3.8 -21.8,-11.3 -4.8,-7.5 -5.4,-15.8 -1.8,-24.9 l 24.3,-57.8"
     id="path25"
     inkscape:connector-curvature="0"
     style="fill:none;stroke:#383c3d;stroke-width:8;stroke-linecap:round;stroke-miterlimit:10" /><path
     class="st8"
     d="m 926.45005,252.75 0,14.5 c 0,7.2 5.8,13 13,13 l 1.8,0 c 7.2,0 13,5.8 13,13 l 0,6.4 c 0,6.4 -4.6,11.8 -10.9,12.8 l -16.3,2.7 -0.6,0 0,36.1 c 0,7.2 -5.8,13 -13,13 l -19.6,0 c -7.2,0 -13,-5.8 -13,-13 l 0,-23.1 c 0,-7.2 -5.8,-13 -13,-13 l -55.8,0 m 0,0 -19.5,0 c -9.7,0 -17,-3.8 -21.8,-11.3 -4.8,-7.5 -5.4,-15.8 -1.8,-24.9 l 54.5,-129.7 c 2,-4.8 6.8,-8 12,-8 l 18.5,0 c 9.3,0 15.6,9.4 12,18 l -45.6,110.4 c -1.5,3.7 -1.6,6.4 -0.3,8.1 1.3,1.7 3.6,2.6 6.8,2.6 l 41,0 c 7.2,0 13,-5.8 13,-13 l 0,-45.7 c 0,-1 0.1,-1.9 0.3,-2.9 l 5.5,-24 c 1.3,-5.9 6.6,-10.1 12.7,-10.1 l 14.1,0 c 7.2,0 13,5.8 13,13 l 0,17.5"
     id="path27"
     inkscape:connector-curvature="0"
     style="fill:none;stroke:#383c3d;stroke-width:8;stroke-linecap:round;stroke-miterlimit:10" /><circle
     class="st7"
     cx="926.45007"
     cy="234.55002"
     r="5.6999998"
     id="circle29"
     style="fill:#383c3d" /><g
     id="g31"
     transform="translate(141.75005,-136.65)"><path
       class="st9"
       d="m 340.3,163.4 -142.9,0 c -3.1,0 -5.7,-2.5 -5.7,-5.7 0,-3.2 2.5,-5.7 5.7,-5.7 l 142.9,0 c 3.1,0 5.7,2.5 5.7,5.7 0,3.2 -2.5,5.7 -5.7,5.7 z"
       id="path33"
       inkscape:connector-curvature="0"
       style="fill:#1362ac" /></g><g
     id="g35"
     transform="translate(141.75005,-136.65)"><path
       class="st9"
       d="m 502.6,163.4 -37.5,0 c -3.1,0 -5.7,-2.5 -5.7,-5.7 0,-3.2 2.5,-5.7 5.7,-5.7 l 37.5,0 c 3.1,0 5.7,2.5 5.7,5.7 0,3.2 -2.6,5.7 -5.7,5.7 z"
       id="path37"
       inkscape:connector-curvature="0"
       style="fill:#1362ac" /></g><g
     id="g39"
     transform="translate(141.75005,-136.65)"><path
       class="st9"
       d="m 402.8,178.8 c -1.5,0 -2.9,-0.6 -4,-1.7 l -15.4,-15.4 c -1.1,-1.1 -1.7,-2.5 -1.7,-4 0,-1.5 0.6,-2.9 1.7,-4 l 15.4,-15.4 c 2.2,-2.2 5.8,-2.2 8,0 l 15.4,15.4 c 1.1,1.1 1.7,2.5 1.7,4 0,1.5 -0.6,2.9 -1.7,4 l -15.4,15.4 c -1.1,1.2 -2.6,1.7 -4,1.7 z m -7.4,-21 7.4,7.4 7.4,-7.4 -7.4,-7.4 -7.4,7.4 z"
       id="path41"
       inkscape:connector-curvature="0"
       style="fill:#1362ac" /></g><g
     id="g43"
     transform="translate(141.75005,-136.65)"><g
       id="g45"><path
         class="st9"
         d="m 827,163.4 -29.1,0 c -3.1,0 -5.7,-2.5 -5.7,-5.7 0,-3.2 2.5,-5.7 5.7,-5.7 l 29.1,0 c 3.1,0 5.7,2.5 5.7,5.7 0,3.2 -2.6,5.7 -5.7,5.7 z"
         id="path47"
         inkscape:connector-curvature="0"
         style="fill:#1362ac" /></g><g
       id="g49"><path
         class="st9"
         d="m 812.5,178 c -3.1,0 -5.7,-2.5 -5.7,-5.7 l 0,-29.1 c 0,-3.1 2.5,-5.7 5.7,-5.7 3.2,0 5.7,2.5 5.7,5.7 l 0,29.1 c -0.1,3.1 -2.6,5.7 -5.7,5.7 z"
         id="path51"
         inkscape:connector-curvature="0"
         style="fill:#1362ac" /></g></g><line
     class="st10"
     x1="785.85004"
     y1="21.35"
     x2="887.15009"
     y2="21.35"
     id="line53"
     style="fill:none;stroke:#1362ac;stroke-width:11.33860016;stroke-linecap:round;stroke-miterlimit:10" /><g
     id="g55"
     transform="translate(141.75005,-136.65)"><path
       class="st11"
       d="m 148.5,586.7 50.5,0 c 0.5,0.1 1.1,0.1 1.6,0.1 8.5,0 15.4,-6.9 15.4,-15.4 0,-8.5 -6.9,-15.4 -15.4,-15.4 l 0,0 -54.6,0 c -5.9,-0.1 -10.7,-4.9 -10.7,-10.8 0,-6 4.8,-10.8 10.8,-10.8 l 0.3,0 c 6.7,0 12.2,-5.4 12.2,-12.2 0,-6.7 -5.4,-12.2 -12.2,-12.2 L 83,510 c -6.7,0 -12.2,5.4 -12.2,12.2 0,6.7 5.4,12.2 12.2,12.2 l 9.3,0 c 6,0 10.8,4.8 10.8,10.8 0,5.9 -4.8,10.7 -10.7,10.8 l -27.2,0 0,0.1 c -8.5,0 -15.4,6.9 -15.4,15.4 0,8.5 6.9,15.4 15.4,15.4 0.5,0 1.1,0 1.6,-0.1 l 43.5,0"
       id="path57"
       inkscape:connector-curvature="0"
       style="fill:#73cff3;stroke:#383c3d;stroke-width:7;stroke-linecap:round;stroke-linejoin:round;stroke-miterlimit:10" /><circle
       class="st7"
       cx="129.39999"
       cy="586.90002"
       r="5.4000001"
       id="circle59"
       style="fill:#383c3d" /></g><g
     id="g61"
     transform="translate(141.75005,-136.65)"><line
       class="st10"
       x1="-136"
       y1="388.89999"
       x2="-62.599998"
       y2="388.89999"
       id="line63"
       style="fill:none;stroke:#1362ac;stroke-width:11.33860016;stroke-linecap:round;stroke-miterlimit:10" /><rect
       x="-11.1"
       y="378"
       transform="matrix(0.7071,0.7071,-0.7071,0.7071,274.9689,114.0354)"
       class="st12"
       width="21.799999"
       height="21.799999"
       id="rect65"
       style="fill:none;stroke:#1362ac;stroke-width:11.33860016;stroke-linecap:round;stroke-linejoin:round;stroke-miterlimit:10" /></g><line
     class="st10"
     x1="158.25005"
     y1="108.35"
     x2="193.15004"
     y2="108.35"
     id="line67"
     style="fill:none;stroke:#1362ac;stroke-width:11.33860016;stroke-linecap:round;stroke-miterlimit:10" /><rect
     x="246.49667"
     y="-115.04409"
     transform="matrix(0.70710678,0.70710678,-0.70710678,0.70710678,0,0)"
     class="st12"
     width="21.799789"
     height="21.799789"
     id="rect69"
     style="fill:none;stroke:#1362ac;stroke-width:11.33860016;stroke-linecap:round;stroke-linejoin:round;stroke-miterlimit:10" /><g
     id="g71"
     transform="translate(141.75005,-136.65)"><path
       class="st11"
       d="m 894,286.9 -50.5,0 c -0.5,0.1 -1.1,0.1 -1.6,0.1 -8.5,0 -15.4,-6.9 -15.4,-15.4 0,-8.5 6.9,-15.4 15.4,-15.4 l 0,-0.1 54.6,0 c 5.9,-0.1 10.7,-4.9 10.7,-10.8 0,-6 -4.8,-10.8 -10.8,-10.8 l -0.3,0 c -6.7,0 -12.2,-5.4 -12.2,-12.2 0,-6.7 5.4,-12.2 12.2,-12.2 l 63.4,0 c 6.7,0 12.2,5.4 12.2,12.2 0,6.7 -5.4,12.2 -12.2,12.2 l -9.3,0 c -6,0 -10.8,4.8 -10.8,10.8 0,5.9 4.8,10.7 10.7,10.8 l 27.2,0 0,0.1 c 8.5,0 15.4,6.9 15.4,15.4 0,8.5 -6.9,15.4 -15.4,15.4 -0.5,0 -1.1,0 -1.6,-0.1 l -43.5,0"
       id="path73"
       inkscape:connector-curvature="0"
       style="fill:#73cff3;stroke:#383c3d;stroke-width:7;stroke-linecap:round;stroke-linejoin:round;stroke-miterlimit:10" /><circle
       class="st7"
       cx="913.09998"
       cy="287"
       r="5.4000001"
       id="circle75"
       style="fill:#383c3d" /></g><g
     id="g77"
     transform="translate(141.75005,-136.65)"><path
       class="st11"
       d="m 934,586.7 -50.5,0 c -0.5,0.1 -1.1,0.1 -1.6,0.1 -8.5,0 -15.4,-6.9 -15.4,-15.4 0,-8.5 6.9,-15.4 15.4,-15.4 l 0,0 54.6,0 c 5.9,-0.1 10.7,-4.9 10.7,-10.8 0,-6 -4.8,-10.8 -10.8,-10.8 l -0.3,0 c -6.7,0 -12.2,-5.4 -12.2,-12.2 0,-6.7 5.4,-12.2 12.2,-12.2 l 63.4,0 c 6.7,0 12.2,5.4 12.2,12.2 0,6.7 -5.4,12.2 -12.2,12.2 l -9.3,0 c -6,0 -10.8,4.8 -10.8,10.8 0,5.9 4.8,10.7 10.7,10.8 l 27.2,0 0,0.1 c 8.5,0 15.4,6.9 15.4,15.4 0,8.5 -6.9,15.4 -15.4,15.4 -0.5,0 -1.1,0 -1.6,-0.1 l -43.5,0"
       id="path79"
       inkscape:connector-curvature="0"
       style="fill:#73cff3;stroke:#383c3d;stroke-width:7;stroke-linecap:round;stroke-linejoin:round;stroke-miterlimit:10" /><circle
       class="st7"
       cx="953.09998"
       cy="586.90002"
       r="5.4000001"
       id="circle81"
       style="fill:#383c3d" /></g><line
     class="st10"
     x1="825.05005"
     y1="444.85001"
     x2="926.45007"
     y2="444.85001"
     id="line83"
     style="fill:none;stroke:#1362ac;stroke-width:11.33860016;stroke-linecap:round;stroke-miterlimit:10" /><circle
     class="st9"
     cx="776.75006"
     cy="444.85001"
     r="5.3000002"
     id="circle85"
     style="fill:#1362ac" /><g
     id="g87"
     transform="translate(141.75005,-136.65)"><g
       id="g89"><path
         class="st9"
         d="m 636,587.2 -29.1,0 c -3.1,0 -5.7,-2.5 -5.7,-5.7 0,-3.2 2.5,-5.7 5.7,-5.7 l 29.1,0 c 3.1,0 5.7,2.5 5.7,5.7 0,3.2 -2.5,5.7 -5.7,5.7 z"
         id="path91"
         inkscape:connector-curvature="0"
         style="fill:#1362ac" /></g><g
       id="g93"><path
         class="st9"
         d="m 621.5,601.7 c -3.1,0 -5.7,-2.5 -5.7,-5.7 l 0,-29 c 0,-3.1 2.5,-5.7 5.7,-5.7 3.2,0 5.7,2.5 5.7,5.7 l 0,29 c 0,3.2 -2.6,5.7 -5.7,5.7 z"
         id="path95"
         inkscape:connector-curvature="0"
         style="fill:#1362ac" /></g></g></svg>