<svg xmlns="http://www.w3.org/2000/svg" viewBox="0 0 103.53783 102.2" width="103.538" height="102.2" id="svg"><g transform="translate(-53.862 -50.9)"><path fill="#fabf2c" d="M81.16 57.882l26.233 26.234-18.03 18.03-26.234-26.233zM123.7 100.4l30.3 30.3-18.5 19.7-31.1-31.1"/><path d="M128.8 66.5L141.3 79l-3.5 3.5L125.2 70zm9.1-9.7c2-2 5.2-2 7.2 0l5.9 5.9c2 2 2 5.2 0 7.2l-6.4 6.4-13.1-13.1zM60.2 72.2L76.5 56l10.9 10.9-4.7 4.7c-.8.8-.8 2.2 0 3 .4.4 1 .6 1.5.6s1.1-.2 1.5-.6l4.7-4.7 6 6-4.7 4.7c-.8.8-.8 2.2 0 3 .4.4 1 .6 1.5.6s1.1-.2 1.5-.6l4.7-4.7 5.2 5.2-16.3 16.3zm61.8.6l13.1 13.1-12.8 12.8L103 118l-22.2 22.2-13.1-13.1zM65.5 131l11.3 11.3-17.2 5.2zm49.5-4l-7.5-7.5 16.3-16.3 5.3 5.3-4.6 4.6c-.8.8-.9 2.1-.2 3 .4.5 1 .7 1.6.7.5 0 1.1-.2 1.5-.6l4.7-4.7 6 6-4.6 4.6c-.8.8-.9 2.1-.2 3 .4.5 1 .7 1.6.7.5 0 1.1-.2 1.5-.6l4.7-4.7 11.2 11.2L136 148l-6.6-6.6c-.8-.8-2-.8-2.9-.1-1 .8-1 2.3-.1 3.1l8.1 8.1c.4.4 1 .6 1.5.6s1.1-.2 1.5-.6l19.3-19.3c.8-.8.8-2.2 0-3L142.5 116l-15.8-15.8L154 72.9c3.7-3.7 3.7-9.6 0-13.2l-5.9-5.9c-3.7-3.7-9.6-3.6-13.2 0l-27.3 27.3L78 51.5c-.8-.8-2.2-.8-3 0L55.7 70.7c-.8.8-.8 2.2 0 3l29.6 29.6-22.2 22.2c-.1.1-.1.1-.1.2s-.1.1-.1.2-.1.1-.1.2-.1.1-.1.2L54 150c-.3.8-.1 1.6.5 2.2.4.4 1 .7 1.5.7.2 0 .4 0 .6-.1l24.7-7.5h.1c.1 0 .1-.1.2-.1s.1-.1.2-.1.1-.1.2-.1.1-.1.2-.1l.1-.1 22.2-22.2 7.5 7.5c.8.8 2.1.8 2.9.1.9-1 .9-2.4.1-3.2z" fill="#373b3c"/><circle cx="120.7" cy="135.8" r="2.3" fill="#373b3c"/></g></svg>