<svg xmlns="http://www.w3.org/2000/svg" viewBox="111 168.6 834.9 456.4">
  <path fill="#B3B1B1" d="M467.1 508.5l-11 19.4-160.9 1.1-15.9-87h205.9l-11.1 45.1"/>
  <path fill="#373B3C" d="M466.6 563.6H321.1c-13.8 0-25.8-9.8-28.4-23.4l-7.3-36.8c-.6-3.1 1.4-6.1 4.5-6.7 3.1-.6 6.1 1.4 6.7 4.5l7.3 36.8c1.6 8.2 8.9 14.2 17.3 14.2h145.5c3.1 0 5.7 2.5 5.7 5.7s-2.7 5.7-5.8 5.7zM281 457.8c-2.7 0-5-1.9-5.6-4.6l-11.3-57.3c-1.7-8.6-9.3-14.8-18-14.8H200c-3.1 0-5.7-2.5-5.7-5.7s2.5-5.7 5.7-5.7h46.2c14.1 0 26.4 10.1 29.1 23.9l11.3 57.3c.6 3.1-1.4 6.1-4.5 6.7-.3.2-.7.2-1.1.2z"/>
  <path fill="#373B3C" d="M441.9 534.7H298.3c-3.1 0-5.7-2.5-5.7-5.7s2.5-5.7 5.7-5.7h142.9c1.8.1 17.4.2 20.3-15.9 0-.1 0-.2.1-.3l18.8-77.2H275.8l-.1-5.7h-.1l-5.7-.4c0-.2.4-5.3 6.1-5.3h211.6c1.7 0 3.4.8 4.5 2.2s1.5 3.2 1.1 4.8l-20.4 84c-3.8 20.1-21.1 25.2-30.9 25.2z"/>
  <g transform="translate(-1086 -302.9)">
    <circle cx="1522.2" cy="899.8" r="21.6" fill="#FF5749"/>
    <path fill="#373B3C" d="M1522.2 927.1c-15 0-27.3-12.2-27.3-27.3 0-15 12.2-27.3 27.3-27.3 15.1 0 27.3 12.2 27.3 27.3s-12.3 27.3-27.3 27.3zm0-43.2c-8.8 0-15.9 7.2-15.9 15.9 0 8.8 7.1 15.9 15.9 15.9s15.9-7.2 15.9-15.9c0-8.8-7.1-15.9-15.9-15.9z"/>
  </g>
  <g transform="translate(-1086 -302.9)">
    <circle cx="1405.9" cy="899.8" r="21.6" fill="#FF5749"/>
    <path fill="#373B3C" d="M1405.9 927.1c-15 0-27.3-12.2-27.3-27.3 0-15 12.2-27.3 27.3-27.3 15.1 0 27.3 12.2 27.3 27.3s-12.3 27.3-27.3 27.3zm0-43.2c-8.8 0-15.9 7.2-15.9 15.9 0 8.8 7.1 15.9 15.9 15.9s15.9-7.2 15.9-15.9c0-8.8-7.1-15.9-15.9-15.9z"/>
  </g>
  <circle cx="1371.2" cy="780" r="5.8" fill="#373B3C" transform="translate(-1086 -302.9)"/>
  <path fill="#373B3C" d="M808 392.9c-3.1 0-5.7-2.5-5.7-5.7v-60.4h-42.6c-3.1 0-5.7-2.5-5.7-5.7s2.5-5.7 5.7-5.7H808c3.1 0 5.7 2.5 5.7 5.7v66.1c0 3.2-2.5 5.7-5.7 5.7zM605.9 543.7h-80.5c-3.1 0-5.7-2.5-5.7-5.7 0-13.6-11-24.6-24.6-24.6H467c-3.1 0-5.7-2.5-5.7-5.7s2.5-5.7 5.7-5.7h28.1c17.9 0 32.8 13.1 35.5 30.3h70c2.7-17.1 17.6-30.3 35.5-30.3h166.2v-61.5c0-3.1 2.5-5.7 5.7-5.7s5.7 2.5 5.7 5.7v67.2c0 3.1-2.5 5.7-5.7 5.7H636.2c-13.6 0-24.6 11-24.6 24.6 0 3.2-2.5 5.7-5.7 5.7zM940.2 625H116.7c-3.1 0-5.7-2.5-5.7-5.7s2.5-5.7 5.7-5.7h823.5c3.1 0 5.7 2.5 5.7 5.7s-2.6 5.7-5.7 5.7z"/>
  <path fill="#FCC02D" d="M758.7 295.3l1.1 171h-143c-26.7 0-51.5 20.5-51.5 47.2 0-26.7-21.6-47.2-48.3-47.2H371.7l2.7-195.2 140.4.2c15 0 27.2 12.2 27.2 27.2v22.9h-36.1l58.9 66.2 59-66.4h-36.9v-22.9c0-15 12.2-27.2 27.2-27.2l85.3-1.5 25.2 23.2 34.1 2.5z"/>
  <path fill="#F3F0E9" d="M404.1 295.6h40.7v40.7h-40.7z"/>
  <path fill="#373B3C" d="M565.3 513c-3.1 0-5.7-2.5-5.7-5.7 0-26.1-23-35.3-42.7-35.3H371.6c-1.5 0-3-.6-4-1.7-1.1-1.1-1.7-2.5-1.6-4.1l2.7-213.2c0-3.1 2.6-5.6 5.7-5.6l140.4.2c18.1 0 32.8 14.7 32.8 32.8v39.4c0 3.1-2.5 5.7-5.7 5.7h-23.5l46.2 52 46.4-52.2h-24.2c-3.1 0-5.7-2.5-5.7-5.7v-39.4c0-18.1 14.7-32.8 32.8-32.8H690v11.3h-76c-11.9 0-21.5 9.6-21.5 21.5v33.7h31.2c2.2 0 4.3 1.3 5.2 3.3.9 2 .5 4.4-.9 6.1l-59 66.4c-1.1 1.2-2.6 1.9-4.2 1.9s-3.2-.7-4.2-1.9l-58.9-66.2c-1.5-1.7-1.8-4.1-.9-6.1s2.9-3.3 5.2-3.3h30.5v-33.7c0-11.9-9.6-21.5-21.5-21.5l-134.8-.2-2.6 201.9h139.5c22.8 0 40.3 9.3 48.6 24.6 3-4.9 7-9.3 12.2-13 10.3-7.5 24.2-11.6 39.1-11.6h137.3V289.3h11.3v177c0 3.1-2.5 5.7-5.7 5.7h-143c-22.1 0-45.9 11.1-45.9 35.3-.1 3.2-2.6 5.7-5.7 5.7z"/>
  <path fill="#373B3C" d="M444.8 341.7h-40.7c-3.1 0-5.7-2.5-5.7-5.7v-40.7c0-3.1 2.5-5.7 5.7-5.7h40.7c3.1 0 5.7 2.5 5.7 5.7V336c0 3.1-2.6 5.7-5.7 5.7zm-35-11.4h29.4v-29.4h-29.4v29.4zm79.8 54.1h-85.5c-3.1 0-5.7-2.5-5.7-5.7s2.5-5.7 5.7-5.7h85.5c3.1 0 5.7 2.5 5.7 5.7s-2.6 5.7-5.7 5.7zm0 43.8h-85.5c-3.1 0-5.7-2.5-5.7-5.7s2.5-5.7 5.7-5.7h85.5c3.1 0 5.7 2.5 5.7 5.7s-2.6 5.7-5.7 5.7zm233.3-43.8h-85.5c-3.1 0-5.7-2.5-5.7-5.7s2.5-5.7 5.7-5.7h85.5c3.1 0 5.7 2.5 5.7 5.7s-2.5 5.7-5.7 5.7zm0 43.8h-86c-3.1 0-5.7-2.5-5.7-5.7s2.5-5.7 5.7-5.7h86c3.1 0 5.7 2.5 5.7 5.7s-2.5 5.7-5.7 5.7z"/>
  <path fill="#71CFF4" d="M808 239.8c0 14.6-5 23-13.6 33.5-11.1 13.4-16.9 22-35.7 22-16.7 0-31.8 2.9-42.8-8.1-10.9-10.9-17.7-26.1-17.7-42.8 0-33.4 27.1-60.5 60.5-60.5s49.3 22.5 49.3 55.9z"/>
  <circle cx="1792.7" cy="492.4" r="7.4" fill="#373B3C" transform="translate(-1086 -302.9)"/>
  <circle cx="1651.7" cy="716.5" r="7.4" fill="#373B3C" transform="translate(-1086 -302.9)"/>
  <circle cx="1894.3" cy="715.7" r="7.4" fill="#373B3C" transform="translate(-1086 -302.9)"/>
  <path fill="#373B3C" d="M747.8 301c-36.5 0-66.2-29.7-66.2-66.2 0-9.4 1.9-18.4 5.7-26.9 1.3-2.9 4.6-4.1 7.5-2.9 2.9 1.3 4.1 4.6 2.9 7.5-3.1 7-4.7 14.5-4.7 22.3 0 30.2 24.6 54.8 54.8 54.8 30.2 0 54.8-24.6 54.8-54.8 0-4-.5-8.1-1.5-12.6-5.4-25-24.7-34.3-25.6-34.7-.1-.1-.3-.2-.5-.2-8.3-4.8-17.7-7.3-27.4-7.3-6.5 0-12.9 1.1-18.9 3.4-2.9 1.1-6.2-.4-7.3-3.4-1.1-2.9.4-6.2 3.4-7.3 7.3-2.7 15-4.1 22.9-4.1 11.5 0 22.9 3 32.8 8.7 2.9 1.4 25.3 13.1 31.6 42.5 1.2 5.3 1.7 10.2 1.7 15 .1 36.5-29.6 66.2-66 66.2z"/>
  <path fill="#FFF" d="M778.2 229.7l-16.4 11.9 6.3 19.3c.3 1 0 2.2-.9 2.8-.4.3-1 .5-1.5.5s-1-.2-1.5-.5l-16.4-11.9-16.4 11.9c-.9.6-2.1.6-3 0-.9-.6-1.3-1.8-.9-2.8l6.3-19.3-16.4-11.9c-.9-.6-1.3-1.8-.9-2.8.3-1 1.3-1.7 2.4-1.7h20.2l6.3-19.3c.3-1 1.3-1.7 2.4-1.7s2.1.7 2.4 1.7l6.3 19.3h20.3c1.1 0 2.1.7 2.4 1.7.2 1-.2 2.1-1 2.8z"/>
  <g fill="#0F60AC">
    <path d="M475.3 219.7H369.1c-3.1 0-5.7-2.5-5.7-5.7s2.5-5.7 5.7-5.7h106.2c3.1 0 5.7 2.5 5.7 5.7s-2.5 5.7-5.7 5.7zm-226.7 0H200c-3.1 0-5.7-2.5-5.7-5.7s2.5-5.7 5.7-5.7h48.6c3.1 0 5.7 2.5 5.7 5.7s-2.5 5.7-5.7 5.7zm70.2 9.9c-1.5 0-2.9-.6-4-1.7L294.9 208c-2.2-2.2-2.2-5.8 0-8s5.8-2.2 8 0l19.9 19.9c2.2 2.2 2.2 5.8 0 8-1.1 1.2-2.5 1.7-4 1.7z"/>
    <path d="M299 229.6c-1.5 0-2.9-.6-4-1.7-2.2-2.2-2.2-5.8 0-8l19.9-19.9c2.2-2.2 5.8-2.2 8 0s2.2 5.8 0 8L303 227.9c-1.1 1.2-2.6 1.7-4 1.7z"/>
  </g>
  <g fill="#0F60AC">
    <path d="M821.7 578.5h-28.1c-3.1 0-5.7-2.5-5.7-5.7s2.5-5.7 5.7-5.7h28.1c3.1 0 5.7 2.5 5.7 5.7s-2.6 5.7-5.7 5.7z"/>
    <path d="M807.7 592.5c-3.1 0-5.7-2.5-5.7-5.7v-28.1c0-3.1 2.5-5.7 5.7-5.7s5.7 2.5 5.7 5.7v28.1c-.1 3.2-2.6 5.7-5.7 5.7z"/>
  </g>
  <path fill="#373B3C" d="M565.3 507.9c-3.1 0-5.7-2.5-5.7-5.7v-62.4c0-3.1 2.5-5.7 5.7-5.7s5.7 2.5 5.7 5.7v62.4c-.1 3.1-2.6 5.7-5.7 5.7z"/>
  <path fill="#0F60AC" d="M308.9 312.5c-1.5 0-2.9-.6-4-1.7L290 295.9c-1.1-1.1-1.7-2.5-1.7-4s.6-2.9 1.7-4l14.9-14.9c1.1-1.1 2.5-1.7 4-1.7s2.9.6 4 1.7l14.9 14.9c2.2 2.2 2.2 5.8 0 8l-14.9 14.9c-1.1 1.2-2.5 1.7-4 1.7zM302 292l6.9 6.9 6.9-6.9-6.9-6.9-6.9 6.9zm445.3 286.5H610.9c-3.1 0-5.7-2.5-5.7-5.7s2.5-5.7 5.7-5.7h136.4c3.1 0 5.7 2.5 5.7 5.7s-2.5 5.7-5.7 5.7z"/>
</svg>
