<svg xmlns="http://www.w3.org/2000/svg" xmlns:xlink="http://www.w3.org/1999/xlink" viewBox="216 131.7 1043.5 530.3">
  <g transform="matrix(1.25 0 0 -1.25 0 530.34)">
    <defs>
      <path id="a" d="M68.5-158.4H1112v530.3H68.5z"/>
    </defs>
    <clipPath id="b">
      <use xlink:href="#a" overflow="visible"/>
    </clipPath>
    <g clip-path="url(#b)">
      <path fill="#B3B1B1" d="M374.7289-21.4537s72.5.3 73 0 1.2-49.8 1.2-49.8-12.7-18-13.8-18.4c-1.1-.5-18.6-3.1-18.6-3.1s-18.6 7.7-19 7.7c-.5 0-10.3 22.6-10.3 22.6l-.2 22.4-10.4 14.4-1.9 4.2z"/>
      <path fill="#373B3C" d="M690.2336-105.3h-270.8c-3.1 0-5.7 2.5-5.7 5.7 0 3.1 2.5 5.7 5.7 5.7h270.8c16.3 0 31.2 16.5 31.2 34.7V9.9c0 3.1 2.5 5.7 5.7 5.7s5.7-2.5 5.7-5.7v-69.2c-.1-24.5-19.9-46-42.6-46m36.8701 149.1895c-3.1 0-5.7 2.5-5.7 5.7v128c0 3.1 2.5 5.7 5.7 5.7s5.7-2.5 5.7-5.7v-128c0-3.2-2.6-5.7-5.7-5.7m-276.043-68.8692c-3.1 0-5.7 2.5-5.7 5.7v236.4c0 19.1 15.5 34.6 34.6 34.6h169.6c3.1 0 5.7-2.5 5.7-5.7s-2.5-5.7-5.7-5.7h-169.5c-12.8 0-23.3-10.4-23.3-23.3v-236.4c0-3.1-2.6-5.6-5.7-5.6"/>
      <path fill="#373B3C" d="M382.9064-24.9729c6.5-6.7 10.5-15.9 10.5-26v-13.5c0-14.3 11.7-26 26-26s26 11.7 26 26v39.5h-62.5zm36.5-76.8c-20.6 0-37.3 16.7-37.3 37.3v13.5c0 14.3-11.6 26-26 26-14.3 0-26-11.6-26-26v-13.5c0-20.6-16.7-37.3-37.3-37.3s-37.3 16.7-37.3 37.3c0 3.1 2.5 5.7 5.7 5.7s5.7-2.5 5.7-5.7c0-14.3 11.7-26 26-26s26 11.7 26 26v13.5c0 20.6 16.7 37.3 37.3 37.3h94.9c3.1 0 5.7-2.5 5.7-5.7v-45.2c-.1-20.5-16.8-37.2-37.4-37.2"/>
      <path fill="#FCC02D" d="M395.4628 25.8959h-111.9c-6.3 0-11.3-3.2-11.3 3.1v66.6c0 6.3 5.1 11.3 11.3 11.3h128.9c6.3 0-7.6-5-7.6-11.3l-.7-55.3c0-6.2-2.4-14.4-8.7-14.4"/>
      <path fill="#373B3C" d="M274.5158 120.1492c-8.6 0-15.6-7-15.6-15.6v-57.4c0-8.6 7-15.6 15.6-15.6h109.1c8.6 0 15.6 7 15.6 15.6v57.4c0 8.6-7 15.6-15.6 15.6h-109.1zm109.1-100h-109.1c-14.9 0-26.9 12.1-26.9 26.9v57.4c0 14.9 12.1 26.9 26.9 26.9h109.1c14.9 0 26.9-12.1 26.9-26.9v-57.4c0-14.8-12.1-26.9-26.9-26.9"/>
      <path fill="#373B3C" d="M329.049 62.6346c-1.1 0-2.2.3-3.1.9l-72.6 47.8c-2.6 1.7-3.3 5.2-1.6 7.9 1.7 2.6 5.2 3.3 7.9 1.6l69.4-45.7 69.4 45.7c2.6 1.7 6.1 1 7.9-1.6 1.7-2.6 1-6.1-1.6-7.9l-72.5-47.8c-1-.6-2.1-.9-3.2-.9"/>
      <path fill="#FF5749" d="M421.9934 121.6044c0-11.3-9.1-20.4-20.4-20.4s-20.4 9.1-20.4 20.4 9.1 20.4 20.4 20.4 20.4-9.2 20.4-20.4"/>
      <path fill="#373B3C" d="M401.5832 136.3455c-8.1 0-14.7-6.6-14.7-14.7s6.6-14.7 14.7-14.7 14.7 6.6 14.7 14.7-6.6 14.7-14.7 14.7m0-40.8c-14.4 0-26.1 11.7-26.1 26.1s11.7 26 26.1 26c14.4 0 26.1-11.7 26.1-26.1s-11.7-26-26.1-26"/>
      <path fill="#71CFF4" d="M787.1726 236.198c-3.3-31-16.2-57.1-53.2-57.1-18.4 0-35.1-4-47.2 8-12.2 12.1-19.7 28.9-19.7 47.5 0 37 30 67 67 67 17.9 0 34.1-7 46.2-18.5 12.7-12.3 8.9-27.9 6.9-46.9"/>
      <path fill="#373B3C" d="M720.1828 171.9041c-18.8 0-37.7 7.2-52 21.5-20.3 20.3-27 50.8-16.9 77.7 1.1 2.9 4.4 4.4 7.3 3.3 2.9-1.1 4.4-4.4 3.3-7.3-8.5-22.8-2.9-48.6 14.3-65.8 24.3-24.3 63.7-24.3 88 0 11.8 11.8 18.2 27.4 18.2 44s-6.5 32.2-18.2 44c-17.4 17.4-43.6 22.9-66.6 14-2.9-1.1-6.2.3-7.3 3.2-1.1 2.9.3 6.2 3.2 7.3 27.2 10.6 58.1 4.1 78.7-16.6 13.9-13.9 21.5-32.4 21.5-52s-7.7-38.1-21.5-52c-14.3-14.2-33.2-21.3-52-21.3"/>
      <path fill="#373B3C" d="M751.1242 239.7488h-37.2c-3.1 0-5.7 2.5-5.7 5.7v37.2c0 3.1 2.5 5.7 5.7 5.7 3.1 0 5.7-2.5 5.7-5.7v-31.6h31.5c3.1 0 5.7-2.5 5.7-5.7 0-3.1-2.6-5.6-5.7-5.6"/>
      <path fill="#F3F0E9" d="M562.7 139.7h-59.6v59.6h59.6v-59.6z"/>
      <path fill="#373B3C" d="M508.8 145.4H557v48.3h-48.3v-48.3zm53.9-11.4h-59.6c-3.1 0-5.7 2.5-5.7 5.7v59.6c0 3.1 2.5 5.7 5.7 5.7h59.6c3.1 0 5.7-2.5 5.7-5.7v-59.6c0-3.1-2.6-5.7-5.7-5.7m85.2084-52.7189h-143.8c-3.1 0-5.7 2.5-5.7 5.7 0 3.1 2.5 5.7 5.7 5.7h143.8c3.1 0 5.7-2.5 5.7-5.7s-2.6-5.7-5.7-5.7m0-51.209h-143.8c-3.1 0-5.7 2.5-5.7 5.7 0 3.1 2.5 5.7 5.7 5.7h143.8c3.1 0 5.7-2.5 5.7-5.7s-2.6-5.7-5.7-5.7m0-51.209h-143.8c-3.1 0-5.7 2.5-5.7 5.7 0 3.1 2.5 5.7 5.7 5.7h143.8c3.1 0 5.7-2.5 5.7-5.7s-2.6-5.7-5.7-5.7M1001.926-105.3h-823.5c-3.1 0-5.7 2.5-5.7 5.7 0 3.1 2.5 5.7 5.7 5.7h823.5c3.1 0 5.7-2.5 5.7-5.7s-2.6-5.7-5.7-5.7m-87.1319 213.6328c-4.6 0-8.4-3.8-8.4-8.4v-140.5c0-4.6 3.8-8.4 8.4-8.4s8.4 3.8 8.4 8.4v140.5c0 4.6-3.8 8.4-8.4 8.4m0-168.7c-10.9 0-19.7 8.8-19.7 19.7v140.5c0 10.9 8.8 19.7 19.7 19.7s19.7-8.8 19.7-19.7v-140.5c0-10.8-8.8-19.7-19.7-19.7"/>
      <path fill="#AA80CE" d="M702.8453 17.2495l197.2-64.2v130.5l-197.2-58.8v-7.5z"/>
      <path fill="#373B3C" d="M709.2072 23.1971l185.9-60.8v129.9l-185.9-55.3v-13.8zm191.5-74.3c-.6 0-1.2.1-1.8.3l-197.2 64.5c-2.3.8-3.9 2.9-3.9 5.4v22.1c0 2.5 1.6 4.7 4.1 5.4l197.2 58.7c1.7.5 3.6.2 5-.9s2.3-2.8 2.3-4.5v-145.4c0-1.8-.9-3.5-2.3-4.6-1-.6-2.2-1-3.4-1"/>
      <path fill="#373B3C" d="M830.1232-60.2951c-1.5 0-3 .3-4.4.8l-57.4 20.5c-5.2 1.9-8.8 6.9-8.8 12.5v23.3c0 3.1 2.5 5.7 5.7 5.7s5.7-2.5 5.7-5.7v-23.3c0-.8.5-1.5 1.3-1.8l57.4-20.5c.8-.3 1.4 0 1.7.2.3.2.8.7.8 1.5v19.6c0 3.1 2.5 5.7 5.7 5.7 3.1 0 5.7-2.5 5.7-5.7v-19.6c0-4.3-2.1-8.3-5.6-10.8-2.4-1.6-5.1-2.4-7.8-2.4"/>
      <path fill="#0F60AC" d="M508.591 293.0018h-131.7c-3.1 0-5.7 2.5-5.7 5.7 0 3.1 2.5 5.7 5.7 5.7h131.7c3.1 0 5.7-2.5 5.7-5.7s-2.6-5.7-5.7-5.7m-246.6514 0h-46.4c-3.1 0-5.7 2.5-5.7 5.7 0 3.1 2.5 5.7 5.7 5.7h46.4c3.1 0 5.7-2.5 5.7-5.7s-2.6-5.7-5.7-5.7m66.9551-9.4756c-1.5 0-2.9.6-4 1.7l-19 19c-2.2 2.2-2.2 5.8 0 8s5.8 2.2 8 0l19-19c2.2-2.2 2.2-5.8 0-8-1.1-1.2-2.5-1.7-4-1.7"/>
      <path fill="#0F60AC" d="M309.9426 283.5262c-1.5 0-2.9.6-4 1.7-2.2 2.2-2.2 5.8 0 8l19 19c2.2 2.2 5.8 2.2 8 0s2.2-5.8 0-8l-19-19c-1.1-1.2-2.5-1.7-4-1.7m3.2929-60.3955l6.2-6.2 6.2 6.2-6.2 6.2-6.2-6.2zm6.2-19.9c-1.5 0-2.9.6-4 1.7l-14.2 14.2c-2.2 2.2-2.2 5.8 0 8l14.2 14.2c1.1 1.1 2.5 1.7 4 1.7s2.9-.6 4-1.7l14.2-14.2c1.1-1.1 1.7-2.5 1.7-4s-.6-2.9-1.7-4l-14.2-14.2c-1.1-1.1-2.6-1.7-4-1.7"/>
      <path fill="#373B3C" d="M267.48-40.5537c0-3.5-2.8-6.3-6.3-6.3s-6.3 2.8-6.3 6.3 2.8 6.3 6.3 6.3 6.3-2.9 6.3-6.3M677.2431 86.9499c0-3.5-2.8-6.3-6.3-6.3s-6.3 2.8-6.3 6.3 2.8 6.3 6.3 6.3 6.3-2.9 6.3-6.3m0-51.209c0-3.5-2.8-6.3-6.3-6.3s-6.3 2.8-6.3 6.3 2.8 6.3 6.3 6.3 6.3-2.9 6.3-6.3m0-51.6607c0-3.5-2.8-6.3-6.3-6.3s-6.3 2.8-6.3 6.3 2.8 6.3 6.3 6.3 6.3-2.9 6.3-6.3m2.3685 308.9026c0-3.5-2.8-6.3-6.3-6.3s-6.3 2.8-6.3 6.3 2.8 6.3 6.3 6.3 6.3-2.9 6.3-6.3"/>
    </g>
  </g>
</svg>
