<svg xmlns="http://www.w3.org/2000/svg" viewBox="111 179 834.9 437">
  <path fill="#B3B1B1" d="M615.1 405.05v-26.7l-35.6 1v-96.6h173.7v327.1H639.5v-161"/>
  <path fill="#AA80CE" d="M347.3 612.65l-7.2-108.8c-.2-2.8 2.1-9.4-.7-9.4h-99.1c-2.8 0-5.1 2.2-5.3 5l-6.9 112 119.2 1.2z"/>
  <path fill="#373B3C" d="M343.8 612.35c-2.9 0-5.4-2.3-5.6-5.3l-8.7-121.4c-.1-.9-.8-1.5-1.6-1.5h-99.6c-.9 0-1.6.7-1.6 1.5l-2.7 39.2c-.2 3.1-2.9 5.5-6 5.3s-5.5-2.9-5.3-6l2.7-39.1c.4-6.8 6.1-12.1 13-12.1H328c6.8 0 12.5 5.3 13 12.1l8.7 121.4c.2 3.1-2.1 5.8-5.3 6.1-.3-.2-.4-.2-.6-.2zm-130.2.2h-.4c-3.1-.2-5.5-2.9-5.3-6l1.8-28.5c.2-3.1 2.9-5.5 6-5.3s5.5 2.9 5.3 6l-1.8 28.5c-.2 3-2.7 5.3-5.6 5.3z"/>
  <path fill="#373B3C" d="M311.9 484.25c-3.1 0-5.7-2.5-5.7-5.7 0-15.2-12.3-27.5-27.5-27.5s-27.5 12.3-27.5 27.5c0 3.1-2.5 5.7-5.7 5.7s-5.7-2.5-5.7-5.7c0-21.4 17.4-38.8 38.8-38.8s38.8 17.4 38.8 38.8c.1 3.2-2.4 5.7-5.5 5.7z"/>
  <path fill="#71CFF4" d="M323.3 403.55H172.4c-.6.1-1.2.1-1.9.1-9.9 0-17.9-8-17.9-17.9 0-9.9 8-17.9 17.9-17.9v-.1h31.6c6.9-.1 12.4-5.7 12.4-12.6 0-6.9-5.6-12.6-12.6-12.6h-10.8c-7.8 0-14.2-6.3-14.2-14.2 0-7.8 6.3-14.2 14.2-14.2h73.7c7.8 0 14.2 6.3 14.2 14.2 0 7.8-6.3 14.2-14.2 14.2h-.3c-6.9 0-12.6 5.6-12.6 12.6 0 1.7-.3 9.9 4.2 11.4 13.5 4.5 44.2 1.1 49.4 1.1l17.8 35.9z"/>
  <path fill="#373B3C" d="M323.3 409.25H237c-3.1 0-5.7-2.5-5.7-5.7s2.5-5.7 5.7-5.7h86.3c3.1 0 5.7 2.5 5.7 5.7s-2.6 5.7-5.7 5.7zm-156 .1c-13 0-23.6-10.6-23.6-23.6 0-12.6 10-22.9 22.4-23.6.4-.1.8-.1 1.2-.1h31.6c3.7 0 6.8-3.1 6.8-6.9s-3.1-6.9-6.9-6.9h-4.1c-10.9 0-19.8-8.9-19.8-19.8s8.9-19.8 19.8-19.8h67c10.9 0 19.8 8.9 19.8 19.8s-8.9 19.8-19.8 19.8h-.3c-3.8 0-6.9 3.1-6.9 6.9s3.1 6.8 6.8 6.9h44.3c3.1 0 5.7 2.5 5.7 5.7s-2.5 5.7-5.7 5.7h-44.3c-10-.1-18.1-8.3-18.1-18.2 0-10.1 8.2-18.2 18.2-18.2h.3c4.7 0 8.5-3.8 8.5-8.5s-3.8-8.5-8.5-8.5h-67c-4.7 0-8.5 3.8-8.5 8.5s3.8 8.5 8.5 8.5h4.1c10.1 0 18.2 8.2 18.2 18.2 0 9.9-8.1 18.1-18 18.2h-30.6c-.3.1-.7.1-1 .1-6.7 0-12.2 5.5-12.2 12.2 0 6.8 5.5 12.2 12.2 12.2.4 0 .9 0 1.3-.1h24.8c3.1 0 5.7 2.5 5.7 5.7s-2.5 5.7-5.7 5.7h-23.9c-.8 0-1.6.1-2.3.1z"/>
  <path fill="#71CFF4" d="M398.7 514.05h91.8v53.6h-91.8zm148.9 0h91.8v53.6h-91.8z"/>
  <path fill="#FCC02D" d="M458.3 370.35c0 9.5-4.6 1-6.3 8-.3 1.2-25.8 1.6-26.1 2.7-2.6 8.3-1.3 17.8-7 22.7-9.6 8.2-.4 26.3-20.1 26.3-24.5 0-51.8.8-66-17.1-10.4-13.2-16.6-29.8-16.6-47.8 0-42.6 34.5-77.2 77.2-77.2 21.3 0 43.6 6.2 54.6 22.6 15 22.6 10.3 38.5 10.3 59.8z"/>
  <path fill="#373B3C" d="M383 437.35h-.2c-45.7-.1-82.8-37.3-82.8-82.8 0-45.7 37.2-82.8 82.8-82.8 22.6 0 43.8 9 59.5 25.2 2.2 2.2 2.1 5.8-.1 8s-5.8 2.1-8-.1c-13.6-14-31.8-21.8-51.4-21.8-39.4 0-71.5 32.1-71.5 71.5 0 39.3 32.1 71.4 71.5 71.5h.2c19.9 0 39.1-8.4 52.5-23.1 2.1-2.3 5.7-2.5 8-.4s2.5 5.7.4 8c-15.7 17-37.8 26.8-60.9 26.8zm73.2-53.3c-.6 0-1.2-.1-1.7-.3-3-1-4.6-4.2-3.6-7.1 2.3-7.1 3.5-14.6 3.5-22.1 0-3.3-.2-6.8-.7-10.2-.4-3.1 1.7-6 4.8-6.4 3.1-.4 6 1.7 6.4 4.8.6 3.9.8 7.9.8 11.8 0 8.7-1.4 17.4-4.1 25.6-.8 2.2-3 3.9-5.4 3.9z"/>
  <path fill="#FFF" d="M387.1 398.35h-8.7c-2.8 0-5.1-2.3-5.1-5.1v-40.8c0-2.8 2.3-5.1 5.1-5.1h8.7c2.8 0 5.1 2.3 5.1 5.1v40.9c0 2.8-2.2 5-5.1 5zm0-63h-8.7c-2.8 0-5.1-2.3-5.1-5.1v-8.7c0-2.8 2.3-5.1 5.1-5.1h8.7c2.8 0 5.1 2.3 5.1 5.1v8.7c0 2.8-2.2 5.1-5.1 5.1z"/>
  <path fill="#373B3C" d="M753.1 612.35c-3.1 0-5.7-2.5-5.7-5.7v-37.8c0-3.1 2.5-5.7 5.7-5.7s5.7 2.5 5.7 5.7v37.8c-.1 3.2-2.6 5.7-5.7 5.7zm0-84.5c-3.1 0-5.7-2.5-5.7-5.7v-251.8h-182v108c0 3.1-2.5 5.7-5.7 5.7s-5.7-2.5-5.7-5.7v-113.7c0-3.1 2.5-5.7 5.7-5.7H753c3.1 0 5.7 2.5 5.7 5.7v257.5c0 3.2-2.5 5.7-5.6 5.7z"/>
  <path fill="#373B3C" d="M940.2 616.05H116.7c-3.1 0-5.7-2.5-5.7-5.7s2.5-5.7 5.7-5.7h823.5c3.1 0 5.7 2.5 5.7 5.7s-2.6 5.7-5.7 5.7z"/>
  <path fill="#373B3C" d="M490.5 616.05H382.7c-3.1 0-5.7-2.5-5.7-5.7v-42.8c0-3.1 2.5-5.7 5.7-5.7h107.8c3.1 0 5.7 2.5 5.7 5.7v42.8c-.1 3-2.6 5.7-5.7 5.7zm-102.1-11.4h96.4v-31.4h-96.4v31.4z"/>
  <path fill="#373B3C" d="M490.5 573.25h-91.8c-3.1 0-5.7-2.5-5.7-5.7v-53.6c0-3.1 2.5-5.7 5.7-5.7h91.8c3.1 0 5.7 2.5 5.7 5.7v53.6c-.1 3.2-2.6 5.7-5.7 5.7zm-86.1-11.3h80.4v-42.2h-80.4v42.2z"/>
  <path fill="#373B3C" d="M398.7 519.65c-3.1 0-5.7-2.5-5.7-5.7v-35.2c0-3.1 2.5-5.7 5.7-5.7s5.7 2.5 5.7 5.7v35.2c0 3.2-2.5 5.7-5.7 5.7zm216.4-107.3c-3.1 0-5.7-2.5-5.7-5.7v-22.7H428.7v22.7c0 3.1-2.5 5.7-5.7 5.7s-5.7-2.5-5.7-5.7v-28.3c0-3.1 2.5-5.7 5.7-5.7h192c3.1 0 5.7 2.5 5.7 5.7v28.3c0 3.2-2.5 5.7-5.6 5.7z"/>
  <path fill="#FF5749" d="M518.6 484.15c-14.4 0-26-11.6-26-26 0 14.4-11.6 26-26 26s-26-11.6-26-26c0 14.4-11.6 26-26 26s-26-11.6-26-26c0 0 16.2-14.8 20.2-51.5h220.7c4 36.7 20.2 51.5 20.2 51.5 0 14.4-11.6 26-26 26s-26-11.6-26-26c0 14.4-11.6 26-26 26s-26-11.6-26-26c0 14.4-11.6 26-26 26"/>
  <path fill="#373B3C" d="M623.5 489.85c-10.8 0-20.3-5.4-26-13.6-5.7 8.2-15.3 13.6-26 13.6s-20.3-5.4-26-13.6c-5.7 8.2-15.3 13.6-26 13.6h-.8c-10.8 0-20.3-5.4-26-13.6-5.7 8.2-15.3 13.6-26 13.6s-20.3-5.4-26-13.6c-5.7 8.2-15.3 13.6-26 13.6-17.5 0-31.7-14.2-31.7-31.7 0-1.6.7-3.1 1.8-4.2.1-.1 14.7-14.2 18.4-47.9.3-2.9 2.7-5.1 5.6-5.1h220.7c2.9 0 5.3 2.2 5.6 5.1 1.9 17.7 6.8 29.8 10.6 36.8 4.1 7.6 7.7 11.1 7.8 11.1 1.1 1.1 1.8 2.6 1.8 4.2-.1 17.4-14.3 31.6-31.8 31.7zm-125.2-31.7c0 11.2 9.1 20.3 20.3 20.3h.8c11.2 0 20.3-9.1 20.3-20.3 0-3.1 2.5-5.7 5.7-5.7s5.7 2.5 5.7 5.7c0 11.2 9.1 20.3 20.3 20.3 11.2 0 20.3-9.1 20.3-20.3 0-3.1 2.5-5.7 5.7-5.7s5.7 2.5 5.7 5.7c0 11.2 9.1 20.3 20.3 20.3 10.5 0 19.2-8 20.2-18.2-4.5-5.1-15.3-20.1-19.4-47.9H413.5c-4.1 27.9-14.9 42.8-19.4 47.9 1.1 10.2 9.7 18.2 20.2 18.2 11.2 0 20.3-9.1 20.3-20.3 0-3.1 2.5-5.7 5.7-5.7s5.7 2.5 5.7 5.7c0 11.2 9.1 20.3 20.3 20.3 11.2 0 20.3-9.1 20.3-20.3 0-3.1 2.5-5.7 5.7-5.7s6 2.5 6 5.7zm157.1 157.9H547.6c-3.1 0-5.7-2.5-5.7-5.7v-42.8c0-3.1 2.5-5.7 5.7-5.7h107.8c3.1 0 5.7 2.5 5.7 5.7v42.8c0 3-2.6 5.7-5.7 5.7zm-102.1-11.4h96.4v-31.4h-96.4v31.4z"/>
  <path fill="#373B3C" d="M639.4 573.25h-91.8c-3.1 0-5.7-2.5-5.7-5.7v-53.6c0-3.1 2.5-5.7 5.7-5.7h91.8c3.1 0 5.7 2.5 5.7 5.7v53.6c0 3.2-2.6 5.7-5.7 5.7zm-86.1-11.3h80.4v-42.2h-80.4v42.2z"/>
  <path fill="#373B3C" d="M639.4 519.65c-3.1 0-5.7-2.5-5.7-5.7v-35.2c0-3.1 2.5-5.7 5.7-5.7s5.7 2.5 5.7 5.7v35.2c0 3.2-2.6 5.7-5.7 5.7zm-91.8 0h-57.2c-3.1 0-5.7-2.5-5.7-5.7s2.5-5.7 5.7-5.7h57.2c3.1 0 5.7 2.5 5.7 5.7s-2.5 5.7-5.7 5.7z"/>
  <path fill="#E3E950" d="M669 610.35c5.1-6.4 8.1-14.5 8.1-23.3 0-20.8-16.9-37.7-37.7-37.7-20.8 0-37.7 16.9-37.7 37.7 0 8.8 3 16.9 8.1 23.3H669z"/>
  <path fill="#373B3C" d="M609.8 616.05c-1.7 0-3.4-.8-4.4-2.2-6.1-7.7-9.3-17-9.3-26.9 0-23.9 19.4-43.3 43.3-43.3s43.3 19.4 43.3 43.3c0 9.9-3.2 19.1-9.3 26.9-1.1 1.4-2.7 2.2-4.4 2.2h-59.2zm59.2-5.7zm-29.6-55.3c-17.6 0-32 14.4-32 32 0 6.4 1.8 12.4 5.3 17.7h53.4c3.5-5.2 5.3-11.3 5.3-17.7 0-17.7-14.4-32-32-32zm130-284.8h-226c-3.1 0-5.7-2.5-5.7-5.7v-29.2c0-3.1 2.5-5.7 5.7-5.7h138.5c3.1 0 5.7 2.5 5.7 5.7s-2.5 5.7-5.7 5.7H549.1v17.8h214.7v-17.8h-39.2c-3.1 0-5.7-2.5-5.7-5.7s2.5-5.7 5.7-5.7h44.9c3.1 0 5.7 2.5 5.7 5.7v29.2c-.1 3.2-2.7 5.7-5.8 5.7z"/>
  <path fill="#71CFF4" d="M792.7 403.55h-58.8c-.6.1-1.2.1-1.9.1-9.9 0-17.9-8-17.9-17.9 0-9.9 8-17.9 17.9-17.9v-.1h63.6c6.9-.1 12.4-5.7 12.4-12.6 0-6.9-5.6-12.6-12.6-12.6h-.3c-7.8 0-14.2-6.3-14.2-14.2 0-7.8 6.3-14.2 14.2-14.2h73.7c7.8 0 14.2 6.3 14.2 14.2 0 7.8-6.3 14.2-14.2 14.2H858c-6.9 0-12.6 5.6-12.6 12.6 0 6.9 5.6 12.5 12.4 12.6h31.6v.1c9.9 0 17.9 8 17.9 17.9 0 9.9-8 17.9-17.9 17.9-.6 0-1.2 0-1.9-.1h-50.6"/>
  <path fill="#373B3C" d="M889.6 409.35c-.7 0-1.4 0-2.1-.1h-50.3c-3.1 0-5.7-2.5-5.7-5.7s2.5-5.7 5.7-5.7h51.2c.4 0 .8.1 1.3.1 6.7 0 12.2-5.5 12.2-12.2s-5.5-12.2-12.2-12.2c-.4 0-.7 0-1-.1h-30.6c-10-.1-18.1-8.3-18.1-18.2 0-10.1 8.2-18.2 18.2-18.2H869c4.7 0 8.5-3.8 8.5-8.5s-3.8-8.5-8.5-8.5h-73.7c-4.7 0-8.5 3.8-8.5 8.5s3.8 8.5 8.5 8.5h.3c10.1 0 18.2 8.2 18.2 18.2 0 9.9-8.1 18.1-18 18.2h-62.6c-.3.1-.7.1-1 .1-6.7 0-12.2 5.5-12.2 12.2 0 6.8 5.5 12.2 12.2 12.2.4 0 .8 0 1.3-.1h59.4c3.1 0 5.7 2.5 5.7 5.7s-2.5 5.7-5.7 5.7h-58.5c-.7.1-1.4.1-2.1.1-13 0-23.6-10.6-23.6-23.6 0-12.6 10-22.9 22.4-23.6.4-.1.8-.1 1.2-.1h63.6c3.7 0 6.8-3.1 6.8-6.9s-3.1-6.9-6.9-6.9h-.3c-10.9 0-19.8-8.9-19.8-19.8s8.9-19.8 19.8-19.8h73.7c10.9 0 19.8 8.9 19.8 19.8s-8.9 19.8-19.8 19.8h-10.8c-3.8 0-6.9 3.1-6.9 6.9s3.1 6.8 6.8 6.9h31.5c.4 0 .8 0 1.2.1 12.5.6 22.4 10.9 22.4 23.5-.2 13.1-10.8 23.7-23.8 23.7z"/>
  <circle cx="1301.3" cy="860.4" r="6.3" fill="#373B3C" transform="translate(-1084.4 -308.65)"/>
  <circle cx="1299.6" cy="712.2" r="6.3" fill="#373B3C" transform="translate(-1084.4 -308.65)"/>
  <circle cx="1899.3" cy="712.4" r="6.3" fill="#373B3C" transform="translate(-1084.4 -308.65)"/>
  <circle cx="1536.4" cy="628.9" r="6.3" fill="#373B3C" transform="translate(-1084.4 -308.65)"/>
  <path fill="#0F60AC" d="M940.2 502.05h-73.4c-3.1 0-5.7-2.5-5.7-5.7s2.5-5.7 5.7-5.7h73.4c3.1 0 5.7 2.5 5.7 5.7s-2.6 5.7-5.7 5.7zm-135.9 15.3c-1.5 0-2.9-.6-4-1.7l-15.4-15.4c-2.2-2.2-2.2-5.8 0-8l15.4-15.4c1.1-1.1 2.5-1.7 4-1.7s2.9.6 4 1.7l15.4 15.4c2.2 2.2 2.2 5.8 0 8l-15.4 15.4c-1 1.2-2.5 1.8-4 1.7zm-7.4-21l7.4 7.4 7.4-7.4-7.4-7.4-7.4 7.4z"/>
  <g fill="#0F60AC">
    <path d="M259.3 200.65H149.4c-3.1 0-5.7-2.5-5.7-5.7s2.5-5.7 5.7-5.7h109.9c3.1 0 5.7 2.5 5.7 5.7s-2.6 5.7-5.7 5.7zm175.1 0h-50.3c-3.1 0-5.7-2.5-5.7-5.7s2.5-5.7 5.7-5.7h50.3c3.1 0 5.7 2.5 5.7 5.7s-2.6 5.7-5.7 5.7zm-123 10.3c-1.5 0-2.9-.6-4-1.7-2.2-2.2-2.2-5.8 0-8l20.6-20.6c2.2-2.2 5.8-2.2 8 0s2.2 5.8 0 8l-20.6 20.6c-1.1 1.1-2.6 1.7-4 1.7z"/>
    <path d="M331.9 210.95c-1.5 0-2.9-.6-4-1.7l-20.6-20.6c-2.2-2.2-2.2-5.8 0-8s5.8-2.2 8 0l20.6 20.6c2.2 2.2 2.2 5.8 0 8-1.1 1.1-2.5 1.7-4 1.7z"/>
  </g>
  <circle cx="1837.6" cy="852.9" r="6.3" fill="#373B3C" transform="translate(-1084.4 -308.65)"/>
  <circle cx="1788.6" cy="544.1" r="5.7" fill="#373B3C" transform="translate(-1084.4 -308.65)"/>
</svg>
