<svg xmlns="http://www.w3.org/2000/svg" viewBox="0 0 84.7 26.2" width="84.7" height="26.2"><path d="M19.8 6.8c0-.6.1-1.2.2-1.7s.4-1.1.7-1.6c.3-.5.6-.9 1-1.3s.8-.7 1.3-1c.5-.3 1-.5 1.6-.7.6-.1 1.2-.2 1.7-.2.6 0 1.2.1 1.7.2s1.1.4 1.6.7c.5.3.9.6 1.3 1s.7.8 1 1.3c.3.5.5 1 .7 1.6.2.6.2 1.1.2 1.7 0 .6-.1 1.2-.2 1.7s-.4 1.1-.7 1.6c-.3.5-.6.9-1 1.3s-.8.7-1.3 1c-.5.3-1 .5-1.6.7-.5.1-1.1.2-1.7.2-.6 0-1.2-.1-1.7-.2s-1.1-.4-1.6-.7c-.5-.3-.9-.6-1.3-1s-.7-.8-1-1.3c-.3-.5-.5-1-.7-1.6-.1-.6-.2-1.1-.2-1.7zm2.6 0c0 .6.1 1.1.3 1.6.2.5.5.9.8 1.3.4.4.8.7 1.3.9.5.2 1 .3 1.6.3.6 0 1.1-.1 1.6-.3.5-.2.9-.5 1.3-.9s.6-.8.8-1.3c.2-.5.3-1.1.3-1.6 0-.6-.1-1.1-.3-1.6-.2-.5-.5-.9-.8-1.3-.4-.4-.8-.7-1.3-.9-.5-.2-1-.3-1.6-.3-.6 0-1.1.1-1.6.3-.5.2-.9.5-1.3.9s-.6.8-.8 1.3c-.3.5-.3 1-.3 1.6zM45.3 14c.1.1.2.1.2.2v.3l-.8 1.4c-.1.1-.2.2-.3.2-.1 0-.2 0-.3-.1-.4-.3-.7-.4-1.2-.6-.4-.1-.8-.2-1.3-.2-.6 0-1.1.1-1.6.3-.5.2-.9.5-1.2.9-.4.4-.6.8-.8 1.3-.2.5-.3 1.1-.3 1.6s.1 1.1.3 1.6c.2.5.5.9.8 1.3.4.4.8.7 1.2.9.5.2 1 .3 1.6.3.5 0 .9-.1 1.3-.2s.8-.3 1.2-.6c.1-.1.2-.1.3-.1.1 0 .2.1.3.2l.8 1.4c.1.1.1.2 0 .3 0 .1-.1.1-.2.2-.5.4-1.1.6-1.7.8-.6.2-1.3.3-2 .3-.6 0-1.2-.1-1.7-.2s-1.1-.4-1.6-.7c-.5-.3-.9-.6-1.3-1s-.7-.8-1-1.3c-.3-.5-.5-1-.7-1.5-.1-.5-.2-1.1-.2-1.7 0-.6.1-1.2.2-1.7s.4-1.1.7-1.6c.3-.5.6-.9 1-1.3s.8-.7 1.3-1c.5-.3 1-.5 1.6-.7.5-.1 1.1-.2 1.7-.2.7 0 1.3.1 1.9.3.7.3 1.3.6 1.8.9zM28 22.1l14.1-17c.1-.1 0-.4-.2-.5l-1-.8c-.2-.2-.5-.2-.6-.1L26.2 20.6c-.1.1 0 .4.2.5l1 .8c.3.3.5.4.6.2z" fill="#f04d3f"/><path d="M7.4 3.9h-.2c-.1 0-.1-.1-.2-.1-.1-.1-.3-.2-.4-.4-.2-.1-.4-.3-.6-.4-.2-.1-.4-.2-.7-.3-.2-.1-.4-.1-.7-.1-.3 0-.6 0-.8.1-.2 0-.4.1-.6.3l-.4.4c-.1.1-.1.3-.1.5s.1.4.2.5c.1.1.3.3.5.4.2.1.5.2.8.3l.9.3c.5.1 1.1.3 1.6.5s1 .4 1.4.7c.4.3.7.6 1 1 .3.4.4.9.4 1.5s-.1 1.2-.4 1.6c-.3.5-.6.9-1 1.3s-.9.6-1.5.8c-.6.2-1.2.3-1.9.3-.4 0-.9 0-1.3-.1s-.8-.3-1.2-.4c-.4-.2-.8-.4-1.1-.7-.4-.3-.7-.5-.9-.9-.1-.2-.2-.3-.2-.4 0-.1.1-.2.2-.4l.1-.1.1-.1c.1-.1.2-.1.3-.3l.3-.3c.1-.1.2-.1.3-.2.1 0 .1-.1.2-.1s.1 0 .2.1c.1 0 .1.1.2.1.2.2.4.4.7.5.3.2.5.3.8.4.3.1.5.2.8.3.3.1.5.1.7.1.3 0 .6 0 .9-.1.3-.1.5-.2.7-.3.2-.1.4-.3.5-.5.1-.2.2-.4.2-.7 0-.3-.1-.5-.2-.6-.1-.2-.3-.3-.6-.5-.2-.1-.5-.3-.8-.3l-.9-.3c-.7-.2-1.3-.4-1.8-.7-.5-.4-.9-.6-1.3-.9-.3-.3-.6-.6-.8-1-.2-.4-.3-.8-.3-1.2 0-.5.1-1 .3-1.4.2-.4.5-.8.9-1.1.4-.3.9-.5 1.4-.7C3.6.1 4.3 0 4.9 0c.5 0 1 .1 1.6.3.5.1 1 .4 1.5.7.1.1.3.2.4.3.1.1.3.2.4.3l.3.3c.1.1.1.2.1.3v.2c0 .1-.1.1-.1.2l-.3.3-.3.3-.3.3c-.1.1-.2.1-.3.2-.4.1-.4.2-.5.2zM9.8 1c0-.1 0-.2.1-.3.1-.1.2-.1.3-.1h8.6c.1 0 .2 0 .3.1.1.1.1.1.1.3v1.5c0 .1 0 .2-.1.3-.1 0-.2.1-.3.1h-3.1V12.7s0 .1-.1.1l-.1.1h-1.8-.1l-.1-.1-.1-.1V2.9h-3.1c-.1 0-.2 0-.3-.1-.1-.1-.1-.2-.1-.3L9.8 1c.1 0 0 0 0 0zm37.9 13c0-.1 0-.2.1-.3.1-.1.1-.1.3-.1h1.8s.1 0 .1.1l.1.1v5.1l4.7-5.1c.1-.2.3-.3.4-.3h2.4c.1 0 .2 0 .2.1 0 0 0 .1-.1.2L53.2 19l5.2 6.7c.1.1.1.2.1.3 0 .1-.1.1-.2.1h-2.6c-.1 0-.3-.1-.4-.3l-4-5-1.4 1.5v3.3c0 .3-.1.4-.4.4h-1.7c-.3 0-.4-.1-.4-.4.3.1.3-11.6.3-11.6zm12.1.1c0-.3.1-.4.4-.4h8.1c.1 0 .3 0 .3.1.1.1.1.2.1.3v1.5c0 .1 0 .2-.1.3-.1.1-.2.1-.3.1h-6v2.5h4.6c.1 0 .2 0 .3.1.1.1.1.1.1.3v1.5c0 .1 0 .2-.1.3-.1.1-.1.1-.3.1h-4.6v3.1h6.2c.1 0 .3 0 .3.1s.1.2.1.3v1.5c0 .2-.1.4-.4.4h-8.3c-.1 0-.2 0-.3-.1-.1-.1-.1-.1-.1-.3zm10.8 0c0-.3.1-.4.4-.4h5.1c.6 0 1.1.1 1.6.3.5.2.9.5 1.3.9s.7.8.9 1.3c.2.5.3 1 .3 1.6 0 .4 0 .7-.1 1.1-.1.4-.3.7-.4 1-.2.3-.4.6-.7.8-.3.3-.5.5-.8.6l2.1 4.5v.1c0 .1 0 .2-.1.2 0 0-.1.1-.3.1h-2c-.1 0-.3-.1-.3-.3l-1.9-4.1h-2.6v4c0 .2-.1.4-.4.4H71c-.1 0-.2 0-.3-.1-.1-.1-.1-.1-.1-.3V14.1zm7.2 3.6c0-.2 0-.4-.1-.6-.1-.2-.2-.4-.4-.6-.2-.2-.3-.3-.5-.4-.2-.1-.5-.1-.7-.1h-2.9v3.5h2.9c.3 0 .5 0 .7-.1.2-.1.4-.2.5-.4.1-.2.3-.4.3-.6.1-.2.2-.4.2-.7zm5.8-2.3c.1-.1.2-.3.2-.4 0-.3-.2-.5-.6-.5h-.5V16h.3v-.4h.3l.3.4h.4zm-.4-.2h-.3v-.5h.3c.2 0 .3.1.3.3 0 .1-.1.2-.3.2zm0-1.5c-.8 0-1.5.7-1.5 1.5s.7 1.5 1.5 1.5 1.5-.7 1.5-1.5c0-.9-.7-1.5-1.5-1.5zm0 2.7c-.7 0-1.3-.5-1.3-1.2s.6-1.2 1.3-1.2c.7 0 1.3.5 1.3 1.2 0 .6-.6 1.2-1.3 1.2z" fill="#0358a3"/></svg>