<svg xmlns="http://www.w3.org/2000/svg" width="611.875" height="408" viewBox="0 0 611.875 408"><path d="M305.874 280.5v-.502c20.967 0 39.965-8.514 53.727-22.271 13.758-13.761 22.271-32.757 22.271-53.728 0-20.971-8.514-39.967-22.271-53.727-13.637-13.634-32.42-22.119-53.166-22.27 7.875 8.178 12.687 19.173 12.687 31.374-.002 24.895-20.241 45.123-45.124 45.123-17.495 0-32.772-10.056-40.209-24.578-2.539 7.533-3.918 15.631-3.918 24.078 0 20.965 8.519 39.961 22.278 53.724 13.76 13.76 32.758 22.275 53.723 22.277l.002.5-.001.498c-42.482 0-77-34.52-77.001-76.999 0-8.983 1.54-17.583 4.364-25.541l.403-1.133.521 1.085c7.06 14.761 22.316 25.09 39.84 25.088 12.165 0 23.194-4.943 31.185-12.932 7.989-7.991 12.938-19.019 12.938-31.191 0-12.36-5.041-23.437-13.239-31.519l-.867-.856h1.858c42.491 0 77 34.509 77 77 0 42.492-34.51 76.999-77 77.001v-.501h-.001zm0 0c42.215 0 76.5-34.285 76.5-76.5s-34.285-76.5-76.5-76.5h-.637c8.288 8.172 13.387 19.38 13.387 31.875 0 24.62-20.019 44.625-44.625 44.625-17.723 0-33.15-10.442-40.291-25.373-2.806 7.904-4.335 16.447-4.335 25.373.001 42.203 34.297 76.5 76.501 76.5zm288.915-119.977C547.359 100.215 431.843 0 306 0 180.029 0 64.4 100.215 16.958 160.522 6.248 174.292.382 189.21 0 204c.382 14.79 6.248 29.707 16.958 43.477C64.401 307.798 179.903 408 305.874 408s241.473-100.201 288.915-160.521c10.838-13.771 16.703-28.688 17.086-43.478-.383-14.791-6.25-29.708-17.086-43.478zM305.874 355.5c-83.628 0-151.5-67.872-151.5-151.5s67.873-151.5 151.5-151.5 151.5 67.872 151.5 151.5c-.001 83.628-67.873 151.5-151.5 151.5z"/></svg>