<svg xmlns="http://www.w3.org/2000/svg" viewBox="-279 369.8 52.5 54.2"><style>



</style><path class="st0" d="M-238.5 422.3L-238.5 410.7"/><path class="st0" d="M-232,417.1l-5.2-8.2c-0.7-0.7-1.9-0.7-2.6,0l-5,8.2"/><path class="st0" d="M-252.7,419.9c-13.3,0-24-10.8-24-24c0-13.2,10.7-24.1,24-24.1s24,10.8,24,24c0,2.5-0.4,5-1.1,7.3"/><path class="st1" d="M-266.1,389.9c0,0,4.3,6.8,7.9,10.1"/><path class="st1" d="M-258.8,389.6c0,0-2.6,6.1-6.7,11"/><path class="st1" d="M-255.2,389.1l0.5,9.8c0,0,3.7,0.7,7.3,0"/><path class="st1" d="M-240,388.6c0,0-3.3,0-4.2,1.7c-0.5,0.8,2.3,2.5,2.3,2.5l2.2,1.3c0.3,0.3,0.6,0.7,0.7,1.1 c0.4,1.4-0.2,4.6-6.6,3.6"/></svg>