<svg xmlns="http://www.w3.org/2000/svg" width="32" height="32" viewBox="0 0 32 32"><path d="M1.143 13.029v8.914c0 .686.229 1.143.457 1.829l4.114 7.314c0 .686.686.914 1.143.914h14.629c1.371 0 1.829-.686 2.514-.914.229-.229.229-.686.229-1.143V14.629a1.75 1.75 0 0 0-.457-1.143c-.686-.686-1.143-1.371-1.6-2.286-.914-1.829-1.829-3.657-2.743-5.714V1.6c0-.914-.686-1.6-1.6-1.6h-2.286c-.457 0-1.143.229-1.371.914-.457.914-.686 1.829-1.143 3.2-.229.914-.229 2.057-.229 2.971l.686 4.114H2.515c-.686.229-1.371.914-1.371 1.829zM26.286 15.314v14.857c0 .914.686 1.829 1.6 1.829h1.371c.914 0 1.6-.686 1.6-1.829V15.314c0-.914-.686-1.6-1.6-1.6h-1.371c-.914 0-1.6.914-1.6 1.6z"/></svg>