<?xml version="1.0" encoding="utf-8"?>
<!-- Generator: Adobe Illustrator 19.1.0, SVG Export Plug-In . SVG Version: 6.00 Build 0)  -->
<svg version="1.1" xmlns="http://www.w3.org/2000/svg" xmlns:xlink="http://www.w3.org/1999/xlink" x="0px" y="0px" viewBox="0 0 32 32" xml:space="preserve">
<style type="text/css">



</style>
<g>
	<g>
		<g>
			<path class="st0" d="M14.5,25.5c0,1.3-1,2.3-2.3,2.3s-2.3-1-2.3-2.3c0-1.3,1-2.3,2.3-2.3S14.5,24.2,14.5,25.5z M21.5,23.1
				c-1.3,0-2.3,1-2.3,2.3c0,1.3,1,2.3,2.3,2.3c1.3,0,2.3-1,2.3-2.3C23.9,24.2,22.8,23.1,21.5,23.1z"/>
			<path class="st1" d="M8.3,11h18.3l-2.3,9.1H10.7 M10.7,20.1L5.9,4.9H4.3"/>
		</g>
	</g>
</g>
</svg>
