<svg xmlns="http://www.w3.org/2000/svg" width="20.39" height="20.39" viewBox="0 0 19.115469 19.11547"><path class="st1" d="M16.394 10.796c.6.6 1.3 1.2 1.9 1.9.2.3.5.6.7 1 .3.5 0 1.1-.4 1.1h-2.8c-.7.1-1.3-.2-1.8-.7-.4-.4-.7-.8-1.1-1.2-.2-.2-.3-.3-.5-.4-.4-.2-.7-.2-.9.2-.2.4-.3.9-.3 1.3 0 .7-.2.8-.9.9-1.4.1-2.7-.1-4-.9-1.1-.6-1.9-1.5-2.7-2.5-1.4-2-2.5-4.1-3.5-6.3-.2-.5-.1-.8.5-.8h2.7c.4 0 .6.2.8.6.5 1.2 1.1 2.4 1.8 3.5.2.3.4.6.7.8.3.2.6.1.7-.2.1-.2.1-.5.2-.7.1-.8.1-1.7 0-2.5-.1-.5-.4-.9-.9-1-.3-.1-.2-.2-.1-.3.2-.3.4-.4.8-.4h3.1c.5.1.6.3.7.8v3.5c0 .2.1.8.4.9.3.1.5-.1.6-.3.7-.8 1.3-1.8 1.8-2.7.2-.4.4-.9.6-1.3.1-.3.3-.5.7-.5h3.3c.5.1.6.3.5.8-.2.8-.7 1.4-1.2 2.1l-1.5 2.1c-.6.3-.5.6.1 1.2zm0 0"/></svg>