<!--Generator: Adobe Illustrator 19.0.1, SVG Export Plug-In . SVG Version: 6.00 Build 0)-->
<svg xmlns="http://www.w3.org/2000/svg" viewBox="2 -3.1 28.6 28.6">
  <g transform="translate(-3.602 -3.226)">
    <path fill="#FF5749" d="M26.1 11.7v14c0 .6-.4 1-1 1h-11c-.6 0-1-.4-1-1v-14h13m2-2h-17v16c0 1.7 1.3 3 3 3h11c1.7 0 3-1.3 3-3v-16z"/>
  </g>
  <path fill="none" stroke="#FF5749" stroke-width="2" stroke-miterlimit="10" d="M12.7 21.3V10.7M16 21.3V10.7m3.3 10.6V10.7"/>
  <g transform="translate(-3.602 -3.226)">
    <path fill="none" stroke="#FF5749" stroke-width="2" stroke-miterlimit="10" d="M11.2 8.4h17m-12.8.1V6c0-1 .8-1.9 1.9-1.9l4.8-.1c1 0 1.9.8 1.9 1.9v2.5"/>
  </g>
</svg>
