<svg xmlns="http://www.w3.org/2000/svg" width="612" height="612" viewBox="0 0 612 612"><path d="M306 0C137.7 0 0 137.7 0 306s137.7 306 306 306 306-137.7 306-306C612 135.788 474.3 0 306 0zm158.737 271.575V405.45c0 34.425-28.688 63.112-63.112 63.112h-198.9c-34.425 0-63.113-28.688-63.113-63.112V204.637c0-34.425 28.688-63.112 63.113-63.112h200.812c34.426 0 63.113 28.688 63.113 63.112l-1.913 66.938zM392.063 306c0 49.726-40.162 89.888-89.888 89.888-49.725 0-89.887-40.162-89.887-89.888 0-11.475 1.913-22.95 5.737-34.425H168.3V405.45c0 17.213 13.388 30.6 30.6 30.6h200.813c17.212 0 30.6-13.387 30.6-30.6V271.575h-49.725c7.649 9.563 11.475 21.038 11.475 34.425zm-89.888 57.375c32.513 0 57.375-26.774 57.375-57.375 0-13.387-3.825-24.862-11.475-34.425-9.563-15.3-26.775-24.862-45.9-24.862s-36.337 9.563-45.9 24.862c-7.65 9.563-11.475 21.038-11.475 34.425 0 30.601 24.863 57.375 57.375 57.375zm70.763-128.137H428.4v-55.463H372.938z"/></svg>