<svg xmlns="http://www.w3.org/2000/svg" viewBox="0 0 20.499999 16.4" width="20.5" height="16.4"><style>
.st0 {
  enable-background: new;
}
</style><path class="st1" d="M2.5 11.7C.9 10.1.1 8.5.1 8.5c-.1-.2-.1-.4 0-.6 0-.1.8-1.7 2.4-3.3C4 3.1 6.6 1.3 10.2 1.3H0V15h1l2.3-2.5c-.3-.2-.6-.5-.8-.8zM13.9 8.2c0 2.4-1.7 4.3-3.7 4.3-.3 0-.6 0-.8-.1l-.9.9c.5.2 1.1.4 1.7.4 2.6 0 4.7-2.5 4.7-5.5 0-.6-.1-1.2-.2-1.7l-.9.9c.1.3.1.5.1.8zM13.5 1.4h-3.3c1.1 0 2 .2 2.9.4l.4-.4z"/><path class="st1" d="M6.5 8.2c0-2.4 1.7-4.3 3.7-4.3.3 0 .6 0 .9.1l.8-.9c-.5-.2-1.1-.4-1.7-.4-2.6 0-4.7 2.5-4.7 5.5 0 .6.1 1.2.2 1.7l.9-.9c-.1-.3-.1-.5-.1-.8zM17.1 3.9c.3.2.6.5.8.7 1.6 1.6 2.4 3.2 2.4 3.3.1.2.1.4 0 .6 0 .1-.8 1.7-2.4 3.3-1.5 1.5-4.1 3.3-7.7 3.3-1 0-2-.1-2.9-.4L7 15h13.5V1.4h-1l-2.4 2.5z"/><path class="st2" d="M12.8 7.4v-.6L8.9 11h.7c1.8 0 3.2-1.6 3.2-3.6zM10.4 5.4C8.7 5.4 7.3 7 7.3 9c0 .2 0 .5.1.7l3.7-4.2c-.2-.1-.4-.1-.7-.1z"/><path class="st2" d="M15 8.2c0 3-2.1 5.5-4.7 5.5-.6 0-1.2-.1-1.7-.4l-1.2 1.3c.9.2 1.8.4 2.9.4 3.7 0 6.2-1.8 7.7-3.3 1.6-1.6 2.4-3.2 2.4-3.3.1-.2.1-.4 0-.6 0-.1-.8-1.7-2.4-3.3-.2-.2-.5-.5-.8-.7l-2.4 2.6c.1.6.2 1.2.2 1.8zM.1 7.9c-.1.2-.1.4 0 .6 0 .1.8 1.7 2.4 3.3.3.3.5.5.9.8L5.8 10c-.3-.6-.3-1.2-.3-1.8 0-3 2.1-5.5 4.7-5.5.6 0 1.2.1 1.7.4l1.2-1.3c-.9-.2-1.8-.4-2.9-.4-3.7 0-6.2 1.8-7.7 3.3C.9 6.2.1 7.8.1 7.9zM17.6.9L3.4 16.4l-.8-.9L16.8 0z"/></svg>