<svg xmlns="http://www.w3.org/2000/svg" viewBox="0 0 124.70289 75.502785" width="124.703" height="75.503" id="svg"><g transform="translate(-97.3 -68.997)"><path d="M202.4 142.6l9.6-5 7.1-9.6 1.4-9.9L216 106l-9.4-6.4-12.9-2c0-5 2.9-7.2.2-10.9-4.2-5.6-10.9-9.3-18.4-9.2-10.2.1-18.9 6.9-21.6 16.3-3-1.9-6.5-3.1-10.4-3.1-10.4 0-18.9 8.4-18.9 18.8 0 .7 0 1.3.1 2-1-.1-2-.1-3-.1-9.9.5-17.8 8.9-17.9 18.8 0 2.2.4 4.3 1 6.2 0 .1 1.8 2.1 1.8 2.3l2 1.3 3 2.5 15.6 1.9 20.2-1.3 3.6-5.2.3-12.7H147l-2.7-1.9 5.8-8.7 9.3-12.9 2.2-1 2.1 1.4 6.9 9.7 6.1 8.5 1.1 2.8-2 2.1-8.4.1 1 4.5 1.1 10.1 2.6 3.3 6.6-.4c.6-.2 23.7-.2 23.7-.2z" fill="#72cff3"/><path d="M179.6 144.5H175c-5.2 0-9.5-4.2-9.5-9.4v-11.3c0-1.1.9-1.9 1.9-1.9h6.4c.3 0 .5-.2.5-.3.1-.1.1-.4 0-.6l-14-19.6c-.2-.2-.4-.2-.5-.2-.1 0-.3 0-.5.2l-14 19.6c-.2.3-.1.5 0 .6.1.1.2.3.5.3h6.4c1.1 0 1.9.9 1.9 1.9v11.3c0 5.2-4.3 9.4-9.5 9.4h-26.5c-5.6 0-10.8-2.2-14.7-6.1-3.9-3.9-6.1-9.2-6.1-14.7 0-11 8.7-20.1 19.7-20.7h1.1c0-2.8.6-5.6 1.7-8.2 1-2.4 2.5-4.6 4.4-6.5 3.9-3.9 9.2-6.1 14.7-6.1 3.3 0 6.4.8 9.3 2.2 3.7-9.1 12.7-15.3 22.6-15.4 6.6-.1 12.8 2.5 17.5 7.1 4.7 4.7 7.3 10.8 7.3 17.4 0 .6 0 1.3-.1 1.9.6-.1 1.3-.1 1.9-.1 6.6 0 12.9 2.6 17.5 7.3 4.7 4.7 7.2 10.9 7.1 17.6-.2 11.6-8.7 21.6-20.2 23.8-1 .2-2-.5-2.2-1.5-.2-1 .5-2 1.5-2.2 9.8-1.9 17-10.3 17.1-20.1.1-5.6-2.1-10.9-6-14.8-3.9-4-9.2-6.2-14.8-6.2-1.3 0-2.6.1-3.8.3-.6.1-1.3-.1-1.7-.5-.4-.4-.6-1.1-.5-1.7.2-1.2.3-2.5.3-3.8 0-5.5-2.2-10.7-6.2-14.7-4-3.9-9.2-6.1-14.8-6-9.1.1-17.2 6.2-19.8 14.9-.2.6-.6 1-1.2 1.3-.6.2-1.2.1-1.7-.2-2.8-1.8-6-2.8-9.3-2.8-4.5 0-8.8 1.8-12 5-1.5 1.5-2.8 3.3-3.6 5.3-.9 2.1-1.4 4.4-1.4 6.7 0 .6 0 1.2.1 1.8.1.6-.1 1.1-.6 1.5-.4.4-1 .6-1.6.5-.9-.1-1.8-.1-2.7-.1-9 .5-16 7.9-16.1 16.9 0 4.5 1.8 8.8 5 12 3.2 3.2 7.5 5 12 5h26.5c3.1 0 5.7-2.5 5.7-5.6v-9.4h-4.5c-1.7 0-3.2-.9-3.9-2.4-.8-1.5-.6-3.2.3-4.6l14-19.6c.8-1.2 2.2-1.8 3.6-1.8s2.8.7 3.6 1.8l14 19.6c1 1.4 1.1 3.1.3 4.6-.8 1.5-2.3 2.4-3.9 2.4H169v9.4c0 3.1 2.5 5.6 5.6 5.6h4.6c1.1 0 1.9.9 1.9 1.9.4 1.2-.4 2-1.5 2z" fill="#373b3c"/><circle cx="190.3" cy="142.6" r="1.9" fill="#373b3c"/></g></svg>