<svg xmlns="http://www.w3.org/2000/svg" viewBox="0 0 129.44296 101.82093" width="129.443" height="101.821"><path fill="#dedd24" d="M89.5 62.42l10.8-.7 8.8-19.9-14.1-6.3-4-6.1H30.1l7 34.5"/><g fill="#373b3c" transform="translate(-51.9 -57.08)"><path d="M143.7 140.2c-5.2 0-9.4 4.2-9.4 9.3 0 5.2 4.2 9.4 9.4 9.4s9.3-4.2 9.3-9.4c0-5.1-4.2-9.3-9.3-9.3zm0 14.5c-2.8 0-5.1-2.3-5.1-5.1s2.3-5.1 5.1-5.1 5.1 2.3 5.1 5.1-2.3 5.1-5.1 5.1zM99.8 140.2c-5.2 0-9.4 4.2-9.4 9.3 0 5.2 4.2 9.4 9.4 9.4s9.3-4.2 9.3-9.4c0-5.1-4.1-9.3-9.3-9.3zm0 14.5c-2.8 0-5.1-2.3-5.1-5.1s2.3-5.1 5.1-5.1 5.1 2.3 5.1 5.1-2.3 5.1-5.1 5.1z"/><circle cx="84.5" cy="99.8" r="2.3"/><path d="M180.5 57.5c-.9-.7-2.3-.5-3 .4l-6.3 8.5c-3.3-2.9-7.7-4.7-12.5-4.7-9.4 0-17.1 6.8-18.7 15.8H82.6l-2.2-11c-1.1-5.5-5.9-9.4-11.5-9.4H54c-1.2 0-2.1 1-2.1 2.1s1 2.1 2.1 2.1h14.9c3.6 0 6.6 2.5 7.3 6l4.5 22.9c.2 1 1.1 1.7 2.1 1.7h.4c1.2-.2 1.9-1.3 1.7-2.5l-1.5-7.6h56.4c.6 9.5 8.2 17.2 17.7 17.8l-3.2 12.2v.2c-1.2 6.5-7.5 6.5-8.2 6.4H90.7l-1.8-8.9c-.2-1.2-1.3-1.9-2.5-1.7-1.2.2-1.9 1.3-1.7 2.5l2.9 14.7c1.1 5.3 5.8 9.2 11.2 9.2H153c1.2 0 2.1-1 2.1-2.1s-1-2.1-2.1-2.1H98.8c-3.4 0-6.4-2.4-7-5.8l-.3-1.5h54.9c3.8 0 10.7-2 12.1-9.9l3.5-13.5c8.9-1.6 15.7-9.3 15.7-18.6 0-4.1-1.3-7.9-3.5-11l6.8-9.2c.6-1 .4-2.3-.5-3zm-7.1 23.2c0 8.1-6.6 14.7-14.7 14.7S144 88.8 144 80.7 150.6 66 158.7 66c3.8 0 7.3 1.5 10 3.9l-9.8 13.3-4.4-4.4c-.8-.8-2.2-.8-3 0-.8.8-.8 2.2 0 3l6.1 6.1c.4.4.9.6 1.5.6h.2c.6 0 1.2-.4 1.6-.9l10.6-14.4c1.2 2.3 1.9 4.8 1.9 7.5z"/></g></svg>