<?xml version="1.0" encoding="utf-8"?>
<!-- Generator: Adobe Illustrator 19.0.1, SVG Export Plug-In . SVG Version: 6.00 Build 0)  -->
<svg version="1.1" id="Layer_1" xmlns="http://www.w3.org/2000/svg" xmlns:xlink="http://www.w3.org/1999/xlink" x="0px" y="0px"
	 viewBox="22 -32.5 67 87" enable-background="new 22 -32.5 67 87" xml:space="preserve">
<path opacity="0.2" fill="#403D3A" enable-background="new    " d="M65.5,26.1c-0.3-3.4-0.2-5.7-0.2-8.8c1.5-0.8,4.2-5.9,4.6-10.2
	c1.2-0.1,3-1.3,3.6-5.9c0.3-2.5-0.9-3.9-1.6-4.3c1.9-5.8,5.9-23.9-7.3-25.8c-1.3-2.4-4.8-3.6-9.3-3.6C37.1-32.2,35-18.6,38.9-3
	c-0.7,0.4-1.9,1.8-1.6,4.3c0.5,4.6,2.4,5.8,3.6,5.9c0.5,4.3,3.2,9.4,4.7,10.2c0,3.1,0.1,5.4-0.2,8.8c-2.5,6.9-15.8,7.5-23.4,14.3
	c8,8.2,20.9,14,34.6,14s29.7-11,32.4-14C81.4,33.7,68.1,33.1,65.5,26.1z"/>
</svg>
