<?xml version="1.0" encoding="UTF-8"?><!DOCTYPE svg PUBLIC "-//W3C//DTD SVG 1.1//EN" "http://www.w3.org/Graphics/SVG/1.1/DTD/svg11.dtd"><svg xmlns="http://www.w3.org/2000/svg" xmlns:xlink="http://www.w3.org/1999/xlink"><defs>
        <path d="M8.877 18a8.745 8.745 0 0 0 4.63-1.32A9.022 9.022 0 0 0 17.753 9c0-4.97-3.974-9-8.876-9C3.974 0 0 4.03 0 9s3.974 9 8.877 9z"/>
    
			<rect id="SVGID_3_" x="7.9" y="6.6" width="12.2" height="14.7"/>
		
				<rect id="SVGID_3_" x="6" y="7.7" width="14.5" height="12.7"/>
			
        <filter width="170.1%" height="101.7%" x="-1.2%" y="-.8%" filterUnits="objectBoundingBox">
            <feOffset dy="1" in="SourceAlpha" result="shadowOffsetOuter1"/>
            <feGaussianBlur in="shadowOffsetOuter1" result="shadowBlurOuter1" stdDeviation="1"/>
            <feColorMatrix in="shadowBlurOuter1" result="shadowMatrixOuter1" values="0 0 0 0 0 0 0 0 0 0 0 0 0 0 0 0 0 0 0.25 0"/>
            <feMerge>
                <feMergeNode in="shadowMatrixOuter1"/>
                <feMergeNode in="SourceGraphic"/>
            </feMerge>
        </filter>
    
        <filter width="170.1%" height="101.7%" x="-1.2%" y="-.8%" filterUnits="objectBoundingBox">
            <feOffset dy="1" in="SourceAlpha" result="shadowOffsetOuter1"/>
            <feGaussianBlur in="shadowOffsetOuter1" result="shadowBlurOuter1" stdDeviation="1"/>
            <feColorMatrix in="shadowBlurOuter1" result="shadowMatrixOuter1" values="0 0 0 0 0 0 0 0 0 0 0 0 0 0 0 0 0 0 0.25 0"/>
            <feMerge>
                <feMergeNode in="shadowMatrixOuter1"/>
                <feMergeNode in="SourceGraphic"/>
            </feMerge>
        </filter>
    
        <path d="M0 22V.7h17.068V22H0z"/>
        <path d="M3.796 13H.473V.854h3.322V13z"/>
    
        <circle cx="9" cy="9" r="9"/>
    <style>

</style>
        <radialGradient cx="14.931%" cy="100.347%" r="127.775%" fx="14.931%" fy="100.347%">
            <stop offset="0%" stop-color="#FFB140"/>
            <stop offset="25.59%" stop-color="#FF5445"/>
            <stop offset="59.9%" stop-color="#FC2B82"/>
            <stop offset="100%" stop-color="#8E40B7"/>
        </radialGradient>
    
        <filter width="170.1%" height="101.7%" x="-1.2%" y="-.8%" filterUnits="objectBoundingBox">
            <feOffset dy="1" in="SourceAlpha" result="shadowOffsetOuter1"/>
            <feGaussianBlur in="shadowOffsetOuter1" result="shadowBlurOuter1" stdDeviation="1"/>
            <feColorMatrix in="shadowBlurOuter1" result="shadowMatrixOuter1" values="0 0 0 0 0 0 0 0 0 0 0 0 0 0 0 0 0 0 0.25 0"/>
            <feMerge>
                <feMergeNode in="shadowMatrixOuter1"/>
                <feMergeNode in="SourceGraphic"/>
            </feMerge>
        </filter>
    </defs><symbol id="icon-arrow" viewBox="0 0 9.7589996 17.774999"><path d="M1.471 0l8.288 8.994-8.014 8.779.002.002-1.478-1.35L7.044 9 0 1.354z"/></symbol><symbol id="icon-email" viewBox="0 0 28 28">
<g>
	<circle style="fill-rule:evenodd;clip-rule:evenodd;fill:none;stroke:#000000;stroke-miterlimit:10;" cx="14" cy="14" r="13.4"/>
	<path d="M8.3,9.6l4.8,3.7c0.5,0.4,1.3,0.4,1.8,0l4.8-3.7C20.2,9.3,20.1,9,19.5,9H8.5C7.9,9,7.8,9.3,8.3,9.6L8.3,9.6z M8.3,9.6"/>
	<path d="M20.4,9.6c-0.1,0.2-0.2,0.4-0.5,0.6l-4.5,3.5l3.3,2.3c0.1,0.1,0.2,0.3,0.1,0.5c0,0.1-0.1,0.2-0.2,0.2c0,0-0.1,0-0.1,0
		l-3.6-2.5c-0.3,0.1-0.6,0.2-0.9,0.2c-0.3,0-0.6-0.1-0.9-0.2l-3.5,2.5c0,0-0.1,0-0.1,0c-0.1,0-0.2-0.1-0.2-0.2
		c-0.1-0.2,0-0.4,0.1-0.5l3.2-2.3l-4.5-3.5C7.8,10,7.6,9.8,7.6,9.6c-0.1,0.2-0.1,0.4-0.1,0.7v7.4c0,0.7,0.5,1.3,1.1,1.3h11.1
		c0.6,0,1.1-0.6,1.1-1.3v-7.4C20.6,10.1,20.5,9.8,20.4,9.6L20.4,9.6z M20.4,9.6"/>
</g>
</symbol><symbol id="icon-bad" viewBox="0 0 24 24">
    
    <g transform="translate(3.247 3)">
        <use xlink:href="#a"/>
        <path d="M8.877 19.5c1.94 0 3.803-.54 5.422-1.546A10.52 10.52 0 0 0 19.253 9c0-5.794-4.64-10.5-10.376-10.5S-1.5 3.206-1.5 9 3.141 19.5 8.877 19.5z"/>
        <path d="M5.017 13.372a4.718 4.718 0 0 1 4.012-2.214c1.7 0 3.188.888 4.016 2.22"/>
        <ellipse cx="5.918" cy="6.857" rx="1" ry="1"/>
        <ellipse cx="11.836" cy="6.857" rx="1" ry="1"/>
    </g>
</symbol><symbol id="icon-evernote" viewBox="0 0 28 28">
<g>
	<circle style="fill-rule:evenodd;clip-rule:evenodd;fill:none;stroke:#000000;stroke-miterlimit:10;" cx="14" cy="14" r="13.4"/>
	<g>
		
		<clipPath id="SVGID_1_">
			<use xlink:href="#SVGID_3_" style="overflow:visible;"/>
		</clipPath>
		<path style="clip-path:url(#SVGID_1_);" d="M19.9,9.4c0-0.9-1.4-1-1.4-1l-3.3-0.2c0,0-0.1-0.9-0.7-1.2c-0.4-0.2-1.5-0.2-2.6-0.2
			c-0.2,0-0.5,0.2-0.5,0.5v2.1c0,0.3-0.3,0.6-0.6,0.6h-2c-0.5,0-0.9,0.2-0.9,0.6c0,0.4,0.6,5,1.5,5.9c0.5,0.5,3.5,0.9,4.1,0.9
			c0.6,0,0.4-1.9,0.6-1.9c0.2,0,0.4,1.1,1.4,1.3c1,0.2,2.3,0.2,2.4,0.9c0.1,0.9,0.2,2.2-0.4,2.2l-1.4,0.1c-0.4,0-0.4-1.1-0.3-1.1
			c0.1,0,0.3,0,0.3,0c0.2,0,0.3-0.1,0.3-0.3l0-0.6c0-0.2-0.1-0.3-0.3-0.3c-0.6,0-1.9,0.1-1.9,1.2c-0.1,1.4,0.1,2,0.3,2.1
			c0.2,0.1,0.5,0.4,3.1,0.4C21.2,21.4,19.9,10.3,19.9,9.4L19.9,9.4z M18.1,13.9c-0.1,0.1-0.5-0.3-0.8-0.3c-0.3,0-0.6,0.3-0.7,0.2
			c-0.1-0.1,0.1-0.9,0.7-0.9C17.8,12.9,18.1,13.8,18.1,13.9L18.1,13.9z M18.1,13.9"/>
	</g>
	<path d="M10.3,7.1L8.6,8.8c-0.1,0.1,0,0.4,0.1,0.4h1.6c0.1,0,0.2-0.1,0.2-0.2V7.2C10.6,7,10.4,6.9,10.3,7.1L10.3,7.1z M10.3,7.1"/>
</g>
</symbol><symbol id="icon-bookmark-circle" viewBox="0 0 50 50"><style>





</style><path class="st0" d="M19.4 17.1v17.6l6.3-6.5 6.3 6.5V17.1H19.4z"/><path class="st1" d="M13.8 19.3h5.6M32.1 19.3h5.6"/><circle class="st0" cx="25" cy="24.9" r="22.7"/><circle class="st2" cx="39.2" cy="7.1" r="5.6"/><circle class="st0" cx="39.2" cy="7.1" r="1.8"/><circle class="st0" cx="39.2" cy="7.1" r="3.5"/><circle class="st0" cx="39.2" cy="7.1" r="4.4"/></symbol><symbol id="icon-print" viewBox="0 0 28 28">
<g>
	<circle style="fill-rule:evenodd;clip-rule:evenodd;fill:none;stroke:#000000;stroke-miterlimit:10;" cx="14" cy="14" r="13.4"/>
	<path d="M20.8,9.6H19V8c0-0.3-0.3-0.6-0.6-0.6H9.6C9.3,7.4,9,7.6,9,8v1.6H7.2c-0.3,0-0.6,0.3-0.6,0.6v6c0,0.3,0.3,0.6,0.6,0.6H9V20
		c0,0.2,0,0.4,0.2,0.5c0.1,0.1,0.2,0.1,0.2,0.1c0.1,0,0.2,0,0.3,0h8.6c0.1,0,0.2,0,0.3,0c0.1,0,0.2-0.1,0.2-0.1
		C19,20.3,19,20.2,19,20v-3.2h1.8c0.3,0,0.6-0.3,0.6-0.6v-6C21.4,9.9,21.2,9.6,20.8,9.6L20.8,9.6z M8.1,11.8c-0.3,0-0.5-0.2-0.5-0.5
		c0-0.3,0.2-0.5,0.5-0.5c0.3,0,0.5,0.2,0.5,0.5C8.6,11.5,8.4,11.8,8.1,11.8L8.1,11.8z M18.4,20H9.6v-4.8h8.8V20z M18.4,9.6H9.6v-1
		C9.6,8.2,9.9,8,10.2,8h7.6c0.3,0,0.6,0.3,0.6,0.6C18.4,8.9,18.4,9.3,18.4,9.6L18.4,9.6z M18.4,9.6"/>
</g>
</symbol><symbol id="icon-bookmarks-list" viewBox="0 0 26.539 24.634001"><path d="M.032 4.668v2h12.473v-2H.032zm0 5.978v1.998h12.473v-1.998H.032zm.502.998l-.002.002h.5v-.002H.534zm.498.002h10.473v.498l.498-.498v-.002zm-.498 0l.498.498v-.498zm-.504 4.98v2h22.998v-2H.03zm0 5.98v1.997h22.996v-1.998H.03zm.502.997v.002h.498v-.002H.532zm.498.002h20.996v.498l.498-.498v-.002zm-.498 0l.498.498v-.498zM15.541 14.492l5.5-4.722 5.498 4.722V0H15.541"/></symbol><symbol id="icon-telegram" viewBox="0 0 28 28">
<g>
	<g>
		<g>
			
			<clipPath id="SVGID_1_">
				<use xlink:href="#SVGID_3_" style="overflow:visible;"/>
			</clipPath>
			<path style="clip-path:url(#SVGID_1_);" d="M6.2,13.7L9.6,15l1.3,4.2c0.1,0.3,0.4,0.4,0.6,0.2l1.9-1.5c0.2-0.2,0.5-0.2,0.7,0
				l3.4,2.4c0.2,0.2,0.6,0,0.6-0.2l2.5-11.9c0.1-0.3-0.2-0.6-0.5-0.4L6.2,13C5.9,13.1,5.9,13.6,6.2,13.7L6.2,13.7z M10.7,14.3l6.5-4
				c0.1-0.1,0.2,0.1,0.1,0.2l-5.4,5c-0.2,0.2-0.3,0.4-0.3,0.7l-0.2,1.4c0,0.2-0.3,0.2-0.3,0L10.4,15C10.3,14.7,10.4,14.4,10.7,14.3
				L10.7,14.3z M10.7,14.3"/>
		</g>
	</g>
	<circle style="fill-rule:evenodd;clip-rule:evenodd;fill:none;stroke:#000000;stroke-miterlimit:10;" cx="14" cy="14" r="13.4"/>
</g>
</symbol><symbol id="icon-trash" viewBox="0 0 28.573871 28.573871">
  <g fill="#ff5749" transform="translate(-3.602 -3.226)">
    <path d="M24.1 14.8v14c0 .6-.4 1-1 1h-11c-.6 0-1-.4-1-1v-14h13m2-2h-17v16c0 1.7 1.3 3 3 3h11c1.7 0 3-1.3 3-3v-16z"/>
  </g>
  <path fill="none" stroke="#ff5749" stroke-width="2" stroke-miterlimit="10" d="M10.698408 24.373869V13.77387m3.3 10.599999V13.77387m3.299999 10.599999V13.77387"/>
  <g stroke="#ff5749" transform="translate(-3.602 -3.226)">
    <path fill="none" stroke-width="2" stroke-miterlimit="10" d="M10.1 6.8000002L26.4 11.5M14.1 8l.7-2.4c.3-1 1.3-1.6 2.3-1.3l4.7 1.3c1 .3 1.6 1.3 1.3 2.3l-.7 2.4"/>
  </g>
</symbol><symbol id="icon-whatsapp" viewBox="0 0 28 28">
<path style="fill-rule:evenodd;clip-rule:evenodd;fill:none;stroke:#000000;stroke-miterlimit:10;" d="M5.1,22.9"/>
<g>
	<path style="fill-rule:evenodd;clip-rule:evenodd;" d="M20.3,16.8c-0.1-0.1-0.3-0.2-0.6-0.4c-0.3-0.2-1.9-0.9-2.1-1
		c-0.3-0.1-0.5-0.2-0.7,0.2c-0.2,0.3-0.8,1-1,1.2c-0.2,0.2-0.4,0.2-0.7,0.1c-0.3-0.2-1.3-0.5-2.5-1.5c-0.9-0.8-1.6-1.8-1.7-2.2
		c-0.2-0.3,0-0.5,0.1-0.6c0.1-0.1,0.3-0.4,0.5-0.5c0.2-0.2,0.2-0.3,0.3-0.5c0.1-0.2,0.1-0.4,0-0.5c-0.1-0.2-0.7-1.7-1-2.3
		c-0.3-0.6-0.5-0.5-0.7-0.5c-0.2,0-0.4,0-0.6,0C9.3,8.1,9,8.2,8.7,8.5c-0.3,0.3-1.1,1.1-1.1,2.6c0,1.5,1.1,3,1.3,3.2
		c0.2,0.2,2.2,3.5,5.4,4.7c3.2,1.2,3.2,0.8,3.8,0.8c0.6-0.1,1.9-0.8,2.1-1.5C20.4,17.6,20.4,17,20.3,16.8L20.3,16.8z"/>
	<path style="fill-rule:evenodd;clip-rule:evenodd;fill:none;stroke:#000000;stroke-miterlimit:10;" d="M14,0.6
		C6.6,0.6,0.6,6.6,0.6,14c0,3.7,1.5,7.1,4,9.5L3,27.3l4.4-1.7c2,1.1,4.2,1.8,6.6,1.8c7.4,0,13.4-6,13.4-13.4S21.4,0.6,14,0.6z"/>
</g>
</symbol><symbol id="icon-buy" viewBox="0 0 64 64">
<g>
	<g>
		<g>
			<g>
				<path d="M24,50c-3.9,0-7,3.1-7,7s3.1,7,7,7s7-3.1,7-7S27.9,50,24,50z"/>
			</g>
		</g>
		<g>
			<g>
				<path d="M51,50c-3.9,0-7,3.1-7,7s3.1,7,7,7s7-3.1,7-7S54.9,50,51,50z"/>
			</g>
		</g>
	</g>
	<g>
		<g>
			<g>
				<path d="M58.5,46H14.8l-8-38H0V0h13.2l1.9,9h48.4L58.5,46z"/>
			</g>
		</g>
	</g>
</g>
</symbol><symbol id="icon-calendar" viewBox="0 0 44.8 47.2"><path d="M44 3.2h-5.6V.8c0-.4-.4-.8-.8-.8H32c-.4 0-.8.4-.8.8v2.4H13.6V.8c0-.4-.4-.8-.8-.8H7.2c-.4 0-.8.4-.8.8v2.4H.8c-.4 0-.8.4-.8.8v43.2c0 .4.4.8.8.8H44c.4 0 .8-.4.8-.8V4c0-.4-.4-.8-.8-.8zM32.8 1.6h4v4.8h-4V1.6zM8 1.6h4v4.8H8V1.6zM1.6 4.8h4.8v2.4c0 .4.4.8.8.8h5.6c.4 0 .8-.4.8-.8V4.8h17.6v2.4c0 .4.4.8.8.8h5.6c.4 0 .8-.4.8-.8V4.8h4.8V12H1.6V4.8zm0 41.6V13.6h41.6v32.8H1.6zm0 0"/><path d="M28.8 18.4H7.2v23.2h30.4V18.4h-8.8zM23.2 20h5.6v5.6h-5.6V20zm5.6 12.8h-5.6v-5.6h5.6v5.6zM16 27.2h5.6v5.6H16v-5.6zm0-7.2h5.6v5.6H16V20zm-7.2 0h5.6v5.6H8.8V20zm0 7.2h5.6v5.6H8.8v-5.6zM14.4 40H8.8v-5.6h5.6V40zm7.2 0H16v-5.6h5.6V40zm7.2 0h-5.6v-5.6h5.6V40zm7.2 0h-5.6v-5.6H36V40zm0-7.2h-5.6v-5.6H36v5.6zM36 20v5.6h-5.6V20H36zm0 0"/></symbol><symbol id="icon-cart-mini" viewBox="0 0 32 32">
<style type="text/css">



</style>
<g>
	<g>
		<g>
			<path class="st0" d="M14.5,25.5c0,1.3-1,2.3-2.3,2.3s-2.3-1-2.3-2.3c0-1.3,1-2.3,2.3-2.3S14.5,24.2,14.5,25.5z M21.5,23.1
				c-1.3,0-2.3,1-2.3,2.3c0,1.3,1,2.3,2.3,2.3c1.3,0,2.3-1,2.3-2.3C23.9,24.2,22.8,23.1,21.5,23.1z"/>
			<path class="st1" d="M8.3,11h18.3l-2.3,9.1H10.7 M10.7,20.1L5.9,4.9H4.3"/>
		</g>
	</g>
</g>
</symbol><symbol id="icon-cart" viewBox="0 0 19 19">
    
    <path d="M3 13.5c0 .825.675 1.5 1.5 1.5S6 14.325 6 13.5 5.325 12 4.5 12 3 12.675 3 13.5zM0 1.467h1.5L4.2 7.04 3.15 8.8c-.075.22-.15.513-.15.733C3 10.34 3.675 11 4.5 11h9V9.533H4.8c-.075 0-.15-.073-.15-.146v-.074l.675-1.246h5.55c.6 0 1.05-.294 1.275-.734l2.7-4.766c.15-.147.15-.22.15-.367 0-.44-.3-.733-.75-.733H3.15L2.475 0H0v1.467zM10 13.5c0 .825.675 1.5 1.5 1.5s1.5-.675 1.5-1.5-.675-1.5-1.5-1.5-1.5.675-1.5 1.5z" filter="url(#a)" transform="translate(2 1)"/>
</symbol><symbol id="icon-checked" viewBox="0 0 16.12109 16.121089"><style>

</style><path d="M14.666 1.498L5.174 11.545l-3.588-4.67L0 8.094l5.016 6.529L16.12 2.871l-1.455-1.373z"/></symbol><symbol id="icon-circle" viewBox="288 -198.6 1188.6 1188.6"><style>

</style><circle class="st0" cx="182.3" cy="-129.1" r="514.3" transform="translate(700 524.78)"/></symbol><symbol id="icon-clock" viewBox="0 0 10.8 10.8"><style>

</style><path class="st0" d="M5.4 10.8c-3 0-5.4-2.4-5.4-5.4C0 2.4 2.4 0 5.4 0c3 0 5.4 2.4 5.4 5.4 0 3-2.4 5.4-5.4 5.4zM5.4.3C2.6.3.3 2.6.3 5.4s2.3 5.1 5.1 5.1 5.1-2.3 5.1-5.1S8.2.3 5.4.3zm0 0"/><path class="st0" d="M3.8 7.5h-.1c-.1-.1-.1-.2 0-.2l1.5-1.8V2.2c0-.1.1-.2.2-.2s.2.1.2.2v3.2L4 7.4c-.1 0-.1.1-.2.1zm0 0"/></symbol><symbol id="icon-crone" viewBox="0 0 27 23">
    
    <path d="M29.236 22.696l-1.742-3.968 4.628-3.562-2.886 7.53zm-12.872 3.206h12.271v-1.02h-12.27v1.02zm1.096-7.062l-1.696 3.856-2.868-7.473 4.564 3.617zm8.007 4.852l-.023-.021 2.951.021-1.856-4.227 1.856 4.227h-2.928zm-6.345 0h-2.515l1.8-4.105-1.8 4.105h2.515zm1.929 0h2.528-2.528zm-4.444 0L22.5 10.263l5.895 13.43H16.607zm17.159-10.734a.572.572 0 0 0-.703.005l-6.052 4.66-3.75-8.247c-.188-.425-1.303-.589-1.667.043l-3.648 8.309-5.998-4.761a.583.583 0 0 0-.711-.012.595.595 0 0 0-.197.688l4.156 10.834v2.012c0 .328.263.59.586.59H29.22a.585.585 0 0 0 .584-.59v-2.012l4.156-10.834a.59.59 0 0 0-.194-.685z" filter="url(#a)" transform="translate(-9 -8)"/>
</symbol><symbol id="icon-cross" viewBox="0 0 12.707106 12.707107"><style>

</style><path d="M12 0L0 12l.708.707 12-12L12 0z"/><path d="M.708 0L0 .707l12 12 .707-.707-12-12z"/></symbol><symbol id="icon-designer-logo" viewBox="0 0 225.4 40.103122"><style>

</style><path d="M225.4 19.8L205.6 0h-30.7v8h27.4l11.8 11.8-11.8 11.8h-27.4v8h30.7zM128.7.1h8.3l9.9 13.8c1.2 1.7 2.2 3.1 3.1 4.7h.1c.7-1.4 1.7-3.1 2.9-5L161.9.1h8.3v39.4H161v-20c0-1.4 0-3.1.1-4.2h-.1c-.4.8-2 3.2-2.6 4.2L149.9 32l-9.3-13c-.8-1.1-1.8-2.3-2.6-3.8h-.1c.1 1.3.1 2.9.1 3.9v20.4h-9.2V.1zM90.3 33c-1.3-2.2-1.9-5.1-1.9-8.6V.1h9.2v23.8c0 2 .4 3.8 1.2 5.1 1.4 2.3 3.9 3.5 7.2 3.5 3.3 0 5.8-1.2 7.2-3.5.8-1.3 1.2-3.1 1.2-5.1V.1h9.2v24.3c0 3.4-.7 6.3-1.9 8.6-2.8 4.9-8.3 7.1-15.6 7.1-7.6.1-13.1-2.2-15.8-7.1zm-27.7-7.3L48.9.1h9.9l8.5 16.1h.1L76 .1h9.8l-14 25.7v13.8h-9.2V25.7zM32.8 7.9H17L14.7.2h32.5L28.4 31.8H47v7.7H13.4L32.8 7.9zM0 .1h9.2v39.4H0V.1z"/></symbol><symbol id="icon-disk" viewBox="288 -198.6 1188.6 1188.6"><style>

</style><circle class="st0" cx="182.3" cy="-129.1" r="594.3" transform="translate(700 524.78)"/></symbol><symbol id="icon-dislike" viewBox="0 0 22 22">
    
    <g>
        <g transform="rotate(180 11 11.35)">
            <mask>
                <use xlink:href="#a"/>
            </mask>
            <path d="M0 9.368l.016 5.954c.003.396.106.787.303 1.13l2.9 4.965c.207.356.588.572.999.57 3.288-.024 7.912.002 10.765.013.906 0 1.456-.376 1.764-.693.207-.214.32-.501.32-.797V10.472c0-.287-.106-.567-.304-.778a12.82 12.82 0 0 1-1.207-1.561 28.3 28.3 0 0 1-2.15-3.75c-.022-.048-.022-1.467-.018-2.53A1.147 1.147 0 0 0 12.24.7h-1.58c-.424 0-.815.234-1.017.61a8.169 8.169 0 0 0-.824 2.204c-.142.61-.13 1.229-.071 1.849.085.906.558 2.842.558 2.842l-8.158.009A1.154 1.154 0 0 0 0 9.368" mask="url(#b)"/>
        </g>
        <g transform="rotate(180 2 6.85)">
            <mask>
                <use xlink:href="#c"/>
            </mask>
            <path d="M.473 2.002v9.85A1.15 1.15 0 0 0 1.621 13h1.027c.633 0 1.147-.515 1.147-1.148v-9.85c0-.634-.514-1.148-1.147-1.148H1.62C.986.854.472 1.368.474 2.002" mask="url(#d)"/>
        </g>
    </g>
</symbol><symbol id="icon-dropdown" viewBox="0 0 11 7"><style>

</style><path class="st0" d="M10.6.6L5.7 6.2c-.1.1-.3.1-.5 0L.4.6"/></symbol><symbol id="icon-eye-crossed" viewBox="0 0 20.499999 16.4"><style>
.st0 {
  enable-background: new;
}
</style><path class="st1" d="M2.5 11.7C.9 10.1.1 8.5.1 8.5c-.1-.2-.1-.4 0-.6 0-.1.8-1.7 2.4-3.3C4 3.1 6.6 1.3 10.2 1.3H0V15h1l2.3-2.5c-.3-.2-.6-.5-.8-.8zM13.9 8.2c0 2.4-1.7 4.3-3.7 4.3-.3 0-.6 0-.8-.1l-.9.9c.5.2 1.1.4 1.7.4 2.6 0 4.7-2.5 4.7-5.5 0-.6-.1-1.2-.2-1.7l-.9.9c.1.3.1.5.1.8zM13.5 1.4h-3.3c1.1 0 2 .2 2.9.4l.4-.4z"/><path class="st1" d="M6.5 8.2c0-2.4 1.7-4.3 3.7-4.3.3 0 .6 0 .9.1l.8-.9c-.5-.2-1.1-.4-1.7-.4-2.6 0-4.7 2.5-4.7 5.5 0 .6.1 1.2.2 1.7l.9-.9c-.1-.3-.1-.5-.1-.8zM17.1 3.9c.3.2.6.5.8.7 1.6 1.6 2.4 3.2 2.4 3.3.1.2.1.4 0 .6 0 .1-.8 1.7-2.4 3.3-1.5 1.5-4.1 3.3-7.7 3.3-1 0-2-.1-2.9-.4L7 15h13.5V1.4h-1l-2.4 2.5z"/><path class="st2" d="M12.8 7.4v-.6L8.9 11h.7c1.8 0 3.2-1.6 3.2-3.6zM10.4 5.4C8.7 5.4 7.3 7 7.3 9c0 .2 0 .5.1.7l3.7-4.2c-.2-.1-.4-.1-.7-.1z"/><path class="st2" d="M15 8.2c0 3-2.1 5.5-4.7 5.5-.6 0-1.2-.1-1.7-.4l-1.2 1.3c.9.2 1.8.4 2.9.4 3.7 0 6.2-1.8 7.7-3.3 1.6-1.6 2.4-3.2 2.4-3.3.1-.2.1-.4 0-.6 0-.1-.8-1.7-2.4-3.3-.2-.2-.5-.5-.8-.7l-2.4 2.6c.1.6.2 1.2.2 1.8zM.1 7.9c-.1.2-.1.4 0 .6 0 .1.8 1.7 2.4 3.3.3.3.5.5.9.8L5.8 10c-.3-.6-.3-1.2-.3-1.8 0-3 2.1-5.5 4.7-5.5.6 0 1.2.1 1.7.4l1.2-1.3c-.9-.2-1.8-.4-2.9-.4-3.7 0-6.2 1.8-7.7 3.3C.9 6.2.1 7.8.1 7.9zM17.6.9L3.4 16.4l-.8-.9L16.8 0z"/></symbol><symbol id="icon-eye" viewBox="0 0 611.875 408"><path d="M305.874 280.5v-.502c20.967 0 39.965-8.514 53.727-22.271 13.758-13.761 22.271-32.757 22.271-53.728 0-20.971-8.514-39.967-22.271-53.727-13.637-13.634-32.42-22.119-53.166-22.27 7.875 8.178 12.687 19.173 12.687 31.374-.002 24.895-20.241 45.123-45.124 45.123-17.495 0-32.772-10.056-40.209-24.578-2.539 7.533-3.918 15.631-3.918 24.078 0 20.965 8.519 39.961 22.278 53.724 13.76 13.76 32.758 22.275 53.723 22.277l.002.5-.001.498c-42.482 0-77-34.52-77.001-76.999 0-8.983 1.54-17.583 4.364-25.541l.403-1.133.521 1.085c7.06 14.761 22.316 25.09 39.84 25.088 12.165 0 23.194-4.943 31.185-12.932 7.989-7.991 12.938-19.019 12.938-31.191 0-12.36-5.041-23.437-13.239-31.519l-.867-.856h1.858c42.491 0 77 34.509 77 77 0 42.492-34.51 76.999-77 77.001v-.501h-.001zm0 0c42.215 0 76.5-34.285 76.5-76.5s-34.285-76.5-76.5-76.5h-.637c8.288 8.172 13.387 19.38 13.387 31.875 0 24.62-20.019 44.625-44.625 44.625-17.723 0-33.15-10.442-40.291-25.373-2.806 7.904-4.335 16.447-4.335 25.373.001 42.203 34.297 76.5 76.501 76.5zm288.915-119.977C547.359 100.215 431.843 0 306 0 180.029 0 64.4 100.215 16.958 160.522 6.248 174.292.382 189.21 0 204c.382 14.79 6.248 29.707 16.958 43.477C64.401 307.798 179.903 408 305.874 408s241.473-100.201 288.915-160.521c10.838-13.771 16.703-28.688 17.086-43.478-.383-14.791-6.25-29.708-17.086-43.478zM305.874 355.5c-83.628 0-151.5-67.872-151.5-151.5s67.873-151.5 151.5-151.5 151.5 67.872 151.5 151.5c-.001 83.628-67.873 151.5-151.5 151.5z"/></symbol><symbol id="icon-facebook" viewBox="0 0 50 51">
    <path d="M21.47 39.079h5.62V25.477h3.75l.497-4.686H27.09l.006-2.347c0-1.222.116-1.877 1.87-1.877h2.343v-4.688h-3.75c-4.504 0-6.09 2.274-6.09 6.098v2.814h-2.807v4.687h2.808V39.08zm3.53 11.4c-13.807 0-25-11.193-25-25s11.193-25 25-25 25 11.193 25 25-11.193 25-25 25z"/>
</symbol><symbol id="icon-fb" viewBox="0 0 16.900015 16.900015"><path class="st1" d="M12.645 0h-2.1c-2.4 0-4 1.6-4 4.2v1.9h-2.2c-.2 0-.3.2-.3.3v2.8c0 .2.2.3.3.3h2.1v7.1c0 .2.2.3.3.3h2.8c.2 0 .3-.2.3-.3V9.5h2.5c.2 0 .3-.2.3-.3V6.4c0-.1 0-.2-.1-.2-.1-.1-.1-.1-.2-.1h-2.5V4.5c0-.8.2-1.2 1.2-1.2h1.4c.2 0 .3-.2.3-.3V.4c.2-.3.1-.4-.1-.4zm0 0"/></symbol><symbol id="icon-filter.b" viewBox="0 0 58 58"><style>

</style><g transform="translate(-645.7 1 -4883.95)"><path d="M674.7 6.951c-5.328 0-9.7 4.372-9.7 9.7 0 4.442 3.1 8.058 7.2 9.19v26.21h5V25.84c4.1-1.132 7.201-4.748 7.201-9.19 0-5.328-4.373-9.7-9.701-9.7zm0 5a4.663 4.663 0 0 1 4.701 4.7 4.665 4.665 0 0 1-4.701 4.7 4.663 4.663 0 0 1-4.7-4.7c0-2.626 2.075-4.7 4.7-4.7zM652.901 8.252V25.16c-4.1 1.133-7.201 4.747-7.201 9.19s3.101 8.059 7.201 9.191v8.51h5v-8.51c4.1-1.132 7.2-4.748 7.2-9.191 0-4.443-3.1-8.057-7.2-9.19V8.252h-5zm2.5 21.398c2.626 0 4.7 2.074 4.7 4.7a4.663 4.663 0 0 1-4.7 4.7 4.665 4.665 0 0 1-4.701-4.7c0-2.626 2.076-4.7 4.701-4.7zM691.5 8.451v25.71c-4.099 1.132-7.198 4.746-7.198 9.189 0 5.327 4.371 9.7 9.699 9.7 5.327 0 9.699-4.373 9.699-9.7 0-4.443-3.1-8.057-7.2-9.19V8.451h-5zm2.5 30.2c2.626 0 4.7 2.073 4.7 4.699a4.663 4.663 0 0 1-4.7 4.7 4.663 4.663 0 0 1-4.698-4.7c0-2.626 2.073-4.7 4.699-4.7z"/><ellipse cx="694.585" cy="4927.318" rx="5.558" ry="5.785"/><ellipse cx="698.328" cy="4931.742" rx="10.277" ry="6.352"/></g></symbol><symbol id="icon-filter" viewBox="0 0 58 58"><style>

</style><path d="M29 5.951c-5.328 0-9.7 4.372-9.7 9.7 0 4.442 3.1 8.058 7.2 9.19v26.21h5V24.84c4.1-1.132 7.201-4.748 7.201-9.19 0-5.328-4.373-9.7-9.701-9.7zm0 5a4.663 4.663 0 0 1 4.701 4.7A4.665 4.665 0 0 1 29 20.35a4.663 4.663 0 0 1-4.7-4.7c0-2.626 2.075-4.7 4.7-4.7zM7.201 7.252V24.16C3.101 25.293 0 28.907 0 33.35s3.101 8.059 7.201 9.191v8.51h5v-8.51c4.1-1.132 7.2-4.748 7.2-9.191 0-4.443-3.1-8.057-7.2-9.19V7.252h-5zm2.5 21.398c2.626 0 4.7 2.074 4.7 4.7a4.663 4.663 0 0 1-4.7 4.7A4.665 4.665 0 0 1 5 33.35c0-2.626 2.076-4.7 4.701-4.7zM45.8 7.451v25.71c-4.099 1.132-7.198 4.746-7.198 9.189 0 5.327 4.371 9.7 9.699 9.7 5.327 0 9.699-4.373 9.699-9.7 0-4.443-3.1-8.057-7.2-9.19V7.451h-5zm2.5 30.2c2.626 0 4.7 2.073 4.7 4.699a4.663 4.663 0 0 1-4.7 4.7 4.663 4.663 0 0 1-4.698-4.7c0-2.626 2.073-4.7 4.699-4.7z"/></symbol><symbol id="icon-good" viewBox="0 0 24 24">
    
    <g>
        <g transform="translate(3 3)">
            <use xlink:href="#a"/>
            <circle cx="9" cy="9" r="10.5"/>
        </g>
        <path d="M7.882 14.595a4.703 4.703 0 0 0 4.012 2.244c1.7 0 3.188-.9 4.015-2.25"/>
        <path d="M9.402 11.571a.857.857 0 1 0 0-1.714.857.857 0 0 0 0 1.714zM14.545 11.571a.857.857 0 1 0 0-1.714.857.857 0 0 0 0 1.714z"/>
    </g>
</symbol><symbol id="icon-google" viewBox="0 0 50 51">
    <path d="M50 25.211c0 13.807-11.193 25-25 25s-25-11.193-25-25 11.193-25 25-25 25 11.193 25 25zM8.704 26.33c-.09 4.302 2.874 8.405 6.948 9.744 3.84 1.29 8.56.326 11.113-2.962 1.867-2.304 2.289-5.375 2.089-8.245-3.288-.028-6.576-.02-9.86-.013-.004 1.17 0 2.337.007 3.508 1.967.054 3.936.03 5.905.07-.498 1.703-1.63 3.287-3.346 3.901-3.319 1.462-7.55-.446-8.593-3.928-1.262-3.331.8-7.352 4.206-8.32 2.113-.745 4.287.093 6.095 1.19.914-.855 1.771-1.772 2.613-2.696-2.054-1.717-4.691-2.77-7.402-2.54-5.32.064-9.977 4.975-9.775 10.29zm26.547-4.43c-.01.98-.02 1.964-.024 2.943-.985.01-1.965.013-2.944.02v2.933c.98.005 1.965.009 2.944.02.009.979.009 1.959.02 2.942.972 0 1.954-.005 2.933 0 .004-.983.009-1.963.02-2.947.979-.006 1.962-.01 2.941-.015v-2.933c-.979-.005-1.962-.01-2.941-.02-.008-.979-.016-1.962-.02-2.944h-2.929z"/>
</symbol><symbol id="icon-gplus" viewBox="0 0 17.100001 17.100001"><path d="M10.9.032H7c-1.7 0-3 .4-4 1.3-.9.8-1.4 1.9-1.4 3 0 1.7 1.2 3.5 3.6 3.5h.7v.1c-.1.2-.2.4-.2.8 0 .7.3 1.1.6 1.5h-.1c-1 .1-2.7.2-4 1-1.5.9-1.6 2.3-1.6 2.7 0 1.6 1.4 3.2 4.6 3.2 3.7 0 5.6-2.1 5.6-4.2 0-1.5-.9-2.3-1.8-3.1l-.8-.6c-.2-.2-.5-.5-.5-.9 0-.5.3-.8.6-1.1.8-.7 1.8-1.5 1.8-3.2 0-1.7-1-2.6-1.5-3h1.3l1.1-.7c-.1-.2 0-.2-.1-.3zm-4.8 16.1c-2.3 0-3.8-1.1-3.8-2.7 0-1.1.6-1.8 1.8-2.3 1-.3 2.2-.4 2.3-.4h.5c1.6 1.2 2.3 1.8 2.3 2.9.1 1.5-1.2 2.5-3.1 2.5zm0-9c-1.9 0-2.7-2.6-2.7-3.9 0-.7.2-1.2.5-1.6.3-.4.9-.7 1.5-.7 1.7 0 2.7 2.4 2.7 4.1 0 .3 0 1.1-.5 1.6-.4.3-1 .5-1.5.5zm0 0M16.4 7.932h-2.1v-2.1s0-.1-.1-.1h-.9s-.1 0-.1.1v2.1h-2.1s-.1 0-.1.1v.9s0 .1.1.1h2.1v2.1s0 .1.1.1h.9s.1 0 .1-.1v-2.1h2.1s.1 0 .1-.1v-.9s0-.098-.1-.1c0 .1 0 0 0 0z" class="st1"/></symbol><symbol id="icon-heart" viewBox="0 0 19.000145 15.992831"><path data-name="Shape 7 copy 9" class="cls-1" d="M9.5 3.023C6.92-1.267.05-1.397 0 5.283c-.03 3.87 9.23 9.75 9.51 10.71.25-1 9.52-6.91 9.49-10.74-.05-6.7-7.14-6.4-9.5-2.23z"/></symbol><symbol id="icon-hot" viewBox="0 0 20 27"><path d="M13.9 7.5C11.2 6 9.7 3.8 11.7 0 6.2 2.4 3.4 10 6.2 15.6 3 14.6 2.4 11 2.8 9.3c-1 1-2.8 3.6-2.8 8C0 22.7 4.5 27 10 27s10-4.4 10-9.7c0-4-2.3-7.7-6.1-9.8zm-3.4 17c-3.6 0-5.1-1.8-5.1-3.4 0-1.8 1.6-2.5 3.6-2.399 2.3.1 3-2.2 2.8-4.6 2.9 0 5.2 2 5.2 4.9 0 2.9-2.9 5.499-6.5 5.499z"/></symbol><symbol id="icon-insta" viewBox="0 0 612 612"><path d="M306 0C137.7 0 0 137.7 0 306s137.7 306 306 306 306-137.7 306-306C612 135.788 474.3 0 306 0zm158.737 271.575V405.45c0 34.425-28.688 63.112-63.112 63.112h-198.9c-34.425 0-63.113-28.688-63.113-63.112V204.637c0-34.425 28.688-63.112 63.113-63.112h200.812c34.426 0 63.113 28.688 63.113 63.112l-1.913 66.938zM392.063 306c0 49.726-40.162 89.888-89.888 89.888-49.725 0-89.887-40.162-89.887-89.888 0-11.475 1.913-22.95 5.737-34.425H168.3V405.45c0 17.213 13.388 30.6 30.6 30.6h200.813c17.212 0 30.6-13.387 30.6-30.6V271.575h-49.725c7.649 9.563 11.475 21.038 11.475 34.425zm-89.888 57.375c32.513 0 57.375-26.774 57.375-57.375 0-13.387-3.825-24.862-11.475-34.425-9.563-15.3-26.775-24.862-45.9-24.862s-36.337 9.563-45.9 24.862c-7.65 9.563-11.475 21.038-11.475 34.425 0 30.601 24.863 57.375 57.375 57.375zm70.763-128.137H428.4v-55.463H372.938z"/></symbol><symbol id="icon-instagram" viewBox="0 0 50 50">
    
    <path d="M25 50C11.193 50 0 38.807 0 25S11.193 0 25 0s25 11.193 25 25-11.193 25-25 25zM8.365 18.37v13.26c0 5.518 4.48 10.005 10.005 10.005h13.26c5.518 0 10.005-4.48 10.005-10.005V18.37c0-5.518-4.48-10.005-10.005-10.005H18.37c-5.518 0-10.005 4.48-10.005 10.005zm3.59-.413a6.006 6.006 0 0 1 6.002-6.002h14.086a6.006 6.006 0 0 1 6.002 6.002v14.086a6.006 6.006 0 0 1-6.002 6.002H17.957a6.006 6.006 0 0 1-6.002-6.002V17.957zM25 34.694c5.354 0 9.694-4.34 9.694-9.694 0-5.354-4.34-9.694-9.694-9.694-5.354 0-9.694 4.34-9.694 9.694 0 5.354 4.34 9.694 9.694 9.694zm0-3.878a5.816 5.816 0 1 1 0-11.632 5.816 5.816 0 0 1 0 11.632zm8.333-13.444a1.667 1.667 0 1 0 0-3.334 1.667 1.667 0 0 0 0 3.334z"/>
</symbol><symbol id="icon-like" viewBox="0 0 32 32"><path d="M1.143 13.029v8.914c0 .686.229 1.143.457 1.829l4.114 7.314c0 .686.686.914 1.143.914h14.629c1.371 0 1.829-.686 2.514-.914.229-.229.229-.686.229-1.143V14.629a1.75 1.75 0 0 0-.457-1.143c-.686-.686-1.143-1.371-1.6-2.286-.914-1.829-1.829-3.657-2.743-5.714V1.6c0-.914-.686-1.6-1.6-1.6h-2.286c-.457 0-1.143.229-1.371.914-.457.914-.686 1.829-1.143 3.2-.229.914-.229 2.057-.229 2.971l.686 4.114H2.515c-.686.229-1.371.914-1.371 1.829zM26.286 15.314v14.857c0 .914.686 1.829 1.6 1.829h1.371c.914 0 1.6-.686 1.6-1.829V15.314c0-.914-.686-1.6-1.6-1.6h-1.371c-.914 0-1.6.914-1.6 1.6z"/></symbol><symbol id="icon-logo-full" viewBox="0 0 80.800003 26.100001"><style>

</style><path d="M70.9 13.9c0-.3.1-.4.4-.4h5.1c.6 0 1.1.1 1.6.3.5.2.9.5 1.3.9s.7.8.9 1.3c.2.5.3 1 .3 1.6 0 .4 0 .7-.1 1.1-.1.3-.2.7-.4 1-.2.3-.4.6-.6.8-.3.2-.5.5-.8.6l2.2 4.5c0 .1 0 .2-.1.2-.2.2-.3.2-.5.2h-2c-.2 0-.3-.1-.3-.3L76 21.6h-2.6v4c0 .2-.1.4-.4.4h-1.7c-.1 0-.2 0-.3-.1-.1-.1-.1-.1-.1-.3V13.9zm7.2 3.7c0-.2 0-.4-.1-.6-.1-.2-.2-.4-.4-.6-.2-.2-.3-.3-.6-.4-.2-.1-.5-.2-.7-.2h-2.9v3.6h2.9c.3 0 .5 0 .7-.1.2-.1.4-.2.5-.4.1-.2.3-.4.3-.6.2-.3.3-.5.3-.7zm-18-3.7c0-.3.1-.4.4-.4h8.1c.1 0 .3 0 .3.1.1.1.1.2.1.3v1.5c0 .1 0 .2-.1.3-.1.1-.2.1-.3.1h-6v2.6h4.6c.1 0 .2 0 .3.1.1.1.1.2.1.3v1.5c0 .1 0 .2-.1.3-.1.1-.1.1-.3.1h-4.6v3.1h6.2c.2 0 .3 0 .3.1.1.1.1.2.1.3v1.5c0 .2-.1.4-.4.4h-8.4c-.1 0-.2 0-.3-.1-.1-.1-.1-.1-.1-.3V13.9zM48 13.8c0-.1 0-.2.1-.3.1-.1.2-.1.3-.1h1.8s.1 0 .1.1l.1.1v5.2l4.7-5.1c.1-.2.2-.3.4-.3H58c.2 0 .2 0 .2.1 0 0 0 .1-.1.2l-4.5 5.2 5.2 6.7c.1.1.1.2.1.2 0 .1-.1.1-.2.1h-2.6c-.1 0-.3-.1-.4-.3l-4-5.1-1.4 1.5v3.5c0 .2-.1.4-.4.4h-1.7c-.2 0-.4-.1-.4-.4V13.8zM10.1.7c0-.1 0-.2.1-.3.1-.1.2-.1.3-.1h8.6c.1 0 .2 0 .3.1.1.1.1.2.1.3v1.5c0 .1 0 .2-.1.3-.1.1-.2.1-.3.1H16v9.9l-.1.1-.1.1H14h-.1l-.1-.1-.1-.1V2.6h-3.1c-.1 0-.2 0-.3-.1-.1-.1-.1-.2-.1-.3V.7zM7.7 3.6c-.1 0-.1 0-.2-.1-.1 0-.1-.1-.2-.1-.1-.1-.3-.2-.4-.4l-.6-.3c-.2-.1-.4-.2-.7-.3-.2-.1-.4-.1-.7-.1-.3 0-.6 0-.8.1-.3.1-.5.2-.6.3-.2.1-.3.2-.4.4-.1.2-.1.3-.1.5s0 .4.2.6c.2.2.3.3.5.4.2.1.5.2.7.3l.9.3c.5.2 1.1.3 1.6.5s1 .4 1.4.7c.4.3.7.6 1 1 .3.4.4.9.4 1.5s-.1 1.2-.4 1.7c-.2.5-.6.9-1 1.3s-.9.6-1.5.8c-.7.2-1.3.3-2 .3-.4 0-.9-.1-1.3-.2s-.8-.2-1.2-.4c-.4-.2-.8-.4-1.1-.7-.4-.3-.7-.6-.9-.9-.2-.1-.3-.3-.3-.4 0-.1.1-.2.2-.4l.1-.1.2-.2c.1-.1.2-.2.3-.2 0-.1.1-.1.2-.2s.2-.1.3-.2c.1-.1.2-.1.2-.1.1 0 .2 0 .2.1.1.1.1.1.2.1.2.2.4.4.7.5.2.2.5.3.8.5.3.1.5.2.8.3.3.1.5.1.7.1.3 0 .6 0 .9-.1.3-.1.5-.2.7-.3.2-.1.4-.3.5-.5V9c0-.2 0-.4-.2-.6-.1-.2-.3-.3-.6-.5-.2-.1-.5-.2-.8-.3l-.9-.3c-.6-.2-1.2-.4-1.8-.7-.5-.2-.9-.5-1.2-.8-.3-.3-.6-.6-.8-1C.5 4.4.4 4 .4 3.6c0-.5.1-1 .3-1.4.3-.5.6-.9.9-1.2C2 .7 2.5.5 3 .3 3.5.1 4.2 0 4.8 0c.5 0 1 .1 1.6.2.6.3 1.1.5 1.5.8.1 0 .3.1.4.2.1.1.3.2.4.3l.3.3c.1.1.1.2.1.3 0 .1 0 .1-.1.2 0 .1-.1.1-.1.2l-.3.3-.3.3-.3.3c.1 0 0 .1-.1.1-.1.1-.1.1-.2.1zM28.3 22L42.5 4.9c.1-.1 0-.4-.2-.6l-1-.8c-.2-.2-.5-.2-.6-.1L26.5 20.5c-.1.1 0 .4.2.6l1 .8c.3.2.5.2.6.1zm17.3-8.1c.1.1.2.1.2.2v.3l-.8 1.4c-.1.1-.2.2-.3.2-.1 0-.2 0-.3-.1-.4-.3-.7-.5-1.1-.6-.4-.1-.8-.2-1.3-.2-.6 0-1.1.1-1.6.3-.5.2-.9.5-1.3.9s-.6.8-.8 1.3c-.2.5-.3 1-.3 1.6 0 .6.1 1.1.3 1.6.2.5.5.9.8 1.3.4.4.8.7 1.3.9.5.2 1 .3 1.6.3.5 0 .9-.1 1.3-.2s.8-.3 1.2-.6c.1-.1.2-.1.3-.1.1 0 .2.1.3.2l.8 1.4c.1.1.1.2 0 .3 0 .1-.1.2-.2.2-.5.4-1.1.6-1.7.8-.6.2-1.3.3-1.9.3-.6 0-1.2-.1-1.7-.2-.6-.2-1.1-.4-1.6-.7-.5-.3-.9-.6-1.3-1s-.7-.8-1-1.3c-.3-.5-.5-1-.7-1.6-.2-.6-.2-1.1-.2-1.7 0-.6.1-1.2.2-1.7.2-.6.4-1.1.7-1.6.3-.5.6-.9 1-1.3s.8-.7 1.3-1c.5-.3 1-.5 1.6-.7.6-.2 1.1-.2 1.7-.2.7 0 1.3.1 1.9.3.5.3 1.1.6 1.6 1zM20.1 6.5c0-.6.1-1.2.2-1.7.2-.6.4-1.1.7-1.6.3-.5.6-.9 1-1.3s.8-.7 1.3-1c.5-.3 1-.5 1.6-.7.6-.1 1.1-.2 1.7-.2.6 0 1.2.1 1.7.2.6.2 1.1.4 1.6.7.5.3.9.6 1.3 1s.7.8 1 1.3c.3.5.5 1 .7 1.6.2.6.2 1.1.2 1.7 0 .6-.1 1.2-.2 1.7-.2.6-.4 1.1-.7 1.6-.3.5-.6.9-1 1.3s-.8.7-1.3 1c-.5.3-1 .5-1.6.7-.6.2-1.1.2-1.7.2-.6 0-1.2-.1-1.7-.2-.6-.2-1.1-.4-1.6-.7-.5-.3-.9-.6-1.3-1s-.7-.8-1-1.3c-.3-.5-.5-1-.7-1.6-.1-.5-.2-1-.2-1.7zm2.6 0c0 .6.1 1.1.3 1.6.2.5.5.9.8 1.3.4.4.8.7 1.3.9.5.2 1 .3 1.6.3.6 0 1.1-.1 1.6-.3.5-.2.9-.5 1.3-.9s.6-.8.8-1.3c.2-.5.3-1 .3-1.6 0-.6-.1-1.1-.3-1.6-.2-.5-.5-.9-.8-1.3-.4-.4-.8-.7-1.3-.9-.5-.2-1-.3-1.6-.3-.6 0-1.1.1-1.6.3-.5.2-.9.5-1.3.9s-.6.8-.8 1.3c-.3.5-.3 1.1-.3 1.6z"/></symbol><symbol id="icon-logo" viewBox="0 0 28.2 28.200001"><style>

</style><path class="st0" d="M.113 7.1c0-.7.1-1.3.3-1.9.2-.6.4-1.2.7-1.7.3-.5.7-1 1.1-1.4.4-.5.9-.8 1.4-1.1.5-.3 1.1-.6 1.7-.7.6-.2 1.2-.3 1.9-.3.6 0 1.3.1 1.9.3.6.2 1.2.4 1.7.7.5.3 1 .7 1.4 1.1.4.4.8.9 1.1 1.4.3.5.5 1.1.7 1.7.2.6.3 1.2.3 1.9s-.1 1.3-.3 1.9c-.2.6-.4 1.2-.7 1.7-.3.5-.7 1-1.1 1.4-.4.4-.9.8-1.4 1.1-.5.3-1.1.5-1.7.7-.6.2-1.2.3-1.9.3s-1.3-.1-1.9-.3c-.6-.2-1.2-.4-1.7-.7-.5-.3-1-.7-1.4-1.1-.4-.4-.8-.9-1.1-1.4-.3-.5-.6-1.1-.7-1.7-.2-.6-.3-1.2-.3-1.9zm2.8 0c0 .6.1 1.2.3 1.8.2.5.5 1 .9 1.4.4.4.8.7 1.4 1 .5.2 1.1.4 1.7.4.6 0 1.2-.1 1.7-.4.5-.2 1-.6 1.4-1 .4-.4.7-.9.9-1.4.2-.5.3-1.1.3-1.8 0-.6-.1-1.2-.3-1.8-.2-.6-.5-1-.9-1.4-.4-.4-.8-.7-1.4-1-.5-.2-1.1-.3-1.7-.3-.6 0-1.2.1-1.7.4-.5.2-1 .6-1.4 1-.4.3-.7.8-.9 1.3-.2.6-.3 1.2-.3 1.8zM27.813 15.1c.1.1.2.1.2.2v.4l-.9 1.5c-.1.1-.2.2-.3.2-.1 0-.2 0-.3-.1-.4-.3-.8-.5-1.2-.6-.4-.2-.9-.2-1.4-.2-.6 0-1.2.1-1.7.4-.5.2-1 .6-1.4 1-.4.4-.7.9-.9 1.4-.2.5-.3 1.1-.3 1.8 0 .6.1 1.2.3 1.8.2.5.5 1 .9 1.4.4.4.8.7 1.4 1 .5.2 1.1.4 1.7.4.5 0 1-.1 1.4-.2.5-.2.9-.4 1.2-.6.1-.1.2-.1.3-.1.1 0 .2.1.3.2l.9 1.5c.1.1.1.2 0 .3 0 .1-.1.2-.2.2-.6.4-1.2.7-1.9.9-.7.2-1.4.3-2.1.3-.7 0-1.3-.1-1.9-.2-.6-.2-1.2-.4-1.7-.7-.5-.3-1-.7-1.4-1.1-.4-.4-.8-.9-1.1-1.4-.3-.5-.5-1.1-.7-1.7-.2-.6-.3-1.2-.3-1.9s.1-1.3.3-1.9c.2-.6.4-1.2.7-1.7.3-.5.7-1 1.1-1.4.4-.4.9-.8 1.4-1.1.5-.3 1.1-.5 1.7-.7.6-.2 1.2-.3 1.9-.3s1.4.1 2.1.3c.7 0 1.3.3 1.9.7zM9.013 23.9l15.4-18.6c.1-.1 0-.4-.2-.6l-1.1-.9c-.2-.2-.5-.3-.6-.1l-15.5 18.5c-.1.1 0 .4.2.6l1.1.9c.3.3.6.3.7.2z"/></symbol><symbol id="icon-menu" viewBox="0 0 54 53.999999"><style>
.st0 {
  clip-rule: evenodd;
}
</style><path d="M0 29.5v-4h54v4H0zM0 12.5v-4h47v4H0zM0 45.5v-4h47v4H0z" class="st0"/></symbol><symbol id="icon-mic" viewBox="0 0 11 19">
    <path d="M2.444 9.5V2.969C2.444 1.336 3.82 0 5.5 0c1.68 0 3.056 1.336 3.056 2.969V9.5c0 1.633-1.375 2.969-3.056 2.969-1.68 0-3.056-1.336-3.056-2.969zM11 9.5a.604.604 0 0 0-.611-.594.604.604 0 0 0-.611.594c0 2.286-1.925 4.156-4.278 4.156-2.353 0-4.278-1.87-4.278-4.156a.604.604 0 0 0-.61-.594A.604.604 0 0 0 0 9.5c0 2.731 2.139 5.017 4.889 5.313v3.593c0 .327.274.594.611.594a.604.604 0 0 0 .611-.594v-3.593C8.861 14.517 11 12.231 11 9.5z"/>
</symbol><symbol id="icon-ok" viewBox="0 0 16.904055 16.904055"><path class="st1" d="M24.8 28.6c-1.3-.1-2.5-.5-3.5-1.2-.1-.1-.3-.2-.4-.3-.4-.4-.5-.9-.1-1.4.3-.4.8-.5 1.3-.3.1 0 .2.1.3.2 1.9 1.3 4.4 1.3 6.3.1.2-.1.4-.3.6-.3.4-.1.9.1 1.1.4.3.5.3.9-.1 1.2-.5.5-1.1.9-1.8 1.2-.7.3-1.4.4-2.1.5l.2.2 2.9 2.9c.3.3.4.7.2 1.1-.2.4-.6.7-1.1.7-.3 0-.5-.2-.7-.3l-2.2-2.2c-.2-.2-.3-.2-.5 0-.7.8-1.5 1.5-2.2 2.2-.3.3-.7.4-1.1.2-.4-.2-.7-.6-.7-1.1 0-.3.2-.5.4-.7.9-1 1.9-1.9 2.8-2.9.2-.1.3-.1.4-.2zm0 0M25.6 25.2c-2.3 0-4.2-1.9-4.2-4.3s1.9-4.3 4.2-4.3c2.3 0 4.2 1.9 4.2 4.3s-1.9 4.3-4.2 4.3zm2.1-4.3c0-1.2-.9-2.1-2.1-2.1-1.2 0-2.1.9-2.1 2.1 0 1.2.9 2.1 2.1 2.1 1.2 0 2.1-.9 2.1-2.1zm0 0" clip-path="url(#SVGID_2_)" transform="translate(-17.148 -16.7)"/></symbol><symbol id="icon-pdf" viewBox="0 0 52.5 54.2">
<style type="text/css">



</style>
<path class="st0" d="M40.2,52.5V40.9"/>
<path class="st0" d="M46.7,47.3l-5.2-8.2c-0.7-0.7-1.9-0.7-2.6,0l-5,8.2"/>
<path class="st0" d="M26,50.1c-13.3,0-24-10.8-24-24S12.7,2,26,2s24,10.8,24,24c0,2.5-0.4,5-1.1,7.3"/>
<path class="st1" d="M15.1,19.6c0,0,1,7.8,0,10.5"/>
<path class="st1" d="M16.2,20.9c0,0,4-2.1,4.8,1c1,3.6-4.5,3.2-4.5,3.2"/>
<path class="st1" d="M24,18.8c0,0,2,6.7,1.5,10.9"/>
<path class="st1" d="M25.3,20.5c0,0,4.8-0.9,6.6,2.6c1.8,3.4-0.5,5.4-5.4,5.2"/>
<path class="st1" d="M35.6,18.8c0,0,1.9,7.7,1.2,11.3"/>
<line class="st1" x1="36" y1="20.4" x2="41" y2="18.5"/>
<line class="st1" x1="36.8" y1="24.8" x2="41" y2="23.2"/>
</symbol><symbol id="icon-pointer" viewBox="0 0 13.581662 15.9"><path d="M13.453 6.9c-.4-1.8-1.8-2.3-2.4-2-.2.1-.4-.1-.4-.2-.2-.7-1.1-.8-1.7-.8h-.5c-.1 0-.3.1-.3.1-.2 0-.4 0-.5-.2-.3-.7-1.1-.7-1.6-.7h-.4-.1c-.5.5-.6-.2-.6-.5l-.1-1.3c0-.8-.7-1.3-1.5-1.3-.7 0-1.5.4-1.5 1.3 0 1.4.1 3.7.1 5 0 .2-.1.5-.4.5-3.9-.2.7 5.7 1.3 6.5.1.1.1.2.1.3l.2 1.8c0 .3.3.5.6.5h7c.3 0 .6-.2.6-.5l.3-1.9c0-.1 0-.2.1-.2 1.9-2.6 2-4.8 1.7-6.4zm0 0"/></symbol><symbol id="icon-quit" viewBox="0 0 471.2 471.2">
<g>
	<g>
		<path d="M227.619,444.2h-122.9c-33.4,0-60.5-27.2-60.5-60.5V87.5c0-33.4,27.2-60.5,60.5-60.5h124.9c7.5,0,13.5-6,13.5-13.5    s-6-13.5-13.5-13.5h-124.9c-48.3,0-87.5,39.3-87.5,87.5v296.2c0,48.3,39.3,87.5,87.5,87.5h122.9c7.5,0,13.5-6,13.5-13.5    S235.019,444.2,227.619,444.2z"/>
		<path d="M450.019,226.1l-85.8-85.8c-5.3-5.3-13.8-5.3-19.1,0c-5.3,5.3-5.3,13.8,0,19.1l62.8,62.8h-273.9c-7.5,0-13.5,6-13.5,13.5    s6,13.5,13.5,13.5h273.9l-62.8,62.8c-5.3,5.3-5.3,13.8,0,19.1c2.6,2.6,6.1,4,9.5,4s6.9-1.3,9.5-4l85.8-85.8    C455.319,239.9,455.319,231.3,450.019,226.1z"/>
	</g>
</g>
<g>
</g>
<g>
</g>
<g>
</g>
<g>
</g>
<g>
</g>
<g>
</g>
<g>
</g>
<g>
</g>
<g>
</g>
<g>
</g>
<g>
</g>
<g>
</g>
<g>
</g>
<g>
</g>
<g>
</g>
</symbol><symbol id="icon-quotes" viewBox="0 0 34 30"><style>

</style><path class="st0" d="M19.9 2.3v10.5c0 1.3 1 2.3 2.2 2.3h6.5c0 4.7-3.3 8.6-7.5 9.2-.7.1-1.2.7-1.2 1.4v2.8c0 .8.7 1.5 1.4 1.4 7-.8 12.7-7.1 12.7-14.8V2.3C34 1 33 0 31.8 0H22c-1.2 0-2.1 1-2.1 2.3zM0 2.3v10.5c0 1.3 1 2.3 2.2 2.3h6.5c0 4.7-3.3 8.6-7.5 9.2-.7.2-1.2.8-1.2 1.5v2.8c0 .8.7 1.5 1.4 1.4 7-.8 12.7-7.1 12.7-14.8V2.3C14.1 1 13.2 0 12 0H2.2C1 0 0 1 0 2.3z"/></symbol><symbol id="icon-reply-arrow" viewBox="0 0 12 10"><style>

</style><path class="st0" d="M2.2 4.2C.9 5.6.1 7.5 0 9.6c0 .2.2.4.4.4h.5c.2 0 .4-.2.4-.4.1-1.7.7-3.2 1.8-4.4 1.4-1.5 3.4-2.2 5.3-2 .2 0 .4.2.4.4v2c0 .4.4.6.7.3l2.4-2.6c.2-.2.2-.4 0-.6L9.5.1c-.3-.2-.7-.1-.7.3v1c0 .2-.2.4-.4.4-.8 0-1.6 0-2.4.2-1.4.3-2.7 1.1-3.8 2.2zm0 0"/></symbol><symbol id="icon-sale" viewBox="0 0 71 71">
    
    <g filter="url(#a)" transform="translate(-195 -162)">
        <path d="M203.7 163c-3.685 0-6.7 3.015-6.7 6.7V230l13.4-13.4h46.9c3.685 0 6.7-3.015 6.7-6.7v-40.2c0-3.685-3.015-6.7-6.7-6.7h-53.6z"/>
        <g>
            <path d="M254.064 195.054c-.395.382-.934.62-1.53.62a2.184 2.184 0 0 1-2.194-2.174 2.189 2.189 0 1 1 3.602-1.655l.868-1.02a3.538 3.538 0 0 0-2.276-.825c-1.952 0-3.534 1.567-3.534 3.5s1.582 3.5 3.534 3.5c.96 0 1.828-.38 2.466-.996l-.936-.95zM243.944 194l-.944-.807 8.056-9.193.944.807zM242.5 186.674a2.174 2.174 0 1 1 0-4.348 2.174 2.174 0 0 1 0 4.348m0-5.674a3.5 3.5 0 1 0 0 7 3.5 3.5 0 0 0 0-7"/>
        </g>
        <text transform="translate(197 163)">
            <tspan x="7" y="33">-30</tspan>
        </text>
    </g>
</symbol><symbol id="icon-search" viewBox="0 0 615.23999 612"><path d="M615.24 563.43L563.43 612 404.76 453.33c-42.09 32.38-93.899 51.81-152.19 51.81C113.33 505.14 0 391.81 0 252.57S113.33 0 252.57 0s252.57 113.33 252.57 252.57c0 58.291-19.43 110.1-51.81 152.19l161.91 158.67zM430.67 252.57c0-100.38-80.96-181.33-181.34-181.33C148.95 71.24 68 152.19 68 252.57c0 100.38 80.95 181.34 181.33 181.34 100.38 0 181.34-80.96 181.34-181.34z"/></symbol><symbol id="icon-share" viewBox="0 0 32 32"><path d="M0 26.29c4.267-10.541 9.788-14.557 19.325-14.557V5.459L32 16 19.325 26.541v-6.274C10.917 18.134 6.274 21.02 0 26.291z"/></symbol><symbol id="icon-shop" viewBox="0 0 50 50"><rect height="50" width="50"/><circle cx="39" cy="46" r="3"/><circle cx="26" cy="46" r="3"/><circle cx="2" cy="4" r="2"/><path d="  M41,43c0,0-12.668,0-15.291,0c-3.42,0-3.922-1.744-4.523-4.025L13.191,6.696C12.472,4.273,11.459,3,8.664,3c0,0-4.754,0-6.664,0"/><polyline points="  16,16 47,16 39.809,35 20.609,35 "/></symbol><symbol id="icon-sign-in" viewBox="0 0 55.964842 55.964845"><path d="M33.559 38.946c-.159-1.762-.098-2.992-.098-4.603.798-.419 2.228-3.089 2.469-5.344.628-.052 1.617-.664 1.907-3.081.157-1.298-.464-2.028-.843-2.258 1.021-3.071 3.142-12.572-3.923-13.554-.728-1.277-2.589-1.923-5.008-1.923-9.681.178-10.848 7.31-8.726 15.477-.377.23-.998.96-.843 2.258.291 2.417 1.279 3.029 1.907 3.081.24 2.254 1.727 4.925 2.528 5.344 0 1.61.06 2.841-.1 4.603-1.379 3.706-8.459 3.996-12.544 7.57 4.271 4.3 11.192 7.376 18.495 7.376 7.304 0 15.888-5.766 17.317-7.34-4.059-3.607-11.156-3.886-12.538-7.606"/><path d="M27.982 0C12.544 0 0 12.544 0 27.982c0 15.44 12.544 27.983 27.982 27.983 15.44 0 27.983-12.544 27.983-27.983C55.965 12.544 43.42 0 27.982 0zm0 2.6c14.034 0 25.383 11.349 25.383 25.382 0 14.034-11.35 25.381-25.383 25.381s-25.38-11.347-25.38-25.38C2.602 13.948 13.949 2.6 27.982 2.6z"/></symbol><symbol id="icon-skype" viewBox="0 0 32 32">
    <path d="M16.981 22.603c-2.57.136-3.773-.444-4.875-1.498-1.231-1.179-.737-2.522.266-2.59 1.002-.068 1.603 1.158 2.138 1.5.535.34 2.567 1.115 3.64-.138 1.17-1.362-.777-2.066-2.204-2.28-2.037-.307-4.609-1.431-4.409-3.646.2-2.213 1.844-3.348 3.573-3.508 2.205-.204 3.64.34 4.776 1.329 1.312 1.141.602 2.417-.234 2.52-.833.102-1.768-1.878-3.606-1.907-1.893-.03-3.173 2.01-.835 2.588 2.338.58 4.843.817 5.745 2.997.902 2.18-1.402 4.496-3.975 4.633zm7.249-5.186c.048-.363.076-.732.076-1.107 0-4.505-3.618-8.157-8.08-8.157-.445 0-.88.037-1.303.108a4.756 4.756 0 0 0-2.634-.794c-2.664 0-4.822 2.19-4.822 4.893 0 .983.285 1.897.776 2.664-.066.42-.1.849-.1 1.285 0 4.505 3.616 8.157 8.08 8.157.504 0 .995-.05 1.472-.137a4.77 4.77 0 0 0 2.55.738c2.663 0 4.822-2.19 4.822-4.894a4.918 4.918 0 0 0-.837-2.756zM16 32C7.164 32 0 24.836 0 16 0 7.163 7.164 0 16 0s16 7.163 16 16c0 8.836-7.164 16-16 16z"/>
</symbol><symbol id="icon-star" viewBox="0 0 19.763322 18.762645"><style>
.st0 {
  clip-path: url(#SVGID_2_);
}
</style><path class="st0" d="M10.3.3l2.6 5.9 6.4.6c.4 0 .7.6.3.9l-4.9 4.2 1.4 6.2c.1.4-.3.8-.8.6l-5.6-3.3-5.6 3.3c-.3.2-.9-.1-.8-.6L5 11.9.2 7.7c-.3-.3-.2-.8.2-.9l6.4-.6L9.2.3c.3-.4.9-.4 1.1 0z" clip-path="url(#SVGID_2_)" transform="translate(-.026)"/></symbol><symbol id="icon-telegram-footer" viewBox="0 0 32 32">
    <path d="M16 32c8.837 0 16-7.163 16-16S24.837 0 16 0 0 7.163 0 16s7.163 16 16 16zm-.01-12.228c-.637.62-1.269 1.231-1.895 1.846-.219.216-.465.335-.779.319-.214-.012-.334-.106-.4-.31-.48-1.488-.966-2.973-1.443-4.463-.047-.144-.115-.215-.262-.26-1.13-.345-2.257-.698-3.383-1.056a1.924 1.924 0 0 1-.498-.23c-.231-.156-.265-.411-.058-.595.192-.17.42-.318.658-.412 1.382-.547 2.77-1.077 4.156-1.611l10.555-4.074c.67-.259 1.184.105 1.114.829-.044.463-.164.918-.261 1.375-.764 3.607-1.529 7.214-2.297 10.82-.182.857-.784 1.08-1.488.561-1.18-.87-2.36-1.743-3.54-2.614l-.179-.125zm-2.649 1.095l.04-.01c.007-.035.018-.068.02-.101.077-.818.157-1.635.223-2.454a.6.6 0 0 1 .214-.435c1.088-.973 2.17-1.952 3.253-2.929 1.2-1.082 2.4-2.162 3.594-3.248.074-.067.105-.181.156-.274-.113-.012-.233-.057-.336-.031-.139.036-.271.117-.395.195-2.648 1.668-5.293 3.338-7.942 5.002-.15.094-.177.174-.12.338.195.561.373 1.127.557 1.692l.736 2.255z"/>
</symbol><symbol id="icon-twitter-col" viewBox="0 0 50 50">
    <path d="M25 50C11.193 50 0 38.807 0 25S11.193 0 25 0s25 11.193 25 25-11.193 25-25 25zm13.333-33.958c-.937.52-2.083.833-3.125.937 1.146-.729 1.98-1.875 2.396-3.229-1.041.625-2.187 1.146-3.541 1.458-1.042-1.146-2.396-1.875-3.959-1.875-3.02 0-5.52 2.604-5.52 5.938 0 .416 0 .937.104 1.354-4.584-.208-8.646-2.604-11.355-6.146-.52.834-.729 1.875-.729 3.021 0 2.083.938 3.854 2.396 4.896-.938 0-1.77-.313-2.5-.73v.105c0 2.812 1.875 5.208 4.375 5.833-.417.104-.938.209-1.458.209-.313 0-.73 0-1.042-.105.73 2.396 2.708 4.063 5.104 4.063-1.875 1.562-4.27 2.5-6.77 2.5-.417 0-.834 0-1.355-.104 2.396 1.666 5.313 2.708 8.438 2.708 10.104 0 15.625-8.958 15.625-16.77v-.73c1.25-1.042 2.187-2.083 2.916-3.333z"/>
</symbol><symbol id="icon-twitter" viewBox="0 0 612 612"><path d="M306 0C137.7 0 0 137.7 0 306s137.7 306 306 306 306-137.7 306-306C612 135.788 474.3 0 306 0zm135.787 242.888v9.563c0 89.888-68.85 195.075-195.075 195.075-38.25 0-74.587-11.476-105.188-30.601 5.738 0 11.475 1.913 17.212 1.913 32.513 0 61.2-11.476 84.15-28.688-30.6 0-55.463-21.038-63.113-47.813 3.825 0 7.65 1.912 13.388 1.912 5.737 0 11.475 0 17.212-1.912-30.6-5.738-55.462-34.426-55.462-66.938 9.563 5.738 19.125 7.65 30.6 7.65-19.125-11.475-30.6-32.512-30.6-57.375 0-13.387 3.825-24.862 9.563-34.425C198.9 233.325 248.625 260.1 306 262.013c-1.912-5.738-1.912-9.563-1.912-15.3 0-38.25 30.6-68.85 68.85-68.85 19.125 0 38.25 7.65 49.725 21.038 15.301-3.825 30.601-9.563 43.988-17.212-5.738 15.3-15.301 28.688-30.601 38.25 13.388-1.913 26.775-5.737 40.163-11.475-9.563 13.386-21.038 24.861-34.426 34.424z"/></symbol><symbol id="icon-viber-footer" viewBox="0 0 32 32">
    <path d="M17.85 11.191c.623.133 1.1.37 1.508.752.526.495.813 1.095.94 1.957.085.562.05.783-.149.966-.187.171-.531.177-.74.016-.152-.114-.2-.233-.234-.559-.041-.433-.117-.736-.247-1.017-.278-.596-.768-.906-1.597-1.007-.389-.047-.506-.091-.632-.24a.588.588 0 0 1 .177-.884c.12-.06.17-.066.436-.05.165.009.409.037.538.066zm-.674-2.384c1.92.28 3.406 1.171 4.38 2.617a6.272 6.272 0 0 1 1.006 2.798c.041.376.041 1.061-.003 1.175a.72.72 0 0 1-.287.313c-.124.063-.386.056-.532-.02-.243-.123-.316-.319-.316-.849 0-.818-.212-1.68-.579-2.35a4.803 4.803 0 0 0-1.765-1.834c-.635-.38-1.575-.66-2.431-.73-.31-.025-.481-.088-.598-.224a.575.575 0 0 1-.048-.714c.165-.255.418-.296 1.173-.182zM9.728 6.858c.111.038.282.127.38.19.6.398 2.274 2.536 2.821 3.603.313.61.417 1.061.32 1.396-.102.36-.27.55-1.019 1.152-.3.243-.582.493-.626.56-.114.163-.206.486-.206.713.003.527.345 1.484.794 2.22.348.572.97 1.304 1.587 1.866.725.663 1.363 1.115 2.085 1.472.927.46 1.492.578 1.907.385.104-.047.215-.11.25-.139.031-.029.275-.325.54-.654.513-.644.63-.748.98-.868.447-.152.902-.11 1.36.123.349.18 1.108.65 1.598.992.645.451 2.024 1.575 2.21 1.8.33.404.386.921.165 1.493-.234.603-1.145 1.734-1.78 2.217-.576.436-.984.603-1.522.628-.442.022-.626-.016-1.192-.25-4.44-1.828-7.985-4.556-10.8-8.304-1.47-1.958-2.59-3.989-3.356-6.095-.445-1.228-.467-1.762-.1-2.39.157-.265.831-.922 1.321-1.288.816-.607 1.192-.831 1.493-.894.206-.044.563-.01.79.073zm7.23-.34a8.816 8.816 0 0 1 2.932.868c.949.464 1.556.903 2.36 1.702.752.755 1.17 1.326 1.612 2.214.617 1.237.968 2.709 1.028 4.329.022.552.006.675-.12.834-.24.306-.769.255-.949-.089-.057-.114-.073-.212-.092-.654a11.438 11.438 0 0 0-.174-1.642c-.373-2.056-1.36-3.697-2.935-4.876-1.312-.985-2.669-1.465-4.446-1.569-.601-.035-.705-.057-.842-.161-.253-.199-.265-.666-.022-.884.149-.136.253-.155.769-.14.269.01.664.042.88.067zM16 0c8.837 0 16 7.163 16 16s-7.163 16-16 16S0 24.837 0 16 7.163 0 16 0z"/>
</symbol><symbol id="icon-viber" viewBox="0 0 32 32">
    <path d="M17.85 11.191c.623.133 1.1.37 1.508.752.526.495.813 1.095.94 1.957.085.562.05.783-.149.966-.187.171-.531.177-.74.016-.152-.114-.2-.233-.234-.559-.041-.433-.117-.736-.247-1.017-.278-.596-.768-.906-1.597-1.007-.389-.047-.506-.091-.632-.24a.588.588 0 0 1 .177-.884c.12-.06.17-.066.436-.05.165.009.409.037.538.066zm-.674-2.384c1.92.28 3.406 1.171 4.38 2.617a6.272 6.272 0 0 1 1.006 2.798c.041.376.041 1.061-.003 1.175a.72.72 0 0 1-.287.313c-.124.063-.386.056-.532-.02-.243-.123-.316-.319-.316-.849 0-.818-.212-1.68-.579-2.35a4.803 4.803 0 0 0-1.765-1.834c-.635-.38-1.575-.66-2.431-.73-.31-.025-.481-.088-.598-.224a.575.575 0 0 1-.048-.714c.165-.255.418-.296 1.173-.182zM9.728 6.858c.111.038.282.127.38.19.6.398 2.274 2.536 2.821 3.603.313.61.417 1.061.32 1.396-.102.36-.27.55-1.019 1.152-.3.243-.582.493-.626.56-.114.163-.206.486-.206.713.003.527.345 1.484.794 2.22.348.572.97 1.304 1.587 1.866.725.663 1.363 1.115 2.085 1.472.927.46 1.492.578 1.907.385.104-.047.215-.11.25-.139.031-.029.275-.325.54-.654.513-.644.63-.748.98-.868.447-.152.902-.11 1.36.123.349.18 1.108.65 1.598.992.645.451 2.024 1.575 2.21 1.8.33.404.386.921.165 1.493-.234.603-1.145 1.734-1.78 2.217-.576.436-.984.603-1.522.628-.442.022-.626-.016-1.192-.25-4.44-1.828-7.985-4.556-10.8-8.304-1.47-1.958-2.59-3.989-3.356-6.095-.445-1.228-.467-1.762-.1-2.39.157-.265.831-.922 1.321-1.288.816-.607 1.192-.831 1.493-.894.206-.044.563-.01.79.073zm7.23-.34a8.816 8.816 0 0 1 2.932.868c.949.464 1.556.903 2.36 1.702.752.755 1.17 1.326 1.612 2.214.617 1.237.968 2.709 1.028 4.329.022.552.006.675-.12.834-.24.306-.769.255-.949-.089-.057-.114-.073-.212-.092-.654a11.438 11.438 0 0 0-.174-1.642c-.373-2.056-1.36-3.697-2.935-4.876-1.312-.985-2.669-1.465-4.446-1.569-.601-.035-.705-.057-.842-.161-.253-.199-.265-.666-.022-.884.149-.136.253-.155.769-.14.269.01.664.042.88.067zM16 0c8.837 0 16 7.163 16 16s-7.163 16-16 16S0 24.837 0 16 7.163 0 16 0z"/>
</symbol><symbol id="icon-vk" viewBox="0 0 19.115469 19.11547"><path class="st1" d="M16.394 10.796c.6.6 1.3 1.2 1.9 1.9.2.3.5.6.7 1 .3.5 0 1.1-.4 1.1h-2.8c-.7.1-1.3-.2-1.8-.7-.4-.4-.7-.8-1.1-1.2-.2-.2-.3-.3-.5-.4-.4-.2-.7-.2-.9.2-.2.4-.3.9-.3 1.3 0 .7-.2.8-.9.9-1.4.1-2.7-.1-4-.9-1.1-.6-1.9-1.5-2.7-2.5-1.4-2-2.5-4.1-3.5-6.3-.2-.5-.1-.8.5-.8h2.7c.4 0 .6.2.8.6.5 1.2 1.1 2.4 1.8 3.5.2.3.4.6.7.8.3.2.6.1.7-.2.1-.2.1-.5.2-.7.1-.8.1-1.7 0-2.5-.1-.5-.4-.9-.9-1-.3-.1-.2-.2-.1-.3.2-.3.4-.4.8-.4h3.1c.5.1.6.3.7.8v3.5c0 .2.1.8.4.9.3.1.5-.1.6-.3.7-.8 1.3-1.8 1.8-2.7.2-.4.4-.9.6-1.3.1-.3.3-.5.7-.5h3.3c.5.1.6.3.5.8-.2.8-.7 1.4-1.2 2.1l-1.5 2.1c-.6.3-.5.6.1 1.2zm0 0"/></symbol><symbol id="icon-vkontakte" viewBox="0 0 50 51">
    <path d="M24.822 50.123C11.113 50.123 0 39.01 0 25.301S11.113.48 24.822.48s24.822 11.113 24.822 24.822-11.113 24.822-24.822 24.822zm-.937-13.935h1.948s.588-.065.889-.389c.276-.297.267-.855.267-.855s-.038-2.615 1.176-3c1.196-.379 2.731 2.527 4.36 3.644 1.23.846 2.166.66 2.166.66l4.352-.06s2.277-.14 1.198-1.93c-.089-.147-.63-1.325-3.237-3.745-2.729-2.534-2.363-2.124.924-6.506 2.003-2.668 2.803-4.297 2.553-4.995-.239-.665-1.711-.49-1.711-.49l-4.901.031s-.363-.05-.633.112c-.263.158-.432.526-.432.526s-.776 2.065-1.81 3.821c-2.183 3.706-3.056 3.902-3.412 3.671-.83-.536-.623-2.154-.623-3.304 0-3.59.545-5.088-1.06-5.476-.533-.128-.925-.213-2.287-.227-1.75-.018-3.23.005-4.067.416-.558.273-.988.881-.726.916.324.044 1.058.198 1.446.728.503.683.485 2.217.485 2.217s.288 4.228-.674 4.753c-.66.36-1.567-.375-3.512-3.737-.997-1.722-1.75-3.626-1.75-3.626s-.145-.356-.404-.546c-.314-.23-.753-.304-.753-.304L9 18.523s-.7.02-.956.324c-.228.27-.018.83-.018.83s3.646 8.53 7.774 12.829c3.786 3.94 8.085 3.682 8.085 3.682z"/>
</symbol><symbol id="icon-watch-expire" viewBox="40 -40.7 103.2 103.2"><path d="M45.2-40.7v.4l98 96.2V-9.6l-33-31.1z"/></symbol><symbol id="icon-watch" viewBox="0 0 25.000016 25.000016"><path d="M12.5 25c-5.5 0-10-4.6-10-10.3C2.5 9 7 4.4 12.5 4.4s10 4.6 10 10.3c0 5.7-4.5 10.3-10 10.3zm0-18.9c-4.6 0-8.3 3.8-8.3 8.6s3.7 8.6 8.3 8.6c4.6 0 8.3-3.8 8.3-8.6S17 6.1 12.5 6.1z"/><path d="M12.5 6.1c-.5 0-.9-.4-.9-.9V.9c0-.5.4-.9.9-.9s.9.4.9.9v4.3c-.1.5-.5.9-.9.9z"/><path d="M14.8 1.8H9.9c-.5 0-.9-.4-.9-.9s.4-.9.9-.9h4.9c.5 0 .9.4.9.9s-.4.9-.9.9zm-1.4 14.1c-.4.5-1.2.4-1.6-.1l-5-6.7 6.5 5.2c.5.4.5 1.2.1 1.6z"/></symbol><symbol id="icon-xls" viewBox="-279 369.8 52.5 54.2"><style>



</style><path class="st0" d="M-238.5 422.3L-238.5 410.7"/><path class="st0" d="M-232,417.1l-5.2-8.2c-0.7-0.7-1.9-0.7-2.6,0l-5,8.2"/><path class="st0" d="M-252.7,419.9c-13.3,0-24-10.8-24-24c0-13.2,10.7-24.1,24-24.1s24,10.8,24,24c0,2.5-0.4,5-1.1,7.3"/><path class="st1" d="M-266.1,389.9c0,0,4.3,6.8,7.9,10.1"/><path class="st1" d="M-258.8,389.6c0,0-2.6,6.1-6.7,11"/><path class="st1" d="M-255.2,389.1l0.5,9.8c0,0,3.7,0.7,7.3,0"/><path class="st1" d="M-240,388.6c0,0-3.3,0-4.2,1.7c-0.5,0.8,2.3,2.5,2.3,2.5l2.2,1.3c0.3,0.3,0.6,0.7,0.7,1.1 c0.4,1.4-0.2,4.6-6.6,3.6"/></symbol></svg>