<svg xmlns="http://www.w3.org/2000/svg" id="Layer_1" width="1177.9501" height="506.42035" viewBox="0 0 1177.9501 506.42035">
  <style id="style3">
    .st0{fill:#A780BA;} .st1{fill:#F1594D;} .st2{fill:none;stroke:#383C3D;stroke-width:11.3386;stroke-miterlimit:10;} .st3{fill:#73CFF3;} .st4{fill:none;stroke:#FFFFFF;stroke-width:11.3386;stroke-linecap:round;stroke-miterlimit:10;} .st5{fill:#FFFFFF;stroke:#383C3D;stroke-width:11.3386;stroke-miterlimit:10;} .st6{fill:none;stroke:#383C3D;stroke-width:11.339;stroke-linecap:round;stroke-miterlimit:10;} .st7{fill:#383C3D;} .st8{fill:none;stroke:#383C3D;stroke-width:8;stroke-linecap:round;stroke-miterlimit:10;} .st9{fill:#1362AC;} .st10{fill:none;stroke:#1362AC;stroke-width:11.3386;stroke-linecap:round;stroke-miterlimit:10;} .st11{fill:#73CFF3;stroke:#383C3D;stroke-width:7;stroke-linecap:round;stroke-linejoin:round;stroke-miterlimit:10;} .st12{fill:none;stroke:#1362AC;stroke-width:11.3386;stroke-linecap:round;stroke-linejoin:round;stroke-miterlimit:10;}
  </style>
  <path id="path5" fill="#a780ba" d="M964.15005 305.25v6.3c0 6.4-4.6 11.8-10.9 12.9l-16.2 2.7h-.6v36.1c0 7.2-5.8 13.1-13.1 13.1h-19.5c-7.2 0-13.1-5.8-13.1-13.1v-23c0-7.2-5.8-13.1-13.1-13.1h-75.2c-9.7 0-17-3.8-21.8-11.3-4.8-7.5-5.4-15.8-1.8-24.9l54.5-129.7c2-4.8 6.8-8 12-8h18.4c9.3 0 15.6 9.4 12.1 18l-45.6 110.3c-1.5 3.7-1.6 6.4-.3 8.1 1.3 1.7 3.6 2.6 6.8 2.6h41c7.2 0 13.1-5.8 13.1-13.1v-45.6c0-1 .1-1.9.3-2.9l5.4-24c1.4-5.9 6.6-10.2 12.7-10.2h14c7.2 0 13.1 5.8 13.1 13.1v69.6c0 7.2 5.8 13.1 13.1 13.1h1.7c7.2 0 13 5.8 13 13z" class="st0"/>
  <path id="path7" fill="#a780ba" d="M555.35005 305.25v6.4c0 6.4-4.6 11.8-10.9 12.8l-16.3 2.7h-.6v36.1c0 7.2-5.8 13-13 13h-19.6c-7.2 0-13-5.8-13-13v-23.1c0-7.2-5.8-13-13-13h-75.2c-9.7 0-17-3.8-21.8-11.3-4.8-7.5-5.4-15.8-1.8-24.9l54.5-129.7c2-4.8 6.8-8 12-8h18.5c9.3 0 15.6 9.4 12 18l-45.6 110.4c-1.5 3.7-1.6 6.4-.3 8.1 1.3 1.7 3.6 2.6 6.8 2.6h41c7.2 0 13-5.8 13-13v-45.7c0-1 .1-1.9.3-2.9l5.5-24c1.3-5.9 6.6-10.1 12.7-10.1h14.1c7.2 0 13 5.8 13 13v69.7c0 7.2 5.8 13 13 13h1.8c7-.1 12.9 5.7 12.9 12.9z" class="st0"/>
  <path id="path9" fill="#f1594d" d="M481.15005 494.75l-23.7-18.7c-3.7-2.9-4.4-8.4-1.4-12.1l79.7-101.3c2.9-3.7 8.4-4.4 12.1-1.4l23.7 18.7c3.7 2.9 4.4 8.4 1.4 12.1l-79.7 101.3c-2.9 3.7-8.4 4.3-12.1 1.4z" class="st1"/>
  <path id="path11" fill="none" stroke="#383c3d" stroke-width="11.33860016" stroke-miterlimit="10" d="M481.75005 498.95l-28.6-22.5c-3.7-2.9-4.4-8.4-1.4-12.1l82.9-105.4c2.9-3.7 8.4-4.4 12.1-1.4l28.6 22.5c3.7 2.9 4.4 8.4 1.4 12.1l-82.9 105.4c-2.9 3.7-8.3 4.3-12.1 1.4z" class="st2"/>
  <path id="path13" fill="#73cff3" d="M763.05005 243.95c-1.8 53.4-22.3 106.3-83.1 113.6-25.9 3.1-48 7.2-68.5-5.5-27.7-17.1-47.6-46.3-51.8-81.1-7.3-60.8 36.1-115.9 96.9-123.2 32.5-3.9 63.3 6.7 86.1 26.7 19.8 17.3 21.3 41 20.4 69.5z" class="st3"/>
  <path id="path15" fill="none" stroke="#fff" stroke-width="11.33860016" stroke-miterlimit="10" d="M596.95005 254.55c-3.9-32.9 19.5-62.7 52.4-66.7" class="st4" stroke-linecap="round"/>
  <path id="polyline17" fill="#fff" stroke="#383c3d" stroke-width="11.33860016" stroke-miterlimit="10" d="M597.45005 343.35l-26.2 33.4-20.4-16 26.3-33.4" class="st5"/>
  <path id="path19" fill="none" stroke="#383c3d" stroke-width="11.33899975" stroke-miterlimit="10" d="M724.65005 337.05c-39.9 30.3-96.6 31.2-137.8-1.2-48.9-38.5-57.4-109.3-18.9-158.2 38.5-48.9 109.3-57.4 158.2-18.9 41.2 32.4 53.7 87.8 33.6 133.7" class="st6" stroke-linecap="round"/>
  <circle id="circle21" cx="746.05005" cy="317.64999" r="6.6999998" fill="#383c3d" class="st7"/>
  <circle id="circle23" cx="390.45004" cy="207.05002" r="5.6999998" fill="#383c3d" class="st7"/>
  <path id="path25" fill="none" stroke="#383c3d" stroke-width="8" stroke-miterlimit="10" d="M396.65005 191.85l17.9-42.7c2-4.8 6.8-8 12-8h18.5c9.3 0 15.6 9.4 12 18l-45.6 110.4c-1.5 3.7-1.6 6.4-.3 8.1 1.3 1.7 3.6 2.6 6.8 2.6h41c7.2 0 13-5.8 13-13v-45.7c0-1 .1-1.9.3-2.9l5.5-24c1.3-5.9 6.6-10.1 12.7-10.1h14.1c7.2 0 13 5.8 13 13v69.7c0 7.2 5.8 13 13 13h1.8c7.2 0 13 5.8 13 13v6.4c0 6.4-4.6 11.8-10.9 12.8l-16.3 2.7h-.6v36.1c0 7.2-5.8 13-13 13h-19.6c-7.2 0-13-5.8-13-13v-23.1c0-7.2-5.8-13-13-13h-75.2c-9.7 0-17-3.8-21.8-11.3-4.8-7.5-5.4-15.8-1.8-24.9l24.3-57.8" class="st8" stroke-linecap="round"/>
  <path id="path27" fill="none" stroke="#383c3d" stroke-width="8" stroke-miterlimit="10" d="M926.45005 252.75v14.5c0 7.2 5.8 13 13 13h1.8c7.2 0 13 5.8 13 13v6.4c0 6.4-4.6 11.8-10.9 12.8l-16.3 2.7h-.6v36.1c0 7.2-5.8 13-13 13h-19.6c-7.2 0-13-5.8-13-13v-23.1c0-7.2-5.8-13-13-13h-55.8m0 0h-19.5c-9.7 0-17-3.8-21.8-11.3-4.8-7.5-5.4-15.8-1.8-24.9l54.5-129.7c2-4.8 6.8-8 12-8h18.5c9.3 0 15.6 9.4 12 18l-45.6 110.4c-1.5 3.7-1.6 6.4-.3 8.1 1.3 1.7 3.6 2.6 6.8 2.6h41c7.2 0 13-5.8 13-13v-45.7c0-1 .1-1.9.3-2.9l5.5-24c1.3-5.9 6.6-10.1 12.7-10.1h14.1c7.2 0 13 5.8 13 13v17.5" class="st8" stroke-linecap="round"/>
  <circle id="circle29" cx="926.45007" cy="234.55002" r="5.6999998" fill="#383c3d" class="st7"/>
  <g id="g31">
    <path id="path33" fill="#1362ac" d="M482.05005 26.75h-142.9c-3.1 0-5.7-2.5-5.7-5.7s2.5-5.7 5.7-5.7h142.9c3.1 0 5.7 2.5 5.7 5.7s-2.5 5.7-5.7 5.7z" class="st9"/>
  </g>
  <g id="g35">
    <path id="path37" fill="#1362ac" d="M644.35005 26.75h-37.5c-3.1 0-5.7-2.5-5.7-5.7s2.5-5.7 5.7-5.7h37.5c3.1 0 5.7 2.5 5.7 5.7s-2.6 5.7-5.7 5.7z" class="st9"/>
  </g>
  <g id="g39">
    <path id="path41" fill="#1362ac" d="M544.55005 42.15c-1.5 0-2.9-.6-4-1.7l-15.4-15.4c-1.1-1.1-1.7-2.5-1.7-4s.6-2.9 1.7-4l15.4-15.4c2.2-2.2 5.8-2.2 8 0l15.4 15.4c1.1 1.1 1.7 2.5 1.7 4s-.6 2.9-1.7 4l-15.4 15.4c-1.1 1.2-2.6 1.7-4 1.7zm-7.4-21l7.4 7.4 7.4-7.4-7.4-7.4-7.4 7.4z" class="st9"/>
  </g>
  <g id="g43">
    <g id="g45">
      <path id="path47" fill="#1362ac" d="M968.75005 26.75h-29.1c-3.1 0-5.7-2.5-5.7-5.7s2.5-5.7 5.7-5.7h29.1c3.1 0 5.7 2.5 5.7 5.7s-2.6 5.7-5.7 5.7z" class="st9"/>
    </g>
    <g id="g49">
      <path id="path51" fill="#1362ac" d="M954.25005 41.35c-3.1 0-5.7-2.5-5.7-5.7V6.55c0-3.1 2.5-5.7 5.7-5.7s5.7 2.5 5.7 5.7v29.1c-.1 3.1-2.6 5.7-5.7 5.7z" class="st9"/>
    </g>
  </g>
  <path id="line53" fill="none" stroke="#1362ac" stroke-width="11.33860016" stroke-miterlimit="10" d="M785.85004 21.35h101.30005" class="st10" stroke-linecap="round"/>
  <g id="g55" transform="translate(141.75 -136.65)">
    <path id="path57" fill="#73cff3" stroke="#383c3d" stroke-width="7" stroke-miterlimit="10" d="M148.5 586.7H199c.5.1 1.1.1 1.6.1 8.5 0 15.4-6.9 15.4-15.4s-6.9-15.4-15.4-15.4H146c-5.9-.1-10.7-4.9-10.7-10.8 0-6 4.8-10.8 10.8-10.8h.3c6.7 0 12.2-5.4 12.2-12.2 0-6.7-5.4-12.2-12.2-12.2H83c-6.7 0-12.2 5.4-12.2 12.2 0 6.7 5.4 12.2 12.2 12.2h9.3c6 0 10.8 4.8 10.8 10.8 0 5.9-4.8 10.7-10.7 10.8H65.2v.1c-8.5 0-15.4 6.9-15.4 15.4s6.9 15.4 15.4 15.4c.5 0 1.1 0 1.6-.1h43.5" class="st11" stroke-linecap="round" stroke-linejoin="round"/>
    <circle id="circle59" cx="129.39999" cy="586.90002" r="5.4000001" fill="#383c3d" class="st7"/>
  </g>
  <g id="g61" fill="none" stroke="#1362ac" stroke-width="11.33860016" stroke-miterlimit="10" stroke-linecap="round">
    <path id="line63" d="M5.75005 252.24999h73.400002" class="st10"/>
    <path id="rect65" stroke-width="11.33848677" d="M141.58634 236.82039l15.4147793 15.4147793-15.4147793 15.4147793-15.4147793-15.4147793z" class="st12" stroke-linejoin="round"/>
  </g>
  <path id="line67" fill="none" stroke="#1362ac" stroke-width="11.33860016" stroke-miterlimit="10" d="M158.25005 108.35h34.89999" class="st10" stroke-linecap="round"/>
  <path id="rect69" fill="none" stroke="#1362ac" stroke-width="11.33860016" stroke-miterlimit="10" d="M255.64792264 92.95101057l15.4147786 15.4147786-15.4147786 15.4147786-15.4147786-15.4147786z" class="st12" stroke-linecap="round" stroke-linejoin="round"/>
  <g id="g71" transform="translate(141.75 -136.65)">
    <path id="path73" fill="#73cff3" stroke="#383c3d" stroke-width="7" stroke-miterlimit="10" d="M894 286.9h-50.5c-.5.1-1.1.1-1.6.1-8.5 0-15.4-6.9-15.4-15.4s6.9-15.4 15.4-15.4v-.1h54.6c5.9-.1 10.7-4.9 10.7-10.8 0-6-4.8-10.8-10.8-10.8h-.3c-6.7 0-12.2-5.4-12.2-12.2 0-6.7 5.4-12.2 12.2-12.2h63.4c6.7 0 12.2 5.4 12.2 12.2 0 6.7-5.4 12.2-12.2 12.2h-9.3c-6 0-10.8 4.8-10.8 10.8 0 5.9 4.8 10.7 10.7 10.8h27.2v.1c8.5 0 15.4 6.9 15.4 15.4s-6.9 15.4-15.4 15.4c-.5 0-1.1 0-1.6-.1h-43.5" class="st11" stroke-linecap="round" stroke-linejoin="round"/>
    <circle id="circle75" cx="913.09998" cy="287" r="5.4000001" fill="#383c3d" class="st7"/>
  </g>
  <g id="g77" transform="translate(141.75 -136.65)">
    <path id="path79" fill="#73cff3" stroke="#383c3d" stroke-width="7" stroke-miterlimit="10" d="M934 586.7h-50.5c-.5.1-1.1.1-1.6.1-8.5 0-15.4-6.9-15.4-15.4s6.9-15.4 15.4-15.4h54.6c5.9-.1 10.7-4.9 10.7-10.8 0-6-4.8-10.8-10.8-10.8h-.3c-6.7 0-12.2-5.4-12.2-12.2 0-6.7 5.4-12.2 12.2-12.2h63.4c6.7 0 12.2 5.4 12.2 12.2 0 6.7-5.4 12.2-12.2 12.2h-9.3c-6 0-10.8 4.8-10.8 10.8 0 5.9 4.8 10.7 10.7 10.8h27.2v.1c8.5 0 15.4 6.9 15.4 15.4s-6.9 15.4-15.4 15.4c-.5 0-1.1 0-1.6-.1h-43.5" class="st11" stroke-linecap="round" stroke-linejoin="round"/>
    <circle id="circle81" cx="953.09998" cy="586.90002" r="5.4000001" fill="#383c3d" class="st7"/>
  </g>
  <path id="line83" fill="none" stroke="#1362ac" stroke-width="11.33860016" stroke-miterlimit="10" d="M825.05005 444.85001h101.40002" class="st10" stroke-linecap="round"/>
  <circle id="circle85" cx="776.75006" cy="444.85001" r="5.3000002" fill="#1362ac" class="st9"/>
  <g id="g87">
    <g id="g89">
      <path id="path91" fill="#1362ac" d="M777.75005 450.55h-29.1c-3.1 0-5.7-2.5-5.7-5.7s2.5-5.7 5.7-5.7h29.1c3.1 0 5.7 2.5 5.7 5.7s-2.5 5.7-5.7 5.7z" class="st9"/>
    </g>
    <g id="g93">
      <path id="path95" fill="#1362ac" d="M763.25005 465.05c-3.1 0-5.7-2.5-5.7-5.7v-29c0-3.1 2.5-5.7 5.7-5.7s5.7 2.5 5.7 5.7v29c0 3.2-2.6 5.7-5.7 5.7z" class="st9"/>
    </g>
  </g>
</svg>
