<svg xmlns="http://www.w3.org/2000/svg" viewBox="89 -24.1 789.9 841.1">
  <circle cx="648.6" cy="509.1" r="339" fill="#E3E950" transform="translate(-155.4 -136.8)"/>
  <path fill="#B3B1B1" d="M473.7 72.9c.9.8 3 31.3 3 31.3l49.5 3.8 25.7 21.1 2.8-19.9 28.5-6.1.8-70-19-5.8-57.3 2.6-34 43z"/>
  <path fill="#373B3C" d="M553.5 141c-1.5 0-2.9-.6-4-1.7l-25.6-25.6-36-.1c-10.9 0-19.8-8.9-19.8-19.8V41.5c0-10.9 8.9-19.8 19.8-19.8h84.7c10.9 0 19.8 8.9 19.8 19.8v52.3c0 10.9-8.9 19.8-19.8 19.8h-13.5v21.7c0 2.3-1.4 4.4-3.5 5.2-.7.3-1.4.5-2.1.5zM487.9 33.1c-4.7 0-8.5 3.8-8.5 8.5v52.3c0 4.7 3.8 8.5 8.5 8.5l38.3.1c1.5 0 2.9.6 4 1.7l17.6 17.6v-13.7c0-3.1 2.5-5.7 5.7-5.7h19.1c4.7 0 8.5-3.8 8.5-8.5V41.6c0-4.7-3.8-8.5-8.5-8.5h-84.7z"/>
  <path fill="#FF5749" d="M523.9 64.7c0 9.7 5.2 15-4.5 15l-25.1 2.8c-.4 0-15.5-.2-15.8.1l-16 .1c-.9.9-14.5 14.1-14.5 12.9l-16.5 16.5c0-.8-2.1-5-2.9-5l-1.3-23.5c-3.4 0-25.5 1.3-25.5-2.1V4.3c0-3.4 2.7-6.1 6.1-6.1h116.5c3.4 0 .8 7.1.8 10.5l-1.3 56z"/>
  <path fill="#373B3C" d="M427.3 122c-.7 0-1.5-.1-2.2-.4-2.1-.9-3.5-2.9-3.5-5.2V88.1h-18.1c-12.8 0-23.2-10.4-23.2-23.2V0c0-12.8 10.4-23.2 23.2-23.2h8.1c3.1 0 5.7 2.5 5.7 5.7s-2.5 5.7-5.7 5.7h-8.1c-6.5 0-11.9 5.3-11.9 11.9V65c0 6.5 5.3 11.9 11.9 11.9h23.8c3.1 0 5.7 2.5 5.7 5.7v20.3l24.1-24.1c1.1-1.1 2.5-1.7 4-1.7l47.6-.2c6.6 0 11.9-5.3 11.9-11.9V.1c0-6.5-5.3-11.9-11.9-11.9h-48.6c-3.1 0-5.7-2.5-5.7-5.7s2.5-5.7 5.7-5.7h48.5c12.8 0 23.2 10.4 23.2 23.2v64.9c0 12.8-10.4 23.2-23.2 23.2l-45.2.2-32.2 32.2c-1 1-2.5 1.5-3.9 1.5z"/>
  <circle cx="592.2" cy="119.2" r="6.5" fill="#373B3C" transform="translate(-155.4 -136.8)"/>
  <path fill="#FFF" d="M441.5 37.1c-8.8 0-16-7.2-16-16s7.2-16 16-16 16 7.2 16 16-7.1 16-16 16zm0-25.1c-4.9 0-9 4-9 9 0 4.9 4 9 9 9 4.9 0 9-4 9-9 0-4.9-4-9-9-9zm38.4 56.5c-8.8 0-16-7.2-16-16s7.2-16 16-16c3.3 0 6.5 1 9.1 2.8.6.4.7 1.3.2 1.9l-2.9 3.4c-.4.5-1.2.6-1.7.3-1.4-.9-3.1-1.4-4.8-1.4-4.9 0-9 4-9 9 0 4.9 4 9 9 9 1.7 0 3.4-.5 4.8-1.4.6-.4 1.3-.3 1.7.2l2.9 3.4c.5.6.4 1.5-.2 1.9-2.6 1.9-5.8 2.9-9.1 2.9zM444 59.2l-2.2-1.8c-.9-.7-1-2-.3-2.9l32.6-39.6c.7-.9 2-1 2.9-.3l2.2 1.8c.9.7 1 2 .3 2.9l-32.6 39.6c-.7.9-2.1 1-2.9.3z"/>
  <path fill="#FCC02D" d="M156.1 547.1V715l19.1.1 101.7-.1-4.3-51.9v-96.9H228l1.3-24.2H161c-2.7.1-4.9 2.3-4.9 5.1z"/>
  <path fill="#373B3C" d="M289.4 720.6H154.2c-11.5 0-20.8-9.3-20.8-20.8v-22.3c0-3.1 2.5-5.7 5.7-5.7s5.7 2.5 5.7 5.7v22.3c0 5.2 4.3 9.5 9.5 9.5h135.2c3.1 0 5.7 2.5 5.7 5.7s-2.7 5.6-5.8 5.6zm-16.8-148.7c-1.4 0-2.8-.5-3.9-1.6l-44.5-42.2c-2.3-2.2-2.4-5.7-.2-8 2.2-2.3 5.7-2.4 8-.2l44.6 42.3c2.3 2.2 2.4 5.7.2 8-1.2 1.1-2.7 1.7-4.2 1.7z"/>
  <path fill="#373B3C" d="M354 720.7c-12.1 0-21.9-9.8-21.9-21.9 0-5.9-4.8-10.6-10.6-10.6s-10.6 4.8-10.6 10.6c0 12.1-9.8 21.9-21.9 21.9s-22-9.8-22-21.9v-35.7c0-3.1 2.5-5.7 5.7-5.7s5.7 2.5 5.7 5.7v35.6c0 5.9 4.8 10.6 10.7 10.6 5.8 0 10.6-4.8 10.6-10.6 0-12.1 9.8-21.9 21.9-21.9s21.9 9.8 21.9 21.9c0 5.9 4.8 10.6 10.6 10.6 3.1 0 5.7 2.5 5.7 5.7s-2.7 5.7-5.8 5.7zm-215-91.1c-3.1 0-5.7-2.5-5.7-5.7V524c0-3.1 2.5-5.7 5.7-5.7h89c3.1 0 5.7 2.5 5.7 5.7v36.6h38.9c3.1 0 5.7 2.5 5.7 5.7v21.8c0 3.1-2.5 5.7-5.7 5.7s-5.7-2.5-5.7-5.7V572H228c-3.1 0-5.7-2.5-5.7-5.7v-36.6h-77.7V624c.1 3-2.4 5.6-5.6 5.6z"/>
  <path fill="#FFF" d="M340.5 659.5h-93.9c-7.4 0-13.4-6-13.4-13.4v-42.9c0-7.4 6-13.4 13.4-13.4h93.9c7.4 0 13.4 6 13.4 13.4v42.9c0 7.4-6 13.4-13.4 13.4z"/>
  <path fill="#373B3C" d="M339 667.7h-91c-11.3 0-20.6-9.2-20.6-20.6v-44.2c0-11.3 9.2-20.6 20.6-20.6h91c11.3 0 20.6 9.2 20.6 20.6v44.2c-.1 11.4-9.3 20.6-20.6 20.6zm-91-74c-5.1 0-9.2 4.1-9.2 9.2v44.2c0 5.1 4.1 9.2 9.2 9.2h91c5.1 0 9.2-4.1 9.2-9.2v-44.2c0-5.1-4.1-9.2-9.2-9.2h-91z"/>
  <path fill="#373B3C" d="M280.6 643.4h-25.7c-3.1 0-5.7-2.5-5.7-5.7V612c0-3.1 2.5-5.7 5.7-5.7h25.7c3.1 0 5.7 2.5 5.7 5.7v25.7c0 3.1-2.6 5.7-5.7 5.7zm-20-11.4h14.3v-14.3h-14.3V632zm72.8-10.4h-33.8c-3.1 0-5.7-2.5-5.7-5.7s2.5-5.7 5.7-5.7h33.8c3.1 0 5.7 2.5 5.7 5.7s-2.6 5.7-5.7 5.7z"/>
  <circle cx="455.4" cy="769.7" r="5.1" fill="#373B3C" transform="translate(-155.4 -136.8)"/>
  <g fill="#0F60AC">
    <path d="M118.7 70.9c-1.5 0-2.9-.6-4-1.7L95.5 50c-2.2-2.2-2.2-5.8 0-8s5.8-2.2 8 0l19.2 19.2c2.2 2.2 2.2 5.8 0 8-1.1 1.1-2.6 1.7-4 1.7z"/>
    <path d="M99.5 70.9c-1.5 0-2.9-.6-4-1.7-2.2-2.2-2.2-5.8 0-8L114.7 42c2.2-2.2 5.8-2.2 8 0s2.2 5.8 0 8l-19.2 19.2c-1.1 1.1-2.5 1.7-4 1.7zm9.6 746.1c-1.5 0-2.9-.6-4-1.7l-14.4-14.4c-1.1-1.1-1.7-2.5-1.7-4s.6-2.9 1.7-4l14.4-14.4c1.1-1.1 2.5-1.7 4-1.7s2.9.6 4 1.7l14.4 14.4c1.1 1.1 1.7 2.5 1.7 4s-.6 2.9-1.7 4l-14.4 14.4c-1.1 1.1-2.6 1.7-4 1.7zm-6.3-20.1l6.3 6.3 6.3-6.3-6.3-6.3-6.3 6.3zm747.6 19.3c-3.1 0-5.7-2.5-5.7-5.7v-27.1c0-3.1 2.5-5.7 5.7-5.7s5.7 2.5 5.7 5.7v27.1c0 3.1-2.5 5.7-5.7 5.7z"/>
    <path d="M864 802.6h-27.1c-3.1 0-5.7-2.5-5.7-5.7s2.5-5.7 5.7-5.7H864c3.1 0 5.7 2.5 5.7 5.7s-2.6 5.7-5.7 5.7zm-14.4-727c-1.5 0-2.9-.6-4-1.7l-14.4-14.4c-1.1-1.1-1.7-2.5-1.7-4s.6-2.9 1.7-4l14.4-14.4c1.1-1.1 2.5-1.7 4-1.7s2.9.6 4 1.7L868 51.5c1.1 1.1 1.7 2.5 1.7 4s-.6 2.9-1.7 4L853.6 74c-1.1 1.1-2.5 1.6-4 1.6zm-6.3-20l6.3 6.3 6.3-6.3-6.3-6.3-6.3 6.3z"/>
  </g>
  <path fill="#FCC02D" d="M783.5 390.1H872V427h-88.5z"/>
  <path fill="#71CFF4" d="M872.1 387.5h-75.9v-73c0-3.3 2.7-6 6-6H872v79h.1z"/>
  <path fill="none" d="M876 374.3h-2.6"/>
  <path fill="#373B3C" d="M861 432.7h-69.2c-9.2 0-16.7-7.5-16.7-16.7V305.5c0-9.2 7.5-16.7 16.7-16.7H861c9.2 0 16.7 7.5 16.7 16.7v9.6c0 3.1-2.5 5.7-5.7 5.7s-5.7-2.5-5.7-5.7v-9.6c0-3-2.4-5.4-5.4-5.4h-69.2c-3 0-5.4 2.4-5.4 5.4V416c0 3 2.4 5.4 5.4 5.4h69.2c3 0 5.4-2.4 5.4-5.4v-43.6c0-3.1 2.5-5.7 5.7-5.7s5.7 2.5 5.7 5.7V416c0 9.2-7.5 16.7-16.7 16.7z"/>
  <path fill="#373B3C" d="M872.1 395.8h-91.3c-3.1 0-5.7-2.5-5.7-5.7s2.5-5.7 5.7-5.7h91.3c3.1 0 5.7 2.5 5.7 5.7s-2.6 5.7-5.7 5.7z"/>
  <circle cx="982.5" cy="545.8" r="7.4" fill="#FFF" transform="translate(-155.4 -136.8)"/>
  <circle cx="1027.5" cy="479.3" r="6.8" fill="#373B3C" transform="translate(-155.4 -136.8)"/>
  <circle cx="276.4" cy="785.3" r="6.3" fill="#373B3C" transform="translate(-155.4 -136.8)"/>
  <path fill="#AA80CE" d="M135.4 245c0 9.1 2.4 17.6 6.7 24.9 8.6 14.7 22.7 15.8 40.7 13.2 24.5-3.5 39.3-14.9 39.3-42.2 0-13.8 6.4-22.2-2.7-31.2-8.9-8.7-21.1-14.1-34.6-14.1-27.3 0-49.4 22.1-49.4 49.4z"/>
  <path fill="#373B3C" d="M174.1 289.4c-30.4 0-55.1-24.7-55.1-55.1 0-3.1 2.5-5.7 5.7-5.7s5.7 2.5 5.7 5.7c0 24.1 19.6 43.7 43.7 43.7s43.7-19.6 43.7-43.7-19.6-43.7-43.7-43.7c-5.6 0-11.1 1-16.2 3.1-2.9 1.2-6.2-.3-7.4-3.2-1.2-2.9.3-6.2 3.2-7.4 6.5-2.6 13.4-3.9 20.4-3.9 30.4 0 55.1 24.7 55.1 55.1s-24.7 55.1-55.1 55.1z"/>
  <path fill="#373B3C" d="M185.5 252.3c-1.5 0-2.9-.6-4-1.7l-21.2-21.2c-2.2-2.2-2.2-5.8 0-8s5.8-2.2 8 0l17.1 17.1 54.2-54.2c2.2-2.2 5.8-2.2 8 0s2.2 5.8 0 8l-58 58.3c-1.1 1.1-2.5 1.7-4.1 1.7z"/>
  <path fill="#71CFF4" d="M325.4 261.7c-8.2-2.8-14 17.5-19 24.7-14 20.4-23.4 53.8-23.4 121.3v90.5l70.4.2s53.4 10.5 53.4-85.8v-76c.1 0 5.5-44.8-81.4-74.9z"/>
  <path fill="#FFF" d="M391.9 244.6c9.4 4.9 14.4 3.2 24.2 2.2 11.6-1.1 15.5-3.9 22.8-14 7.7-10.5 15.9-17.1 12.9-28.8-2.3-9.1-4.8-16.1-13-22.1-18.7-13.6-44.9-9.5-58.6 9.2-7.5 10.3-8.1 21.6-5.3 33.2 2.3 9.4 7.9 15.5 17 20.3zm208.9 0c-9.4 4.9-14.4 3.2-24.2 2.2-11.6-1.1-15.5-3.9-22.8-14-7.7-10.5-15.9-17.1-12.9-28.8 2.3-9.1 4.8-16.1 13-22.1 18.7-13.6 44.9-9.5 58.6 9.2 7.5 10.3 8.1 21.6 5.3 33.2-2.3 9.4-7.8 15.5-17 20.3z"/>
  <path fill="#373B3C" d="M407.8 255.2c-27.4 0-49.8-22.3-49.8-49.8s22.3-49.8 49.8-49.8 49.8 22.3 49.8 49.8-22.4 49.8-49.8 49.8zm0-88.2c-21.2 0-38.4 17.2-38.4 38.4s17.2 38.4 38.4 38.4 38.4-17.2 38.4-38.4S429 167 407.8 167zm-40.7 336.9h-85.7c-3.1 0-5.7-2.5-5.7-5.7v-22.8c0-3.1 2.5-5.7 5.7-5.7s5.7 2.5 5.7 5.7v17.1h79.4c.6 0 14.6.8 27.7-11.4 14.7-13.8 22.5-39.2 22.5-73.5 0-3.1 2.5-5.7 5.7-5.7s5.7 2.5 5.7 5.7c0 38.3-8.9 65.9-26.3 82-14.4 13.2-29.7 14.3-34.7 14.3zm-85.7-90.5c-3.1 0-5.7-2.5-5.7-5.7v-14.6c0-68.5 24.9-115.1 39.8-136.7 6.6-9.6 18.8-13.4 29.7-9.1 83.3 32.4 83 74.3 82.7 79.1v22.1c0 3.1-2.5 5.7-5.7 5.7s-5.7-2.5-5.7-5.7v-23s.6-9.2-8-21.9c-14.9-21.9-44.9-37-67.5-45.8-6-2.3-12.7-.3-16.3 5-14.1 20.6-37.8 64.9-37.8 130.3v14.6c.2 3.1-2.4 5.7-5.5 5.7zm199.8-46.6c-.1 0-.1 0 0 0-3.2 0-5.8-2.6-5.8-5.7s2.5-5.7 5.7-5.7h.1c22.7 0 65.5-18.5 84.7-33.8 2.5-1.9 6-1.5 8 .9 1.9 2.5 1.5 6-.9 8-21.2 16.9-65.8 36.3-91.8 36.3zm-8.3 53.8c-7.9 0-16.3-.4-25.1-1.3-3.1-.3-5.4-3.1-5-6.2.3-3.1 3.1-5.4 6.2-5 60.4 6.3 99.4-12.4 117.3-24.1 2.6-1.7 6.1-1 7.9 1.6 1.8 2.6 1 6.1-1.6 7.8-16.6 10.8-49.8 27.2-99.7 27.2z"/>
  <path fill="#373B3C" d="M467.5 420.5c-35.1 0-61.9-11.7-79.3-22.6-22.1-13.8-33.7-29-34.8-30.4-1.7-2.1-3-4.3-4.1-6.5-2.8-6.1-3.8-12.8-2.7-19.5 2.5-16 16.7-28.2 32.9-28.2h.1c10.7 0 20.5 4.9 26.9 13.4 12.5 16.6 33.2 27.5 55.3 29.1 5.1.4 13.4.3 18.8-.2 5.2-.5 10 .2 14.4 2 14.6 5.9 21.6 17.2 20.8 33.4-.8 15.9-10 25.9-26.1 28.1-7.7.9-15.2 1.4-22.2 1.4zm-87.8-96c-.1 0-.1 0 0 0-10.8 0-20.2 8.1-21.9 18.7-.7 4.4-.1 8.9 1.8 12.9.7 1.4 1.6 2.9 2.7 4.3l.1.2c.1.1 11.2 14.8 32.1 27.9 28 17.4 59.4 23.9 93.5 19.2 10.6-1.5 15.8-7 16.3-17.4.5-11.4-3.7-18.3-13.8-22.4-2.7-1.1-5.7-1.5-9.1-1.2-6 .5-14.9.6-20.6.2-25.7-1.9-48.8-14.1-63.5-33.6-4.1-5.6-10.6-8.8-17.6-8.8zm4.4 235.1c-3.1 0-5.7-2.5-5.7-5.7v-55.6c0-3.1 2.5-5.7 5.7-5.7s5.7 2.5 5.7 5.7v55.6c-.1 3.2-2.6 5.7-5.7 5.7zm200.3-304.4c-27.4 0-49.8-22.3-49.8-49.8s22.3-49.8 49.8-49.8 49.8 22.3 49.8 49.8-22.4 49.8-49.8 49.8zm0-88.2c-21.2 0-38.4 17.2-38.4 38.4s17.2 38.4 38.4 38.4 38.4-17.2 38.4-38.4-17.2-38.4-38.4-38.4z"/>
  <path fill="#FF5749" d="M668.4 261.7c8.2-2.8 14 17.5 19 24.7 14 20.4 23.4 53.8 23.4 121.3v90.5l-70.4.2S587 508.9 587 412.6v-76c-.1 0-5.5-44.8 81.4-74.9z"/>
  <path fill="#373B3C" d="M626.2 503.9c-1 0-19-.2-35.4-16.6-17.6-17.5-26.5-46.2-26.5-85.2v-75.8c-.3-4.8-.6-46.7 82.7-79.1 10.9-4.2 23.1-.5 29.7 9.1 14.9 21.7 39.8 68.2 39.8 136.7v105.1c0 3.1-2.5 5.7-5.7 5.7l-84.6.1zM651 257.8c-41.8 16.3-60.1 34.4-68.2 46.8-8 12.3-7.3 20.8-7.3 20.9v76.6c0 35.3 8 62 23.2 77.1 13.2 13.2 27.2 13.3 27.4 13.3H705v-99.4c0-65.4-23.7-109.7-37.8-130.3-3.5-5.3-10.2-7.3-16.2-5z"/>
  <path fill="#373B3C" d="M608.1 559.6c-3.1 0-5.7-2.5-5.7-5.7v-58.6c0-3.1 2.5-5.7 5.7-5.7s5.7 2.5 5.7 5.7v58.6c0 3.2-2.6 5.7-5.7 5.7zm39.1-105.9c-2.7 0-5.5-.4-8.5-1.2-14.1-4-21.7-13.1-22.7-27.3-.3-4.3.5-8.6 2.4-12.9 1.9-4.4 4.2-11.2 5.3-15.5.8-3 3.8-4.9 6.9-4.1 3 .8 4.9 3.8 4.1 6.9-1.3 5-3.8 12.3-5.9 17.3-1.1 2.6-1.6 5.2-1.5 7.6.6 9.3 4.9 14.5 14.4 17.1 8.5 2.4 14.3-.3 18.3-8.5 13.3-27.1 16.6-55 9.9-83.1-5.1-21.1-14.2-34.3-14.3-34.5l-.1-.2c-.9-1.3-1.8-2.5-2.8-3.4-2.7-2.6-6.2-4.3-10-4.9-9-1.5-18 3.9-20.9 12.6-1.9 5.7-1.1 11.9 2.4 16.8 2.6 3.7 4.8 7.8 6.7 12 1.3 2.9-.1 6.2-2.9 7.5-2.9 1.3-6.2-.1-7.5-2.9-1.6-3.6-3.4-7-5.6-10.1-5.5-7.9-6.9-17.7-3.8-26.9 4.7-13.9 19.1-22.5 33.5-20.2 6 1 11.5 3.7 15.9 7.9 1.6 1.5 3.1 3.3 4.4 5.3.9 1.4 10.4 15.4 15.9 37.8 5.2 21.2 7.5 54.3-10.6 91.2-5 10.3-13.1 15.7-23 15.7z"/>
  <circle cx="785.6" cy="511.4" r="7.3" fill="#373B3C" transform="translate(-155.4 -136.8)"/>
  <circle cx="438.4" cy="581.2" r="7.3" fill="#373B3C" transform="translate(-155.4 -136.8)"/>
  <path fill="#373B3C" d="M316.5 450.1h-1.8c-3.1 0-5.6-2.6-5.6-5.7s2.6-5.6 5.7-5.6h.1c5.9.1 23.7.2 39.6-11.9 4.3-3.3 8.3-7.3 11.7-12 1.9-2.5 5.4-3 7.9-1.2 2.5 1.9 3 5.4 1.2 7.9-4.1 5.5-8.8 10.3-13.9 14.3-17.6 13.3-36.7 14.2-44.9 14.2zm-18.7 91.4c-3.1 0-5.7-2.5-5.7-5.7v-37.4c0-3.1 2.5-5.7 5.7-5.7s5.7 2.5 5.7 5.7v37.4c-.1 3.1-2.6 5.7-5.7 5.7zm400.2 0c-3.1 0-5.7-2.5-5.7-5.7v-37.4c0-3.1 2.5-5.7 5.7-5.7s5.7 2.5 5.7 5.7v37.4c0 3.1-2.6 5.7-5.7 5.7z"/>
  <path fill="#AA80CE" d="M797 717.7H631.7c-6.8 0-12.3-5.5-12.3-12.3v-85.6h189.9v85.6c0 6.7-5.5 12.3-12.3 12.3z"/>
  <path fill="#373B3C" d="M794.9 723.3H769c-3.1 0-5.7-2.5-5.7-5.7s2.5-5.7 5.7-5.7h25.9c3.3 0 6-2.7 6-6v-92.8c0-3.3-2.7-6-6-6H626.3c-3.3 0-6 2.7-6 6v92.8c0 3.3 2.7 6 6 6h80.9c3.1 0 5.7 2.5 5.7 5.7s-2.5 5.7-5.7 5.7h-80.9c-9.5 0-17.3-7.8-17.3-17.3v-92.8c0-9.5 7.8-17.3 17.3-17.3h168.6c9.5 0 17.3 7.8 17.3 17.3V706c0 9.6-7.8 17.3-17.3 17.3z"/>
  <path fill="#EAEDF0" d="M725.2 658.5h-26.7c-3.4 0-6.2-2.8-6.2-6.2v-11.1c0-3.4 2.8-6.2 6.2-6.2h26.7c3.4 0 6.2 2.8 6.2 6.2v11.1c0 3.4-2.7 6.2-6.2 6.2z"/>
  <path fill="#373B3C" d="M725.2 664.2h-26.7c-6.6 0-11.9-5.3-11.9-11.9v-11.1c0-6.6 5.3-11.9 11.9-11.9h26.7c6.6 0 11.9 5.3 11.9 11.9v11.1c0 6.6-5.3 11.9-11.9 11.9zm-26.7-23.6c-.3 0-.6.3-.6.6v11.1c0 .3.3.6.6.6h26.7c.3 0 .6-.3.6-.6v-11.1c0-.3-.3-.6-.6-.6h-26.7z"/>
  <path fill="#373B3C" d="M692.2 652.4h-77.6c-3.1 0-5.7-2.5-5.7-5.7s2.5-5.7 5.7-5.7h77.6c3.1 0 5.7 2.5 5.7 5.7s-2.5 5.7-5.7 5.7zm114.3 0h-75.1c-3.1 0-5.7-2.5-5.7-5.7s2.5-5.7 5.7-5.7h75.1c3.1 0 5.7 2.5 5.7 5.7s-2.5 5.7-5.7 5.7zM750 607.3h-76.3c-3.1 0-5.7-2.5-5.7-5.7v-26.1c0-8.3 6.7-15 15-15h57.7c8.3 0 15 6.7 15 15v26.1c0 3.2-2.6 5.7-5.7 5.7zM679.3 596h65v-20.4c0-2-1.6-3.7-3.7-3.7h-57.7c-2 0-3.7 1.6-3.7 3.7V596h.1z"/>
  <circle cx="893.9" cy="854.5" r="7.1" fill="#373B3C" transform="translate(-155.4 -136.8)"/>
</svg>
