<?xml version="1.0" encoding="UTF-8" standalone="no"?>
<!-- Generator: Adobe Illustrator 19.0.1, SVG Export Plug-In . SVG Version: 6.00 Build 0)  -->

<svg
   xmlns:dc="http://purl.org/dc/elements/1.1/"
   xmlns:cc="http://creativecommons.org/ns#"
   xmlns:rdf="http://www.w3.org/1999/02/22-rdf-syntax-ns#"
   xmlns:svg="http://www.w3.org/2000/svg"
   xmlns="http://www.w3.org/2000/svg"
   xmlns:sodipodi="http://sodipodi.sourceforge.net/DTD/sodipodi-0.dtd"
   xmlns:inkscape="http://www.inkscape.org/namespaces/inkscape"
   version="1.1"
   id="Layer_1"
   x="0px"
   y="0px"
   viewBox="0 0 75 75"
   xml:space="preserve"
   inkscape:version="0.91 r13725"
   sodipodi:docname="contacts-1.svg"
   width="75"
   height="75"><metadata
     id="metadata25"><rdf:RDF><cc:Work
         rdf:about=""><dc:format>image/svg+xml</dc:format><dc:type
           rdf:resource="http://purl.org/dc/dcmitype/StillImage" /><dc:title></dc:title></cc:Work></rdf:RDF></metadata><defs
     id="defs23" /><sodipodi:namedview
     pagecolor="#ffffff"
     bordercolor="#666666"
     borderopacity="1"
     objecttolerance="10"
     gridtolerance="10"
     guidetolerance="10"
     inkscape:pageopacity="0"
     inkscape:pageshadow="2"
     inkscape:window-width="1366"
     inkscape:window-height="705"
     id="namedview21"
     showgrid="false"
     fit-margin-top="0"
     fit-margin-left="0"
     fit-margin-right="0"
     fit-margin-bottom="0"
     inkscape:zoom="1.3350176"
     inkscape:cx="49.236795"
     inkscape:cy="-77.467816"
     inkscape:window-x="-8"
     inkscape:window-y="-8"
     inkscape:window-maximized="1"
     inkscape:current-layer="Layer_1" /><style
     type="text/css"
     id="style3">
	.st0{fill:none;stroke:#383C3D;stroke-width:2;stroke-miterlimit:10;}
	.st1{fill:none;stroke:#383C3D;stroke-width:2;stroke-linecap:round;stroke-miterlimit:10;}
	.st2{fill:none;stroke:#383C3D;stroke-width:2;stroke-linecap:round;stroke-linejoin:round;stroke-miterlimit:10;}
</style><circle
     class="st0"
     cx="37.5"
     cy="37.5"
     r="36.5"
     id="circle5"
     style="fill:none;stroke:#383c3d;stroke-width:2;stroke-miterlimit:10" /><g
     id="g7"
     transform="translate(-349.60001,-121.2)"><path
       class="st1"
       d="M 380.6,160.5"
       id="path9"
       inkscape:connector-curvature="0"
       style="fill:none;stroke:#383c3d;stroke-width:2;stroke-linecap:round;stroke-miterlimit:10" /><path
       class="st1"
       d="m 373.7,177.9 0,-5.9 c 0,-4.9 2.7,-9.2 6.6,-11.5 l 0,0 c 0.2,-0.1 0.4,0 0.5,0.1 1.8,1.2 3.9,1.9 6.2,1.9 2.3,0 4.5,-0.7 6.3,-1.9 0.1,-0.1 0.3,-0.1 0.5,0 l 0,0 c 4,2.3 6.6,6.6 6.6,11.5 l 0,5.9"
       id="path11"
       inkscape:connector-curvature="0"
       style="fill:none;stroke:#383c3d;stroke-width:2;stroke-linecap:round;stroke-miterlimit:10" /><g
       id="g13"><path
         class="st2"
         d="m 381.2,146.2 -1.3,0 c -1.1,0 -2,0.9 -2,2 l 0,0 0,4 0,0 c 0,1.1 0.9,2 2,2 l 1.3,0"
         id="path15"
         inkscape:connector-curvature="0"
         style="fill:none;stroke:#383c3d;stroke-width:2;stroke-linecap:round;stroke-linejoin:round;stroke-miterlimit:10" /><circle
         class="st2"
         cx="387.10001"
         cy="156.10001"
         r="1.6"
         id="circle17"
         style="fill:none;stroke:#383c3d;stroke-width:2;stroke-linecap:round;stroke-linejoin:round;stroke-miterlimit:10" /><path
         class="st2"
         d="m 385.5,156.1 -2.3,0 0,0 c -1.1,0 -2,-0.9 -2,-2 l 0,0 0,-8.7 c 0.1,-3.3 3.1,-6.1 5.9,-5.9 l 0,0 0,0 c 3.3,0 5.9,2.7 5.9,5.9 l 0,0 0,8.7 0,0 1.3,0 c 1.1,0 2,-0.9 2,-2 l 0,0 0,-4 0,0 c 0,-1.1 -0.9,-2 -2,-2 l -1.3,0"
         id="path19"
         inkscape:connector-curvature="0"
         style="fill:none;stroke:#383c3d;stroke-width:2;stroke-linecap:round;stroke-linejoin:round;stroke-miterlimit:10" /></g></g></svg>