<?xml version="1.0" encoding="UTF-8" standalone="no"?>
<!-- Generator: Adobe Illustrator 19.0.1, SVG Export Plug-In . SVG Version: 6.00 Build 0)  -->

<svg
   xmlns:dc="http://purl.org/dc/elements/1.1/"
   xmlns:cc="http://creativecommons.org/ns#"
   xmlns:rdf="http://www.w3.org/1999/02/22-rdf-syntax-ns#"
   xmlns:svg="http://www.w3.org/2000/svg"
   xmlns="http://www.w3.org/2000/svg"
   xmlns:sodipodi="http://sodipodi.sourceforge.net/DTD/sodipodi-0.dtd"
   xmlns:inkscape="http://www.inkscape.org/namespaces/inkscape"
   version="1.1"
   id="Layer_1"
   x="0px"
   y="0px"
   viewBox="0 0 72.800003 72.800003"
   xml:space="preserve"
   inkscape:version="0.91 r13725"
   sodipodi:docname="contacts-2.svg"
   width="72.800003"
   height="72.800003"><metadata
     id="metadata47"><rdf:RDF><cc:Work
         rdf:about=""><dc:format>image/svg+xml</dc:format><dc:type
           rdf:resource="http://purl.org/dc/dcmitype/StillImage" /><dc:title></dc:title></cc:Work></rdf:RDF></metadata><defs
     id="defs45" /><sodipodi:namedview
     pagecolor="#ffffff"
     bordercolor="#666666"
     borderopacity="1"
     objecttolerance="10"
     gridtolerance="10"
     guidetolerance="10"
     inkscape:pageopacity="0"
     inkscape:pageshadow="2"
     inkscape:window-width="1366"
     inkscape:window-height="705"
     id="namedview43"
     showgrid="false"
     fit-margin-top="0"
     fit-margin-left="0"
     fit-margin-right="0"
     fit-margin-bottom="0"
     inkscape:zoom="1.888"
     inkscape:cx="88.378091"
     inkscape:cy="-69.70025"
     inkscape:window-x="-8"
     inkscape:window-y="-8"
     inkscape:window-maximized="1"
     inkscape:current-layer="Layer_1" /><style
     type="text/css"
     id="style3">
	.st0{fill:none;stroke:#383C3D;stroke-width:2;stroke-miterlimit:10;}
	.st1{fill:none;stroke:#383C3D;stroke-width:2;stroke-linecap:round;stroke-linejoin:round;stroke-miterlimit:10;}
	.st2{fill:none;stroke:#383C3D;stroke-width:2;stroke-linecap:round;stroke-miterlimit:10;}
	.st3{fill:#383C3D;}
</style><circle
     class="st0"
     cx="36.400002"
     cy="36.400002"
     r="35.400002"
     id="circle5"
     style="fill:none;stroke:#383c3d;stroke-width:2;stroke-miterlimit:10" /><circle
     class="st1"
     cx="27.500008"
     cy="19.000008"
     r="4.5999999"
     id="circle7"
     style="fill:none;stroke:#383c3d;stroke-width:2;stroke-linecap:round;stroke-linejoin:round;stroke-miterlimit:10" /><path
     class="st1"
     d="m 14.300005,47.200002 0,2.4 8.8,0 c 0,0 5.9,0.5 5.9,-9.5"
     id="path9"
     inkscape:connector-curvature="0"
     style="fill:none;stroke:#383c3d;stroke-width:2;stroke-linecap:round;stroke-linejoin:round;stroke-miterlimit:10" /><path
     class="st1"
     d="m 29.000005,33.900002 0,-2.3 c 0,0 0.5,-4.3 -8.3,-7.7 -0.9,-0.3 -1.9,0 -2.4,0.7 -1.5,2.1 -4.1,6.9 -4.1,14 l 0,1.5"
     id="path11"
     inkscape:connector-curvature="0"
     style="fill:none;stroke:#383c3d;stroke-width:2;stroke-linecap:round;stroke-linejoin:round;stroke-miterlimit:10" /><g
     id="g13"
     transform="translate(-159.8,-121.1)"><path
       class="st2"
       d="m 195,156.3 c 2.6,0 7.2,-2 9.2,-3.7"
       id="path15"
       inkscape:connector-curvature="0"
       style="fill:none;stroke:#383c3d;stroke-width:2;stroke-linecap:round;stroke-miterlimit:10" /><path
       class="st2"
       d="m 204.2,159.2 c -2.1,1.4 -6.3,3.3 -12.6,2.6"
       id="path17"
       inkscape:connector-curvature="0"
       style="fill:none;stroke:#383c3d;stroke-width:2;stroke-linecap:round;stroke-miterlimit:10" /><path
       class="st2"
       d="m 195.8,161.8 c 1.5,-0.2 2.2,-1.2 2.2,-2.4 0.1,-1.6 -0.7,-2.5 -1.8,-2.9 -0.4,-0.2 -0.8,-0.2 -1.2,-0.2 -0.6,0.1 -1.5,0.1 -2.1,0 -2.5,-0.2 -4.8,-1.4 -6.2,-3.3 -0.5,-0.7 -1.4,-1.2 -2.3,-1.2 -1.4,0 -2.6,1.1 -2.9,2.4 -0.1,0.6 0,1.2 0.2,1.7 0.1,0.2 0.2,0.4 0.4,0.6 0,0.1 4.7,6.5 13.7,5.3 z"
       id="path19"
       inkscape:connector-curvature="0"
       style="fill:none;stroke:#383c3d;stroke-width:2;stroke-linecap:round;stroke-miterlimit:10" /></g><line
     class="st1"
     x1="25.000008"
     y1="49.599998"
     x2="25.000008"
     y2="55.400002"
     id="line21"
     style="fill:none;stroke:#383c3d;stroke-width:2;stroke-linecap:round;stroke-linejoin:round;stroke-miterlimit:10" /><circle
     class="st1"
     cx="46.000008"
     cy="19.000008"
     r="4.5999999"
     id="circle23"
     style="fill:none;stroke:#383c3d;stroke-width:2;stroke-linecap:round;stroke-linejoin:round;stroke-miterlimit:10" /><path
     class="st1"
     d="m 52.700005,23.900002 c 0.9,-0.3 1.9,0 2.4,0.7 1.5,2.1 4.1,6.9 4.1,14 l 0,11 -8.8,0 c 0,0 -5.9,0 -5.9,-10 l 0,-7.9 c -0.1,-0.1 -0.5,-4.4 8.2,-7.8 z"
     id="path25"
     inkscape:connector-curvature="0"
     style="fill:none;stroke:#383c3d;stroke-width:2;stroke-linecap:round;stroke-linejoin:round;stroke-miterlimit:10" /><line
     class="st1"
     x1="48.400002"
     y1="49.299995"
     x2="48.400002"
     y2="55.400002"
     id="line27"
     style="fill:none;stroke:#383c3d;stroke-width:2;stroke-linecap:round;stroke-linejoin:round;stroke-miterlimit:10" /><g
     id="g29"
     transform="translate(-159.8,-121.1)"><path
       class="st2"
       d="m 210.1,155.3 c -0.2,-0.4 -0.4,-0.8 -0.6,-1.2 -0.4,-0.6 -0.6,-1.5 -0.3,-2.3 0.4,-1.2 1.6,-1.9 2.8,-1.7 0.5,0.1 1,0.3 1.4,0.7 0.1,0.1 0.3,0.3 0.4,0.5 0,0 4,5.7 0.5,12.9 -0.6,1.2 -1.6,1.5 -2.6,1.2 -1.4,-0.4 -1.9,-1.2 -1.9,-2.3 0,-0.4 0.1,-0.7 0.2,-1.1 0.2,-0.5 0.5,-1.3 0.6,-1.7"
       id="path31"
       inkscape:connector-curvature="0"
       style="fill:none;stroke:#383c3d;stroke-width:2;stroke-linecap:round;stroke-miterlimit:10" /></g><g
     id="g33"
     transform="translate(-159.8,-121.1)"><circle
       class="st3"
       cx="174.3"
       cy="165"
       r="0.80000001"
       id="circle35"
       style="fill:#383c3d" /></g><path
     class="st1"
     d="m 17.800005,43.900002 c 0.7,0 2.7,0 4.5,-1.4 0.5,-0.4 0.9,-0.8 1.3,-1.4"
     id="path37"
     inkscape:connector-curvature="0"
     style="fill:none;stroke:#383c3d;stroke-width:2;stroke-linecap:round;stroke-linejoin:round;stroke-miterlimit:10" /><line
     class="st1"
     x1="16.000008"
     y1="49.599998"
     x2="16.000008"
     y2="53.500008"
     id="line39"
     style="fill:none;stroke:#383c3d;stroke-width:2;stroke-linecap:round;stroke-linejoin:round;stroke-miterlimit:10" /><line
     class="st1"
     x1="57.800011"
     y1="49.599998"
     x2="57.800011"
     y2="53.500008"
     id="line41"
     style="fill:none;stroke:#383c3d;stroke-width:2;stroke-linecap:round;stroke-linejoin:round;stroke-miterlimit:10" /></svg>