<?xml version="1.0" encoding="utf-8"?>
<!-- Generator: Adobe Illustrator 19.2.0, SVG Export Plug-In . SVG Version: 6.00 Build 0)  -->
<svg version="1.1" id="Layer_1" xmlns="http://www.w3.org/2000/svg" xmlns:xlink="http://www.w3.org/1999/xlink" x="0px" y="0px"
	 viewBox="0 0 34 30" style="enable-background:new 0 0 34 30;" xml:space="preserve">
<style type="text/css">
	.st0{fill:#E1DED8;}
</style>
<g>
	<path class="st0" d="M19.9,2.3v10.5c0,1.3,1,2.3,2.2,2.3h6.5c0,4.7-3.3,8.6-7.5,9.2c-0.7,0.1-1.2,0.7-1.2,1.4v2.8
		c0,0.8,0.7,1.5,1.4,1.4c7-0.8,12.7-7.1,12.7-14.8V2.3C34,1,33,0,31.8,0L22,0C20.8,0,19.9,1,19.9,2.3z"/>
	<path class="st0" d="M0,2.3l0,10.5c0,1.3,1,2.3,2.2,2.3h6.5c0,4.7-3.3,8.6-7.5,9.2C0.5,24.5,0,25.1,0,25.8l0,2.8
		c0,0.8,0.7,1.5,1.4,1.4c7-0.8,12.7-7.1,12.7-14.8V2.3C14.1,1,13.2,0,12,0L2.2,0C1,0,0,1,0,2.3z"/>
</g>
</svg>
