<svg xmlns="http://www.w3.org/2000/svg" xmlns:xlink="http://www.w3.org/1999/xlink" viewBox="216 66.9 1043.5 661.1">
  <path fill="#B3B1B1" d="M940.908375 301.44525h181.75l-37.875-81.375-143.875-.5v81.875zM737.523625 219.549h-344.125l-41.5 81.875h252.75l26.875-23.875 50.125-21.75 51.125-1.375 4.75-34.875z"/>
  <path fill="#E3E950" d="M505.375 720.86h-191.75v-132.5H505.25c.125 0 .125 132.5.125 132.5z"/>
  <g transform="matrix(1.25 0 0 -1.25 0 661.11)">
    <defs>
      <path id="a" d="M67.3-119.6h1055.3v661.1H67.3z"/>
    </defs>
    <clipPath id="b">
      <use xlink:href="#a" overflow="visible"/>
    </clipPath>
    <g clip-path="url(#b)">
      <path fill="#FF5749" d="M378.9294 13.3961l-19 19c-3.4 3.4-3.4 8.8 0 12.2l83.9 83.9c3.4 3.4 8.8 3.4 12.2 0l19-19c3.4-3.4 3.4-8.8 0-12.2l-83.9-83.9c-3.4-3.4-8.8-3.4-12.2 0"/>
      <path fill="#373B3C" d="M310.3586 221.8232c-25.1 0-45.6 20.4-45.6 45.6 0 3.1 2.5 5.7 5.7 5.7s5.7-2.5 5.7-5.7c0-18.9 15.4-34.2 34.2-34.2s34.2 15.3 34.2 34.1c0 3.1 2.5 5.7 5.7 5.7s5.7-2.5 5.7-5.7c0-25.1-20.5-45.5-45.6-45.5"/>
      <path fill="#373B3C" d="M390.1379 221.8232c-25.1 0-45.6 20.4-45.6 45.6 0 3.1 2.5 5.7 5.7 5.7s5.7-2.5 5.7-5.7c0-18.9 15.4-34.2 34.2-34.2s34.2 15.3 34.2 34.1c0 3.1 2.5 5.7 5.7 5.7s5.7-2.5 5.7-5.7c0-25.1-20.5-45.5-45.6-45.5"/>
      <path fill="#373B3C" d="M461.2785 222.7246c-.4 0-.8 0-1.2.1-14.8 3.2-27.1 13.6-32.7 27.7-2.1 5.4-3.2 11-3.2 16.8 0 3.1 2.5 5.7 5.7 5.7 3.1 0 5.7-2.5 5.7-5.7 0-4.4.8-8.6 2.4-12.6 4.2-10.6 13.4-18.4 24.5-20.8 3.1-.7 5-3.7 4.3-6.7-.5-2.7-2.9-4.5-5.5-4.5m328.6211-.9014c-18.9 0-35.6 11.4-42.5 29-1.1 2.9.3 6.2 3.2 7.3 2.9 1.1 6.2-.3 7.3-3.2 5.2-13.2 17.7-21.8 31.9-21.8 19 0 34.3 15.4 34.3 34.2 0 3.1 2.5 5.7 5.7 5.7s5.7-2.5 5.7-5.7c0-25.1-20.5-45.5-45.6-45.5"/>
      <path fill="#373B3C" d="M869.6789 221.8232c-25.1 0-45.6 20.4-45.6 45.6 0 3.1 2.5 5.7 5.7 5.7s5.7-2.5 5.7-5.7c0-18.9 15.4-34.2 34.2-34.2s34.2 15.3 34.2 34.1c0 3.1 2.5 5.7 5.7 5.7s5.7-2.5 5.7-5.7c0-25.1-20.5-45.5-45.6-45.5M590.0187 347.5796h-177.9c-3.1 0-5.7 2.5-5.7 5.7 0 3.1 2.5 5.7 5.7 5.7h177.9c3.1 0 5.7-2.5 5.7-5.7s-2.6-5.7-5.7-5.7m-115.0625-84.1338h-204.5c-2 0-3.8 1-4.8 2.7-1 1.7-1.1 3.8-.3 5.5l41.8 84.1c1 1.9 2.9 3.2 5.1 3.2h53.2c3.1 0 5.7-2.5 5.7-5.7s-2.5-5.7-5.7-5.7h-49.7l-36.1-72.8h195.3c3.1 0 5.7-2.5 5.7-5.7 0-3.1-2.6-5.6-5.7-5.6"/>
      <path fill="#373B3C" d="M909.5686 263.0576h-156.8c-3.1 0-5.7 2.5-5.7 5.7 0 3.1 2.5 5.7 5.7 5.7h147.7l-36.1 72.8h-106.5c-3.1 0-5.7 2.5-5.7 5.7s2.6 5.6 5.7 5.6h109.9c2.2 0 4.1-1.2 5.1-3.1l41.8-84.1c.9-1.8.8-3.8-.3-5.5-1-1.8-2.8-2.8-4.8-2.8M1001.926-53.5h-823.5c-3.1 0-5.7 2.5-5.7 5.7 0 3.1 2.5 5.7 5.7 5.7h823.5c3.1 0 5.7-2.5 5.7-5.7s-2.6-5.7-5.7-5.7"/>
      <path fill="#FCC02D" d="M671.8946 453.0412c8.4 7.2 20.8 7.2 29.2 0l46.1-39.7c5.9-5.1 5.5-20.3 5.5-28v-152.5c0-14.1 3.8-25-10.2-25h-119.6c-9.5 0-17.2-2.8-17.2 6.7v72.7l52.7-3.3-52.7 37.4v66.7c0 4.7 2.1 9.3 5.6 12.4l60.6 52.6z"/>
      <path fill="#373B3C" d="M735.5412 202.167h-90.6c-3.1 0-5.7 2.5-5.7 5.7 0 3.1 2.5 5.7 5.7 5.7h90.6c6.4 0 11.5 5.2 11.5 11.5v169.6c0 6.1-2.7 11.9-7.3 15.9l-6.4 5.5c-2.4 2-2.6 5.6-.6 8 2 2.4 5.6 2.6 8 .6l6.4-5.5c7.1-6.1 11.2-15.1 11.2-24.5v-169.7c.1-12.6-10.2-22.8-22.8-22.8M590.0187 320.9204c-3.1 0-5.7 2.5-5.7 5.7v68c0 9.4 4.1 18.3 11.2 24.5l57.5 49.5c10.6 9.1 26 9.1 36.6 0l15.7-13.5c2.4-2 2.6-5.6.6-8-2-2.4-5.6-2.6-8-.6l-15.7 13.5c-6.3 5.4-15.5 5.4-21.8 0l-57.5-49.5c-4.6-4-7.3-9.8-7.3-15.9v-68c.1-3.2-2.5-5.7-5.6-5.7"/>
      <path fill="#373B3C" d="M644.2222 366.959c-7.9 0-14.4-6.5-14.4-14.4s6.5-14.4 14.4-14.4 14.4 6.5 14.4 14.4-6.5 14.4-14.4 14.4m0-40.1c-14.2 0-25.7 11.5-25.7 25.7s11.5 25.7 25.7 25.7 25.7-11.5 25.7-25.7-11.5-25.7-25.7-25.7m61.4775-50.4083c-14.2 0-25.7 11.5-25.7 25.7s11.5 25.7 25.7 25.7c5.2 0 10.3-1.6 14.6-4.6 1-.7 1.2-2.1.4-3.1l-4.6-5.5c-.7-.8-1.9-1-2.8-.4-2.3 1.4-4.9 2.2-7.6 2.2-7.9 0-14.4-6.5-14.4-14.4s6.5-14.4 14.4-14.4c2.7 0 5.4.8 7.7 2.2.9.6 2.1.4 2.8-.4l4.6-5.5c.8-.9.6-2.4-.4-3.1-4.3-2.8-9.4-4.4-14.7-4.4m-57.5811 14.9181l-3.6 3c-1.4 1.2-1.6 3.3-.5 4.7l52.2 63.5c1.2 1.4 3.3 1.6 4.7.5l3.6-3c1.4-1.2 1.6-3.3.5-4.7l-52.2-63.5c-1.2-1.5-3.3-1.7-4.7-.5M882.3205 14.0449h-156.1c-3.1 0-5.7 2.5-5.7 5.7 0 3.1 2.5 5.7 5.7 5.7h156.1c6.4 0 12.1 4.6 13.4 10.9l9.6 46.7c.6 3.1 3.6 5 6.7 4.4 3.1-.6 5-3.6 4.4-6.7l-9.6-46.7c-2.4-11.6-12.7-20-24.5-20m38.9131 112.5762c-.4 0-.8 0-1.1.1-3.1.6-5 3.6-4.4 6.7l13.9 67.8c2.4 11.7 12.8 20.2 24.7 20.2h47.6c3.1 0 5.7-2.5 5.7-5.7s-2.5-5.7-5.7-5.7h-47.6c-6.6 0-12.3-4.7-13.6-11.1l-14-67.8c-.5-2.7-2.9-4.5-5.5-4.5"/>
      <path fill="#AA80CE" d="M855.6398-22.153c0-12.8 10.4-23.2 23.2-23.2 12.8 0 23.2 10.4 23.2 23.2s-10.4 23.2-23.2 23.2c-12.8 0-23.2-10.4-23.2-23.2"/>
      <path fill="#373B3C" d="M878.843-4.6191c-9.7 0-17.5-7.9-17.5-17.5s7.9-17.5 17.5-17.5 17.5 7.9 17.5 17.5-7.8 17.5-17.5 17.5m0-46.4c-15.9 0-28.9 13-28.9 28.9s13 28.9 28.9 28.9 28.9-13 28.9-28.9-13-28.9-28.9-28.9"/>
      <path fill="#AA80CE" d="M730.74-22.153c0-12.8 10.4-23.2 23.2-23.2 12.8 0 23.2 10.4 23.2 23.2s-10.4 23.2-23.2 23.2c-12.8 0-23.2-10.4-23.2-23.2"/>
      <path fill="#373B3C" d="M753.9426-4.6191c-9.7 0-17.5-7.9-17.5-17.5s7.9-17.5 17.5-17.5 17.5 7.9 17.5 17.5-7.8 17.5-17.5 17.5m0-46.4c-15.9 0-28.9 13-28.9 28.9s13 28.9 28.9 28.9 28.9-13 28.9-28.9-13-28.9-28.9-28.9M904.673 46.1426h-154.8c-16.5 0-30.8 11.2-34.8 27.2l-21.8 88.1c-.4 1.7 0 3.5 1 4.9 1.1 1.4 2.7 2.2 4.5 2.2h79.1c13.6 0 24.7-11.1 24.7-24.7v-19.3c0-3.1-2.5-5.7-5.7-5.7h-12.6l28.5-32.1 28.7 32.2h-13.2c-3.1 0-5.7 2.5-5.7 5.7v19.3c0 13.6 11.1 24.7 24.7 24.7h80.3v-11.4h-80.3c-7.4 0-13.3-6-13.3-13.3v-13.6h20.1c2.2 0 4.3-1.3 5.2-3.3.9-2 .5-4.4-.9-6.1l-41.4-46.4c-1.1-1.2-2.6-1.9-4.2-1.9s-3.2.7-4.2 1.9l-41.2 46.3c-1.5 1.7-1.8 4.1-.9 6.1s2.9 3.3 5.2 3.3h19.6v13.6c0 7.4-6 13.3-13.3 13.3h-71.8l20-81.1c2.7-11 12.5-18.6 23.8-18.6h154.8v-11.3z"/>
      <path fill="#71CFF4" d="M667.4136 213.4771c-7.5-49.1-32.4-95.8-89.3-95.8-24.3 0-45.1-1.3-62.7 12.7-23.7 18.9-38.9 48-38.9 80.7 0 56.9 46.2 103 103.1 103 30.4 0 57.8-13.2 76.6-34.1 16.5-18.3 15.2-40.3 11.2-66.5"/>
      <path fill="#FFF" d="M512.8225 216.4009c-3.1 0-5.7 2.5-5.7 5.7 0 33.9 27.6 61.5 61.5 61.5 3.1 0 5.7-2.5 5.7-5.7 0-3.1-2.5-5.7-5.7-5.7-27.6 0-50.1-22.5-50.1-50.1 0-3.2-2.6-5.7-5.7-5.7m-9.3199-76.4403l-27.9-27.9-17 17 27.9 27.9"/>
      <path fill="#373B3C" d="M475.5666 104.0068l-25 25 31.9 31.9 8-8-23.9-23.9 9-9 23.9 23.9 8-8-31.9-31.9z"/>
      <path fill="#373B3C" d="M568.6877 111.5869c-28.6 0-56.9 11.1-78.2 32.4-43 43-43 113.1 0 156.2 43.1 43.1 113.1 43.1 156.2 0 35.6-35.6 42.7-90.8 17.2-134.1-1.6-2.7-5.1-3.6-7.8-2s-3.6 5.1-2 7.8c22.9 38.9 16.6 88.4-15.4 120.3-38.6 38.6-101.5 38.6-140.2 0-38.6-38.7-38.6-101.6 0-140.2 32-31.9 81.4-38.3 120.3-15.4 2.7 1.6 6.2.7 7.8-2 1.6-2.7.7-6.2-2-7.8-17.4-10.2-36.7-15.2-55.9-15.2m-119.2647 17.334c-.8 0-1.5-.3-2.1-.9l-87.3-87.3c-1.2-1.2-1.2-3 0-4.2l23.1-23.1c1.1-1.1 3.1-1.1 4.2 0l87.3 87.4c.6.6.9 1.3.9 2.1s-.3 1.5-.9 2.1l-23.1 23.1c-.6.5-1.3.8-2.1.8m-64.3-127.7c-3.8 0-7.4 1.5-10.1 4.2l-23.1 23.1c-5.6 5.6-5.6 14.7 0 20.2l87.3 87.3c2.7 2.7 6.3 4.2 10.1 4.2s7.4-1.5 10.1-4.2l23.2-23c5.6-5.6 5.6-14.6 0-20.2l-87.4-87.4c-2.7-2.7-6.3-4.2-10.1-4.2"/>
      <path fill="#FFF" d="M600.7244 275.417c0-4-3.2-7.2-7.2-7.2s-7.2 3.2-7.2 7.2 3.2 7.2 7.2 7.2 7.2-3.2 7.2-7.2"/>
      <path fill="#373B3C" d="M293.5041 146.7412c-3.1 0-5.7 2.5-5.7 5.7v78.8c0 3.1 2.5 5.7 5.7 5.7s5.7-2.5 5.7-5.7v-78.8c0-3.2-2.6-5.7-5.7-5.7M407.8283-53.5h-153.3c-1.5 0-2.9.6-4 1.7s-1.7 2.5-1.7 4V52.5h-8.7c-3.1 0-5.7 2.5-5.7 5.7v45.6c0 3.1 2.5 5.7 5.7 5.7h174.9c3.1 0 5.7-2.5 5.7-5.7 0-3.1-2.5-5.7-5.7-5.7h-169.2V63.8h8.7c1.5 0 2.9-.6 4-1.7s1.7-2.5 1.7-4V-42.2h142V26c0 3.1 2.5 5.7 5.7 5.7 3.1 0 5.7-2.5 5.7-5.7v-73.8c-.1-3.2-2.7-5.7-5.8-5.7"/>
      <path fill="#373B3C" d="M365.1916 52.5h-62.5c-3.1 0-5.7 2.5-5.7 5.7 0 3.1 2.5 5.7 5.7 5.7h62.5c3.1 0 5.7-2.5 5.7-5.7s-2.6-5.7-5.7-5.7m-79.523 5.6693c0-3.5-2.8-6.3-6.3-6.3s-6.3 2.8-6.3 6.3 2.8 6.3 6.3 6.3 6.3-2.9 6.3-6.3m7.3414 86.4957c-10.7 0-19.3-7.9-19.3-17.6 0-9.7 8.7-17.6 19.3-17.6l31.6.1-14.7 26.1c-3.4 5.5-9.9 9-16.9 9m0-46.6c-16.9 0-30.7 13-30.7 29s13.8 29 30.7 29c11 0 21.2-5.6 26.7-14.6l.1-.1 19.5-34.6c1-1.8 1-3.9 0-5.6-1-1.7-2.9-2.8-4.9-2.8l-41.4-.3z"/>
      <path fill="#373B3C" d="M344.0461 109.4883l31.6-.1c10.6 0 19.3 7.9 19.3 17.6s-8.7 17.6-19.3 17.6c-7 0-13.5-3.5-16.9-9.1l-14.7-26zm31.6-11.4l-41.3.1c-2 0-3.9 1.1-4.9 2.8-1 1.7-1 3.9 0 5.6l19.5 34.6.1.1c5.4 9 15.7 14.6 26.7 14.6 16.9 0 30.7-13 30.7-29s-13.9-28.8-30.8-28.8m509.4117 59.2105c-3.1 0-5.7 2.5-5.7 5.7v67.6c0 3.1 2.5 5.7 5.7 5.7s5.7-2.5 5.7-5.7v-67.6c0-3.2-2.6-5.7-5.7-5.7M396.3883 352.8605c0-3.5-2.8-6.3-6.3-6.3s-6.3 2.8-6.3 6.3 2.8 6.3 6.3 6.3 6.3-2.9 6.3-6.3m253.4618-205.5653c0-3.5-2.8-6.3-6.3-6.3s-6.3 2.8-6.3 6.3 2.8 6.3 6.3 6.3 6.3-2.9 6.3-6.3m273.509-39.9055c0-3.5-2.8-6.3-6.3-6.3s-6.3 2.8-6.3 6.3 2.8 6.3 6.3 6.3 6.3-2.9 6.3-6.3m-198 327.8333c0-3.5-2.8-6.3-6.3-6.3s-6.3 2.8-6.3 6.3 2.8 6.3 6.3 6.3 6.3-2.9 6.3-6.3"/>
      <path fill="#0F60AC" d="M383.0725 413.0796h-142.9c-3.1 0-5.7 2.5-5.7 5.7 0 3.1 2.5 5.7 5.7 5.7h142.9c3.1 0 5.7-2.5 5.7-5.7s-2.6-5.7-5.7-5.7m162.291 0h-37.5c-3.1 0-5.7 2.5-5.7 5.7 0 3.1 2.5 5.7 5.7 5.7h37.5c3.1 0 5.7-2.5 5.7-5.7s-2.6-5.7-5.7-5.7m-107.2393 5.6694l7.4-7.4 7.4 7.4-7.4 7.4-7.4-7.4zm7.4-21.1c-1.5 0-2.9.6-4 1.7l-15.4 15.4c-1.1 1.1-1.7 2.5-1.7 4s.6 2.9 1.7 4l15.4 15.4c2.2 2.2 5.8 2.2 8 0l15.4-15.4c1.1-1.1 1.7-2.5 1.7-4s-.6-2.9-1.7-4l-15.4-15.4c-1.1-1.1-2.6-1.7-4-1.7M622.5168 14.0449h-29.1c-3.1 0-5.7 2.5-5.7 5.7 0 3.1 2.5 5.7 5.7 5.7h29.1c3.1 0 5.7-2.5 5.7-5.7s-2.6-5.7-5.7-5.7"/>
      <path fill="#0F60AC" d="M607.9738-.498c-3.1 0-5.7 2.5-5.7 5.7v29.1c0 3.1 2.5 5.7 5.7 5.7s5.7-2.5 5.7-5.7v-29.1c0-3.2-2.6-5.7-5.7-5.7M546.51 14.0449h-73.8c-3.1 0-5.7 2.5-5.7 5.7 0 3.1 2.5 5.7 5.7 5.7h73.8c3.1 0 5.7-2.5 5.7-5.7s-2.6-5.7-5.7-5.7"/>
    </g>
  </g>
</svg>
