<svg xmlns="http://www.w3.org/2000/svg" xmlns:xlink="http://www.w3.org/1999/xlink" viewBox="216 78.1 1043.5 636.9">
  <g transform="matrix(1.25 0 0 -1.25 0 636.89)">
    <defs>
      <path id="a" d="M68.5-126.2H1112v636.9H68.5z"/>
    </defs>
    <clipPath id="b">
      <use xlink:href="#a" overflow="visible"/>
    </clipPath>
    <g clip-path="url(#b)">
      <path fill="#B3B1B1" d="M452.466 99.1738c15.9 8.4 34.1 18.8 53.3 18.8l58.9-59 34 36.1 10.4 9.5c6.3 0 4.5 12.3 10.5 11 39.9-8.5 69.9-44 69.9-86.4v-86.1h-249.3l-19.4 3.3 1.8 32.8-1.8 19.9v17.3l1.8 30.8 16.5 35.9 13.4 16.1z"/>
      <path fill="#373B3C" d="M1001.925-62.5h-823.5c-3.1 0-5.7 2.5-5.7 5.7 0 3.1 2.5 5.7 5.7 5.7h823.5c3.1 0 5.7-2.5 5.7-5.7s-2.6-5.7-5.7-5.7"/>
      <path fill="#FF5749" d="M412.5367 256.4685l-115 5.8c-5 0-19.9-19.8-19.9-24.8v-69l63.9-3.2 31-30.5 3.4 28.2 27.9 2.1 12.8 11.7.4 59.1-4.5 20.6z"/>
      <path fill="#373B3C" d="M375.9211 123.5176c-1.5 0-2.9.6-4 1.7l-32 32-44.9.2c-12.7 0-23.1 10.4-23.1 23.1v3.1c0 3.1 2.5 5.7 5.7 5.7s5.7-2.5 5.7-5.7v-3.1c0-6.5 5.3-11.8 11.8-11.8l47.3-.2c1.5 0 2.9-.6 4-1.7l23.9-23.9v20.1c0 3.1 2.5 5.7 5.7 5.7h23.6c6.5 0 11.8 5.3 11.8 11.8v64.5c0 6.5-5.3 11.8-11.8 11.8h-104.6c-6.5 0-11.8-5.3-11.8-11.8v-2.6c0-3.1-2.5-5.7-5.7-5.7s-5.7 2.5-5.7 5.7v2.6c.1 12.6 10.5 23 23.2 23h104.5c12.7 0 23.1-10.4 23.1-23.1v-64.5c0-12.7-10.4-23.1-23.1-23.1h-17.9v-28.1c0-2.3-1.4-4.4-3.5-5.2-.7-.3-1.5-.5-2.2-.5"/>
      <path fill="#FFF" d="M373.6901 224.4223c-.8 1.9-1.9 3.5-3.3 4.9-1.4 1.4-3.1 2.5-4.9 3.3-1.9.8-3.9 1.2-6.1 1.2-2.1 0-4.2-.5-6-1.5-1.9-.9-3.5-2.3-4.9-3.9-.4-.4-.8-.9-1.1-1.4-.3.5-.7 1-1.1 1.4-1.4 1.6-3.1 3-4.9 3.9-1.9 1-3.9 1.5-6.1 1.5-2.1 0-4.2-.4-6-1.2-1.9-.8-3.5-1.9-4.9-3.3-1.4-1.4-2.5-3.1-3.3-4.9-.8-1.9-1.2-3.9-1.2-6s.4-4.2 1.2-6.1c.8-1.9 1.9-3.5 3.3-4.9 1.4-1.4 21.2-19.3 23.1-20.1 1.9.8 21.7 18.7 23.1 20.1 1.4 1.4 2.5 3.1 3.3 4.9.8 1.9 1.2 3.9 1.2 6.1-.2 2.1-.6 4.2-1.4 6"/>
      <path fill="#373B3C" d="M284.2353 212.9044c0-3.7-3-6.6-6.6-6.6-3.7 0-6.6 3-6.6 6.6s3 6.6 6.6 6.6c3.6 0 6.6-2.9 6.6-6.6M707.7521-62.5c-3.1 0-5.7 2.5-5.7 5.7v39.1c0 3.1 2.5 5.7 5.7 5.7s5.7-2.5 5.7-5.7v-39.1c0-3.2-2.6-5.7-5.7-5.7m-287.0498 0c-3.1 0-5.7 2.5-5.7 5.7v88.1c.5 24.7 10.5 47.8 28.2 65.1 17.7 17.3 41.1 26.9 65.8 26.9 1.6 0 3.1-.6 4.1-1.8l51-54.2 51 54.2c1.1 1.1 2.6 1.8 4.1 1.8 24.8 0 48.1-9.5 65.8-26.9 17.9-17.3 27.9-40.4 28.4-65.1.1-3.1-2.4-5.7-5.5-5.8-3.1-.1-5.7 2.4-5.8 5.5-.5 21.7-9.3 42-24.8 57.3-15 14.7-34.6 23-55.5 23.6l-53.5-56.8c-1.1-1.1-2.6-1.8-4.1-1.8-1.6 0-3.1.6-4.1 1.8l-53.5 56.8c-20.9-.6-40.5-8.9-55.5-23.6-15.5-15.2-24.3-35.5-24.8-57.2v-88c.1-3.1-2.5-5.6-5.6-5.6"/>
      <path fill="#FCC02D" d="M662.9843 215.5197c-3.5-24.1-11.9-39.2-26.9-56.2-17.7-20-29.5-29.6-58.3-29.6-29.9 0-54.9.7-72.6 22.1-13.9 16.7-22.1 38.1-22.1 61.4 0 53.3 43.2 96.5 96.5 96.5 29.4 0 51.1-14.3 68.8-35.1 14.2-16.9 18-35.5 14.6-59.1"/>
      <path fill="#373B3C" d="M566.5314 124.0312c-56.3 0-102.1 45.8-102.1 102.1s45.8 102.1 102.1 102.1c54.9 0 99.7-42.9 102-97.7.1-1.5.1-3 .1-4.5 0-3.1-2.5-5.7-5.7-5.7-3.1 0-5.7 2.5-5.7 5.7 0 1.3 0 2.7-.1 4-2.1 48.7-41.9 86.8-90.7 86.8-50.1 0-90.8-40.7-90.8-90.8 0-50.1 40.7-90.8 90.8-90.8 33.7 0 64.5 18.5 80.3 48.4 1.5 2.8 4.9 3.8 7.7 2.4 2.8-1.5 3.8-4.9 2.4-7.7-17.8-33.4-52.4-54.3-90.3-54.3"/>
      <path fill="#373B3C" d="M550.8205 241.0664c-3.1 0-5.7 2.5-5.7 5.7 0 5.5-4.4 9.9-9.9 9.9s-9.9-4.4-9.9-9.9c0-3.1-2.5-5.7-5.7-5.7s-5.6 2.5-5.6 5.7c0 11.7 9.5 21.2 21.2 21.2s21.2-9.5 21.2-21.2c.1-3.2-2.5-5.7-5.6-5.7m62.54 0c-3.1 0-5.7 2.5-5.7 5.7 0 5.5-4.4 9.9-9.9 9.9s-9.9-4.4-9.9-9.9c0-3.1-2.5-5.7-5.7-5.7-3.1 0-5.7 2.5-5.7 5.7 0 11.7 9.5 21.2 21.2 21.2s21.2-9.5 21.2-21.2c.2-3.2-2.4-5.7-5.5-5.7m-46.8291-76.1914c-23.9 0-44.8 16.2-50.8 39.3-.8 3 1 6.1 4.1 6.9 3 .8 6.1-1 6.9-4.1 4.7-18.1 21.1-30.8 39.8-30.8 18.4 0 34.7 12.4 39.6 30 .8 3 4 4.8 7 3.9 3-.8 4.8-4 3.9-7-6.3-22.4-27-38.2-50.5-38.2"/>
      <path fill="#0F60AC" d="M484.9377 391.0713h-142.9c-3.1 0-5.7 2.5-5.7 5.7 0 3.1 2.5 5.7 5.7 5.7h142.9c3.1 0 5.7-2.5 5.7-5.7s-2.6-5.7-5.7-5.7m-190.7432 0h-29.1c-3.1 0-5.7 2.5-5.7 5.7 0 3.1 2.5 5.7 5.7 5.7h29.1c3.1 0 5.7-2.5 5.7-5.7s-2.6-5.7-5.7-5.7"/>
      <path fill="#0F60AC" d="M279.6516 376.5283c-3.1 0-5.7 2.5-5.7 5.7v29.1c0 3.1 2.5 5.7 5.7 5.7s5.7-2.5 5.7-5.7v-29.1c0-3.2-2.6-5.7-5.7-5.7m-62.375 14.543h-38.8c-3.1 0-5.7 2.5-5.7 5.7 0 3.1 2.5 5.7 5.7 5.7h38.8c3.1 0 5.7-2.5 5.7-5.7s-2.6-5.7-5.7-5.7m580.8339-154.8477c-.3-.8-.5-1.7-.5-2.6 0-.9.2-1.8.5-2.6s.8-1.5 1.4-2.1c1.2-1.1 9.6-8.7 14.3-12.8 4.7 4 13.2 11.6 14.4 12.8.6.6 1.1 1.3 1.4 2.1.3.8.5 1.7.5 2.6 0 .9-.2 1.8-.5 2.6s-.8 1.5-1.4 2.1c-.6.6-1.3 1.1-2.1 1.4-1.5.6-3.2.8-4.8 0-.8-.4-1.6-1-2.2-1.8-.2-.2-.3-.4-.5-.7-1.1-1.5-2.8-2.4-4.6-2.4-1.8 0-3.6.9-4.6 2.4-.2.3-.4.5-.5.7-.7.8-1.4 1.4-2.2 1.8-1.6.8-3.3.7-4.8 0-.8-.3-1.5-.8-2.1-1.4-.9-.6-1.4-1.3-1.7-2.1m18.6-22.4zm-2.8-10.6c-.8 0-1.5.2-2.2.5-3 1.3-19.9 17-20.1 17.2-1.7 1.7-3 3.6-3.9 5.7-1 2.3-1.4 4.6-1.4 7 0 2.4.5 4.8 1.4 7 .9 2.1 2.2 4 3.8 5.7 1.7 1.7 3.6 3 5.7 3.9 4.6 1.9 9.8 1.9 14.4-.4.8-.4 1.5-.8 2.2-1.3.7.5 1.5 1 2.2 1.3 4.6 2.3 9.8 2.3 14.4.4 2.1-.9 4.1-2.2 5.7-3.9 1.7-1.7 3-3.6 3.9-5.7.9-2.2 1.4-4.6 1.4-7 0-2.4-.5-4.8-1.4-7-.9-2.2-2.2-4.1-3.9-5.7-.2-.2-17.1-15.9-20.1-17.2-.6-.3-1.4-.5-2.1-.5m159.5428 15.4346h-90.8c-3.1 0-5.7 2.5-5.7 5.7 0 3.1 2.5 5.7 5.7 5.7h90.8c3.1 0 5.7-2.5 5.7-5.7s-2.6-5.7-5.7-5.7"/>
      <path fill="#AA80CE" d="M793.7-7.6h-34.5V99h34.5V-7.6z"/>
      <path fill="#373B3C" d="M760.7-2h31.4v95.3h-31.4V-2zm37.1-11.3H755c-3.1 0-5.7 2.5-5.7 5.7V99c0 3.1 2.5 5.7 5.7 5.7h42.8c3.1 0 5.7-2.5 5.7-5.7V-7.6c-.1-3.2-2.6-5.7-5.7-5.7"/>
      <path fill="#373B3C" d="M853.7336-2.5781h-50.1c-3.1 0-5.7 2.5-5.7 5.7s2.5 5.7 5.7 5.7h50.1c3.5 0 6.6 1.9 8.3 4.9l27.4 50.3c1.5 2.8 1.4 6-.2 8.7-1.6 2.7-4.4 4.3-7.6 4.3h-35.6c-3.1 0-5.7 2.5-5.7 5.7v31.2c0 8.3-6.4 15.2-14.6 15.9v-30.6c0-12.2-10-22.2-22.2-22.2-3.1 0-5.7 2.5-5.7 5.7s2.5 5.7 5.7 5.7c6 0 10.9 4.9 10.9 10.9v32c0 5.5 4.5 10 10 10 15 0 27.3-12.2 27.3-27.3v-25.7h29.9c7.2 0 13.6-3.7 17.3-9.8 3.7-6.2 3.8-13.6.4-19.9l-27.4-50.4c-3.6-6.6-10.6-10.8-18.2-10.8"/>
      <path fill="#373B3C" d="M846.6135 20.5488c-.9 0-1.8.2-2.7.7-2.8 1.5-3.8 4.9-2.3 7.7l16.9 31.3c1.5 2.8 4.9 3.8 7.7 2.3s3.8-4.9 2.3-7.7l-16.9-31.3c-1-1.9-3-3-5-3"/>
      <path fill="#71CFF4" d="M750.3002 293.6342c47.7 0 80.6 20.8 80.6 62.4 0 21.7 8.5 34.9-8.3 48.7-15.5 12.6-36.3 20.4-59.2 20.4-47.7 0-86.4-33.7-86.4-75.3 0-14 4.4-27.2 12.1-38.4 3.9-5.8 8.7-11 14.2-15.7 5.5-4.6-1.2-11.1 5.5-14.4l-1.2-7.2-2.1-17.6 28.4 23.1 16.4 14z"/>
      <path fill="#373B3C" d="M705.5041 250.8965c-.8 0-1.7.2-2.4.6-2 .9-3.2 2.9-3.2 5.1v39.9c-27.7 14.6-44.7 41-44.7 69.5 0 22.8 11 44.6 30.1 59.9 2.4 2 6 1.6 8-.9 2-2.4 1.6-6-.9-8-16.4-13.2-25.9-31.8-25.9-51.1 0-25.2 15.8-48.5 41.3-60.8 1.7-.7 3-2.3 3.4-4.3.1-.3.1-.7.1-1v-31.5l31.5 25.6c1 1.4 2.7 2.3 4.5 2.3 44.5 0 80.8 31.3 80.8 69.7s-36.2 69.7-80.8 69.7c-1.2 0-2.4 0-3.6-.1-3.1-.1-5.8 2.3-5.9 5.4-.1 3.1 2.3 5.8 5.4 5.9 1.3.1 2.7.1 4 .1 50.8 0 92.1-36.3 92.1-81 0-44-40.1-79.9-89.8-81l-40.4-32.8c-1.1-.8-2.3-1.2-3.6-1.2"/>
      <path fill="#FFF" d="M711.9944 366.8173c0-6-4.8-10.8-10.8-10.8-6 0-10.8 4.8-10.8 10.8s4.8 10.8 10.8 10.8c6 0 10.8-4.8 10.8-10.8m46.0035 0c0-6-4.8-10.8-10.8-10.8-6 0-10.8 4.8-10.8 10.8s4.8 10.8 10.8 10.8c6 0 10.8-4.8 10.8-10.8m46.0035 0c0-6-4.8-10.8-10.8-10.8-6 0-10.8 4.8-10.8 10.8s4.8 10.8 10.8 10.8c6 0 10.8-4.8 10.8-10.8"/>
      <path fill="#373B3C" d="M722.533 436.6716c0-3.5-2.8-6.3-6.3-6.3s-6.3 2.8-6.3 6.3 2.8 6.3 6.3 6.3 6.3-2.8 6.3-6.3"/>
      <path fill="#0F60AC" d="M242.5319 30.594l7.4-7.4 7.4 7.4-7.4 7.4-7.4-7.4zm7.4-21.1c-1.5 0-2.9.6-4 1.7l-15.4 15.4c-2.2 2.2-2.2 5.8 0 8l15.4 15.4c1.1 1.1 2.5 1.7 4 1.7s2.9-.6 4-1.7l15.4-15.4c2.2-2.2 2.2-5.8 0-8l-15.4-15.4c-1.1-1.1-2.5-1.7-4-1.7"/>
      <path fill="#373B3C" d="M713.9813 6.7121c0-3.5-2.8-6.3-6.3-6.3s-6.3 2.8-6.3 6.3 2.8 6.3 6.3 6.3 6.3-2.8 6.3-6.3m-47.25 197c0-3.5-2.8-6.3-6.3-6.3s-6.3 2.8-6.3 6.3 2.8 6.3 6.3 6.3 6.3-2.8 6.3-6.3"/>
    </g>
  </g>
</svg>
