<svg xmlns="http://www.w3.org/2000/svg" width="1043.4938" height="736.34003" viewBox="0 0 1043.4938 736.34003">
  <defs>
    <clipPath id="a">
      <path d="M0 589.072h834.795V0H0v589.072z"/>
    </clipPath>
  </defs>
  <g clip-path="url(#a)" transform="matrix(1.25 0 0 -1.25 0 736.34)">
    <path fill="#ff5749" d="M316.2528 195.5215h-150.518c-4.256 0-7.778-3.312-8.038-7.56l-11.692-178.726c-.284-4.633 3.397-7.048 8.038-7.048l163.957 1.424c4.674 0 11.45 4.924 11.118 9.586l-11.846 168.03c-.3 4.215 3.206 14.294-1.019 14.294"/>
    <path fill="#71cff4" d="M629.8555 5.6693h-209.333c-11.95 0-29.208-6.439-29.208 5.511v424.041c0 11.95 9.688 21.637 21.637 21.637h237.726c11.95 0 7.964-20.67 7.964-32.62v-394.43c0-11.95-16.836-24.139-28.786-24.139"/>
    <path fill="#b3b1b1" d="M377.8555 92.1139l274 1.833 4.333-57.407-14-23.093s-22-7.778-23-7.778-219.583.68-219.583.68l-18.083 13.765-8.334 59.667 4.667 12.333z"/>
    <path fill="#373b3c" d="M625.3184 0h-219.259c-20.148 0-36.54 16.392-36.54 36.54v405.574c0 20.148 16.392 36.539 36.54 36.539h56.291c3.131 0 5.669-2.538 5.669-5.669 0-3.13-2.538-5.669-5.669-5.669h-56.291c-13.896 0-25.202-11.305-25.202-25.201V36.54c0-13.896 11.306-25.202 25.202-25.202h219.259c13.896 0 25.201 11.306 25.201 25.202v405.574c0 13.896-11.305 25.201-25.201 25.201h-111.521c-3.13 0-5.668 2.539-5.668 5.669 0 3.131 2.538 5.669 5.668 5.669h111.521c20.147 0 36.539-16.391 36.539-36.539V36.54c0-20.148-16.392-36.54-36.539-36.54"/>
    <path fill="#373b3c" d="M656.1885 88.2783h-281c-3.131 0-5.669 2.538-5.669 5.669s2.538 5.669 5.669 5.669h281c3.131 0 5.669-2.538 5.669-5.669s-2.538-5.669-5.669-5.669"/>
    <path fill="#fff" d="M538.5222 49.8083c0-11.046-8.954-20-20-20s-20 8.954-20 20 8.954 20 20 20 20-8.954 20-20"/>
    <path fill="#373b3c" d="M518.5225 64.1396c-7.902 0-14.331-6.429-14.331-14.331 0-7.902 6.429-14.331 14.331-14.331 7.902 0 14.331 6.429 14.331 14.331 0 7.902-6.429 14.331-14.331 14.331m0-40c-14.154 0-25.669 11.515-25.669 25.669s11.515 25.669 25.669 25.669 25.669-11.515 25.669-25.669-11.515-25.669-25.669-25.669"/>
    <path fill="#e3e950" d="M691.4276 373.2864c0-18.107-14.679-32.786-32.786-32.786s-32.786 14.679-32.786 32.786 14.679 32.786 32.786 32.786 32.786-14.679 32.786-32.786"/>
    <path fill="#373b3c" d="M658.6416 400.4033c-14.952 0-27.117-12.165-27.117-27.117 0-14.952 12.165-27.117 27.117-27.117 14.952 0 27.117 12.165 27.117 27.117 0 14.952-12.165 27.117-27.117 27.117m0-65.572c-21.204 0-38.455 17.251-38.455 38.455 0 21.204 17.251 38.455 38.455 38.455 21.204 0 38.455-17.251 38.455-38.455 0-21.204-17.251-38.455-38.455-38.455"/>
    <path fill="#373b3c" d="M659.4424 356.3398c-1.501 0-2.943.595-4.009 1.66l-13.25 13.25c-2.214 2.214-2.214 5.804 0 8.018 2.215 2.215 5.803 2.215 8.018 0l8.891-8.892 41.934 49.588c2.021 2.389 5.598 2.689 7.99.668 2.391-2.021 2.69-5.599.668-7.99l-45.913-54.294c-1.024-1.21-2.508-1.938-4.093-2.003-.079-.004-.158-.005-.236-.005"/>
    <path fill="#fff" d="M563.3555 383.1094h-140.755c-3.131 0-5.669 2.538-5.669 5.669s2.538 5.669 5.669 5.669h140.755c3.131 0 5.669-2.538 5.669-5.669s-2.538-5.669-5.669-5.669m0-30.9844h-140.755c-3.131 0-5.669 2.538-5.669 5.669s2.538 5.669 5.669 5.669h140.755c3.131 0 5.669-2.538 5.669-5.669s-2.538-5.669-5.669-5.669m30.5 36.6537c0-3.452-2.798-6.25-6.25-6.25s-6.25 2.798-6.25 6.25 2.798 6.25 6.25 6.25 6.25-2.798 6.25-6.25m0-30.9845c0-3.452-2.798-6.25-6.25-6.25s-6.25 2.798-6.25 6.25 2.798 6.25 6.25 6.25 6.25-2.798 6.25-6.25"/>
    <path fill="#e3e950" d="M691.4276 263.598c0-18.107-14.679-32.786-32.786-32.786s-32.786 14.679-32.786 32.786 14.679 32.786 32.786 32.786 32.786-14.679 32.786-32.786"/>
    <path fill="#373b3c" d="M658.6416 290.7148c-14.952 0-27.117-12.165-27.117-27.117 0-14.952 12.165-27.117 27.117-27.117 14.952 0 27.117 12.165 27.117 27.117 0 14.952-12.165 27.117-27.117 27.117m0-65.572c-21.204 0-38.455 17.251-38.455 38.455 0 21.204 17.251 38.455 38.455 38.455 21.204 0 38.455-17.251 38.455-38.455 0-21.204-17.251-38.455-38.455-38.455"/>
    <path fill="#373b3c" d="M659.4424 246.6514c-1.501 0-2.943.595-4.009 1.66l-13.25 13.25c-2.214 2.214-2.214 5.804 0 8.018 2.215 2.215 5.803 2.215 8.018 0l8.891-8.892 41.934 49.588c2.021 2.39 5.598 2.69 7.99.668 2.391-2.021 2.69-5.599.668-7.99l-45.913-54.294c-1.024-1.21-2.508-1.938-4.093-2.003-.079-.004-.158-.005-.236-.005m-96.0869 26.7695h-140.755c-3.131 0-5.669 2.538-5.669 5.669s2.538 5.669 5.669 5.669h140.755c3.131 0 5.669-2.538 5.669-5.669s-2.538-5.669-5.669-5.669m0-30.9844h-140.755c-3.131 0-5.669 2.538-5.669 5.669s2.538 5.669 5.669 5.669h140.755c3.131 0 5.669-2.538 5.669-5.669s-2.538-5.669-5.669-5.669m30.5 36.6537c0-3.452-2.798-6.25-6.25-6.25s-6.25 2.798-6.25 6.25 2.798 6.25 6.25 6.25 6.25-2.798 6.25-6.25m0-30.9845c0-3.452-2.798-6.25-6.25-6.25s-6.25 2.798-6.25 6.25 2.798 6.25 6.25 6.25 6.25-2.798 6.25-6.25"/>
    <path fill="#e3e950" d="M691.4276 159.2208c0-18.107-14.679-32.786-32.786-32.786s-32.786 14.679-32.786 32.786 14.679 32.786 32.786 32.786 32.786-14.679 32.786-32.786"/>
    <path fill="#373b3c" d="M658.6416 186.3379c-14.952 0-27.117-12.165-27.117-27.117 0-14.952 12.165-27.117 27.117-27.117 14.952 0 27.117 12.165 27.117 27.117 0 14.952-12.165 27.117-27.117 27.117m0-65.572c-21.204 0-38.455 17.251-38.455 38.455 0 21.204 17.251 38.455 38.455 38.455 21.204 0 38.455-17.251 38.455-38.455 0-21.204-17.251-38.455-38.455-38.455"/>
    <path fill="#373b3c" d="M659.4424 142.2744c-1.501 0-2.943.595-4.009 1.66l-13.25 13.25c-2.214 2.214-2.214 5.804 0 8.018 2.215 2.215 5.803 2.215 8.018 0l8.891-8.892 41.934 49.588c2.021 2.39 5.598 2.69 7.99.668 2.391-2.021 2.69-5.599.668-7.99l-45.913-54.294c-1.024-1.21-2.508-1.938-4.093-2.003-.079-.004-.158-.005-.236-.005m-96.0869 26.7695h-140.755c-3.131 0-5.669 2.538-5.669 5.669s2.538 5.669 5.669 5.669h140.755c3.131 0 5.669-2.538 5.669-5.669s-2.538-5.669-5.669-5.669m0-30.9843h-140.755c-3.131 0-5.669 2.538-5.669 5.669s2.538 5.669 5.669 5.669h140.755c3.131 0 5.669-2.538 5.669-5.669s-2.538-5.669-5.669-5.669m30.5 36.6535c0-3.452-2.798-6.25-6.25-6.25s-6.25 2.798-6.25 6.25 2.798 6.25 6.25 6.25 6.25-2.798 6.25-6.25m0-30.9845c0-3.452-2.798-6.25-6.25-6.25s-6.25 2.798-6.25 6.25 2.798 6.25 6.25 6.25 6.25-2.798 6.25-6.25"/>
    <path fill="#fcc02d" d="M341.8928 418.6184l-2.613-56.053-55.753 55.753-59.852.233c-15.796 0-28.602-4.75-28.602 11.047v115.853c0 10.223 8.288 18.511 18.511 18.511h191.618c6.889-6.681 2.178-18.601 2.178-28.824l-.425-92.518c0-10.223-3.957-23.045-14.18-23.045l-50.882-.957z"/>
    <path fill="#373b3c" d="M263.8586 541.5347c-8.641 0-15.671-7.029-15.671-15.669 0-8.641 7.03-15.67 15.671-15.67 8.64 0 15.67 7.029 15.67 15.67 0 8.64-7.03 15.669-15.67 15.669m0-43.692c-15.452 0-28.023 12.571-28.023 28.023 0 15.451 12.571 28.022 28.023 28.022s28.022-12.571 28.022-28.022c0-15.452-12.57-28.023-28.022-28.023m66.9751-54.9099c-15.452 0-28.022 12.571-28.022 28.022 0 15.452 12.57 28.023 28.022 28.023 5.698 0 11.265-1.748 15.923-4.963 1.099-.759 1.286-2.314.433-3.341l-4.986-6.007c-.75-.903-2.042-1.065-3.036-.441-2.482 1.557-5.376 2.399-8.334 2.399-8.64 0-15.67-7.029-15.67-15.67 0-8.64 7.03-15.669 15.67-15.669 2.986 0 5.904.856 8.4 2.44.991.629 2.282.474 3.036-.425l5.018-5.982c.858-1.023.678-2.58-.417-3.344-4.681-3.266-10.289-5.042-16.037-5.042m-62.7302 16.2521l-3.922 3.225c-1.551 1.276-1.775 3.568-.499 5.119l56.855 69.156c1.276 1.552 3.569 1.775 5.12.499l3.922-3.224c1.552-1.276 1.775-3.568.5-5.12l-56.856-69.155c-1.276-1.552-3.568-1.776-5.12-.5"/>
    <path fill="#373b3c" d="M339.2812 356.8955c-1.476 0-2.925.576-4.01 1.661l-54.102 54.102-76.08.291c-19.052 0-34.57 15.517-34.57 34.591v27.657c0 3.131 2.538 5.669 5.669 5.669s5.669-2.538 5.669-5.669v-27.657c0-12.822 10.432-23.253 23.253-23.253l78.438-.3c1.496-.006 2.929-.603 3.987-1.66l46.076-46.076v42.367c0 3.131 2.538 5.669 5.669 5.669h39.178c12.821 0 23.253 10.431 23.253 23.253v106.942c0 12.821-10.432 23.252-23.253 23.252h-173.348c-12.821 0-23.253-10.431-23.253-23.252v-27.535c0-3.131-2.538-5.669-5.669-5.669s-5.669 2.538-5.669 5.669v27.535c0 19.073 15.518 34.59 34.591 34.59h173.348c19.073 0 34.591-15.517 34.591-34.59v-106.942c0-19.074-15.518-34.591-34.591-34.591h-33.509v-50.384c0-2.293-1.381-4.36-3.499-5.237-.702-.291-1.439-.433-2.169-.433M316.25 0H140.557c-4.705 0-9.212 1.922-12.365 5.273-3.112 3.31-4.671 7.655-4.39 12.234l4.088 66.614c.192 3.126 2.874 5.529 6.006 5.311 3.125-.192 5.502-2.88 5.31-6.006l-4.088-66.614c-.111-1.826.664-3.058 1.334-3.77 1.033-1.099 2.49-1.704 4.105-1.704H316.25c1.623 0 3.086.612 4.12 1.723.672.72 1.445 1.966 1.314 3.805L308.533 201.28c-.202 2.838-2.589 5.061-5.433 5.061H151.872c-2.873 0-5.262-2.247-5.438-5.114l-4.141-67.494c-.191-3.124-2.868-5.532-6.005-5.31-3.126.191-5.504 2.88-5.311 6.005l4.14 67.493c.543 8.837 7.903 15.758 16.755 15.758H303.1c8.765 0 16.12-6.849 16.744-15.592l13.15-184.414c.328-4.61-1.208-8.991-4.326-12.34C325.512 1.943 320.985 0 316.25 0"/>
    <path fill="#373b3c" d="M189.6855 170.1904c-4.18 0-7.581-3.401-7.581-7.581 0-4.18 3.401-7.581 7.581-7.581 4.18 0 7.581 3.401 7.581 7.581 0 4.18-3.401 7.581-7.581 7.581m0-26.5c-10.432 0-18.919 8.487-18.919 18.919s8.487 18.919 18.919 18.919 18.919-8.487 18.919-18.919-8.487-18.919-18.919-18.919m74.92 26.5c-4.18 0-7.581-3.401-7.581-7.581 0-4.18 3.401-7.581 7.581-7.581 4.18 0 7.581 3.401 7.581 7.581 0 4.18-3.401 7.581-7.581 7.581m0-26.5c-10.432 0-18.919 8.487-18.919 18.919s8.487 18.919 18.919 18.919 18.919-8.487 18.919-18.919-8.487-18.919-18.919-18.919m14.1728 62.6504c-3.131 0-5.669 2.538-5.669 5.669 0 24.65-20.056 44.706-44.706 44.706-24.65 0-44.706-20.056-44.706-44.706 0-3.131-2.538-5.669-5.669-5.669s-5.669 2.538-5.669 5.669c0 30.903 25.141 56.044 56.044 56.044s56.044-25.141 56.044-56.044c0-3.131-2.538-5.669-5.669-5.669m-138.0497-95.8689c0-3.452-2.798-6.25-6.25-6.25s-6.25 2.798-6.25 6.25 2.798 6.25 6.25 6.25 6.25-2.798 6.25-6.25m354.375 362.6375c0-3.452-2.798-6.25-6.25-6.25s-6.25 2.798-6.25 6.25 2.798 6.25 6.25 6.25 6.25-2.798 6.25-6.25m-312.665 28.0891c0-3.452-2.798-6.25-6.25-6.25s-6.25 2.798-6.25 6.25 2.798 6.25 6.25 6.25 6.25-2.798 6.25-6.25"/>
    <path fill="#0f60ac" d="M774.958 175.8594l7.392-7.393 7.392 7.393-7.392 7.393-7.392-7.393zm7.392-21.079c-1.504 0-2.946.597-4.009 1.66l-15.409 15.41c-2.214 2.214-2.214 5.804 0 8.018l15.409 15.41c1.063 1.063 2.505 1.66 4.009 1.66 1.504 0 2.945-.597 4.008-1.66l15.411-15.41c2.213-2.214 2.213-5.804 0-8.018l-15.411-15.41c-1.063-1.063-2.504-1.66-4.008-1.66"/>
    <path fill="#373b3c" d="M829.126 0H5.669C2.538 0 0 2.538 0 5.669s2.538 5.669 5.669 5.669h823.457c3.131 0 5.669-2.538 5.669-5.669S832.257 0 829.126 0"/>
    <path fill="#0f60ac" d="M316.5732 311.1113h-135.817c-3.131 0-5.669 2.538-5.669 5.669s2.538 5.669 5.669 5.669h135.817c3.131 0 5.669-2.538 5.669-5.669s-2.538-5.669-5.669-5.669m-260.5673 0H5.6689c-3.131 0-5.669 2.538-5.669 5.669s2.538 5.669 5.669 5.669h50.337c3.131 0 5.669-2.538 5.669-5.669s-2.538-5.669-5.669-5.669m76.9179 0h-29.086c-3.131 0-5.669 2.538-5.669 5.669s2.538 5.669 5.669 5.669h29.086c3.131 0 5.669-2.538 5.669-5.669s-2.538-5.669-5.669-5.669"/>
    <path fill="#0f60ac" d="M118.3809 296.5684c-3.131 0-5.669 2.538-5.669 5.669v29.086c0 3.131 2.538 5.669 5.669 5.669s5.669-2.538 5.669-5.669v-29.086c0-3.131-2.538-5.669-5.669-5.669m674.2529-218.377c-1.451 0-2.901.553-4.009 1.66l-20.567 20.567c-2.214 2.213-2.214 5.803 0 8.017 2.213 2.213 5.803 2.215 8.017 0l20.568-20.566c2.214-2.214 2.214-5.804 0-8.018-1.107-1.106-2.558-1.66-4.009-1.66"/>
    <path fill="#0f60ac" d="M772.0664 78.1914c-1.451 0-2.901.553-4.009 1.66-2.214 2.214-2.214 5.804 0 8.018l20.568 20.566c2.214 2.215 5.802 2.215 8.017 0 2.214-2.214 2.214-5.804 0-8.017l-20.567-20.567c-1.108-1.107-2.558-1.66-4.009-1.66"/>
  </g>
</svg>
