<svg xmlns="http://www.w3.org/2000/svg" xmlns:xlink="http://www.w3.org/1999/xlink" viewBox="216 117.1 1043.5 559.9">
  <path fill="#B3B1B1" d="M502.790125 428.56913l-1 58.125 120.375 2.375-9.375 28.75-14.75 26.125-216 1.375-21.25-116.75h142z"/>
  <g transform="matrix(1.25 0 0 -1.25 0 559.86)">
    <defs>
      <path id="a" d="M68.5-149.7H1112v559.9H68.5z"/>
    </defs>
    <clipPath id="b">
      <use xlink:href="#a" overflow="visible"/>
    </clipPath>
    <g clip-path="url(#b)">
      <path fill="#373B3C" d="M489.7326-25.1482h-156.3c-14.6 0-27.2 10.4-30.1 24.7l-7.8 39.5c-.6 3.1 1.4 6.1 4.5 6.7 3.1.6 6.1-1.4 6.7-4.5l7.8-39.5c1.8-9 9.8-15.6 19-15.6h156.3c3.1 0 5.7-2.5 5.7-5.7s-2.7-5.6-5.8-5.6M290.4758 88.4807c-2.7 0-5 1.9-5.6 4.6l-12.2 61.6c-1.9 9.4-10.2 16.2-19.7 16.2h-49.5c-3.1 0-5.7 2.5-5.7 5.7 0 3.1 2.5 5.7 5.7 5.7h49.6c15 0 28-10.7 30.9-25.4l12.2-61.6c.6-3.1-1.4-6.1-4.5-6.7-.5-.1-.8-.1-1.2-.1"/>
      <path fill="#373B3C" d="M462.134 5.9387h-153.1c-3.1 0-5.7 2.5-5.7 5.7 0 3.1 2.5 5.7 5.7 5.7h153.1c11.4 0 21.1 7.7 23.7 18.8l5.6 23.8c.7 3 3.8 4.9 6.8 4.2 3-.7 4.9-3.8 4.2-6.8l-5.5-23.8c-3.8-16.3-18.1-27.6-34.8-27.6M284.5979 118.3312h-.7c-3 .4-5.1 3-4.9 6 0 .5.5 5.3 6.3 5.3h116.9c3.1 0 5.7-2.5 5.7-5.7 0-3.1-2.5-5.7-5.7-5.7h-117.3c-.1.1-.2.1-.3.1"/>
      <path fill="#AA80CE" d="M433.8865-61.3459c0-12.8 10.4-23.2 23.2-23.2 12.8 0 23.2 10.4 23.2 23.2s-10.4 23.2-23.2 23.2c-12.8 0-23.2-10.4-23.2-23.2"/>
      <path fill="#373B3C" d="M457.0891-43.8123c-9.7 0-17.5-7.9-17.5-17.5s7.9-17.5 17.5-17.5 17.5 7.9 17.5 17.5-7.8 17.5-17.5 17.5m0-46.4c-15.9 0-28.9 13-28.9 28.9s13 28.9 28.9 28.9 28.9-13 28.9-28.9-13-28.9-28.9-28.9"/>
      <path fill="#AA80CE" d="M308.9866-61.3459c0-12.8 10.4-23.2 23.2-23.2 12.8 0 23.2 10.4 23.2 23.2s-10.4 23.2-23.2 23.2c-12.8 0-23.2-10.4-23.2-23.2"/>
      <path fill="#373B3C" d="M332.1896-43.8123c-9.7 0-17.5-7.9-17.5-17.5s7.9-17.5 17.5-17.5 17.5 7.9 17.5 17.5-7.8 17.5-17.5 17.5m0-46.4c-15.9 0-28.9 13-28.9 28.9s13 28.9 28.9 28.9 28.9-13 28.9-28.9-13-28.9-28.9-28.9M590.301 136.5715h-.1c-3.1.1-5.6 2.7-5.5 5.8l1.4 62.5c.3 11.8-4.1 23-12.4 31.5s-19.4 13.1-31.2 13.1h-14.7c-3.1 0-5.7 2.5-5.7 5.7s2.5 5.7 5.7 5.7h14.7c14.9 0 28.9-5.9 39.3-16.6 10.4-10.7 16-24.8 15.6-39.7l-1.4-62.5c-.1-3.1-2.6-5.5-5.7-5.5"/>
      <path fill="#373B3C" d="M590.1975 7.0686c-3.1 0-5.7 2.5-5.7 5.7 0 22.5-18.1 40.2-41.3 40.2h-141c-1.5 0-3 .6-4 1.7-1.1 1.1-1.7 2.5-1.6 4.1l2.7 196.7c0 3.1 2.6 5.6 5.7 5.6h37.2c3.1 0 5.7-2.5 5.7-5.7 0-3.1-2.5-5.7-5.7-5.7h-31.7l-2.5-185.4h135.3c21 0 38.8-11.5 47.3-28.6 9.3 16.8 28.3 28.6 49.7 28.6h79.9c3.1 0 5.7-2.5 5.7-5.7 0-3.1-2.5-5.7-5.7-5.7h-79.9c-24 0-44.4-18.4-44.4-40.2 0-3.1-2.6-5.6-5.7-5.6m189.8486 123.082c-3.1 0-5.6 2.5-5.7 5.6l-1 83.5c0 3.1 2.5 5.7 5.6 5.7h.1c3.1 0 5.6-2.5 5.7-5.6l1-83.5c0-3.1-2.5-5.7-5.7-5.7zM591.76 199.1164c-3.1 0-5.6 2.5-5.7 5.5-.3 14.9 5.2 29 15.6 39.7 10.4 10.7 24.4 16.6 39.3 16.6h65.2c3.1 0 5.7-2.5 5.7-5.7 0-3.1-2.5-5.7-5.7-5.7h-65.2c-11.8 0-22.9-4.7-31.2-13.1-8.3-8.5-12.7-19.7-12.4-31.5.1-3.1-2.4-5.7-5.5-5.8h-.1"/>
      <path fill="#71CFF4" d="M807.9874 268.2634c0-12.3-4.2-19.4-11.5-28.2-9.3-11.3-14.2-18.5-30.1-18.5-14.1 0-26.8-2.4-36 6.8s-14.9 22-14.9 36c0 28.1 22.8 50.9 50.9 50.9s41.6-18.9 41.6-47"/>
      <path fill="#FF5749" d="M525.9215 276.2373v-100.4l-41.9 26.9-41.9-26.9v100.4h83.8z"/>
      <path fill="#373B3C" d="M525.9211 148.5686c-1.1 0-2.1.3-3.1.9l-38.9 25-38.8-25c-1.7-1.1-4-1.2-5.8-.2-1.8 1-3 2.9-3 5v121.5c0 3.1 2.5 5.7 5.7 5.7h83.9c3.1 0 5.7-2.5 5.7-5.7v-40.7c0-3.1-2.5-5.7-5.7-5.7s-5.7 2.5-5.7 5.7v35h-72.5v-105.5l33.2 21.3c1.9 1.2 4.3 1.2 6.1 0l33.2-21.3v17c0 3.1 2.5 5.7 5.7 5.7s5.7-2.5 5.7-5.7v-27.3c0-2.1-1.1-4-3-5-.8-.5-1.8-.7-2.7-.7m70.5264-34.1109c0-3.5-2.8-6.3-6.3-6.3s-6.3 2.8-6.3 6.3 2.8 6.3 6.3 6.3 6.3-2.9 6.3-6.3M301.1307 67.2965c0-3.5-2.8-6.3-6.3-6.3s-6.3 2.8-6.3 6.3 2.8 6.3 6.3 6.3 6.3-2.9 6.3-6.3"/>
      <path fill="#373B3C" d="M532.1715 208.7373c0-3.5-2.8-6.3-6.3-6.3s-6.3 2.8-6.3 6.3 2.8 6.3 6.3 6.3 6.3-2.9 6.3-6.3m58.026-195.1687c-3.1 0-5.7 2.5-5.7 5.7v70.8c0 3.1 2.5 5.7 5.7 5.7s5.7-2.5 5.7-5.7v-70.8c0-3.2-2.6-5.7-5.7-5.7m167.0166 202.2793c-31.2 0-56.6 25.4-56.6 56.6 0 8 1.6 15.8 4.9 23 1.3 2.9 4.6 4.1 7.5 2.9 2.9-1.3 4.1-4.6 2.9-7.5-2.6-5.8-3.9-12-3.9-18.4 0-25 20.3-45.3 45.3-45.3s45.3 20.3 45.3 45.3c0 3.3-.4 6.7-1.2 10.4-4.5 20.6-20.4 28.3-21 28.6-.1.1-.3.2-.5.2-6.8 3.9-14.6 6-22.6 6-5.4 0-10.6-.9-15.6-2.8-2.9-1.1-6.2.4-7.3 3.4-1.1 2.9.4 6.2 3.4 7.3 6.3 2.3 12.8 3.5 19.6 3.5 9.9 0 19.5-2.6 28.1-7.4 2.7-1.3 21.7-11.4 27.1-36.4 1-4.5 1.5-8.7 1.5-12.8-.3-31.2-25.7-56.6-56.9-56.6"/>
      <path fill="#FFF" d="M757.3342 246.0666c-3.1 0-5.7 2.5-5.7 5.7v41.5c0 3.1 2.5 5.7 5.7 5.7s5.7-2.5 5.7-5.7v-41.5c0-3.2-2.6-5.7-5.7-5.7"/>
      <path fill="#FFF" d="M777.9426 266.7946h-41.5c-3.1 0-5.7 2.5-5.7 5.7 0 3.1 2.5 5.7 5.7 5.7h41.5c3.1 0 5.7-2.5 5.7-5.7s-2.6-5.7-5.7-5.7"/>
      <path fill="#373B3C" d="M738.5627 188.1164h-66.7c-3.1 0-5.7 2.5-5.7 5.7 0 3.1 2.5 5.7 5.7 5.7h66.7c3.1 0 5.7-2.5 5.7-5.7s-2.6-5.7-5.7-5.7m0-45.7285h-66.7c-3.1 0-5.7 2.5-5.7 5.7s2.5 5.7 5.7 5.7h66.7c3.1 0 5.7-2.5 5.7-5.7s-2.6-5.7-5.7-5.7m0-45.7295h-66.7c-3.1 0-5.7 2.5-5.7 5.7 0 3.1 2.5 5.7 5.7 5.7h66.7c3.1 0 5.7-2.5 5.7-5.7s-2.6-5.7-5.7-5.7m-102.667 102.458c-2.9 0-5.3-2.4-5.3-5.3s2.4-5.3 5.3-5.3 5.3 2.4 5.3 5.3-2.4 5.3-5.3 5.3m0-22c-9.2 0-16.7 7.5-16.7 16.7s7.5 16.7 16.7 16.7 16.7-7.5 16.7-16.7-7.5-16.7-16.7-16.7m0-23.7285c-2.9 0-5.3-2.4-5.3-5.3s2.4-5.3 5.3-5.3 5.3 2.4 5.3 5.3-2.4 5.3-5.3 5.3m0-22c-9.2 0-16.7 7.5-16.7 16.7s7.5 16.7 16.7 16.7 16.7-7.5 16.7-16.7-7.5-16.7-16.7-16.7m0-25.4795c-2.9 0-5.3-2.4-5.3-5.3s2.4-5.3 5.3-5.3 5.3 2.4 5.3 5.3-2.4 5.3-5.3 5.3m0-22c-9.2 0-16.7 7.5-16.7 16.7s7.5 16.7 16.7 16.7 16.7-7.5 16.7-16.7-7.5-16.7-16.7-16.7"/>
      <path fill="#FCC02D" d="M865.3126-83.2627h-84.7v43c-14 0-20.3 14-20.3 14l-38.4 71.6c-3.9 7.3-1.1 16.3 6.2 20.2 7 3.7 15.7 1.2 19.7-5.7l16.1-27.6v88.5c0 8.6 7.2 15.5 15.9 15.1 8.1-.4 14.4-7.4 14.4-15.5v-38c0 8.4 6.8 15.1 15.1 15.1s15.1-6.8 15.1-15.1c0 8.4 6.8 15.1 15.1 15.1 8.4 0 15.1-6.8 15.1-15.1 0 8.6 7.2 15.5 15.9 15.1 8.1-.4 14.4-7.4 14.4-15.5v-87.6c0-13.7-8-25.6-19.7-31.2l.1-46.4z"/>
      <path fill="#373B3C" d="M786.2316-82.3621h73.4v37.5c-3-.7-6.1-1.1-9.2-1.1h-6.8c-3.1 0-5.7 2.5-5.7 5.7 0 3.1 2.5 5.7 5.7 5.7h6.8c15.9 0 28.8 12.9 28.8 28.8v87.6c0 5.2-4 9.6-9 9.9-2.6.1-5.1-.8-7-2.6-1.9-1.8-2.9-4.2-2.9-6.8 0-3.1-2.5-5.7-5.7-5.7-3.1 0-5.7 2.5-5.7 5.7 0 5.2-4.2 9.5-9.5 9.5-5.2 0-9.5-4.2-9.5-9.5 0-3.1-2.5-5.7-5.7-5.7-3.1 0-5.7 2.5-5.7 5.7 0 5.2-4.2 9.5-9.5 9.5-5.2 0-9.5-4.2-9.5-9.5 0-3.1-2.5-5.7-5.7-5.7-3.1 0-5.7 2.5-5.7 5.7v38c0 5.2-4 9.6-9 9.9-2.6.1-5.1-.8-7-2.6-1.9-1.8-2.9-4.2-2.9-6.8v-88.6c0-2.6-1.7-4.8-4.2-5.5-2.5-.7-5.1.4-6.4 2.6l-16.1 27.6c-2.5 4.3-7.8 5.8-12.2 3.5-2.2-1.1-3.8-3.1-4.5-5.4-.7-2.4-.5-4.9.7-7l38.4-71.6c.1-.1.1-.2.2-.4.2-.4 5-10.6 15.1-10.6 3.1 0 5.7-2.5 5.7-5.7v-42.1zm79.1-11.3h-84.8c-3.1 0-5.7 2.5-5.7 5.7v42.7c-12.7 2.8-18.8 14.6-19.7 16.5l-38.3 71.5c-2.6 4.9-3.2 10.5-1.5 15.7 1.6 5.3 5.2 9.6 10.1 12.2 9.8 5.1 21.7 1.7 27.3-7.9l5.5-9.4v67.5c0 5.7 2.3 11.1 6.4 15.1 4.2 4 9.6 6 15.4 5.7 11.1-.5 19.8-9.8 19.8-21.2v-19.7c2.8 1.5 6.1 2.3 9.5 2.3 6 0 11.3-2.5 15.1-6.5 3.8 4 9.2 6.5 15.1 6.5 6 0 11.3-2.5 15.1-6.5l.8.8c4.2 4 9.6 6 15.4 5.7 11.1-.5 19.8-9.8 19.8-21.2v-87.6c0-14.6-7.9-27.5-19.6-34.5v-47.8c0-3.1-2.6-5.6-5.7-5.6"/>
      <path fill="#373B3C" d="M1001.926-93.7h-823.5c-3.1 0-5.7 2.5-5.7 5.7s2.5 5.7 5.7 5.7h823.5c3.1 0 5.7-2.5 5.7-5.7s-2.6-5.7-5.7-5.7M826.4475-40.5597c0-3.5-2.8-6.3-6.3-6.3s-6.3 2.8-6.3 6.3 2.8 6.3 6.3 6.3 6.3-2.9 6.3-6.3"/>
      <path fill="#0F60AC" d="M521.4338 332.5681h-142.9c-3.1 0-5.7 2.5-5.7 5.7 0 3.1 2.5 5.7 5.7 5.7h142.9c3.1 0 5.7-2.5 5.7-5.7s-2.6-5.7-5.7-5.7m480.4922-161.7193h-60c-3.1 0-5.7 2.5-5.7 5.7 0 3.1 2.5 5.7 5.7 5.7h60c3.1 0 5.7-2.5 5.7-5.7s-2.6-5.7-5.7-5.7M253.7736 332.5681h-50.3c-3.1 0-5.7 2.5-5.7 5.7 0 3.1 2.5 5.7 5.7 5.7h50.3c3.1 0 5.7-2.5 5.7-5.7s-2.6-5.7-5.7-5.7m618.5469-156.0498l7.4-7.4 7.4 7.4-7.4 7.4-7.4-7.4zm7.4-21.1c-1.5 0-2.9.6-4 1.7l-15.4 15.4c-1.1 1.1-1.7 2.5-1.7 4s.6 2.9 1.7 4l15.4 15.4c2.2 2.2 5.8 2.2 8 0l15.4-15.4c1.1-1.1 1.7-2.5 1.7-4s-.6-2.9-1.7-4l-15.4-15.4c-1.1-1.1-2.5-1.7-4-1.7M326.4318 322.2844c-1.5 0-2.9.6-4 1.7l-20.6 20.6c-2.2 2.2-2.2 5.8 0 8s5.8 2.2 8 0l20.6-20.6c2.2-2.2 2.2-5.8 0-8-1.1-1.2-2.5-1.7-4-1.7"/>
      <path fill="#0F60AC" d="M305.8654 322.2844c-1.5 0-2.9.6-4 1.7-2.2 2.2-2.2 5.8 0 8l20.6 20.6c2.2 2.2 5.8 2.2 8 0s2.2-5.8 0-8l-20.6-20.6c-1.1-1.2-2.5-1.7-4-1.7M671.8957-51.5105c-3.1 0-5.7 2.5-5.7 5.7v29c0 3.1 2.5 5.7 5.7 5.7s5.7-2.5 5.7-5.7v-29c0-3.2-2.6-5.7-5.7-5.7"/>
      <path fill="#0F60AC" d="M686.4387-36.9676h-29.1c-3.1 0-5.7 2.5-5.7 5.7s2.5 5.7 5.7 5.7h29.1c3.1 0 5.7-2.5 5.7-5.7s-2.6-5.7-5.7-5.7"/>
      <path fill="#373B3C" d="M728.93 310.612c0-3.5-2.8-6.3-6.3-6.3s-6.3 2.8-6.3 6.3 2.8 6.3 6.3 6.3 6.3-2.9 6.3-6.3"/>
    </g>
  </g>
</svg>
