<svg xmlns="http://www.w3.org/2000/svg" viewBox="111 193.8 834.9 407.2">
  <path fill="#E3E950" d="M465 461l28.5 14.1-7.3 33.3 17 88.8-64.9-1.9 18.5-87.6-16-27"/>
  <path fill="#AA80CE" d="M832.5 593.5l-11-155.9c-.3-3.9 3-13.3-.9-13.3H680.9c-3.9 0-7.2 3.1-7.5 7l-10.9 165.9"/>
  <path fill="#373B3C" d="M830.8 595.4c-2.9 0-5.4-2.3-5.6-5.3L813 419c-.2-2.4-2.2-4.3-4.6-4.3H668.1c-2.5 0-4.5 1.9-4.6 4.4l-3.8 62.6c-.2 3.1-2.9 5.5-6 5.3s-5.5-2.9-5.3-6l3.8-62.6c.5-8.4 7.5-15 16-15h140.3c8.3 0 15.4 6.5 15.9 14.8l12.2 171.1c.2 3.1-2.1 5.8-5.3 6.1h-.5zm-183.6.1h-.4c-3.1-.2-5.5-2.9-5.3-6l3.8-61.8c.2-3.1 2.9-5.5 6-5.3s5.5 2.9 5.3 6l-3.8 61.8c-.1 3-2.6 5.3-5.6 5.3z"/>
  <path fill="#373B3C" d="M703.1 472.8c-9.9 0-18-8.1-18-18s8.1-18 18-18 18 8.1 18 18-8.1 18-18 18zm0-24.6c-3.7 0-6.6 3-6.6 6.6s3 6.6 6.6 6.6 6.6-3 6.6-6.6-2.9-6.6-6.6-6.6zm69.5 24.6c-9.9 0-18-8.1-18-18s8.1-18 18-18 18 8.1 18 18-8.1 18-18 18zm0-24.6c-3.7 0-6.6 3-6.6 6.6s3 6.6 6.6 6.6 6.6-3 6.6-6.6-2.9-6.6-6.6-6.6zm13.2-33.5c-3.1 0-5.7-2.5-5.7-5.7 0-22.7-18.4-41.1-41.1-41.1s-41.1 18.4-41.1 41.1c0 3.1-2.5 5.7-5.7 5.7s-5.7-2.5-5.7-5.7c0-28.9 23.5-52.4 52.4-52.4s52.4 23.5 52.4 52.4c.1 3.1-2.4 5.7-5.5 5.7z"/>
  <circle cx="1725.7" cy="784.2" r="5.8" fill="#373B3C" transform="translate(-1073.8 -281)"/>
  <path fill="#B3B1B1" d="M342 367.9c0-17.8 14.4-27.3 32.1-27.3l14.3-.1 6.7-35.9 31.7-38.1 41.2-8.1-.7-42.4-100 .1c-14.9 0-26.9 12.1-26.9 26.9h-.1c0-14.9-12-26.9-26.9-26.9l-100-.1-1.8 126.4h96.6c17.8 0 30 11.8 30 29.6l3.8-4.1z"/>
  <path fill="#373B3C" d="M340.3 375.4c-3.1 0-5.7-2.5-5.7-5.7 0-10.4-7-21.6-26.5-21.6h-96.6c-1.5 0-3-.6-4-1.7-1.1-1.1-1.7-2.5-1.6-4.1l1.8-141.8c0-3.1 2.6-5.6 5.7-5.6l100 .1c18 0 32.6 14.6 32.6 32.6v142c0 3.3-2.5 5.8-5.7 5.8zm-123-38.6h90.9c10.8 0 19.9 3 26.5 8.3V227.7c0-11.7-9.5-21.3-21.2-21.3l-94.4-.1-1.8 130.5z"/>
  <path fill="#373B3C" d="M340.3 375.4c-3.1 0-5.7-2.5-5.7-5.7v-142c0-18 14.6-32.6 32.6-32.6h21c3.1 0 5.7 2.5 5.7 5.7 0 3.1-2.5 5.7-5.7 5.7h-21c-11.7 0-21.2 9.6-21.2 21.3v117.4c6.6-5.3 15.7-8.3 26.5-8.3h16c3.1 0 5.7 2.5 5.7 5.7s-2.5 5.7-5.7 5.7h-16c-12.8 0-26.5 5.7-26.5 21.6 0 3-2.5 5.5-5.7 5.5zM468 258.6c-3.1 0-5.6-2.5-5.7-5.6l-.7-46.6h-26.4c-3.1 0-5.7-2.5-5.7-5.7 0-3.1 2.5-5.7 5.7-5.7h32c3.1 0 5.6 2.5 5.7 5.6l.8 52.2c.1 3.1-2.5 5.7-5.7 5.8.1 0 .1 0 0 0z"/>
  <path fill="#FFF" d="M257 273c-11.1 0-20.1-9-20.1-20.1 0-11.1 9-20.1 20.1-20.1s20.1 9 20.1 20.1C277 264 268 273 257 273zm0-31.3c-6.2 0-11.2 5-11.2 11.2s5 11.2 11.2 11.2 11.2-5 11.2-11.2-5.1-11.2-11.2-11.2zm48 70.7c-11.1 0-20.1-9-20.1-20.1s9-20.1 20.1-20.1c4.1 0 8.1 1.3 11.4 3.6.8.5.9 1.7.3 2.4l-3.6 4.3c-.5.6-1.5.8-2.2.3-1.8-1.1-3.9-1.7-6-1.7-6.2 0-11.2 5-11.2 11.2 0 6.2 5 11.2 11.2 11.2 2.1 0 4.2-.6 6-1.7.7-.5 1.6-.3 2.2.3l3.6 4.3c.6.7.5 1.8-.3 2.4-3.3 2.3-7.3 3.6-11.4 3.6zm-45-11.7l-2.8-2.3c-1.1-.9-1.3-2.6-.4-3.7l40.8-49.6c.9-1.1 2.6-1.3 3.7-.4l2.8 2.3c1.1.9 1.3 2.6.4 3.7l-40.8 49.6c-.9 1.2-2.6 1.3-3.7.4z"/>
  <path fill="#71CFF4" d="M392.5 456.8c-31.1 0-56.3 25.2-56.3 56.3v79.5h264.6v-79.5c0-31.1-25.2-56.3-56.3-56.3l-3.8 5.2-4.2 5.7-17.8 24-20.1-12.9-15.9 27 16.1 86.8-60.4-1.8 16.1-85-16.1-27.2-19.9 13.1-26-34.9z"/>
  <path fill="#373B3C" d="M418.4 497.3c-1.7 0-3.4-.8-4.6-2.3l-25.9-34.9c-1.7-2.3-1.4-5.6.7-7.6l33.2-30.4c2-1.9 5.1-2 7.3-.3l42.2 32.6c1.4 1.1 2.3 2.9 2.2 4.7-.1 1.8-1 3.5-2.5 4.5l-49.5 32.6c-.9.8-2 1.1-3.1 1.1zm-18.3-39.8l19.6 26.5 38.4-25.3-32.1-24.9-25.9 23.7z"/>
  <path fill="#373B3C" d="M454.4 511.4c-1.9 0-3.8-1-4.9-2.8l-16.1-27.2c-1.6-2.7-.7-6.2 2-7.8s6.2-.7 7.8 2l16.1 27.2c1.6 2.7.7 6.2-2 7.8-.9.6-1.9.8-2.9.8z"/>
  <path fill="#373B3C" d="M498.7 598.2c-2.7 0-5.1-1.9-5.6-4.6l-15.2-82.2h-18.8l-15.2 82.2c-.6 3.1-3.5 5.1-6.6 4.5s-5.1-3.5-4.5-6.6l16.1-86.8c.5-2.7 2.8-4.6 5.6-4.6h28.2c2.7 0 5.1 1.9 5.6 4.6l16.1 86.8c.6 3.1-1.5 6-4.5 6.6-.5.1-.8.1-1.2.1zm-162.4 0c-3.1 0-5.7-2.5-5.7-5.7v-28.9c0-3.1 2.5-5.7 5.7-5.7s5.7 2.5 5.7 5.7v28.9c-.1 3.2-2.6 5.7-5.7 5.7zm0-79.5c-3.1 0-5.7-2.5-5.7-5.7 0-34.2 27.8-61.9 61.9-61.9 3.1 0 5.7 2.5 5.7 5.7s-2.5 5.7-5.7 5.7c-27.9 0-50.6 22.7-50.6 50.6 0 3.1-2.5 5.6-5.6 5.6zm182.4-21.4c-1.1 0-2.2-.3-3.1-.9l-49.5-32.6c-1.5-1-2.5-2.7-2.5-4.5s.7-3.6 2.2-4.7L508 422c2.2-1.7 5.3-1.6 7.3.3l33.2 30.4c2.1 2 2.5 5.2.7 7.6l-25.9 34.9c-1.2 1.4-2.9 2.1-4.6 2.1zm-39.8-38.6l38.4 25.3 19.6-26.5-25.9-23.7-32.1 24.9z"/>
  <path fill="#373B3C" d="M482.7 511.4c-1 0-2-.3-2.9-.8-2.7-1.6-3.6-5.1-2-7.8l16.1-27.2c1.6-2.7 5.1-3.6 7.8-2s3.6 5.1 2 7.8l-16.1 27.2c-1.1 1.8-3 2.8-4.9 2.8zm118.1 86.8c-3.1 0-5.7-2.5-5.7-5.7V513c0-27.9-22.7-50.6-50.6-50.6-3.1 0-5.7-2.5-5.7-5.7s2.5-5.7 5.7-5.7c34.2 0 61.9 27.8 61.9 61.9v79.5c.1 3.3-2.4 5.8-5.6 5.8z"/>
  <path fill="#373B3C" d="M570.6 543.2h-49.8c-3.1 0-5.7-2.5-5.7-5.7s2.5-5.7 5.7-5.7h49.8c3.1 0 5.7 2.5 5.7 5.7s-2.6 5.7-5.7 5.7z"/>
  <path fill="#FCC02D" d="M551.3 344.7c-2.8 19.6-9.7 31.9-21.9 45.7-14.4 16.3-24 24-47.4 24-24.3 0-44.6-.6-59-17.9-11.2-13.6-17.9-30.9-17.9-49.9 0-43.3 35.1-78.4 78.4-78.4 23.9 0 41.5 11.6 55.9 28.5 11.6 13.7 14.7 28.8 11.9 48z"/>
  <path fill="#373B3C" d="M458.1 322.9c-3.1 0-5.7-2.5-5.7-5.7 0-3.8-3.1-7-7-7-3.8 0-7 3.1-7 7 0 3.1-2.5 5.7-5.7 5.7s-5.7-2.5-5.7-5.7c0-10.1 8.2-18.3 18.3-18.3 10.1 0 18.3 8.2 18.3 18.3.2 3.2-2.3 5.7-5.5 5.7zm50.8 0c-3.1 0-5.7-2.5-5.7-5.7 0-3.8-3.1-7-7-7-3.8 0-7 3.1-7 7 0 3.1-2.5 5.7-5.7 5.7s-5.7-2.5-5.7-5.7c0-10.1 8.2-18.3 18.3-18.3 10.1 0 18.3 8.2 18.3 18.3.2 3.2-2.3 5.7-5.5 5.7zm-38 61.9c-19.9 0-37.3-13.5-42.3-32.7-.8-3 1-6.1 4.1-6.9 3-.8 6.1 1 6.9 4.1 3.7 14.3 16.6 24.2 31.3 24.2 14.5 0 27.3-9.7 31.2-23.6.8-3 4-4.8 7-3.9 3 .8 4.8 4 3.9 7-5.3 18.7-22.6 31.8-42.1 31.8z"/>
  <path fill="#373B3C" d="M470.8 418c-46.3 0-84-37.7-84-84s37.7-84 84-84c18.9 0 36.8 6.1 51.7 17.8 2.5 1.9 2.9 5.5 1 8s-5.5 2.9-8 1c-12.9-10-28.3-15.4-44.7-15.4-40.1 0-72.7 32.6-72.7 72.7s32.6 72.7 72.7 72.7 72.7-32.6 72.7-72.7c0-6.7-.9-13.3-2.7-19.7-.8-3 .9-6.1 3.9-7 3-.8 6.1.9 7 3.9 2.1 7.4 3.1 15.1 3.1 22.8 0 46.2-37.6 83.9-84 83.9z"/>
  <circle cx="1609.4" cy="571.7" r="7" fill="#373B3C" transform="translate(-1073.8 -281)"/>
  <circle cx="1485.9" cy="481.8" r="7" fill="#373B3C" transform="translate(-1073.8 -281)"/>
  <path fill="#373B3C" d="M940.2 601H116.7c-3.1 0-5.7-2.5-5.7-5.7s2.5-5.7 5.7-5.7h823.5c3.1 0 5.7 2.5 5.7 5.7s-2.6 5.7-5.7 5.7z"/>
  <path fill="#0F60AC" d="M850 276.6H742.6c-3.1 0-5.7-2.5-5.7-5.7s2.5-5.7 5.7-5.7H850c3.1 0 5.7 2.5 5.7 5.7s-2.6 5.7-5.7 5.7zm-223.7 0h-35c-3.1 0-5.7-2.5-5.7-5.7s2.5-5.7 5.7-5.7h35c3.1 0 5.7 2.5 5.7 5.7s-2.5 5.7-5.7 5.7zm58.1 14.4c-1.5 0-2.9-.6-4-1.7L666 274.9c-1.1-1.1-1.7-2.5-1.7-4s.6-2.9 1.7-4l14.4-14.4c1.1-1.1 2.5-1.7 4-1.7s2.9.6 4 1.7l14.4 14.4c1.1 1.1 1.7 2.5 1.7 4s-.6 2.9-1.7 4l-14.4 14.4c-1.1 1.1-2.5 1.7-4 1.7zm-6.3-20.1l6.3 6.3 6.3-6.3-6.3-6.3-6.3 6.3z"/>
  <g fill="#0F60AC">
    <path d="M336.3 436.4h-117c-3.1 0-5.7-2.5-5.7-5.7s2.5-5.7 5.7-5.7h117c3.1 0 5.7 2.5 5.7 5.7s-2.6 5.7-5.7 5.7zm-161.7 0h-27.1c-3.1 0-5.7-2.5-5.7-5.7s2.5-5.7 5.7-5.7h27.1c3.1 0 5.7 2.5 5.7 5.7s-2.5 5.7-5.7 5.7z"/>
    <path d="M161.1 450c-3.1 0-5.7-2.5-5.7-5.7v-27.1c0-3.1 2.5-5.7 5.7-5.7s5.7 2.5 5.7 5.7v27.1c0 3.1-2.6 5.7-5.7 5.7z"/>
  </g>
  <circle cx="1410.1" cy="818.5" r="6.2" fill="#373B3C" transform="translate(-1073.8 -281)"/>
</svg>
