<svg xmlns="http://www.w3.org/2000/svg" viewBox="111 17.6 834.9 758.4">
  <path fill="#B3B1B1" d="M585.7 593.2l16-29.3 22.4-13.2 66.7-2.7 14.8-32.3 16.2-12.7-297.2-12.3-88.5 17.4v39.5l110.5.4 29 10.5 10.5 24.7 8 10"/>
  <path fill="#373B3C" d="M940.2 536.6H741.7c-3.1 0-5.7-2.5-5.7-5.7s2.5-5.7 5.7-5.7h198.5c3.1 0 5.7 2.5 5.7 5.7s-2.6 5.7-5.7 5.7zm-606.6 0h-105c-3.1 0-5.7-2.5-5.7-5.7s2.5-5.7 5.7-5.7h105c3.1 0 5.7 2.5 5.7 5.7s-2.5 5.7-5.7 5.7zm-155.1 0h-61.8c-3.1 0-5.7-2.5-5.7-5.7s2.5-5.7 5.7-5.7h61.8c3.1 0 5.7 2.5 5.7 5.7s-2.6 5.7-5.7 5.7z"/>
  <path fill="#71CFF4" d="M541.1 547.1c0-28.3 22.9-43.4 51.1-43.4l22.8-.2 126.7 3.1v-73.7l-.2-60-.7-41.4-32.7 24.3-44.6-2.8 27.2-47.5-109.5.1c-23.6 0-42.8 19.2-42.8 42.8h-.1c0-23.6-19.2-42.8-42.8-42.8l-159.1-.2-2.9 201.1h153.6c28.3 0 50.4 13.3 50.4 41.5l3.6-.9z"/>
  <path fill="#373B3C" d="M538.5 556.5c-3.1 0-5.7-2.5-5.7-5.7 0-27.8-24.5-37.7-45.5-37.7H333.6c-1.5 0-3-.6-4-1.7-1.1-1.1-1.7-2.5-1.6-4.1l2.9-225.6c0-3.1 2.6-5.6 5.7-5.6h36c3.1 0 5.7 2.5 5.7 5.7 0 3.1-2.5 5.7-5.7 5.7h-30.4l-2.8 214.3h148c19.6 0 35.5 6.6 45.5 17.8V324.8c0-20.5-16.7-37.2-37.2-37.2l-78-.1c-3.1 0-5.7-2.5-5.7-5.7 0-3.1 2.5-5.7 5.7-5.7l78 .1c26.7 0 48.5 21.8 48.5 48.5v226c0 3.2-2.6 5.8-5.7 5.8z"/>
  <path fill="#373B3C" d="M538.5 556.5c-3.1 0-5.7-2.5-5.7-5.7v-226c0-26.7 21.7-48.5 48.5-48.5l139.3-.1c3.1 0 5.7 2.5 5.7 5.7 0 3.1-2.5 5.7-5.7 5.7l-139.3.1c-20.5 0-37.1 16.7-37.1 37.2v194.7c9.9-11.2 25.8-17.8 45.5-17.8l146.3-.7-.4-68.2c0-3.1 2.5-5.7 5.6-5.7 3.1 0 5.6 2.5 5.7 5.6l.4 73.8c0 1.5-.6 3-1.6 4-1.1 1.1-2.5 1.7-4 1.7l-152 .7c-21 0-45.5 9.9-45.5 37.7 0 3.2-2.6 5.8-5.7 5.8z"/>
  <path fill="#373B3C" d="M741.1 380.3c-3.1 0-5.6-2.5-5.7-5.6l-.4-55.2c0-3.1 2.5-5.7 5.6-5.7 3.1 0 5.6 2.5 5.7 5.6l.4 55.2c0 3.1-2.5 5.7-5.6 5.7zM589.8 593.8H487.4c-3.1 0-5.7-2.5-5.7-5.7 0-19.9-16.2-36.2-36.2-36.2h-18.3c-3.1 0-5.7-2.5-5.7-5.7s2.5-5.7 5.7-5.7h18.3c24.3 0 44.4 18.3 47.2 41.8h91.8c2.7-23.6 22.7-41.9 47-42l59.3.1c3.1 0 5.7 2.5 5.7 5.7 0 3.1-2.5 5.7-5.7 5.7l-59.3-.1c-19.9.1-36 16.4-36 36.3 0 1.5-.6 3-1.7 4-1 1.2-2.5 1.8-4 1.8zM374.9 552h-41.3c-3.1 0-5.7-2.5-5.7-5.7v-40.4c0-3.1 2.5-5.7 5.7-5.7s5.7 2.5 5.7 5.7v34.7h35.6c3.1 0 5.7 2.5 5.7 5.7s-2.6 5.7-5.7 5.7zm122.7-79.4H374.9c-3.1 0-5.7-2.5-5.7-5.7v-37.3c0-3.1 2.5-5.7 5.7-5.7h122.7c3.1 0 5.7 2.5 5.7 5.7v37.3c-.1 3.2-2.6 5.7-5.7 5.7zm-117-11.3h111.3v-26H380.6v26zm117-75.7H374.9c-3.1 0-5.7-2.5-5.7-5.7v-37.3c0-3.1 2.5-5.7 5.7-5.7h122.7c3.1 0 5.7 2.5 5.7 5.7v37.3c-.1 3.2-2.6 5.7-5.7 5.7zm-117-11.3h111.3v-26H380.6v26zm37.1-65.5h-42.8c-3.1 0-5.7-2.5-5.7-5.7v-42.8c0-3.1 2.5-5.7 5.7-5.7h42.8c3.1 0 5.7 2.5 5.7 5.7v42.8c-.1 3.2-2.6 5.7-5.7 5.7zm-37.1-11.3H412v-31.4h-31.4v31.4zm37.1-66.9h-42.8c-3.1 0-5.7-2.5-5.7-5.7v-42.8c0-3.1 2.5-5.7 5.7-5.7h42.8c3.1 0 5.7 2.5 5.7 5.7v42.8c-.1 3.1-2.6 5.7-5.7 5.7zm-37.1-11.4H412v-31.4h-31.4v31.4z"/>
  <path fill="#FF5749" d="M792.1 556.2c0 27.8-22.6 50.4-50.4 50.4s-41-11.5-41-39.3 22.6-50.4 50.4-50.4 41 11.4 41 39.3z"/>
  <circle cx="1865.6" cy="754.3" r="6.3" fill="#373B3C" transform="translate(-1089.4 -161.7)"/>
  <circle cx="1830.5" cy="564.5" r="6.3" fill="#373B3C" transform="translate(-1089.4 -161.7)"/>
  <path fill="#373B3C" d="M741.3 613.5c-9.8 0-19.4-2.5-27.8-7.4-2.7-1.3-21.5-11.3-26.9-36.1-1-4.5-1.4-8.7-1.4-12.7 0-31 25.2-56.2 56.2-56.2s56.2 25.2 56.2 56.2c0 8-1.6 15.6-4.8 22.9-1.3 2.9-4.6 4.1-7.5 2.9-2.9-1.3-4.1-4.6-2.9-7.5 2.6-5.7 3.9-11.9 3.9-18.2 0-24.7-20.1-44.8-44.8-44.8-24.7 0-44.8 20.1-44.8 44.8 0 3.2.4 6.6 1.2 10.3 4.4 20.4 20.1 28 20.8 28.3.1.1.3.2.5.2 6.8 3.9 14.5 6 22.4 6 5.3 0 10.5-.9 15.5-2.7 2.9-1.1 6.2.4 7.3 3.4 1.1 2.9-.4 6.2-3.4 7.3-6.6 2.2-13.1 3.3-19.7 3.3z"/>
  <path fill="#FFF" d="M741.1 583.6c-3.1 0-5.7-2.5-5.7-5.7v-41.1c0-3.1 2.5-5.7 5.7-5.7s5.7 2.5 5.7 5.7v41.1c0 3.2-2.5 5.7-5.7 5.7z"/>
  <path fill="#FFF" d="M761.8 563.1h-41.1c-3.1 0-5.7-2.5-5.7-5.7s2.5-5.7 5.7-5.7h41.1c3.1 0 5.7 2.5 5.7 5.7s-2.6 5.7-5.7 5.7z"/>
  <circle cx="1749.9" cy="336.4" r="7.4" fill="#373B3C" transform="translate(-1089.4 -161.7)"/>
  <path fill="#FCC02D" d="M784.9 104.6c-62.8-6.1-113.8 51-113.8 113.8 0 34.7 4.8 57.9 31.7 75.9 1.3.9 24.1-2.7 25.5-1.8 1.8 1.1 6.5 13.4 8.3 14.4 20.9 10.8 32.6 15.1 67 11.8 30.5-3.1 45.3-18.4 45.3-49.4 0-23 1.6-35.9-18.1-44.7l.2-.3c-12.1-5.1-31-10.5-31-24.4 0-8-12.5-14.9-7.9-20.6l5.5-11.2c5.4-7.1 10.9-10 10.9-19.6 0-23.2-.9-43.9-24.1-43.9h.5z"/>
  <path fill="#373B3C" d="M776.1 325.2c-12.9 0-25.2-1.5-36.7-4.4-3-.8-4.9-3.9-4.1-6.9s3.9-4.9 6.9-4.1c15.3 3.9 32.3 5 50.3 3.2 25.4-2.6 51.1-20.8 51.1-50.6 0-20-11.8-38.1-30.1-46.3-.7-.3-1.3-.7-1.8-1.2-13.4-6.6-21.9-20.2-21.9-35.3 0-8.5 2.8-16.8 7.8-23.6.2-.4.4-.7.6-1 4.9-6.4 7.4-14 7.4-22 0-20-16.3-36.3-36.3-36.3-.4 0-.8 0-1.3-.1-18.9-1.6-37.5 2.9-54.1 13-16.2 9.8-29.6 24.4-39 42.1-1.5 2.8-4.9 3.8-7.7 2.4-2.8-1.5-3.8-4.9-2.4-7.7 10.3-19.6 25.2-35.6 43.1-46.5 19-11.5 40.5-16.5 62.1-14.5 25.9.5 46.8 21.7 46.8 47.7 0 10.1-3.1 19.7-9 27.8-.2.4-.4.8-.7 1.2-4 5-6.1 11.1-6.1 17.5 0 11.3 6.7 21.4 17.1 25.8.7.3 1.3.7 1.9 1.3 21.2 10.3 34.8 32 34.8 55.7 0 32.2-25.8 58.2-61.3 61.9-5.8.6-11.7.9-17.4.9zM697.9 300c-1.2 0-2.5-.4-3.5-1.2-27.9-22.1-43.9-56.4-43.9-93.9 0-3.1 2.5-5.7 5.7-5.7s5.7 2.5 5.7 5.7c0 34.1 14.4 65.1 39.6 85.1 2.5 1.9 2.9 5.5.9 8-1.2 1.3-2.9 2-4.5 2z"/>
  <path fill="#FFF" d="M723.4 293.4l129.9-127.7 15 15-128.5 136.1"/>
  <path fill="#373B3C" d="M739.7 322.5c-1.4 0-2.8-.5-3.9-1.5-2.3-2.2-2.4-5.7-.2-8l124.8-132.1-7.1-7.1-125.9 123.7c-2.2 2.2-5.8 2.2-8-.1-2.2-2.2-2.2-5.8.1-8l129.9-127.6c2.2-2.2 5.8-2.2 8 0l15 15c2.2 2.2 2.2 5.7.1 7.9L743.9 320.8c-1.1 1.1-2.6 1.7-4.2 1.7z"/>
  <path fill="#373B3C" d="M685 364.9c-16.6 0-30.2-4.5-30.7-4.7-2-.7-3.5-2.4-3.8-4.5-.3-2.1.6-4.2 2.3-5.5 17.7-12.6 21.6-23 26.2-34.9 2.1-5.4 4.2-11 7.6-17.1 3.9-6.9 10.7-11.5 19.1-12.9 7.4-1.2 15.6.2 22.4 4 12.7 7.1 22.8 23.9 9.5 47.9-9.8 17.7-27.5 27.3-51.2 27.6-.5.1-.9.1-1.4.1zm-28.9-10zm12.6-2.9c16 2.8 45.4 4.1 58.9-20.3 11.6-21-1-30.2-5.1-32.5-8.6-4.8-21.1-4.1-26 4.6-3 5.3-5 10.5-6.9 15.5-3.9 10.4-8 21.1-20.9 32.7z"/>
  <path fill="none" d="M761.2 256.2l19 17.8"/>
  <path fill="#373B3C" d="M780.2 279.7c-1.4 0-2.8-.5-3.9-1.5l-19-17.8c-2.3-2.1-2.4-5.7-.3-8s5.7-2.4 8-.3l19 17.8c2.3 2.1 2.4 5.7.3 8-1.1 1.2-2.6 1.8-4.1 1.8z"/>
  <circle cx="1853.3" cy="300.6" r="15.5" fill="#FFF" transform="translate(-1089.4 -161.7)"/>
  <circle cx="1807" cy="336.4" r="15.5" fill="#FFF" transform="translate(-1089.4 -161.7)"/>
  <circle cx="1802" cy="395.2" r="15.5" fill="#FFF" transform="translate(-1089.4 -161.7)"/>
  <g fill="#0F60AC">
    <path d="M603.2 683.2h-207c-3.1 0-5.7-2.5-5.7-5.7s2.5-5.7 5.7-5.7h207c3.1 0 5.7 2.5 5.7 5.7s-2.5 5.7-5.7 5.7zm175.1 0H728c-3.1 0-5.7-2.5-5.7-5.7s2.5-5.7 5.7-5.7h50.3c3.1 0 5.7 2.5 5.7 5.7s-2.6 5.7-5.7 5.7zm-123 10.3c-1.5 0-2.9-.6-4-1.7-2.2-2.2-2.2-5.8 0-8l20.6-20.6c2.2-2.2 5.8-2.2 8 0s2.2 5.8 0 8l-20.6 20.6c-1.1 1.2-2.5 1.7-4 1.7z"/>
    <path d="M675.9 693.5c-1.5 0-2.9-.6-4-1.7l-20.6-20.6c-2.2-2.2-2.2-5.8 0-8s5.8-2.2 8 0l20.6 20.6c2.2 2.2 2.2 5.8 0 8-1.1 1.2-2.6 1.7-4 1.7z"/>
  </g>
  <g fill="#0F60AC">
    <path d="M226.4 58.1c-3.1 0-5.7-2.5-5.7-5.7V23.3c0-3.1 2.5-5.7 5.7-5.7s5.7 2.5 5.7 5.7v29.1c0 3.2-2.6 5.7-5.7 5.7z"/>
    <path d="M240.9 43.6h-29.1c-3.1 0-5.7-2.5-5.7-5.7s2.5-5.7 5.7-5.7h29.1c3.1 0 5.7 2.5 5.7 5.7s-2.5 5.7-5.7 5.7z"/>
  </g>
  <path fill="#0F60AC" d="M396.3 776c-1.5 0-2.9-.6-4-1.7l-15.4-15.4c-1.1-1.1-1.7-2.5-1.7-4s.6-2.9 1.7-4l15.4-15.4c1.1-1.1 2.5-1.7 4-1.7s2.9.6 4 1.7l15.4 15.4c1.1 1.1 1.7 2.5 1.7 4s-.6 2.9-1.7 4l-15.4 15.4c-1.1 1.1-2.6 1.7-4 1.7zm-7.4-21.1l7.4 7.4 7.4-7.4-7.4-7.4-7.4 7.4zm28.8-636.3H222.2c-3.1 0-5.7-2.5-5.7-5.7s2.5-5.7 5.7-5.7h195.5c3.1 0 5.7 2.5 5.7 5.7s-2.6 5.7-5.7 5.7zm165 0h-50.3c-3.1 0-5.7-2.5-5.7-5.7s2.5-5.7 5.7-5.7h50.3c3.1 0 5.7 2.5 5.7 5.7s-2.5 5.7-5.7 5.7zm-108.4 14.3c-1.5 0-2.9-.6-4-1.7l-14.4-14.4c-1.1-1.1-1.7-2.5-1.7-4s.6-2.9 1.7-4l14.4-14.4c2.2-2.2 5.8-2.2 8 0l14.4 14.4c1.1 1.1 1.7 2.5 1.7 4s-.6 2.9-1.7 4l-14.4 14.4c-1 1.1-2.4 1.7-4 1.7zm-6.3-20l6.3 6.3 6.3-6.3-6.3-6.3-6.3 6.3z"/>
  <path fill="#AA80CE" d="M225.2 324l-53.3 106.5s25.3 23.1 30.8 60.2h45.1c5.5-37.2 30.8-60.2 30.8-60.2L225.2 324zm0 125.2c-7.8 0-14.2-6.3-14.2-14.2 0-7.8 6.3-14.2 14.2-14.2 7.9 0 14.2 6.3 14.2 14.2-.1 7.9-6.4 14.2-14.2 14.2z"/>
  <path fill="#373B3C" d="M246.9 496.4h-45.1c-2.8 0-5.2-2.1-5.6-4.8-5.1-34.6-28.7-56.7-29-56.9-1.9-1.7-2.4-4.5-1.2-6.7l53.3-106.5c1-1.9 2.9-3.1 5.1-3.1s4.1 1.2 5.1 3.1L282.8 428c1.1 2.3.6 5-1.3 6.7-.2.2-23.9 22.3-29 56.9-.4 2.8-2.8 4.8-5.6 4.8zm-40.4-11.3H242c5.6-28.6 21.8-48.4 28.6-55.7l-46.4-92.7-46.4 92.7c6.9 7.3 23.1 27 28.7 55.7z"/>
  <path fill="#373B3C" d="M224.3 381.9c-3.1 0-5.7-2.5-5.7-5.7V324c0-3.1 2.5-5.7 5.7-5.7s5.7 2.5 5.7 5.7v52.2c0 3.2-2.6 5.7-5.7 5.7z"/>
  <g transform="translate(-1089.4 -161.7)">
    <circle cx="1313.7" cy="596.7" r="14.2" fill="#FFF"/>
    <path fill="#373B3C" d="M1313.7 616.6c-10.9 0-19.8-8.9-19.8-19.8s8.9-19.8 19.8-19.8 19.8 8.9 19.8 19.8-8.9 19.8-19.8 19.8zm0-28.4c-4.7 0-8.5 3.8-8.5 8.5s3.8 8.5 8.5 8.5 8.5-3.8 8.5-8.5-3.8-8.5-8.5-8.5z"/>
  </g>
  <path fill="#373B3C" d="M270.1 536.4c-3.1 0-5.7-2.5-5.7-5.7v-33.2h-80.3V525h10.8c3.1 0 5.7 2.5 5.7 5.7s-2.5 5.7-5.7 5.7h-16.5c-3.1 0-5.7-2.5-5.7-5.7v-38.9c0-3.1 2.5-5.7 5.7-5.7H270c3.1 0 5.7 2.5 5.7 5.7v38.9c.1 3.1-2.4 5.7-5.6 5.7z"/>
  <path fill="#373B3C" d="M253.6 590.6c-3.1 0-5.7-2.5-5.7-5.7v-50.3c0-3.1 2.5-5.7 5.7-5.7s5.7 2.5 5.7 5.7v50.3c0 3.1-2.5 5.7-5.7 5.7zm-58.6 0c-3.1 0-5.7-2.5-5.7-5.7v-54.2c0-3.1 2.5-5.7 5.7-5.7s5.7 2.5 5.7 5.7v54.2c-.1 3.1-2.6 5.7-5.7 5.7z"/>
  <circle cx="1313.7" cy="557.2" r="6.3" fill="#373B3C" transform="translate(-1089.4 -161.7)"/>
  <circle cx="1491.9" cy="708" r="6.3" fill="#373B3C" transform="translate(-1089.4 -161.7)"/>
  <path fill="#373B3C" d="M599.3 422.1h-27.2c-3.1 0-5.7-2.5-5.7-5.7v-27.2c0-3.1 2.5-5.7 5.7-5.7h27.2c3.1 0 5.7 2.5 5.7 5.7v27.2c0 3.1-2.6 5.7-5.7 5.7zm-21.6-11.4h15.9v-15.8h-15.9v15.8zm21.6 67.8h-27.2c-3.1 0-5.7-2.5-5.7-5.7v-27.2c0-3.1 2.5-5.7 5.7-5.7h27.2c3.1 0 5.7 2.5 5.7 5.7v27.2c0 3.1-2.6 5.7-5.7 5.7zm-21.6-11.4h15.9v-15.9h-15.9v15.9zm130.5-58.6H629c-3.1 0-5.7-2.5-5.7-5.7s2.5-5.7 5.7-5.7h79.2c3.1 0 5.7 2.5 5.7 5.7s-2.6 5.7-5.7 5.7zm0 56.4H629c-3.1 0-5.7-2.5-5.7-5.7s2.5-5.7 5.7-5.7h79.2c3.1 0 5.7 2.5 5.7 5.7s-2.6 5.7-5.7 5.7zM599.3 367h-27.2c-3.1 0-5.7-2.5-5.7-5.7v-27.2c0-3.1 2.5-5.7 5.7-5.7h27.2c3.1 0 5.7 2.5 5.7 5.7v27.2c0 3.1-2.6 5.7-5.7 5.7zm-21.6-11.4h15.9v-15.9h-15.9v15.9z"/>
</svg>
