<svg xmlns="http://www.w3.org/2000/svg" viewBox="111 156.7 834.9 481.3">
  <path fill="#FF5749" d="M888.4 631.4v-36c0-29.9 2.2-48.4-28.8-59.3l-1.9-7.6c-3.4.7-5.9-4.2-6.8-3.6-10.9 7.4-13.1 12.3-27.2 12.3s-28.5.8-39.4-6.5c-.9-.6-.8-2.4-1.8-2l-3.3 2.5c-24.1 14.1-36.8 34.3-36.8 64.2v36h146z"/>
  <path fill="#373B3C" d="M888.4 637.1c-3.1 0-5.7-2.5-5.7-5.7v-36c0-26.1-13.6-50.5-35.7-64.2-11.9 7.7-25.6 11.8-39.8 11.8-14.2 0-28-4.1-39.8-11.8-22.1 13.7-35.7 38.2-35.7 64.2v36c0 3.1-2.5 5.7-5.7 5.7s-5.7-2.5-5.7-5.7v-36c0-30.7 16.5-59.5 43-75l.4-.2.4-.2c2.8-1.1 5.9-.7 8.3 1 10.3 7 22.3 10.6 34.7 10.6 12.5 0 24.6-3.7 34.9-10.7 2.5-1.7 5.8-2 8.5-.7l.5.3c26.5 15.6 43 44.3 43 75v36c.1 3-2.5 5.6-5.6 5.6zM771.7 492.5h-7.8c-9.8 0-17.7-7.9-17.7-17.7v-24c0-9.8 7.9-17.7 17.7-17.7h7.8c3.1 0 5.7 2.5 5.7 5.7s-2.5 5.7-5.7 5.7h-7.8c-3.5 0-6.3 2.8-6.3 6.3v24c0 3.5 2.8 6.3 6.3 6.3h7.8c3.1 0 5.7 2.5 5.7 5.7s-2.5 5.7-5.7 5.7zm36.1 22.1c-8.6 0-15.7-7-15.7-15.7 0-8.6 7-15.7 15.7-15.7 8.6 0 15.7 7 15.7 15.7 0 8.6-7 15.7-15.7 15.7zm0-20c-2.4 0-4.3 1.9-4.3 4.3s1.9 4.3 4.3 4.3 4.3-1.9 4.3-4.3-1.9-4.3-4.3-4.3z"/>
  <path fill="#373B3C" d="M797.8 504.5h-14.1c-9.8 0-17.7-7.9-17.7-17.7v-52.9c.3-11.3 5.5-22.4 14.2-30.5 8-7.4 18-11.5 27.6-11.1 22.6.1 41 18.2 41.6 40.7h2.2c9.8 0 17.7 7.9 17.7 17.7v24c0 9.8-7.9 17.7-17.7 17.7h-7.8c-3.1 0-5.7-2.5-5.7-5.7V434c0-16.7-13.6-30.4-30.4-30.4h-.2c-6.6-.3-13.7 2.7-19.5 8.1-6.5 6-10.3 14.2-10.6 22.4v52.7c0 3.5 2.8 6.3 6.3 6.3h14.1c3.1 0 5.7 2.5 5.7 5.7s-2.5 5.7-5.7 5.7zm51.7-23.3h2.2c3.5 0 6.3-2.8 6.3-6.3v-24c0-3.5-2.8-6.3-6.3-6.3h-2.2v36.6z"/>
  <path fill="#B3B1B1" d="M344 631.4v-31.6c0-26.2.9-35.1-20.2-47.5l-6.2-8c-.8-.4-10.6-6.4-11.4-5.9-9.5 6.5-5.3 10.3-17.7 10.3-12.3 0-21.8 4-31.3-2.4-.8-.5-4.6-1.8-5.5-1.5l-4.3-1.8c-21.1 12.4-30.2 30.5-30.2 56.7v31.6H344v.1z"/>
  <path fill="#373B3C" d="M344 637.1c-3.1 0-5.7-2.5-5.7-5.7v-31.6c0-22.5-11.7-43.6-30.7-55.6-10.4 6.7-22.5 10.2-35 10.2s-24.5-3.5-35-10.2c-19 12-30.7 33.1-30.7 55.6v31.6c0 3.1-2.5 5.7-5.7 5.7s-5.7-2.5-5.7-5.7v-31.6c0-27.2 14.6-52.7 38.1-66.5l.4-.2.4-.2c2.6-1 5.6-.7 8 .9 8.9 6 19.3 9.2 30.1 9.2 10.9 0 21.3-3.2 30.2-9.3 2.4-1.6 5.5-1.9 8.2-.7l.5.3c23.5 13.8 38.1 39.2 38.1 66.5v31.6c.2 3.1-2.4 5.7-5.5 5.7z"/>
  <g fill="#373B3C">
    <path d="M240.9 509.9H234c-9 0-16.3-7.3-16.3-16.3v-21.2c0-9 7.3-16.3 16.3-16.3h6.9c3.1 0 5.7 2.5 5.7 5.7s-2.5 5.7-5.7 5.7H234c-2.7 0-4.9 2.2-4.9 4.9v21.2c0 2.7 2.2 4.9 4.9 4.9h6.9c3.1 0 5.7 2.5 5.7 5.7s-2.5 5.7-5.7 5.7zm31.8 19.4c-8 0-14.5-6.5-14.5-14.5s6.5-14.5 14.5-14.5 14.5 6.5 14.5 14.5-6.5 14.5-14.5 14.5zm0-17.6c-1.7 0-3.1 1.4-3.1 3.1 0 1.7 1.4 3.1 3.1 3.1s3.1-1.4 3.1-3.1c0-1.7-1.4-3.1-3.1-3.1z"/>
    <path d="M263.9 520.5h-12.4c-9 0-16.3-7.3-16.3-16.3v-46.6c.3-10.1 4.9-20.1 12.7-27.3 7.2-6.7 16.2-10.3 24.8-9.9 20 .1 36.4 16 37.3 35.8h1.3c9 0 16.3 7.3 16.3 16.3v21.2c0 9-7.3 16.3-16.3 16.3h-6.9c-3.1 0-5.7-2.5-5.7-5.7v-46.5c0-14.4-11.7-26.1-26.1-26.1h-.2c-5.6-.3-11.7 2.3-16.7 6.9-5.6 5.2-8.9 12.2-9.1 19.3v46.3c0 2.7 2.2 4.9 4.9 4.9h12.4c3.1 0 5.7 2.5 5.7 5.7s-2.6 5.7-5.7 5.7zm46.2-21.9h1.2c2.7 0 4.9-2.2 4.9-4.9v-21.2c0-2.7-2.2-4.9-4.9-4.9h-1.2v31z"/>
  </g>
  <path fill="#0F60AC" d="M462.2 250.5H354.8c-3.1 0-5.7-2.5-5.7-5.7s2.5-5.7 5.7-5.7h107.4c3.1 0 5.7 2.5 5.7 5.7s-2.6 5.7-5.7 5.7zm-223.6 0h-35c-3.1 0-5.7-2.5-5.7-5.7s2.5-5.7 5.7-5.7h35c3.1 0 5.7 2.5 5.7 5.7s-2.6 5.7-5.7 5.7zm58 14.3c-1.5 0-2.9-.6-4-1.7l-14.4-14.4c-2.2-2.2-2.2-5.8 0-8l14.4-14.4c1.1-1.1 2.5-1.7 4-1.7s2.9.6 4 1.7l14.4 14.4c2.2 2.2 2.2 5.8 0 8l-14.4 14.4c-1 1.1-2.5 1.7-4 1.7zm-6.3-20l6.3 6.3 6.3-6.3-6.3-6.3-6.3 6.3zm624.6 99.5h-59.2c-3.1 0-5.7-2.5-5.7-5.7s2.5-5.7 5.7-5.7h59.1c3.1 0 5.7 2.5 5.7 5.7s-2.5 5.7-5.6 5.7zm-107.7 9.6c-1.5 0-2.9-.6-4-1.7L784 333c-2.2-2.2-2.2-5.8 0-8s5.8-2.2 8 0l19.2 19.2c2.2 2.2 2.2 5.8 0 8-1.1 1.1-2.6 1.7-4 1.7z"/>
  <path fill="#0F60AC" d="M788 353.9c-1.5 0-2.9-.6-4-1.7-2.2-2.2-2.2-5.8 0-8l19.2-19.2c2.2-2.2 5.8-2.2 8 0s2.2 5.8 0 8L792 352.2c-1.1 1.1-2.5 1.7-4 1.7zm-53.9-9.6h-34.2c-3.1 0-5.7-2.5-5.7-5.7s2.5-5.7 5.7-5.7h34.2c3.1 0 5.7 2.5 5.7 5.7s-2.5 5.7-5.7 5.7z"/>
  <path fill="#71CFF4" d="M761.7 240.8c0 9.3 5 14.3-4.3 14.3l-24 2.7c-.3 0-14.8-.2-15.1.1l-15.3.1c-.8.8-13.8 13.5-13.8 12.3l-15.9 15.9c0-.7-2.1-4.8-2.8-4.8l-1.3-22.5c-3.2 0-24.4 1.3-24.4-2v-73.8c0-3.2 2.6-5.9 5.9-5.9h111.4c3.2 0 .7 6.8.7 10l-1.1 53.6z"/>
  <path fill="#373B3C" d="M669.3 295.9c-.7 0-1.5-.1-2.2-.4-2.1-.9-3.5-2.9-3.5-5.2v-26.8h-17.1c-12.4 0-22.4-10.1-22.4-22.4v-62c0-12.4 10.1-22.4 22.4-22.4H747c12.4 0 22.4 10.1 22.4 22.4v6.6c0 3.1-2.5 5.7-5.7 5.7s-5.7-2.5-5.7-5.7v-6.6c0-6.1-5-11.1-11.1-11.1H646.4c-6.1 0-11.1 5-11.1 11.1v62c0 6.1 5 11.1 11.1 11.1h22.7c3.1 0 5.7 2.5 5.7 5.7v18.8l22.7-22.7c1.1-1.1 2.5-1.7 4-1.7l45.5-.2c6.1 0 11.1-5 11.1-11.1v-7.7c0-3.1 2.5-5.7 5.7-5.7s5.7 2.5 5.7 5.7v7.7c0 12.4-10.1 22.4-22.4 22.4l-43.1.2-30.7 30.7c-1.1 1-2.5 1.6-4 1.6z"/>
  <circle cx="1766.2" cy="416.6" r="8.8" fill="#FFF" transform="translate(-1069.3 -206.9)"/>
  <circle cx="1732" cy="416.6" r="8.8" fill="#FFF" transform="translate(-1069.3 -206.9)"/>
  <circle cx="1800.3" cy="416.6" r="8.8" fill="#FFF" transform="translate(-1069.3 -206.9)"/>
  <circle cx="1833.2" cy="416.6" r="6.3" fill="#373B3C" transform="translate(-1069.3 -206.9)"/>
  <path fill="#E3E950" d="M171 394.4c0 6.2 10.1 1.3 16.3 1.3l25.2 10 10.4 11.4-2.2-21.9 19.6-.9c3.6 0 12.1-5.8 12.1-9.4l-4.8-31.5c0-3.6 6.5-10.3 2.9-10.3l-73-1.1c-3.6 0-6.5 2.9-6.5 6.5v45.9z"/>
  <path fill="#373B3C" d="M222.9 422.7c-1.5 0-2.9-.6-4-1.7l-21-21-29.5-.1c-9.6 0-17.4-7.8-17.4-17.4v-43.4c0-9.6 7.8-17.4 17.4-17.4h9.3c3.1 0 5.7 2.5 5.7 5.7s-2.5 5.7-5.7 5.7h-9.3c-3.3 0-6.1 2.7-6.1 6.1v43.4c0 3.3 2.7 6.1 6.1 6.1l31.8.1c1.5 0 2.9.6 4 1.7l12.9 12.9v-9.1c0-3.1 2.5-5.7 5.7-5.7h15.9c3.3 0 6.1-2.7 6.1-6.1v-43.4c0-3.3-2.7-6.1-6.1-6.1h-16.9c-3.1 0-5.7-2.5-5.7-5.7s2.5-5.7 5.7-5.7h16.9c9.6 0 17.4 7.8 17.4 17.4v43.4c0 9.6-7.8 17.4-17.4 17.4h-10.2v17.1c0 2.3-1.4 4.4-3.5 5.2-.7.5-1.4.6-2.1.6z"/>
  <circle cx="1270.8" cy="534.4" r="6.3" fill="#373B3C" transform="translate(-1069.3 -206.9)"/>
  <path fill="#FCC02D" d="M631.1 376.8c-2.5 17.4-8.6 28.3-19.5 40.6-12.8 14.5-21.3 21.4-42.1 21.4-21.6 0-39.6-.5-52.4-15.9-10-12-15.9-27.5-15.9-44.3 0-38.5 31.2-69.6 69.6-69.6 21.3 0 36.9 10.3 49.7 25.3 10.3 12 13.1 25.5 10.6 42.5z"/>
  <path fill="#373B3C" d="M550.1 359.9c-3.1 0-5.7-2.5-5.7-5.7 0-3.1-2.5-5.6-5.6-5.6s-5.6 2.5-5.6 5.6c0 3.1-2.5 5.7-5.7 5.7s-5.7-2.5-5.7-5.7c0-9.3 7.6-16.9 16.9-16.9s16.9 7.6 16.9 16.9c.2 3.2-2.4 5.7-5.5 5.7zm45.2 0c-3.1 0-5.7-2.5-5.7-5.7 0-3.1-2.5-5.6-5.6-5.6s-5.6 2.5-5.6 5.6c0 3.1-2.5 5.7-5.7 5.7s-5.7-2.5-5.7-5.7c0-9.3 7.6-16.9 16.9-16.9s16.9 7.6 16.9 16.9c.1 3.2-2.4 5.7-5.5 5.7zM561.4 415c-18 0-33.7-12.1-38.2-29.5-.8-3 1-6.1 4.1-6.9 3-.8 6.1 1 6.9 4.1 3.2 12.4 14.4 21 27.2 21 12.6 0 23.7-8.4 27.1-20.5.8-3 4-4.8 7-3.9 3 .8 4.8 4 3.9 7-4.7 16.8-20.3 28.7-38 28.7z"/>
  <path fill="#373B3C" d="M561.4 444.4c-41.5 0-75.3-33.8-75.3-75.3s33.8-75.3 75.3-75.3c16.9 0 33 5.5 46.3 15.9 2.5 1.9 2.9 5.5 1 8s-5.5 2.9-8 1c-11.3-8.8-24.9-13.5-39.3-13.5-35.3 0-63.9 28.7-63.9 63.9 0 35.3 28.7 63.9 63.9 63.9 35.3 0 63.9-28.7 63.9-63.9 0-5.9-.8-11.7-2.4-17.4-.8-3 .9-6.1 3.9-7 3-.8 6.1.9 7 3.9 1.9 6.6 2.8 13.5 2.8 20.4.1 41.6-33.7 75.4-75.2 75.4z"/>
  <circle cx="1689.3" cy="539.7" r="5.8" fill="#373B3C" transform="translate(-1069.3 -206.9)"/>
  <path fill="#373B3C" d="M634.4 637.1c-3.1 0-5.7-2.5-5.7-5.7v-72.2c0-1.7.7-3.2 2-4.3l35.4-30.5-50.8-56.2c-53.7 23.7-96.3 5.7-108-.3l-23.6 14.7c-2.7 1.7-6.2.8-7.8-1.8-1.7-2.7-.8-6.2 1.8-7.8l26.4-16.5c1.8-1.1 4.1-1.1 6 0 .1.1 11.6 7 30.2 10.4 24.7 4.5 49.6.9 74-10.6 2.3-1.1 5-.5 6.6 1.3l57.5 63.6c1 1.1 1.5 2.6 1.5 4.2s-.8 2.9-2 3.9l-37.8 32.5v69.6c0 3.1-2.6 5.7-5.7 5.7zm-145.1 0c-3.1 0-5.7-2.5-5.7-5.7v-50.8c0-3.1 2.5-5.7 5.7-5.7s5.7 2.5 5.7 5.7v50.8c0 3.1-2.5 5.7-5.7 5.7z"/>
  <path fill="#373B3C" d="M598 513.6c-1.4 0-2.8-.5-3.9-1.5l-29-27.1-24.6 26.8c-1.1 1.2-2.7 1.9-4.3 1.8-1.6 0-3.2-.8-4.2-2.1l-33.6-41.2c-2-2.4-1.6-6 .8-8s6-1.6 8 .8l29.5 36.1 24-26.2c1-1.1 2.4-1.8 4-1.8 1.5-.1 3 .5 4.1 1.5l27.8 26 17.3-32.8c1.5-2.8 4.9-3.8 7.7-2.4 2.8 1.5 3.8 4.9 2.4 7.7l-20.8 39.4c-.8 1.6-2.3 2.6-4.1 2.9-.5 0-.8.1-1.1.1z"/>
  <circle cx="1633.7" cy="725.3" r="5.8" fill="#373B3C" transform="translate(-1069.3 -206.9)"/>
  <circle cx="1633.7" cy="755.8" r="5.8" fill="#373B3C" transform="translate(-1069.3 -206.9)"/>
  <path fill="#AA80CE" d="M405.6 466.1c-3.2-4.6-2-10.9 2.6-14l13.4-8.7c4.5-3.1 5.6-9.3 2.5-13.8l-23.6-34.1c-3.1-4.5-9.3-5.6-13.8-2.5l-18.8 12.5c-5 3.5-7.5 9.6-6.2 15.6 3.3 16 12.3 48.6 34.4 80.5 22 31.9 49.3 51.8 63.1 60.6 5.2 3.3 11.8 3.2 16.8-.3l17.4-11.9c4.5-3.1 5.6-9.3 2.5-13.8l-23.6-34.1c-3.1-4.5-9.3-5.6-13.8-2.5l-12 8.2c-4.6 3.2-10.9 2-14-2.6l-26.9-39.1z"/>
  <path fill="#373B3C" d="M463.1 570c-3.9 0-7.8-1.1-11.3-3.3-5.7-3.7-11.5-7.8-17.3-12.2-2.5-1.9-2.9-5.5-1-8s5.5-2.9 8-1c5.4 4.2 10.9 8.1 16.4 11.6 3.3 2.1 7.4 2 10.6-.2l17.4-11.9c1.9-1.3 2.4-4 1.1-5.9L463.4 505c-.6-.9-1.6-1.6-2.7-1.8s-2.3 0-3.2.7l-12.1 8.2c-3.4 2.4-7.6 3.3-11.8 2.5-4.1-.8-7.7-3.1-10.1-6.5l-26.9-38.9c-4.9-7.2-3.1-17 4-21.9l.1-.1 13.4-8.7c1.9-1.3 2.4-4 1-5.9l-23.6-34.1c-.6-.9-1.6-1.6-2.7-1.8s-2.3 0-3.2.7c0 0-.1 0-.1.1l-18.7 12.4c-3.1 2.2-4.7 6-3.9 9.8 3.3 16 12.1 47.6 33.5 78.4 4.9 7 10.3 14 16.2 20.5 2.1 2.3 1.9 5.9-.4 8s-5.9 1.9-8-.4c-6.2-6.9-12-14.2-17.1-21.7-22.5-32.5-31.7-65.7-35.2-82.5-1.7-8.3 1.6-16.7 8.6-21.5 0 0 .1 0 .1-.1l18.7-12.4c3.4-2.3 7.5-3.2 11.6-2.5s7.7 3.1 10 6.5l23.6 34.1c4.9 7.1 3.1 16.8-4 21.7l-.1.1-13.4 8.7c-2 1.4-2.4 4.1-1.1 6.1l26.9 38.9c.7 1 1.7 1.6 2.8 1.8 1.2.2 2.3 0 3.3-.7l12.1-8.2c3.4-2.4 7.5-3.2 11.6-2.5s7.7 3.1 10 6.5l23.6 34.1c4.9 7.1 3.1 16.8-4 21.7l-17.4 11.9c-3.4 2.6-7.5 3.8-11.7 3.8zm-27.2-154.5c-.4 0-.8 0-1.2-.1-3.1-.7-5-3.7-4.3-6.8 2.9-13-5.3-25.8-18.3-28.7-3.1-.7-5-3.7-4.3-6.8.7-3.1 3.7-5 6.8-4.3 19.1 4.2 31.1 23.2 26.9 42.2-.6 2.7-3 4.5-5.6 4.5z"/>
  <path fill="#373B3C" d="M457.7 420.4c-.4 0-.8 0-1.2-.1-3.1-.7-5-3.7-4.3-6.8 5.5-25-10.3-49.8-35.3-55.3-3.1-.7-5-3.7-4.3-6.8s3.7-5 6.8-4.3c31.1 6.9 50.8 37.8 43.9 68.9-.6 2.6-3 4.4-5.6 4.4z"/>
  <circle cx="1491.6" cy="743.7" r="6.3" fill="#373B3C" transform="translate(-1069.3 -206.9)"/>
  <path fill="#373B3C" d="M940.2 638H116.7c-3.1 0-5.7-2.5-5.7-5.7s2.5-5.7 5.7-5.7h823.5c3.1 0 5.7 2.5 5.7 5.7s-2.6 5.7-5.7 5.7z"/>
</svg>
