<!--Generator: Adobe Illustrator 19.0.1, SVG Export Plug-In . SVG Version: 6.00 Build 0)-->
<svg xmlns="http://www.w3.org/2000/svg" width="28.57387" height="28.57387" viewBox="0 0 28.573871 28.573871">
  <g fill="#ff5749" transform="translate(-3.602 -3.226)">
    <path d="M24.1 14.8v14c0 .6-.4 1-1 1h-11c-.6 0-1-.4-1-1v-14h13m2-2h-17v16c0 1.7 1.3 3 3 3h11c1.7 0 3-1.3 3-3v-16z"/>
  </g>
  <path fill="none" stroke="#ff5749" stroke-width="2" stroke-miterlimit="10" d="M10.698408 24.373869V13.77387m3.3 10.599999V13.77387m3.299999 10.599999V13.77387"/>
  <g stroke="#ff5749" transform="translate(-3.602 -3.226)">
    <path fill="none" stroke-width="2" stroke-miterlimit="10" d="M10.1 6.8000002L26.4 11.5M14.1 8l.7-2.4c.3-1 1.3-1.6 2.3-1.3l4.7 1.3c1 .3 1.6 1.3 1.3 2.3l-.7 2.4"/>
  </g>
</svg>
