<?xml version="1.0" encoding="utf-8"?>
<!-- Generator: Adobe Illustrator 19.1.0, SVG Export Plug-In . SVG Version: 6.00 Build 0)  -->
<svg version="1.1" id="Layer_1" xmlns="http://www.w3.org/2000/svg" xmlns:xlink="http://www.w3.org/1999/xlink" x="0px" y="0px"
	 viewBox="0 0 28 28" style="enable-background:new 0 0 28 28;" xml:space="preserve">
<path style="fill-rule:evenodd;clip-rule:evenodd;fill:none;stroke:#000000;stroke-miterlimit:10;" d="M5.1,22.9"/>
<g>
	<path style="fill-rule:evenodd;clip-rule:evenodd;" d="M20.3,16.8c-0.1-0.1-0.3-0.2-0.6-0.4c-0.3-0.2-1.9-0.9-2.1-1
		c-0.3-0.1-0.5-0.2-0.7,0.2c-0.2,0.3-0.8,1-1,1.2c-0.2,0.2-0.4,0.2-0.7,0.1c-0.3-0.2-1.3-0.5-2.5-1.5c-0.9-0.8-1.6-1.8-1.7-2.2
		c-0.2-0.3,0-0.5,0.1-0.6c0.1-0.1,0.3-0.4,0.5-0.5c0.2-0.2,0.2-0.3,0.3-0.5c0.1-0.2,0.1-0.4,0-0.5c-0.1-0.2-0.7-1.7-1-2.3
		c-0.3-0.6-0.5-0.5-0.7-0.5c-0.2,0-0.4,0-0.6,0C9.3,8.1,9,8.2,8.7,8.5c-0.3,0.3-1.1,1.1-1.1,2.6c0,1.5,1.1,3,1.3,3.2
		c0.2,0.2,2.2,3.5,5.4,4.7c3.2,1.2,3.2,0.8,3.8,0.8c0.6-0.1,1.9-0.8,2.1-1.5C20.4,17.6,20.4,17,20.3,16.8L20.3,16.8z"/>
	<path style="fill-rule:evenodd;clip-rule:evenodd;fill:none;stroke:#000000;stroke-miterlimit:10;" d="M14,0.6
		C6.6,0.6,0.6,6.6,0.6,14c0,3.7,1.5,7.1,4,9.5L3,27.3l4.4-1.7c2,1.1,4.2,1.8,6.6,1.8c7.4,0,13.4-6,13.4-13.4S21.4,0.6,14,0.6z"/>
</g>
</svg>
