<?xml version="1.0" encoding="utf-8"?>
<!-- Generator: Adobe Illustrator 19.1.0, SVG Export Plug-In . SVG Version: 6.00 Build 0)  -->
<svg version="1.1" id="Layer_1" xmlns="http://www.w3.org/2000/svg" xmlns:xlink="http://www.w3.org/1999/xlink" x="0px" y="0px"
	 viewBox="0 0 28 28" style="enable-background:new 0 0 28 28;" xml:space="preserve">
<g>
	<circle style="fill-rule:evenodd;clip-rule:evenodd;fill:none;stroke:#000000;stroke-miterlimit:10;" cx="14" cy="14" r="13.4"/>
	<path d="M20.8,9.6H19V8c0-0.3-0.3-0.6-0.6-0.6H9.6C9.3,7.4,9,7.6,9,8v1.6H7.2c-0.3,0-0.6,0.3-0.6,0.6v6c0,0.3,0.3,0.6,0.6,0.6H9V20
		c0,0.2,0,0.4,0.2,0.5c0.1,0.1,0.2,0.1,0.2,0.1c0.1,0,0.2,0,0.3,0h8.6c0.1,0,0.2,0,0.3,0c0.1,0,0.2-0.1,0.2-0.1
		C19,20.3,19,20.2,19,20v-3.2h1.8c0.3,0,0.6-0.3,0.6-0.6v-6C21.4,9.9,21.2,9.6,20.8,9.6L20.8,9.6z M8.1,11.8c-0.3,0-0.5-0.2-0.5-0.5
		c0-0.3,0.2-0.5,0.5-0.5c0.3,0,0.5,0.2,0.5,0.5C8.6,11.5,8.4,11.8,8.1,11.8L8.1,11.8z M18.4,20H9.6v-4.8h8.8V20z M18.4,9.6H9.6v-1
		C9.6,8.2,9.9,8,10.2,8h7.6c0.3,0,0.6,0.3,0.6,0.6C18.4,8.9,18.4,9.3,18.4,9.6L18.4,9.6z M18.4,9.6"/>
</g>
</svg>
