<?xml version="1.0" encoding="utf-8"?>
<!-- Generator: Adobe Illustrator 19.1.0, SVG Export Plug-In . SVG Version: 6.00 Build 0)  -->
<svg version="1.1" id="Layer_1" xmlns="http://www.w3.org/2000/svg" xmlns:xlink="http://www.w3.org/1999/xlink" x="0px" y="0px"
	 viewBox="0 0 28 28" style="enable-background:new 0 0 28 28;" xml:space="preserve">
<g>
	<circle style="fill-rule:evenodd;clip-rule:evenodd;fill:none;stroke:#000000;stroke-miterlimit:10;" cx="14" cy="14" r="13.4"/>
	<path d="M8.3,9.6l4.8,3.7c0.5,0.4,1.3,0.4,1.8,0l4.8-3.7C20.2,9.3,20.1,9,19.5,9H8.5C7.9,9,7.8,9.3,8.3,9.6L8.3,9.6z M8.3,9.6"/>
	<path d="M20.4,9.6c-0.1,0.2-0.2,0.4-0.5,0.6l-4.5,3.5l3.3,2.3c0.1,0.1,0.2,0.3,0.1,0.5c0,0.1-0.1,0.2-0.2,0.2c0,0-0.1,0-0.1,0
		l-3.6-2.5c-0.3,0.1-0.6,0.2-0.9,0.2c-0.3,0-0.6-0.1-0.9-0.2l-3.5,2.5c0,0-0.1,0-0.1,0c-0.1,0-0.2-0.1-0.2-0.2
		c-0.1-0.2,0-0.4,0.1-0.5l3.2-2.3l-4.5-3.5C7.8,10,7.6,9.8,7.6,9.6c-0.1,0.2-0.1,0.4-0.1,0.7v7.4c0,0.7,0.5,1.3,1.1,1.3h11.1
		c0.6,0,1.1-0.6,1.1-1.3v-7.4C20.6,10.1,20.5,9.8,20.4,9.6L20.4,9.6z M20.4,9.6"/>
</g>
</svg>
