<?xml version="1.0" encoding="utf-8"?>
<!-- Generator: Adobe Illustrator 19.1.0, SVG Export Plug-In . SVG Version: 6.00 Build 0)  -->
<svg version="1.1" id="Layer_1" xmlns="http://www.w3.org/2000/svg" xmlns:xlink="http://www.w3.org/1999/xlink" x="0px" y="0px"
	 viewBox="0 0 28 28" style="enable-background:new 0 0 28 28;" xml:space="preserve">
<g>
	<circle style="fill-rule:evenodd;clip-rule:evenodd;fill:none;stroke:#000000;stroke-miterlimit:10;" cx="14" cy="14" r="13.4"/>
	<g>
		<defs>
			<rect id="SVGID_3_" x="7.9" y="6.6" width="12.2" height="14.7"/>
		</defs>
		<clipPath id="SVGID_1_">
			<use xlink:href="#SVGID_3_"  style="overflow:visible;"/>
		</clipPath>
		<path style="clip-path:url(#SVGID_1_);" d="M19.9,9.4c0-0.9-1.4-1-1.4-1l-3.3-0.2c0,0-0.1-0.9-0.7-1.2c-0.4-0.2-1.5-0.2-2.6-0.2
			c-0.2,0-0.5,0.2-0.5,0.5v2.1c0,0.3-0.3,0.6-0.6,0.6h-2c-0.5,0-0.9,0.2-0.9,0.6c0,0.4,0.6,5,1.5,5.9c0.5,0.5,3.5,0.9,4.1,0.9
			c0.6,0,0.4-1.9,0.6-1.9c0.2,0,0.4,1.1,1.4,1.3c1,0.2,2.3,0.2,2.4,0.9c0.1,0.9,0.2,2.2-0.4,2.2l-1.4,0.1c-0.4,0-0.4-1.1-0.3-1.1
			c0.1,0,0.3,0,0.3,0c0.2,0,0.3-0.1,0.3-0.3l0-0.6c0-0.2-0.1-0.3-0.3-0.3c-0.6,0-1.9,0.1-1.9,1.2c-0.1,1.4,0.1,2,0.3,2.1
			c0.2,0.1,0.5,0.4,3.1,0.4C21.2,21.4,19.9,10.3,19.9,9.4L19.9,9.4z M18.1,13.9c-0.1,0.1-0.5-0.3-0.8-0.3c-0.3,0-0.6,0.3-0.7,0.2
			c-0.1-0.1,0.1-0.9,0.7-0.9C17.8,12.9,18.1,13.8,18.1,13.9L18.1,13.9z M18.1,13.9"/>
	</g>
	<path d="M10.3,7.1L8.6,8.8c-0.1,0.1,0,0.4,0.1,0.4h1.6c0.1,0,0.2-0.1,0.2-0.2V7.2C10.6,7,10.4,6.9,10.3,7.1L10.3,7.1z M10.3,7.1"/>
</g>
</svg>
