<?xml version="1.0" encoding="utf-8"?>
<!-- Generator: Adobe Illustrator 19.1.0, SVG Export Plug-In . SVG Version: 6.00 Build 0)  -->
<svg version="1.1" id="Layer_1" xmlns="http://www.w3.org/2000/svg" xmlns:xlink="http://www.w3.org/1999/xlink" x="0px" y="0px"
	 viewBox="0 0 28 28" style="enable-background:new 0 0 28 28;" xml:space="preserve">
<g>
	<g>
		<g>
			<defs>
				<rect id="SVGID_3_" x="6" y="7.7" width="14.5" height="12.7"/>
			</defs>
			<clipPath id="SVGID_1_">
				<use xlink:href="#SVGID_3_"  style="overflow:visible;"/>
			</clipPath>
			<path style="clip-path:url(#SVGID_1_);" d="M6.2,13.7L9.6,15l1.3,4.2c0.1,0.3,0.4,0.4,0.6,0.2l1.9-1.5c0.2-0.2,0.5-0.2,0.7,0
				l3.4,2.4c0.2,0.2,0.6,0,0.6-0.2l2.5-11.9c0.1-0.3-0.2-0.6-0.5-0.4L6.2,13C5.9,13.1,5.9,13.6,6.2,13.7L6.2,13.7z M10.7,14.3l6.5-4
				c0.1-0.1,0.2,0.1,0.1,0.2l-5.4,5c-0.2,0.2-0.3,0.4-0.3,0.7l-0.2,1.4c0,0.2-0.3,0.2-0.3,0L10.4,15C10.3,14.7,10.4,14.4,10.7,14.3
				L10.7,14.3z M10.7,14.3"/>
		</g>
	</g>
	<circle style="fill-rule:evenodd;clip-rule:evenodd;fill:none;stroke:#000000;stroke-miterlimit:10;" cx="14" cy="14" r="13.4"/>
</g>
</svg>
