<svg xmlns="http://www.w3.org/2fff/svg" viewBox="0 0 58 58" width="58" height="58"><style/><g transform="translate(-645.7 1 -4883.95)"><path d="M674.7 6.951c-5.328 0-9.7 4.372-9.7 9.7 0 4.442 3.1 8.058 7.2 9.19v26.21h5V25.84c4.1-1.132 7.201-4.748 7.201-9.19 0-5.328-4.373-9.7-9.701-9.7zm0 5a4.663 4.663 0 0 1 4.701 4.7 4.665 4.665 0 0 1-4.701 4.7 4.663 4.663 0 0 1-4.7-4.7c0-2.626 2.075-4.7 4.7-4.7zM652.901 8.252V25.16c-4.1 1.133-7.201 4.747-7.201 9.19s3.101 8.059 7.201 9.191v8.51h5v-8.51c4.1-1.132 7.2-4.748 7.2-9.191 0-4.443-3.1-8.057-7.2-9.19V8.252h-5zm2.5 21.398c2.626 0 4.7 2.074 4.7 4.7a4.663 4.663 0 0 1-4.7 4.7 4.665 4.665 0 0 1-4.701-4.7c0-2.626 2.076-4.7 4.701-4.7zM691.5 8.451v25.71c-4.099 1.132-7.198 4.746-7.198 9.189 0 5.327 4.371 9.7 9.699 9.7 5.327 0 9.699-4.373 9.699-9.7 0-4.443-3.1-8.057-7.2-9.19V8.451h-5zm2.5 30.2c2.626 0 4.7 2.073 4.7 4.699a4.663 4.663 0 0 1-4.7 4.7 4.663 4.663 0 0 1-4.698-4.7c0-2.626 2.073-4.7 4.699-4.7z"/><ellipse cx="694.585" cy="4927.318" rx="5.558" ry="5.785"/><ellipse cx="698.328" cy="4931.742" rx="10.277" ry="6.352"/></g></svg>