<svg xmlns="http://www.w3.org/2000/svg" width="18.24" height="18.24" viewBox="0 0 17.100001 17.100001"><path d="M10.9.032H7c-1.7 0-3 .4-4 1.3-.9.8-1.4 1.9-1.4 3 0 1.7 1.2 3.5 3.6 3.5h.7v.1c-.1.2-.2.4-.2.8 0 .7.3 1.1.6 1.5h-.1c-1 .1-2.7.2-4 1-1.5.9-1.6 2.3-1.6 2.7 0 1.6 1.4 3.2 4.6 3.2 3.7 0 5.6-2.1 5.6-4.2 0-1.5-.9-2.3-1.8-3.1l-.8-.6c-.2-.2-.5-.5-.5-.9 0-.5.3-.8.6-1.1.8-.7 1.8-1.5 1.8-3.2 0-1.7-1-2.6-1.5-3h1.3l1.1-.7c-.1-.2 0-.2-.1-.3zm-4.8 16.1c-2.3 0-3.8-1.1-3.8-2.7 0-1.1.6-1.8 1.8-2.3 1-.3 2.2-.4 2.3-.4h.5c1.6 1.2 2.3 1.8 2.3 2.9.1 1.5-1.2 2.5-3.1 2.5zm0-9c-1.9 0-2.7-2.6-2.7-3.9 0-.7.2-1.2.5-1.6.3-.4.9-.7 1.5-.7 1.7 0 2.7 2.4 2.7 4.1 0 .3 0 1.1-.5 1.6-.4.3-1 .5-1.5.5zm0 0M16.4 7.932h-2.1v-2.1s0-.1-.1-.1h-.9s-.1 0-.1.1v2.1h-2.1s-.1 0-.1.1v.9s0 .1.1.1h2.1v2.1s0 .1.1.1h.9s.1 0 .1-.1v-2.1h2.1s.1 0 .1-.1v-.9s0-.098-.1-.1c0 .1 0 0 0 0z" class="st1"/></svg>