<svg xmlns="http://www.w3.org/2000/svg" width="18.031" height="18.031" viewBox="0 0 16.904055 16.904055"><path class="st1" d="M24.8 28.6c-1.3-.1-2.5-.5-3.5-1.2-.1-.1-.3-.2-.4-.3-.4-.4-.5-.9-.1-1.4.3-.4.8-.5 1.3-.3.1 0 .2.1.3.2 1.9 1.3 4.4 1.3 6.3.1.2-.1.4-.3.6-.3.4-.1.9.1 1.1.4.3.5.3.9-.1 1.2-.5.5-1.1.9-1.8 1.2-.7.3-1.4.4-2.1.5l.2.2 2.9 2.9c.3.3.4.7.2 1.1-.2.4-.6.7-1.1.7-.3 0-.5-.2-.7-.3l-2.2-2.2c-.2-.2-.3-.2-.5 0-.7.8-1.5 1.5-2.2 2.2-.3.3-.7.4-1.1.2-.4-.2-.7-.6-.7-1.1 0-.3.2-.5.4-.7.9-1 1.9-1.9 2.8-2.9.2-.1.3-.1.4-.2zm0 0M25.6 25.2c-2.3 0-4.2-1.9-4.2-4.3s1.9-4.3 4.2-4.3c2.3 0 4.2 1.9 4.2 4.3s-1.9 4.3-4.2 4.3zm2.1-4.3c0-1.2-.9-2.1-2.1-2.1-1.2 0-2.1.9-2.1 2.1 0 1.2.9 2.1 2.1 2.1 1.2 0 2.1-.9 2.1-2.1zm0 0" clip-path="url(#SVGID_2_)" transform="translate(-17.148 -16.7)"/></svg>