<svg xmlns="http://www.w3.org/2000/svg" width="50" height="50" viewBox="0 0 50 50">
    <path fill="#1CB7EB" fill-rule="nonzero" d="M25 50C11.193 50 0 38.807 0 25S11.193 0 25 0s25 11.193 25 25-11.193 25-25 25zm13.333-33.958c-.937.52-2.083.833-3.125.937 1.146-.729 1.98-1.875 2.396-3.229-1.041.625-2.187 1.146-3.541 1.458-1.042-1.146-2.396-1.875-3.959-1.875-3.02 0-5.52 2.604-5.52 5.938 0 .416 0 .937.104 1.354-4.584-.208-8.646-2.604-11.355-6.146-.52.834-.729 1.875-.729 3.021 0 2.083.938 3.854 2.396 4.896-.938 0-1.77-.313-2.5-.73v.105c0 2.812 1.875 5.208 4.375 5.833-.417.104-.938.209-1.458.209-.313 0-.73 0-1.042-.105.73 2.396 2.708 4.063 5.104 4.063-1.875 1.562-4.27 2.5-6.77 2.5-.417 0-.834 0-1.355-.104 2.396 1.666 5.313 2.708 8.438 2.708 10.104 0 15.625-8.958 15.625-16.77v-.73c1.25-1.042 2.187-2.083 2.916-3.333z"/>
</svg>
