<svg xmlns="http://www.w3.org/2000/svg" viewBox="0 0 25.000016 25.000016"><path d="M12.5 25c-5.5 0-10-4.6-10-10.3C2.5 9 7 4.4 12.5 4.4s10 4.6 10 10.3c0 5.7-4.5 10.3-10 10.3zm0-18.9c-4.6 0-8.3 3.8-8.3 8.6s3.7 8.6 8.3 8.6c4.6 0 8.3-3.8 8.3-8.6S17 6.1 12.5 6.1z"/><path d="M12.5 6.1c-.5 0-.9-.4-.9-.9V.9c0-.5.4-.9.9-.9s.9.4.9.9v4.3c-.1.5-.5.9-.9.9z"/><path d="M14.8 1.8H9.9c-.5 0-.9-.4-.9-.9s.4-.9.9-.9h4.9c.5 0 .9.4.9.9s-.4.9-.9.9zm-1.4 14.1c-.4.5-1.2.4-1.6-.1l-5-6.7 6.5 5.2c.5.4.5 1.2.1 1.6z"/></svg>