<?xml version="1.0" encoding="utf-8"?>
<!-- Generator: Adobe Illustrator 19.1.0, SVG Export Plug-In . SVG Version: 6.00 Build 0)  -->
<svg version="1.1" id="Layer_1" xmlns="http://www.w3.org/2000/svg" xmlns:xlink="http://www.w3.org/1999/xlink" x="0px" y="0px"
	 viewBox="0 0 52.5 54.2" style="enable-background:new 0 0 52.5 54.2;" xml:space="preserve">
<style type="text/css">
	.st0{fill:none;stroke:#010101;stroke-width:3;stroke-linecap:round;stroke-miterlimit:10;}
	.st1{fill:none;stroke:#1E1E1C;stroke-width:3;stroke-miterlimit:10;}
</style>
<path class="st0" d="M40.2,52.5V40.9"/>
<path class="st0" d="M46.7,47.3l-5.2-8.2c-0.7-0.7-1.9-0.7-2.6,0l-5,8.2"/>
<path class="st0" d="M26,50.1c-13.3,0-24-10.8-24-24S12.7,2,26,2s24,10.8,24,24c0,2.5-0.4,5-1.1,7.3"/>
<path class="st1" d="M15.1,19.6c0,0,1,7.8,0,10.5"/>
<path class="st1" d="M16.2,20.9c0,0,4-2.1,4.8,1c1,3.6-4.5,3.2-4.5,3.2"/>
<path class="st1" d="M24,18.8c0,0,2,6.7,1.5,10.9"/>
<path class="st1" d="M25.3,20.5c0,0,4.8-0.9,6.6,2.6c1.8,3.4-0.5,5.4-5.4,5.2"/>
<path class="st1" d="M35.6,18.8c0,0,1.9,7.7,1.2,11.3"/>
<line class="st1" x1="36" y1="20.4" x2="41" y2="18.5"/>
<line class="st1" x1="36.8" y1="24.8" x2="41" y2="23.2"/>
</svg>
