<svg xmlns="http://www.w3.org/2000/svg" width="11" height="19" viewBox="0 0 11 19">
    <path fill="#FF5749" fill-rule="nonzero" d="M2.444 9.5V2.969C2.444 1.336 3.82 0 5.5 0c1.68 0 3.056 1.336 3.056 2.969V9.5c0 1.633-1.375 2.969-3.056 2.969-1.68 0-3.056-1.336-3.056-2.969zM11 9.5a.604.604 0 0 0-.611-.594.604.604 0 0 0-.611.594c0 2.286-1.925 4.156-4.278 4.156-2.353 0-4.278-1.87-4.278-4.156a.604.604 0 0 0-.61-.594A.604.604 0 0 0 0 9.5c0 2.731 2.139 5.017 4.889 5.313v3.593c0 .327.274.594.611.594a.604.604 0 0 0 .611-.594v-3.593C8.861 14.517 11 12.231 11 9.5z"/>
</svg>
