<svg xmlns="http://www.w3.org/2000/svg" width="32" height="32" viewBox="0 0 32 32">
    <path fill="#FFF" fill-rule="evenodd" d="M16 32c8.837 0 16-7.163 16-16S24.837 0 16 0 0 7.163 0 16s7.163 16 16 16zm-.01-12.228c-.637.62-1.269 1.231-1.895 1.846-.219.216-.465.335-.779.319-.214-.012-.334-.106-.4-.31-.48-1.488-.966-2.973-1.443-4.463-.047-.144-.115-.215-.262-.26-1.13-.345-2.257-.698-3.383-1.056a1.924 1.924 0 0 1-.498-.23c-.231-.156-.265-.411-.058-.595.192-.17.42-.318.658-.412 1.382-.547 2.77-1.077 4.156-1.611l10.555-4.074c.67-.259 1.184.105 1.114.829-.044.463-.164.918-.261 1.375-.764 3.607-1.529 7.214-2.297 10.82-.182.857-.784 1.08-1.488.561-1.18-.87-2.36-1.743-3.54-2.614l-.179-.125zm-2.649 1.095l.04-.01c.007-.035.018-.068.02-.101.077-.818.157-1.635.223-2.454a.6.6 0 0 1 .214-.435c1.088-.973 2.17-1.952 3.253-2.929 1.2-1.082 2.4-2.162 3.594-3.248.074-.067.105-.181.156-.274-.113-.012-.233-.057-.336-.031-.139.036-.271.117-.395.195-2.648 1.668-5.293 3.338-7.942 5.002-.15.094-.177.174-.12.338.195.561.373 1.127.557 1.692l.736 2.255z"/>
</svg>
