<svg xmlns="http://www.w3.org/2000/svg" width="32" height="32" viewBox="0 0 32 32">
    <path fill="#FFF" fill-rule="evenodd" d="M17.85 11.191c.623.133 1.1.37 1.508.752.526.495.813 1.095.94 1.957.085.562.05.783-.149.966-.187.171-.531.177-.74.016-.152-.114-.2-.233-.234-.559-.041-.433-.117-.736-.247-1.017-.278-.596-.768-.906-1.597-1.007-.389-.047-.506-.091-.632-.24a.588.588 0 0 1 .177-.884c.12-.06.17-.066.436-.05.165.009.409.037.538.066zm-.674-2.384c1.92.28 3.406 1.171 4.38 2.617a6.272 6.272 0 0 1 1.006 2.798c.041.376.041 1.061-.003 1.175a.72.72 0 0 1-.287.313c-.124.063-.386.056-.532-.02-.243-.123-.316-.319-.316-.849 0-.818-.212-1.68-.579-2.35a4.803 4.803 0 0 0-1.765-1.834c-.635-.38-1.575-.66-2.431-.73-.31-.025-.481-.088-.598-.224a.575.575 0 0 1-.048-.714c.165-.255.418-.296 1.173-.182zM9.728 6.858c.111.038.282.127.38.19.6.398 2.274 2.536 2.821 3.603.313.61.417 1.061.32 1.396-.102.36-.27.55-1.019 1.152-.3.243-.582.493-.626.56-.114.163-.206.486-.206.713.003.527.345 1.484.794 2.22.348.572.97 1.304 1.587 1.866.725.663 1.363 1.115 2.085 1.472.927.46 1.492.578 1.907.385.104-.047.215-.11.25-.139.031-.029.275-.325.54-.654.513-.644.63-.748.98-.868.447-.152.902-.11 1.36.123.349.18 1.108.65 1.598.992.645.451 2.024 1.575 2.21 1.8.33.404.386.921.165 1.493-.234.603-1.145 1.734-1.78 2.217-.576.436-.984.603-1.522.628-.442.022-.626-.016-1.192-.25-4.44-1.828-7.985-4.556-10.8-8.304-1.47-1.958-2.59-3.989-3.356-6.095-.445-1.228-.467-1.762-.1-2.39.157-.265.831-.922 1.321-1.288.816-.607 1.192-.831 1.493-.894.206-.044.563-.01.79.073zm7.23-.34a8.816 8.816 0 0 1 2.932.868c.949.464 1.556.903 2.36 1.702.752.755 1.17 1.326 1.612 2.214.617 1.237.968 2.709 1.028 4.329.022.552.006.675-.12.834-.24.306-.769.255-.949-.089-.057-.114-.073-.212-.092-.654a11.438 11.438 0 0 0-.174-1.642c-.373-2.056-1.36-3.697-2.935-4.876-1.312-.985-2.669-1.465-4.446-1.569-.601-.035-.705-.057-.842-.161-.253-.199-.265-.666-.022-.884.149-.136.253-.155.769-.14.269.01.664.042.88.067zM16 0c8.837 0 16 7.163 16 16s-7.163 16-16 16S0 24.837 0 16 7.163 0 16 0z"/>
</svg>
