<svg xmlns="http://www.w3.org/2000/svg" viewBox="0 0 44.8 47.2"><path d="M44 3.2h-5.6V.8c0-.4-.4-.8-.8-.8H32c-.4 0-.8.4-.8.8v2.4H13.6V.8c0-.4-.4-.8-.8-.8H7.2c-.4 0-.8.4-.8.8v2.4H.8c-.4 0-.8.4-.8.8v43.2c0 .4.4.8.8.8H44c.4 0 .8-.4.8-.8V4c0-.4-.4-.8-.8-.8zM32.8 1.6h4v4.8h-4V1.6zM8 1.6h4v4.8H8V1.6zM1.6 4.8h4.8v2.4c0 .4.4.8.8.8h5.6c.4 0 .8-.4.8-.8V4.8h17.6v2.4c0 .4.4.8.8.8h5.6c.4 0 .8-.4.8-.8V4.8h4.8V12H1.6V4.8zm0 41.6V13.6h41.6v32.8H1.6zm0 0"/><path d="M28.8 18.4H7.2v23.2h30.4V18.4h-8.8zM23.2 20h5.6v5.6h-5.6V20zm5.6 12.8h-5.6v-5.6h5.6v5.6zM16 27.2h5.6v5.6H16v-5.6zm0-7.2h5.6v5.6H16V20zm-7.2 0h5.6v5.6H8.8V20zm0 7.2h5.6v5.6H8.8v-5.6zM14.4 40H8.8v-5.6h5.6V40zm7.2 0H16v-5.6h5.6V40zm7.2 0h-5.6v-5.6h5.6V40zm7.2 0h-5.6v-5.6H36V40zm0-7.2h-5.6v-5.6H36v5.6zM36 20v5.6h-5.6V20H36zm0 0"/></svg>