<svg xmlns="http://www.w3.org/2000/svg" width="32" height="32" viewBox="0 0 32 32">
    <path fill="#FFF" fill-rule="evenodd" d="M16.981 22.603c-2.57.136-3.773-.444-4.875-1.498-1.231-1.179-.737-2.522.266-2.59 1.002-.068 1.603 1.158 2.138 1.5.535.34 2.567 1.115 3.64-.138 1.17-1.362-.777-2.066-2.204-2.28-2.037-.307-4.609-1.431-4.409-3.646.2-2.213 1.844-3.348 3.573-3.508 2.205-.204 3.64.34 4.776 1.329 1.312 1.141.602 2.417-.234 2.52-.833.102-1.768-1.878-3.606-1.907-1.893-.03-3.173 2.01-.835 2.588 2.338.58 4.843.817 5.745 2.997.902 2.18-1.402 4.496-3.975 4.633zm7.249-5.186c.048-.363.076-.732.076-1.107 0-4.505-3.618-8.157-8.08-8.157-.445 0-.88.037-1.303.108a4.756 4.756 0 0 0-2.634-.794c-2.664 0-4.822 2.19-4.822 4.893 0 .983.285 1.897.776 2.664-.066.42-.1.849-.1 1.285 0 4.505 3.616 8.157 8.08 8.157.504 0 .995-.05 1.472-.137a4.77 4.77 0 0 0 2.55.738c2.663 0 4.822-2.19 4.822-4.894a4.918 4.918 0 0 0-.837-2.756zM16 32C7.164 32 0 24.836 0 16 0 7.163 7.164 0 16 0s16 7.163 16 16c0 8.836-7.164 16-16 16z"/>
</svg>
