<svg xmlns="http://www.w3.org/2000/svg" xmlns:xlink="http://www.w3.org/1999/xlink" width="24" height="24" viewBox="0 0 24 24">
    <defs>
        <path id="a" d="M8.877 18a8.745 8.745 0 0 0 4.63-1.32A9.022 9.022 0 0 0 17.753 9c0-4.97-3.974-9-8.876-9C3.974 0 0 4.03 0 9s3.974 9 8.877 9z"/>
    </defs>
    <g fill="none" fill-rule="evenodd" transform="translate(3.247 3)">
        <use fill="#FF5749" xlink:href="#a"/>
        <path stroke="#F6F6F6" stroke-width="3" d="M8.877 19.5c1.94 0 3.803-.54 5.422-1.546A10.52 10.52 0 0 0 19.253 9c0-5.794-4.64-10.5-10.376-10.5S-1.5 3.206-1.5 9 3.141 19.5 8.877 19.5z"/>
        <path stroke="#FFF" stroke-linecap="round" d="M5.017 13.372a4.718 4.718 0 0 1 4.012-2.214c1.7 0 3.188.888 4.016 2.22"/>
        <ellipse cx="5.918" cy="6.857" fill="#FFF" rx="1" ry="1"/>
        <ellipse cx="11.836" cy="6.857" fill="#FFF" rx="1" ry="1"/>
    </g>
</svg>
