<svg xmlns="http://www.w3.org/2000/svg" viewBox="0 0 58 58" width="58" height="58"><style/><path d="M29 5.951c-5.328 0-9.7 4.372-9.7 9.7 0 4.442 3.1 8.058 7.2 9.19v26.21h5V24.84c4.1-1.132 7.201-4.748 7.201-9.19 0-5.328-4.373-9.7-9.701-9.7zm0 5a4.663 4.663 0 0 1 4.701 4.7A4.665 4.665 0 0 1 29 20.35a4.663 4.663 0 0 1-4.7-4.7c0-2.626 2.075-4.7 4.7-4.7zM7.201 7.252V24.16C3.101 25.293 0 28.907 0 33.35s3.101 8.059 7.201 9.191v8.51h5v-8.51c4.1-1.132 7.2-4.748 7.2-9.191 0-4.443-3.1-8.057-7.2-9.19V7.252h-5zm2.5 21.398c2.626 0 4.7 2.074 4.7 4.7a4.663 4.663 0 0 1-4.7 4.7A4.665 4.665 0 0 1 5 33.35c0-2.626 2.076-4.7 4.701-4.7zM45.8 7.451v25.71c-4.099 1.132-7.198 4.746-7.198 9.189 0 5.327 4.371 9.7 9.699 9.7 5.327 0 9.699-4.373 9.699-9.7 0-4.443-3.1-8.057-7.2-9.19V7.451h-5zm2.5 30.2c2.626 0 4.7 2.073 4.7 4.699a4.663 4.663 0 0 1-4.7 4.7 4.663 4.663 0 0 1-4.698-4.7c0-2.626 2.073-4.7 4.699-4.7z"/></svg>