<svg xmlns="http://www.w3.org/2000/svg" viewBox="0 0 28.2 28.200001" width="28.2" height="28.2"><style/><path class="st0" d="M.113 7.1c0-.7.1-1.3.3-1.9.2-.6.4-1.2.7-1.7.3-.5.7-1 1.1-1.4.4-.5.9-.8 1.4-1.1.5-.3 1.1-.6 1.7-.7.6-.2 1.2-.3 1.9-.3.6 0 1.3.1 1.9.3.6.2 1.2.4 1.7.7.5.3 1 .7 1.4 1.1.4.4.8.9 1.1 1.4.3.5.5 1.1.7 1.7.2.6.3 1.2.3 1.9s-.1 1.3-.3 1.9c-.2.6-.4 1.2-.7 1.7-.3.5-.7 1-1.1 1.4-.4.4-.9.8-1.4 1.1-.5.3-1.1.5-1.7.7-.6.2-1.2.3-1.9.3s-1.3-.1-1.9-.3c-.6-.2-1.2-.4-1.7-.7-.5-.3-1-.7-1.4-1.1-.4-.4-.8-.9-1.1-1.4-.3-.5-.6-1.1-.7-1.7-.2-.6-.3-1.2-.3-1.9zm2.8 0c0 .6.1 1.2.3 1.8.2.5.5 1 .9 1.4.4.4.8.7 1.4 1 .5.2 1.1.4 1.7.4.6 0 1.2-.1 1.7-.4.5-.2 1-.6 1.4-1 .4-.4.7-.9.9-1.4.2-.5.3-1.1.3-1.8 0-.6-.1-1.2-.3-1.8-.2-.6-.5-1-.9-1.4-.4-.4-.8-.7-1.4-1-.5-.2-1.1-.3-1.7-.3-.6 0-1.2.1-1.7.4-.5.2-1 .6-1.4 1-.4.3-.7.8-.9 1.3-.2.6-.3 1.2-.3 1.8zM27.813 15.1c.1.1.2.1.2.2v.4l-.9 1.5c-.1.1-.2.2-.3.2-.1 0-.2 0-.3-.1-.4-.3-.8-.5-1.2-.6-.4-.2-.9-.2-1.4-.2-.6 0-1.2.1-1.7.4-.5.2-1 .6-1.4 1-.4.4-.7.9-.9 1.4-.2.5-.3 1.1-.3 1.8 0 .6.1 1.2.3 1.8.2.5.5 1 .9 1.4.4.4.8.7 1.4 1 .5.2 1.1.4 1.7.4.5 0 1-.1 1.4-.2.5-.2.9-.4 1.2-.6.1-.1.2-.1.3-.1.1 0 .2.1.3.2l.9 1.5c.1.1.1.2 0 .3 0 .1-.1.2-.2.2-.6.4-1.2.7-1.9.9-.7.2-1.4.3-2.1.3-.7 0-1.3-.1-1.9-.2-.6-.2-1.2-.4-1.7-.7-.5-.3-1-.7-1.4-1.1-.4-.4-.8-.9-1.1-1.4-.3-.5-.5-1.1-.7-1.7-.2-.6-.3-1.2-.3-1.9s.1-1.3.3-1.9c.2-.6.4-1.2.7-1.7.3-.5.7-1 1.1-1.4.4-.4.9-.8 1.4-1.1.5-.3 1.1-.5 1.7-.7.6-.2 1.2-.3 1.9-.3s1.4.1 2.1.3c.7 0 1.3.3 1.9.7zM9.013 23.9l15.4-18.6c.1-.1 0-.4-.2-.6l-1.1-.9c-.2-.2-.5-.3-.6-.1l-15.5 18.5c-.1.1 0 .4.2.6l1.1.9c.3.3.6.3.7.2z"/></svg>