<svg xmlns="http://www.w3.org/2000/svg" width="612" height="612" viewBox="0 0 612 612"><path d="M306 0C137.7 0 0 137.7 0 306s137.7 306 306 306 306-137.7 306-306C612 135.788 474.3 0 306 0zm135.787 242.888v9.563c0 89.888-68.85 195.075-195.075 195.075-38.25 0-74.587-11.476-105.188-30.601 5.738 0 11.475 1.913 17.212 1.913 32.513 0 61.2-11.476 84.15-28.688-30.6 0-55.463-21.038-63.113-47.813 3.825 0 7.65 1.912 13.388 1.912 5.737 0 11.475 0 17.212-1.912-30.6-5.738-55.462-34.426-55.462-66.938 9.563 5.738 19.125 7.65 30.6 7.65-19.125-11.475-30.6-32.512-30.6-57.375 0-13.387 3.825-24.862 9.563-34.425C198.9 233.325 248.625 260.1 306 262.013c-1.912-5.738-1.912-9.563-1.912-15.3 0-38.25 30.6-68.85 68.85-68.85 19.125 0 38.25 7.65 49.725 21.038 15.301-3.825 30.601-9.563 43.988-17.212-5.738 15.3-15.301 28.688-30.601 38.25 13.388-1.913 26.775-5.737 40.163-11.475-9.563 13.386-21.038 24.861-34.426 34.424z"/></svg>