<svg xmlns="http://www.w3.org/2000/svg" viewBox="0 0 55.964842 55.964845" height="55.965" width="55.965"><path d="M33.559 38.946c-.159-1.762-.098-2.992-.098-4.603.798-.419 2.228-3.089 2.469-5.344.628-.052 1.617-.664 1.907-3.081.157-1.298-.464-2.028-.843-2.258 1.021-3.071 3.142-12.572-3.923-13.554-.728-1.277-2.589-1.923-5.008-1.923-9.681.178-10.848 7.31-8.726 15.477-.377.23-.998.96-.843 2.258.291 2.417 1.279 3.029 1.907 3.081.24 2.254 1.727 4.925 2.528 5.344 0 1.61.06 2.841-.1 4.603-1.379 3.706-8.459 3.996-12.544 7.57 4.271 4.3 11.192 7.376 18.495 7.376 7.304 0 15.888-5.766 17.317-7.34-4.059-3.607-11.156-3.886-12.538-7.606"/><path d="M27.982 0C12.544 0 0 12.544 0 27.982c0 15.44 12.544 27.983 27.982 27.983 15.44 0 27.983-12.544 27.983-27.983C55.965 12.544 43.42 0 27.982 0zm0 2.6c14.034 0 25.383 11.349 25.383 25.382 0 14.034-11.35 25.381-25.383 25.381s-25.38-11.347-25.38-25.38C2.602 13.948 13.949 2.6 27.982 2.6z"/></svg>