<svg xmlns="http://www.w3.org/2000/svg" width="50" height="51" viewBox="0 0 50 51">
    <path fill="#FC5F50" fill-rule="nonzero" d="M50 25.211c0 13.807-11.193 25-25 25s-25-11.193-25-25 11.193-25 25-25 25 11.193 25 25zM8.704 26.33c-.09 4.302 2.874 8.405 6.948 9.744 3.84 1.29 8.56.326 11.113-2.962 1.867-2.304 2.289-5.375 2.089-8.245-3.288-.028-6.576-.02-9.86-.013-.004 1.17 0 2.337.007 3.508 1.967.054 3.936.03 5.905.07-.498 1.703-1.63 3.287-3.346 3.901-3.319 1.462-7.55-.446-8.593-3.928-1.262-3.331.8-7.352 4.206-8.32 2.113-.745 4.287.093 6.095 1.19.914-.855 1.771-1.772 2.613-2.696-2.054-1.717-4.691-2.77-7.402-2.54-5.32.064-9.977 4.975-9.775 10.29zm26.547-4.43c-.01.98-.02 1.964-.024 2.943-.985.01-1.965.013-2.944.02v2.933c.98.005 1.965.009 2.944.02.009.979.009 1.959.02 2.942.972 0 1.954-.005 2.933 0 .004-.983.009-1.963.02-2.947.979-.006 1.962-.01 2.941-.015v-2.933c-.979-.005-1.962-.01-2.941-.02-.008-.979-.016-1.962-.02-2.944h-2.929z"/>
</svg>
