<svg xmlns="http://www.w3.org/2000/svg" width="50" height="51" viewBox="0 0 50 51">
    <path fill="#609EDF" fill-rule="nonzero" d="M24.822 50.123C11.113 50.123 0 39.01 0 25.301S11.113.48 24.822.48s24.822 11.113 24.822 24.822-11.113 24.822-24.822 24.822zm-.937-13.935h1.948s.588-.065.889-.389c.276-.297.267-.855.267-.855s-.038-2.615 1.176-3c1.196-.379 2.731 2.527 4.36 3.644 1.23.846 2.166.66 2.166.66l4.352-.06s2.277-.14 1.198-1.93c-.089-.147-.63-1.325-3.237-3.745-2.729-2.534-2.363-2.124.924-6.506 2.003-2.668 2.803-4.297 2.553-4.995-.239-.665-1.711-.49-1.711-.49l-4.901.031s-.363-.05-.633.112c-.263.158-.432.526-.432.526s-.776 2.065-1.81 3.821c-2.183 3.706-3.056 3.902-3.412 3.671-.83-.536-.623-2.154-.623-3.304 0-3.59.545-5.088-1.06-5.476-.533-.128-.925-.213-2.287-.227-1.75-.018-3.23.005-4.067.416-.558.273-.988.881-.726.916.324.044 1.058.198 1.446.728.503.683.485 2.217.485 2.217s.288 4.228-.674 4.753c-.66.36-1.567-.375-3.512-3.737-.997-1.722-1.75-3.626-1.75-3.626s-.145-.356-.404-.546c-.314-.23-.753-.304-.753-.304L9 18.523s-.7.02-.956.324c-.228.27-.018.83-.018.83s3.646 8.53 7.774 12.829c3.786 3.94 8.085 3.682 8.085 3.682z"/>
</svg>
