<svg xmlns="http://www.w3.org/2000/svg" viewBox="0 0 225.4 40.103122" width="225.4" height="40.103"><style/><path d="M225.4 19.8L205.6 0h-30.7v8h27.4l11.8 11.8-11.8 11.8h-27.4v8h30.7zM128.7.1h8.3l9.9 13.8c1.2 1.7 2.2 3.1 3.1 4.7h.1c.7-1.4 1.7-3.1 2.9-5L161.9.1h8.3v39.4H161v-20c0-1.4 0-3.1.1-4.2h-.1c-.4.8-2 3.2-2.6 4.2L149.9 32l-9.3-13c-.8-1.1-1.8-2.3-2.6-3.8h-.1c.1 1.3.1 2.9.1 3.9v20.4h-9.2V.1zM90.3 33c-1.3-2.2-1.9-5.1-1.9-8.6V.1h9.2v23.8c0 2 .4 3.8 1.2 5.1 1.4 2.3 3.9 3.5 7.2 3.5 3.3 0 5.8-1.2 7.2-3.5.8-1.3 1.2-3.1 1.2-5.1V.1h9.2v24.3c0 3.4-.7 6.3-1.9 8.6-2.8 4.9-8.3 7.1-15.6 7.1-7.6.1-13.1-2.2-15.8-7.1zm-27.7-7.3L48.9.1h9.9l8.5 16.1h.1L76 .1h9.8l-14 25.7v13.8h-9.2V25.7zM32.8 7.9H17L14.7.2h32.5L28.4 31.8H47v7.7H13.4L32.8 7.9zM0 .1h9.2v39.4H0V.1z"/></svg>