<svg xmlns="http://www.w3.org/2000/svg" viewBox="0 0 80.800003 26.100001" width="80.8" height="26.1"><style/><path d="M70.9 13.9c0-.3.1-.4.4-.4h5.1c.6 0 1.1.1 1.6.3.5.2.9.5 1.3.9s.7.8.9 1.3c.2.5.3 1 .3 1.6 0 .4 0 .7-.1 1.1-.1.3-.2.7-.4 1-.2.3-.4.6-.6.8-.3.2-.5.5-.8.6l2.2 4.5c0 .1 0 .2-.1.2-.2.2-.3.2-.5.2h-2c-.2 0-.3-.1-.3-.3L76 21.6h-2.6v4c0 .2-.1.4-.4.4h-1.7c-.1 0-.2 0-.3-.1-.1-.1-.1-.1-.1-.3V13.9zm7.2 3.7c0-.2 0-.4-.1-.6-.1-.2-.2-.4-.4-.6-.2-.2-.3-.3-.6-.4-.2-.1-.5-.2-.7-.2h-2.9v3.6h2.9c.3 0 .5 0 .7-.1.2-.1.4-.2.5-.4.1-.2.3-.4.3-.6.2-.3.3-.5.3-.7zm-18-3.7c0-.3.1-.4.4-.4h8.1c.1 0 .3 0 .3.1.1.1.1.2.1.3v1.5c0 .1 0 .2-.1.3-.1.1-.2.1-.3.1h-6v2.6h4.6c.1 0 .2 0 .3.1.1.1.1.2.1.3v1.5c0 .1 0 .2-.1.3-.1.1-.1.1-.3.1h-4.6v3.1h6.2c.2 0 .3 0 .3.1.1.1.1.2.1.3v1.5c0 .2-.1.4-.4.4h-8.4c-.1 0-.2 0-.3-.1-.1-.1-.1-.1-.1-.3V13.9zM48 13.8c0-.1 0-.2.1-.3.1-.1.2-.1.3-.1h1.8s.1 0 .1.1l.1.1v5.2l4.7-5.1c.1-.2.2-.3.4-.3H58c.2 0 .2 0 .2.1 0 0 0 .1-.1.2l-4.5 5.2 5.2 6.7c.1.1.1.2.1.2 0 .1-.1.1-.2.1h-2.6c-.1 0-.3-.1-.4-.3l-4-5.1-1.4 1.5v3.5c0 .2-.1.4-.4.4h-1.7c-.2 0-.4-.1-.4-.4V13.8zM10.1.7c0-.1 0-.2.1-.3.1-.1.2-.1.3-.1h8.6c.1 0 .2 0 .3.1.1.1.1.2.1.3v1.5c0 .1 0 .2-.1.3-.1.1-.2.1-.3.1H16v9.9l-.1.1-.1.1H14h-.1l-.1-.1-.1-.1V2.6h-3.1c-.1 0-.2 0-.3-.1-.1-.1-.1-.2-.1-.3V.7zM7.7 3.6c-.1 0-.1 0-.2-.1-.1 0-.1-.1-.2-.1-.1-.1-.3-.2-.4-.4l-.6-.3c-.2-.1-.4-.2-.7-.3-.2-.1-.4-.1-.7-.1-.3 0-.6 0-.8.1-.3.1-.5.2-.6.3-.2.1-.3.2-.4.4-.1.2-.1.3-.1.5s0 .4.2.6c.2.2.3.3.5.4.2.1.5.2.7.3l.9.3c.5.2 1.1.3 1.6.5s1 .4 1.4.7c.4.3.7.6 1 1 .3.4.4.9.4 1.5s-.1 1.2-.4 1.7c-.2.5-.6.9-1 1.3s-.9.6-1.5.8c-.7.2-1.3.3-2 .3-.4 0-.9-.1-1.3-.2s-.8-.2-1.2-.4c-.4-.2-.8-.4-1.1-.7-.4-.3-.7-.6-.9-.9-.2-.1-.3-.3-.3-.4 0-.1.1-.2.2-.4l.1-.1.2-.2c.1-.1.2-.2.3-.2 0-.1.1-.1.2-.2s.2-.1.3-.2c.1-.1.2-.1.2-.1.1 0 .2 0 .2.1.1.1.1.1.2.1.2.2.4.4.7.5.2.2.5.3.8.5.3.1.5.2.8.3.3.1.5.1.7.1.3 0 .6 0 .9-.1.3-.1.5-.2.7-.3.2-.1.4-.3.5-.5V9c0-.2 0-.4-.2-.6-.1-.2-.3-.3-.6-.5-.2-.1-.5-.2-.8-.3l-.9-.3c-.6-.2-1.2-.4-1.8-.7-.5-.2-.9-.5-1.2-.8-.3-.3-.6-.6-.8-1C.5 4.4.4 4 .4 3.6c0-.5.1-1 .3-1.4.3-.5.6-.9.9-1.2C2 .7 2.5.5 3 .3 3.5.1 4.2 0 4.8 0c.5 0 1 .1 1.6.2.6.3 1.1.5 1.5.8.1 0 .3.1.4.2.1.1.3.2.4.3l.3.3c.1.1.1.2.1.3 0 .1 0 .1-.1.2 0 .1-.1.1-.1.2l-.3.3-.3.3-.3.3c.1 0 0 .1-.1.1-.1.1-.1.1-.2.1zM28.3 22L42.5 4.9c.1-.1 0-.4-.2-.6l-1-.8c-.2-.2-.5-.2-.6-.1L26.5 20.5c-.1.1 0 .4.2.6l1 .8c.3.2.5.2.6.1zm17.3-8.1c.1.1.2.1.2.2v.3l-.8 1.4c-.1.1-.2.2-.3.2-.1 0-.2 0-.3-.1-.4-.3-.7-.5-1.1-.6-.4-.1-.8-.2-1.3-.2-.6 0-1.1.1-1.6.3-.5.2-.9.5-1.3.9s-.6.8-.8 1.3c-.2.5-.3 1-.3 1.6 0 .6.1 1.1.3 1.6.2.5.5.9.8 1.3.4.4.8.7 1.3.9.5.2 1 .3 1.6.3.5 0 .9-.1 1.3-.2s.8-.3 1.2-.6c.1-.1.2-.1.3-.1.1 0 .2.1.3.2l.8 1.4c.1.1.1.2 0 .3 0 .1-.1.2-.2.2-.5.4-1.1.6-1.7.8-.6.2-1.3.3-1.9.3-.6 0-1.2-.1-1.7-.2-.6-.2-1.1-.4-1.6-.7-.5-.3-.9-.6-1.3-1s-.7-.8-1-1.3c-.3-.5-.5-1-.7-1.6-.2-.6-.2-1.1-.2-1.7 0-.6.1-1.2.2-1.7.2-.6.4-1.1.7-1.6.3-.5.6-.9 1-1.3s.8-.7 1.3-1c.5-.3 1-.5 1.6-.7.6-.2 1.1-.2 1.7-.2.7 0 1.3.1 1.9.3.5.3 1.1.6 1.6 1zM20.1 6.5c0-.6.1-1.2.2-1.7.2-.6.4-1.1.7-1.6.3-.5.6-.9 1-1.3s.8-.7 1.3-1c.5-.3 1-.5 1.6-.7.6-.1 1.1-.2 1.7-.2.6 0 1.2.1 1.7.2.6.2 1.1.4 1.6.7.5.3.9.6 1.3 1s.7.8 1 1.3c.3.5.5 1 .7 1.6.2.6.2 1.1.2 1.7 0 .6-.1 1.2-.2 1.7-.2.6-.4 1.1-.7 1.6-.3.5-.6.9-1 1.3s-.8.7-1.3 1c-.5.3-1 .5-1.6.7-.6.2-1.1.2-1.7.2-.6 0-1.2-.1-1.7-.2-.6-.2-1.1-.4-1.6-.7-.5-.3-.9-.6-1.3-1s-.7-.8-1-1.3c-.3-.5-.5-1-.7-1.6-.1-.5-.2-1-.2-1.7zm2.6 0c0 .6.1 1.1.3 1.6.2.5.5.9.8 1.3.4.4.8.7 1.3.9.5.2 1 .3 1.6.3.6 0 1.1-.1 1.6-.3.5-.2.9-.5 1.3-.9s.6-.8.8-1.3c.2-.5.3-1 .3-1.6 0-.6-.1-1.1-.3-1.6-.2-.5-.5-.9-.8-1.3-.4-.4-.8-.7-1.3-.9-.5-.2-1-.3-1.6-.3-.6 0-1.1.1-1.6.3-.5.2-.9.5-1.3.9s-.6.8-.8 1.3c-.3.5-.3 1.1-.3 1.6z"/></svg>