<svg xmlns="http://www.w3.org/2000/svg" xmlns:xlink="http://www.w3.org/1999/xlink" width="22" height="22" viewBox="0 0 22 22">
    <defs>
        <path id="a" d="M0 22V.7h17.068V22H0z"/>
        <path id="c" d="M3.796 13H.473V.854h3.322V13z"/>
    </defs>
    <g fill="none" fill-rule="evenodd">
        <g transform="rotate(180 11 11.35)">
            <mask id="b" fill="#fff">
                <use xlink:href="#a"/>
            </mask>
            <path fill="#1D1D1B" d="M0 9.368l.016 5.954c.003.396.106.787.303 1.13l2.9 4.965c.207.356.588.572.999.57 3.288-.024 7.912.002 10.765.013.906 0 1.456-.376 1.764-.693.207-.214.32-.501.32-.797V10.472c0-.287-.106-.567-.304-.778a12.82 12.82 0 0 1-1.207-1.561 28.3 28.3 0 0 1-2.15-3.75c-.022-.048-.022-1.467-.018-2.53A1.147 1.147 0 0 0 12.24.7h-1.58c-.424 0-.815.234-1.017.61a8.169 8.169 0 0 0-.824 2.204c-.142.61-.13 1.229-.071 1.849.085.906.558 2.842.558 2.842l-8.158.009A1.154 1.154 0 0 0 0 9.368" mask="url(#b)"/>
        </g>
        <g transform="rotate(180 2 6.85)">
            <mask id="d" fill="#fff">
                <use xlink:href="#c"/>
            </mask>
            <path fill="#1D1D1B" d="M.473 2.002v9.85A1.15 1.15 0 0 0 1.621 13h1.027c.633 0 1.147-.515 1.147-1.148v-9.85c0-.634-.514-1.148-1.147-1.148H1.62C.986.854.472 1.368.474 2.002" mask="url(#d)"/>
        </g>
    </g>
</svg>
